<?xml version="1.0" encoding="UTF-8"?>
<!DOCTYPE svg PUBLIC "-//W3C//DTD SVG 1.1//EN" "http://www.w3.org/Graphics/SVG/1.1/DTD/svg11.dtd">
<svg xmlns="http://www.w3.org/2000/svg" version="1.1" width="512px" height="512px" style="shape-rendering:geometricPrecision; text-rendering:geometricPrecision; image-rendering:optimizeQuality; fill-rule:evenodd; clip-rule:evenodd" xmlns:xlink="http://www.w3.org/1999/xlink">
<g><path style="opacity:0.933" fill="#020202" d="M 379.5,43.5 C 381.857,43.3367 384.19,43.5034 386.5,44C 407.333,64.8333 428.167,85.6667 449,106.5C 449.667,108.167 449.667,109.833 449,111.5C 442.22,118.955 434.887,125.621 427,131.5C 420.617,127.127 414.784,121.96 409.5,116C 408.833,115.333 408.167,115.333 407.5,116C 385.221,138.279 362.887,160.613 340.5,183C 352.667,195.167 364.833,207.333 377,219.5C 378.376,224.455 376.542,226.621 371.5,226C 365.667,220.167 359.833,214.333 354,208.5C 313.167,249.333 272.333,290.167 231.5,331C 227.018,334.287 222.018,335.287 216.5,334C 212.069,331.404 208.069,328.238 204.5,324.5C 200.682,327.818 197.015,331.318 193.5,335C 183.624,342.007 173.624,342.174 163.5,335.5C 145.347,353.153 127.347,370.986 109.5,389C 104.527,391.434 102.027,389.934 102,384.5C 120.5,366 139,347.5 157.5,329C 150.745,318.442 150.912,307.942 158,297.5C 161.349,294.318 164.516,290.985 167.5,287.5C 165.183,284.683 162.683,282.016 160,279.5C 156.667,273.833 156.667,268.167 160,262.5C 201,221.5 242,180.5 283,139.5C 283.667,138.833 283.667,138.167 283,137.5C 277.667,132.167 272.333,126.833 267,121.5C 265.67,116.502 267.504,114.336 272.5,115C 284.5,127 296.5,139 308.5,151C 309.167,151.667 309.833,151.667 310.5,151C 332.86,128.64 355.194,106.306 377.5,84C 371.042,78.218 365.375,71.8846 360.5,65C 360.667,64.1667 360.833,63.3333 361,62.5C 367.369,56.2981 373.536,49.9648 379.5,43.5 Z"/></g>
<g><path style="opacity:1" fill="#8ebefe" d="M 380.5,54.5 C 382.929,54.585 384.929,55.585 386.5,57.5C 402.833,73.8333 419.167,90.1667 435.5,106.5C 436.95,107.85 437.617,109.516 437.5,111.5C 434.833,114.833 431.833,117.833 428.5,120.5C 409.417,102.584 390.75,84.0841 372.5,65C 373.823,64.1841 374.489,63.0174 374.5,61.5C 376.132,58.8666 378.132,56.5333 380.5,54.5 Z"/></g>
<g><path style="opacity:1" fill="#fbfbfb" d="M 382.5,89.5 C 389.41,94.9043 395.91,100.904 402,107.5C 402.667,108.5 402.667,109.5 402,110.5C 379.86,132.64 357.694,154.806 335.5,177C 334.833,177.667 334.167,177.667 333.5,177C 327.167,170.667 320.833,164.333 314.5,158C 337.368,135.299 360.035,112.465 382.5,89.5 Z"/></g>
<g><path style="opacity:1" fill="#86b3e4" d="M 374.5,61.5 C 374.489,63.0174 373.823,64.1841 372.5,65C 390.75,84.0841 409.417,102.584 428.5,120.5C 428.217,121.289 427.717,121.956 427,122.5C 408.333,103.833 389.667,85.1667 371,66.5C 370.36,63.6318 371.527,61.9651 374.5,61.5 Z"/></g>
<g><path style="opacity:1" fill="#86b3e4" d="M 437.5,111.5 C 437.617,109.516 436.95,107.85 435.5,106.5C 419.167,90.1667 402.833,73.8333 386.5,57.5C 384.929,55.585 382.929,54.585 380.5,54.5C 381.314,52.7274 382.648,52.2274 384.5,53C 403.167,71.6667 421.833,90.3333 440.5,109C 439.627,110.045 438.627,110.878 437.5,111.5 Z"/></g>
<g><path style="opacity:1" fill="#8ebefd" d="M 288.5,145.5 C 288.81,146.738 289.31,146.738 290,145.5C 307.764,163.719 325.764,181.719 344,199.5C 345.128,201.345 345.628,203.345 345.5,205.5C 312.5,239.167 279.167,272.5 245.5,305.5C 225.629,287.297 206.295,268.297 187.5,248.5C 192.167,243.167 197.167,238.167 202.5,233.5C 208.242,239.249 214.242,244.583 220.5,249.5C 225.068,249.917 226.568,247.917 225,243.5C 218.985,237.652 213.152,231.652 207.5,225.5C 213.5,220.167 219.167,214.5 224.5,208.5C 228.985,212.485 233.318,216.651 237.5,221C 241.487,221.339 242.987,219.506 242,215.5C 237.984,211.652 234.151,207.652 230.5,203.5C 235.833,197.5 241.5,191.833 247.5,186.5C 253.652,192.152 259.652,197.985 265.5,204C 269.62,204.514 271.12,202.68 270,198.5C 263.985,192.652 258.152,186.652 252.5,180.5C 258.485,175.015 264.319,169.348 270,163.5C 274.167,167.667 278.333,171.833 282.5,176C 286.487,176.339 287.987,174.506 287,170.5C 282.984,166.652 279.151,162.652 275.5,158.5C 279.521,153.812 283.854,149.479 288.5,145.5 Z"/></g>
<g><path style="opacity:1" fill="#85b1e0" d="M 345.5,205.5 C 345.628,203.345 345.128,201.345 344,199.5C 325.764,181.719 307.764,163.719 290,145.5C 289.31,146.738 288.81,146.738 288.5,145.5C 288.517,143.972 289.184,143.472 290.5,144C 309.667,163.167 328.833,182.333 348,201.5C 348.279,203.412 347.446,204.746 345.5,205.5 Z"/></g>
<g><path style="opacity:1" fill="#fafafa" d="M 178.5,253.5 C 198.749,272.247 218.582,291.58 238,311.5C 238.667,312.167 238.667,312.833 238,313.5C 234.167,317.333 230.333,321.167 226.5,325C 223.634,326.457 220.634,326.79 217.5,326C 200.667,309.167 183.833,292.333 167,275.5C 165.578,272.97 165.245,270.303 166,267.5C 170.768,263.24 174.934,258.573 178.5,253.5 Z"/></g>
<g><path style="opacity:1" fill="#88b6e4" d="M 220.5,249.5 C 214.242,244.583 208.242,239.249 202.5,233.5C 197.167,238.167 192.167,243.167 187.5,248.5C 206.295,268.297 225.629,287.297 245.5,305.5C 245.217,306.289 244.717,306.956 244,307.5C 224.319,287.986 204.819,268.32 185.5,248.5C 190.833,242.5 196.5,236.833 202.5,231.5C 208.854,237.188 214.854,243.188 220.5,249.5 Z"/></g>
<g><path style="opacity:1" fill="#8dbcf9" d="M 172.5,293.5 C 173.552,293.351 174.552,293.517 175.5,294C 183.5,302 191.5,310 199.5,318C 194.622,324.224 188.622,328.89 181.5,332C 165.381,331.867 158.548,323.7 161,307.5C 164.29,302.378 168.123,297.711 172.5,293.5 Z"/></g>
</svg>
