<?xml version="1.0" encoding="UTF-8"?>
<svg version="1.1" viewBox="0 0 2048 1164" width="1280" height="1280" xmlns="http://www.w3.org/2000/svg">
<path transform="translate(462,468)" d="m0 0h1v109l-3-3-10-14-9-10-8-7-13-9-11-5-10-3-7-1h-14l-10 3-9 6-4 8-1 4v11l3 7 7 6 17 7 30 9 23 8 19 9 11 8 9 9 6 9 2 1v-156h93l-7 11-8 12-13 19-1 3v77l5-5 11-16 25-37 22-32 1-1v-5l-17-25v-1l88-1 128-1v2h-2l-2 4-9 12-16 21-4 6-1 203h45l2-6 19-38 10-19 20-40 2-3v157l-171 1 1 4 8 13 4 7 7 11 8 12 6 11 8 11 6 11 24 38 9 14 3 6-4-2-12-14-7-7-4-6-9-9-7-8-6-7-7-8-6-7-5-5-14-16-5-6-7-8-12-13-4-4-3-5-10-10-7-8-5-5-3-5-10-10-8-10-12-13-5-6-7-8-15-16-4-4-3-5-10-10-7-8-5-6-14-16-3-1v81l6 10 14 22 8 11v2h-91v-40h-4l-2 4-7 9-9 9-15 10-5 3-13 5-9 3-9 1-1 1-18 1-16-1-11-2-10-4-12-4-8-5-9-5-8-7-5 1-6 7 1 5 5 9h-20l-1 2-1-1-97-1 1-4 6-9 10-16 6-8 3-5v-14l-2-7-1-9-2-8-5-27-9 3-16 9-33 18-6 4h-2l-1 5-2 11-2 7-1 4 3 6 7 10 19 29v1h-113l2-5 9-14 10-16 7-12 2-10 3-9 2-10 2-7 5-19 2-8 2-9 2-7 14-55 17-67-1-6-14-20-11-16-4-6h114l4 13 23 87 15 56 5 21 3 9 5 20 4 14 6 23 2 7 3 6 4 1v-82h3l9 14 8 10 14 15 12 10 14 9 13 6 14 2 2 1h16l7-2 8-3 11-10 5-10v-23l-4-9-5-4-14-8-18-6-10-3-5-2-15-4-10-4-17-8-8-6-8-7-8-8-6-10-5-13-3-18v-9l3-19 6-16 8-12 9-10 10-8 14-8 15-5 11-2h25l15 3 15 5 15 8 5-1 17-12zm226 18-13 19-32 47-26 38-12 18 1 14 12 20 12 19 13 21 11 18 15 24 6 10 6 9 4 7 3 5h5l8-11 6-11 4-5 1-2v-209l-12-17-9-13zm-511 78-4 9-17 68v4h42l-1-8-10-40-8-30z" fill="#39BAC9"/>
<path transform="translate(1321,220)" d="m0 0h11l1 19v34l-1 1-22 4-17 6-17 9-12 10-9 12-5 12-2 6-1 8v13l3 16 7 14 10 11 13 9 16 8 15 6 19 6 78 20 33 11 25 12 16 11 12 11 8 10 5-2 10-7 16-8 16-6 21-5 22-2 23 1 18 3 20 6 17 8 14 9 10 8 12 11 10 11 10 14 6-19 7-14 9-11 11-10 13-8 12-5 18-4h25l15 3 17 6 13 7 5-1 17-12 6-4v109l-4-5-10-13-9-10-11-9-13-8-13-5-11-2h-14l-10 3-9 6-4 7-1 5v11l3 7 7 6 15 6 41 13 21 8 15 8 10 8 7 7 9 14 6 13 4 15 1 10v15l-1 11-1 1-2 10-5 12-6 11-4 5-7 8-7 7-15 10-12 6-14 4-1 1-12 2-18 1-2-1h-11l-12-2-9-3-13-5-8-5-9-5-8-7-4 1-21 21h-2v-63l-6 4-7 9-9 10-5 5h-3l-2 4-12 9-9 6-10 6-12 5-7 3-16 4-11 2-6 1h-31l-15-2-14-4-5-2-4-1-23-11-12-8-5-5-5-3-20-20-6-8-7-10-10-19-6-17-2-10-24 9-10 3v-49l1-9 17-10 12-11 6-10 3-10v-19l-4-11-6-9-10-9-12-7-26-10-29-8-60-15-36-12-20-9-18-11-14-11-9-9-10-14-8-16-5-15-3-16-1-10v-17l2-13 4-15 7-16 10-15 12-14 13-11 15-10 19-10 21-8 24-6zm267 309-18 3-17 7-14 10-8 7-11 14-4 9-4 15-6 14-1 9v12l2 16 5 16 9 17 13 15 10 8 12 7 9 4 12 3 13 1 4 1 21-2 15-5 15-8 13-11 10-11 9-14 6-16 3-13v-30l-4-16-5-12-7-12-11-12-7-7-14-9-14-6-13-3-8-1zm161 81-1 26-2 15-3 13v6l14 16 8 7 15 11 11 6 13 4 1 1 9 1 2 1 21-2 14-7 7-8 4-8 1-4v-18l-3-8-6-7-17-9-7-3-17-5-26-8-16-7-12-7-9-6z" fill="#6ECEC4"/>
<path transform="translate(101,474)" d="m0 0h114l4 13 23 87 15 56 5 21 3 9 5 20 4 14 6 23 2 7 3 6 4 1v-82h3l9 14 8 10 14 15 12 10 14 9 13 6 14 2 2 1h16l7-2 8-3 11-10 5-10 1-22 2 3 7 1 6-1 8-2h17l7 3 9 2 10 1 8 2 7 1 5 1h5l1 1 13-1 8-16h5l1 61 6 10 14 22 8 11v2h-91v-40h-4l-2 4-7 9-9 9-15 10-5 3-13 5-9 3-9 1-1 1-18 1-16-1-11-2-10-4-12-4-8-5-9-5-8-7-5 1-6 7 1 5 5 9h-20l-1 2-1-1-97-1 1-4 6-9 10-16 6-8 3-5v-14l-2-7-1-9-2-8-5-27-9 3-16 9-33 18-6 4h-2l-1 5-2 11-2 7-1 4 3 6 7 10 19 29v1h-113l2-5 9-14 10-16 7-12 2-10 3-9 2-10 2-7 5-19 2-8 2-9 2-7 14-55 17-67-1-6-14-20-11-16zm76 90-4 9-17 68v4h42l-1-8-10-40-8-30z" fill="#39BAC9"/>
<path transform="translate(1321,220)" d="m0 0h11l1 19v34l-1 1-22 4-17 6-17 9-12 10-9 12-5 12-2 6-1 8v13l3 16 7 14 10 11 13 9 16 8 15 6 19 6 78 20 33 11 25 12 16 11 12 11 8 10v2h2l8 15 5 17 2 15v20l-3 16-5 15-6 12-9 11-11 11-14 10-21 11-37 13h-1v-49l1-9 17-10 12-11 6-10 3-10v-19l-4-11-6-9-10-9-12-7-26-10-29-8-60-15-36-12-20-9-18-11-14-11-9-9-10-14-8-16-5-15-3-16-1-10v-17l2-13 4-15 7-16 10-15 12-14 13-11 15-10 19-10 21-8 24-6z" fill="#026982"/>
<path transform="translate(874,472)" d="m0 0 198 1 1 1v121h-2l-13-22-11-17-15-24-4-7-62-1v77l9-5 17-12 28-20h1v94l-4-2-10-8-16-12-13-10-10-7h-1l-1 103 61-1 7-11 15-26 14-24 11-19 4-7h1v137h-203l5-9 6-9 10-16 7-11v-139l-1-72-11-15-16-24z" fill="#07A9CF"/>
<path transform="translate(1091,473)" d="m0 0h138l22 3 17 5 15 8 13 11 10 13 8 17 4 17 1 17-2 17-5 16-8 15-11 12-8 8-16 9-11 4-13 3-13 2-8 1h-41l1 76 9 12 9 13 12 17 1 2h-123l7-11 8-13 8-12 5-8v-210l-8-12-13-19-8-11zm93 51-1 5v71h25l20-2 9-3 9-7 7-10 3-11v-12l-3-10-6-8-8-6-10-4-12-2-11-1z" fill="#39BAC9"/>
<path transform="translate(290,648)" d="m0 0 3 3 8 12 8 10 14 15 12 10 14 9 13 6 14 2 2 1h16l7-2 8-3 11-10 5-10 1-22 2 3 7 1 6-1 8-2h17l7 3 9 2 10 1 8 2 7 1 5 1h5l1 1 13-1 8-16h5l1 61 6 10 14 22 8 11v2h-91v-40h-4l-2 4-7 9-9 9-15 10-5 3-13 5-9 3-9 1-1 1-18 1-16-1-11-2-10-4-12-4-8-5-9-5-8-7-5 1-6 7 1 5 5 9h-20l-1 2-1-1-97-1 1-4 6-9 10-16 6-8 3-5v-14l-2-7-1-9-2-8-2-9v-7l3 1 5-1 6 1 1 2h24l4-1 2-5 1-3h2l1-2 7 5h1l5 21 4 13 4 18 4 7 4 1v-82z" fill="#6ECEC4"/>
<path transform="translate(1899,468)" d="m0 0h1v109l-4-5-10-13-9-10-11-9-13-8-13-5-11-2h-14l-10 3-9 6-4 7-1 5v11l1 7h-6l-5 8-2 1-11 1-17-1h-15l-11-1-7-3-19-1h-4v2l-4 1-1 2-13-1-1 3h-2l-9-13-13-13-14-9-14-6-13-3-8-1h-15l-18 3-17 7-14 10-7 6-11 14-3 3v-25l-3-19-5-15-6-11v-2l-2-1 15-10 16-8 16-6 21-5 22-2 23 1 18 3 20 6 17 8 14 9 10 8 12 11 10 11 10 14 6-19 7-14 9-11 11-10 13-8 12-5 18-4h25l15 3 17 6 13 7 5-1 17-12z" fill="#07A9CF"/>
<path transform="translate(871,614)" d="m0 0h1v157l-171 1 1 4 8 13 4 7 7 11 8 12 6 11 8 11 6 11 24 38 9 14 3 6-4-2-12-14-7-7-4-6-9-9-7-8-6-7-7-8-6-7-5-5-14-16-5-6-7-8-12-13-4-4-3-5-10-10-7-8-5-5-3-5-10-10-8-10-12-13-5-6-7-8-15-16-4-4-3-5-4-4v-5l4-2 4 1v2h12l4 1v-2l14 1 4 1 1-10h2v-2l4-1 6 6v2l3-1 12 20 8 13 12 19 6 10 6 9 4 7 2 2v3l6-2 4-7 10-15 3-5 1-46h1v6h2l2-5 5-5 4-3 10-2 5 2 10 1 5 6 3-1v-1l6-1 2-4 5 2 1-44h1v89h45l2-6 19-38 10-19 20-40z" fill="#6ECEC4"/>
<path transform="translate(1365,47)" d="m0 0h19l11 4 8 6 7 10 4 13 1 7v27l-4 29-4 20-1 8-4 161-2 92-2 1-43-11-2-1-1-20-5-216-2-20-7-36-2-15v-25l4-15 7-10 9-6z" fill="#026982"/>
<path transform="translate(806,472)" d="m0 0h2v2h-2l-2 4-9 12-16 21-4 6-1 114-1 45-6-2-2 4-5 1-4 2-5-6-13-2-4-1-10 3-5 4-4 7h-2l-1-6-1-163-12-17-9-13h-2l-12 18-32 47-11 16-4 2-1-4-4 2-9 6-5 3-19-1-8-4-1-3 1-3-3-1v-5l-3-5 1-5 8-12 22-32 1-1v-5l-17-25v-1l88-1z" fill="#06A9CF"/>
<path transform="translate(1786,563)" d="m0 0h7l8 7 15 6 41 13 21 8 15 8 10 8 7 7 9 14 6 13 3 11v8l-6 1-1 5h-2l1 3-3 5-12 2-9-1-5-2v-2l-5-2-6-1h-13v-2l-4-1-6-12-5-4-15-8-7-3-17-5-26-8-16-7-12-7-9-6-1 25-2 15-3 13v8l-5-1-7 10-7 1-7-1-20-3-4-5-9-2h-4l-6 1-1-3 5-10 4-13 2-9v-30l-4-16-5-12-1-4 4-4 11 1 5-2v-2l10-1 13 1 7 3 11 1h22l11 1 10-1 4-4z" fill="#39BAC9"/>
<path transform="translate(1091,473)" d="m0 0h138l22 3 17 5 15 8 13 11 10 13 8 17 4 17 1 17-2 3-3-1v2h-3l-2 4-8 4h-10l-13-1-7-1-1-4-7-1-7 2-1-16-3-10-6-8-9-6-13-4-18-2-22-1-1 53h-2l-1-4-5-2-6 2v2l-4 2-7-1-6-1-4 1h-16l-4 4-3 6-2 7h-1l-1-16-1-60-8-12-13-19-8-11z" fill="#06A9CF"/>
<path transform="translate(1078,634)" d="m0 0h1v137h-203l5-9 6-9 10-16 7-11 1-33 4-12 3-4 5-4 7-1 20 1 4 4 4 1 1-3 3-1 4-6 5 1 1 1v52l61-1 7-11 15-26 14-24 11-19z" fill="#6ECEC4"/>
<path transform="translate(1337,635)" d="m0 0h4l1 35v18l-19 10-8 8-3 9v7l3 9 9 10 12 7 25 9 35 12 19 9 12 8 10 9 7 11 3 9 1 11-3 15-6 11-9 10-12 9-8 5h-2l-1-51-3-5-10-6-11-5-37-13-33-11-21-10-14-10-8-8-8-13-4-13-1-7v-12l3-15 5-13 7-10 5-6 11-9 14-9 19-9z" fill="#026982"/>
<path transform="translate(462,468)" d="m0 0h1v109l-3-3-10-14-9-10-8-7-13-9-11-5-10-3-7-1h-14l-10 3-9 6-4 8-1 4v11l3 9-4-3-5 1v2h-2v5l-5 4-8 1-6-2h-9l-3 2h-19v-2l-4-1-2-7-1-8v-9l3-19 6-16 8-12 9-10 10-8 14-8 15-5 11-2h25l15 3 15 5 15 8 5-1 17-12z" fill="#07A9CF"/>
<path transform="translate(1420,228)" d="m0 0 10 2 20 8 20 9 28 8 17 8 13 10 12 12 13 17 9 13 4 11 6 20 7 16 1 9 1 6 6 10 8 8 11 5 13 2-3 2-11-1-10-2 4 14-1 4-8-16-9-14-8-9-13-1-12-4-16-8-22-13-24-16-14-11-10-10-8-10-10-9-15-9-10-5zm84 69 2 4 7 8 10 10 11 2-2-5-11-19z" fill="#026982"/>
<path transform="translate(101,474)" d="m0 0h114l4 13 20 75v5h-2l-3-4-2 1-1 3h-2l-1 3-6 3-17 2-2 1h-12-2l-2 6-3 1-3-5-4-13-3 1-1 4h-2l-2-2h-2v2l-5 3-12 3v-2h-8l-6-4-2-4-2-1v-2l-5 3-5 5-3 1 2-11 10-39-1-6-14-20-11-16z" fill="#06A9CF"/>
<path transform="translate(963,562)" d="m0 0 3 1v38l9-5 17-12 28-20h1v94l-4-2-10-8-16-12-13-10-10-7h-1l-1 51-6-1-4 6-3 1-1 2-5-1v-2l-3-1-20-1-9 2-5 6-4 12h-1v-96l2-4 2-10 3-6 5-2h5l2 1 3-1h16l9-3 7-9z" fill="#39BAC9"/>
<path transform="translate(1355,510)" d="m0 0 18 4 23 7 1 1v50l-3 151-1 27-9-2-24-8-1-16-4-190z" fill="#026A83"/>
<path transform="translate(1182,651)" d="m0 0h1l1 76 9 12 9 13 12 17 1 2h-123l7-11 8-13 8-12 5-8 1-59h1v19h2l1-5 3-5 7-4 7-1 5-1 1 2 13 2 5 4 5-1 3-1 1-5 5 1 1 1z" fill="#6ECEC4"/>
<path transform="translate(101,670)" d="m0 0h9l5 2v2l5 1 1 1 13 2 8 4v-2h10l9-2h4l2 6-22 12-3 1-1 5-2 11-2 7-1 4 3 6 7 10 19 29v1h-113l2-5 9-14 10-16 7-12 2-10 3-9 2-10 2-7 4-16 3 2z" fill="#6DCDC4"/>
<path transform="translate(482,474)" d="m0 0h92l-7 11-8 12-13 19-1 3-1 33-1 10-5 3-4 6-5 4-10 1-15-1-13-4h-2l-2 4h-3l-1 4-1-4z" fill="#06A9CF"/>
<path transform="translate(1361,818)" d="m0 0 11 3 19 8v57l-3 163-2 17-4 10-3 3h-5l-5-8-3-13-1-26-4-205z" fill="#036A83"/>
<path transform="translate(773,565)" d="m0 0h1v66l-1 45-6-2-2 4-5 1-4 2-5-6-13-2-4-1-10 3-5 4-4 7h-2l-1-6v-82l2 1 2-14 4-8 4-2 14-3 8 1 7 2h5l10-6 3 1 1 3z" fill="#39BACA"/>
<path transform="translate(1505,609)" d="m0 0h1v20l2 16 5 16 3 6v4h-2l-4-4-4 1-1 9-2 2h-7l-14-2-7-3h-15l-3 2-2 3-3-2-6-20 1-3 19-9 15-10 12-11 8-9z" fill="#39BAC9"/>
<path transform="translate(1343,875)" d="m0 0h3v30l-18 11-13 10-8 8-9 13-7 15-2 4-1-2 1-20 4-16 6-14 8-11 8-9 13-10z" fill="#036B84"/>
<path transform="translate(871,614)" d="m0 0h1v47l-10 7-9 1-4 3-5 1 1-6 25-50z" fill="#3ABAC9"/>
<path transform="translate(1078,634)" d="m0 0h1v32h-2l-1-4-4 1-2 3-6 3-5 2 1-6 13-22z" fill="#3BBBC9"/>
<path transform="translate(1071,551)" d="m0 0h1l1 44h-2l-11-18 2-1v-3l3-3h2l1-2 2 1z" fill="#3BBAC9"/>
<path transform="translate(290,648)" d="m0 0 3 3 8 12 3 4-1 2-1-3-4-2-7-3z" fill="#40BCC9"/>
<path transform="translate(1601,399)" d="m0 0 9 2 9 1-3 2-11-1-4-2z" fill="#21A7BF"/>
<path transform="translate(784,911)" d="m0 0 4 2-1 2z" fill="#66CBC4"/>
</svg>
