<?xml version="1.0" encoding="UTF-8"?>
<!DOCTYPE svg PUBLIC "-//W3C//DTD SVG 1.1//EN" "http://www.w3.org/Graphics/SVG/1.1/DTD/svg11.dtd">
<svg xmlns="http://www.w3.org/2000/svg" version="1.1" width="1312px" height="762px" style="shape-rendering:geometricPrecision; text-rendering:geometricPrecision; image-rendering:optimizeQuality; fill-rule:evenodd; clip-rule:evenodd" xmlns:xlink="http://www.w3.org/1999/xlink">
<g><path style="opacity:1" fill="#0890b3" d="M 877.5,61.5 C 889.999,62.4874 897.833,69.1541 901,81.5C 902.725,100.146 901.058,118.479 896,136.5C 894.317,190.824 893.15,245.157 892.5,299.5C 892.158,300.338 891.492,300.672 890.5,300.5C 881.491,297.619 872.324,294.952 863,292.5C 861.227,240.845 859.893,189.178 859,137.5C 855.43,122.342 852.93,107.009 851.5,91.5C 850.679,79.9259 854.679,70.5926 863.5,63.5C 868.033,62.0165 872.699,61.3498 877.5,61.5 Z"/></g>
<g><path style="opacity:0.535" fill="#020303" d="M 863.5,63.5 C 854.679,70.5926 850.679,79.9259 851.5,91.5C 852.93,107.009 855.43,122.342 859,137.5C 859.893,189.178 861.227,240.845 863,292.5C 872.324,294.952 881.491,297.619 890.5,300.5C 890.503,305.815 887.836,307.815 882.5,306.5C 876.17,303.917 869.503,302.251 862.5,301.5C 860.051,300.209 857.384,299.209 854.5,298.5C 854.167,296.333 853.833,294.167 853.5,292C 852.387,263.178 851.72,234.345 851.5,205.5C 852.167,205.5 852.5,205.167 852.5,204.5C 853.144,192.784 852.478,181.451 850.5,170.5C 850.185,159.828 849.685,149.161 849,138.5C 844.278,121.119 842.278,103.453 843,85.5C 844.863,73.4724 851.696,66.139 863.5,63.5 Z"/></g>
<g><path style="opacity:0.976" fill="#686cb3" d="M 877.5,61.5 C 891.763,61.0417 900.596,67.7084 904,81.5C 905.978,99.3738 904.645,117.041 900,134.5C 898.79,148.808 898.29,163.141 898.5,177.5C 897.519,191.088 897.185,204.754 897.5,218.5C 896.814,245.501 895.981,272.501 895,299.5C 894.23,300.598 893.397,300.598 892.5,299.5C 893.15,245.157 894.317,190.824 896,136.5C 901.058,118.479 902.725,100.146 901,81.5C 897.833,69.1541 889.999,62.4874 877.5,61.5 Z"/></g>
<g><path style="opacity:1" fill="#1d9aba" d="M 850.5,170.5 C 849.856,182.216 850.522,193.549 852.5,204.5C 852.5,205.167 852.167,205.5 851.5,205.5C 850.5,205.5 849.5,205.5 848.5,205.5C 839.612,206.246 831.279,208.579 823.5,212.5C 817.631,214.596 812.631,217.929 808.5,222.5C 795.692,235.317 792.525,250.317 799,267.5C 807.309,281.632 819.475,290.632 835.5,294.5C 844.378,297.303 853.378,299.636 862.5,301.5C 868.906,303.768 875.573,305.435 882.5,306.5C 891.416,309.135 900.416,311.802 909.5,314.5C 920.482,319.159 931.148,324.659 941.5,331C 948.069,336.067 953.735,341.9 958.5,348.5C 966.103,363.272 968.603,378.938 966,395.5C 960.774,418.733 946.941,434.567 924.5,443C 925.094,443.464 925.761,443.631 926.5,443.5C 925.449,444.222 924.782,445.222 924.5,446.5C 923.844,445.722 923.011,445.056 922,444.5C 914.795,447.068 907.628,449.735 900.5,452.5C 899.334,440.18 899.167,427.847 900,415.5C 911.359,410.808 919.359,402.808 924,391.5C 926.67,374.008 919.837,361.841 903.5,355C 897.321,352.273 890.987,349.94 884.5,348C 858.053,342.222 832.053,334.888 806.5,326C 760.122,305.409 744.622,270.909 760,222.5C 771.136,201.7 787.636,187.033 809.5,178.5C 822.814,173.415 836.481,170.749 850.5,170.5 Z"/></g>
<g><path style="opacity:1" fill="#5b5cad" d="M 850.5,170.5 C 852.478,181.451 853.144,192.784 852.5,204.5C 850.522,193.549 849.856,182.216 850.5,170.5 Z"/></g>
<g><path style="opacity:1" fill="#0c90b3" d="M 906.5,175.5 C 916.342,178.958 926.009,183.125 935.5,188C 945.459,190.403 955.125,193.57 964.5,197.5C 977.323,207.782 987.823,220.116 996,234.5C 997,238.833 998,243.167 999,247.5C 1003.55,254.143 1005.88,261.477 1006,269.5C 1010.05,278.889 1016.88,283.889 1026.5,284.5C 1028.92,284.192 1031.26,284.526 1033.5,285.5C 1031.6,286.466 1029.6,286.799 1027.5,286.5C 1024.83,286.5 1022.17,286.5 1019.5,286.5C 1019.5,285.833 1019.17,285.5 1018.5,285.5C 1017.28,284.972 1016.11,284.305 1015,283.5C 1014.83,283.833 1014.67,284.167 1014.5,284.5C 1016.28,287.289 1017.28,289.955 1017.5,292.5C 1019.25,297.748 1018.59,298.415 1015.5,294.5C 1015.67,293.508 1015.34,292.842 1014.5,292.5C 1011.58,284.838 1007.25,278.005 1001.5,272C 994.515,271.587 987.849,269.92 981.5,267C 967.326,259.083 953.66,250.416 940.5,241C 934.134,234.969 928.134,228.636 922.5,222C 917.081,217.871 911.248,214.371 905,211.5C 904.5,200.172 904.333,188.838 904.5,177.5C 904.5,176.167 905.167,175.5 906.5,175.5 Z"/></g>
<g><path style="opacity:0.523" fill="#010101" d="M 898.5,177.5 C 900.5,177.5 902.5,177.5 904.5,177.5C 904.333,188.838 904.5,200.172 905,211.5C 911.248,214.371 917.081,217.871 922.5,222C 928.134,228.636 934.134,234.969 940.5,241C 953.66,250.416 967.326,259.083 981.5,267C 987.849,269.92 994.515,271.587 1001.5,272C 1007.25,278.005 1011.58,284.838 1014.5,292.5C 1014.33,293.492 1014.66,294.158 1015.5,294.5C 1018.24,300.836 1016.24,303.669 1009.5,303C 1004.82,293.974 999.156,285.641 992.5,278C 987.35,277.732 982.35,276.732 977.5,275C 960.996,266.587 945.33,256.92 930.5,246C 924.5,239.667 918.5,233.333 912.5,227C 907.77,223.636 902.77,220.803 897.5,218.5C 897.185,204.754 897.519,191.088 898.5,177.5 Z"/></g>
<g><path style="opacity:0.503" fill="#010102" d="M 809.5,178.5 C 787.636,187.033 771.136,201.7 760,222.5C 744.622,270.909 760.122,305.409 806.5,326C 832.053,334.888 858.053,342.222 884.5,348C 890.987,349.94 897.321,352.273 903.5,355C 919.837,361.841 926.67,374.008 924,391.5C 919.359,402.808 911.359,410.808 900,415.5C 899.167,427.847 899.334,440.18 900.5,452.5C 907.628,449.735 914.795,447.068 922,444.5C 923.011,445.056 923.844,445.722 924.5,446.5C 924.41,449.152 925.076,451.485 926.5,453.5C 926.595,455.786 927.262,457.786 928.5,459.5C 929.46,464.086 931.46,468.086 934.5,471.5C 936.338,476.665 939.338,480.999 943.5,484.5C 947.167,490.167 951.833,494.833 957.5,498.5C 958.585,500.587 960.251,501.92 962.5,502.5C 964.147,504.326 966.147,505.66 968.5,506.5C 976.17,512.33 984.837,515.997 994.5,517.5C 997.577,518.856 1000.91,519.689 1004.5,520C 1013.34,520.824 1022.01,520.657 1030.5,519.5C 1033.06,519.802 1035.39,519.468 1037.5,518.5C 1040.5,518.706 1043.16,518.04 1045.5,516.5C 1051.8,515.514 1057.46,513.18 1062.5,509.5C 1066.75,507.904 1070.75,505.904 1074.5,503.5C 1056.77,519.637 1035.77,527.303 1011.5,526.5C 968.036,525.185 937.203,504.852 919,465.5C 917.316,461.284 916.149,456.951 915.5,452.5C 909.832,454.222 904.165,456.056 898.5,458C 896.527,458.495 894.527,458.662 892.5,458.5C 892.2,444.118 892.534,429.785 893.5,415.5C 906.268,410.576 913.601,401.41 915.5,388C 913.915,374.911 906.915,366.078 894.5,361.5C 894.158,360.662 893.492,360.328 892.5,360.5C 891.07,359.463 889.403,358.796 887.5,358.5C 887.5,357.833 887.167,357.5 886.5,357.5C 885.833,357.5 885.167,357.5 884.5,357.5C 884.5,356.833 884.167,356.5 883.5,356.5C 883.167,356.5 882.833,356.5 882.5,356.5C 881.791,355.596 880.791,355.263 879.5,355.5C 879.167,355.5 878.833,355.5 878.5,355.5C 878.158,354.662 877.492,354.328 876.5,354.5C 876.167,354.5 875.833,354.5 875.5,354.5C 874.791,353.596 873.791,353.263 872.5,353.5C 871.432,352.566 870.099,352.232 868.5,352.5C 854.392,348.389 840.059,344.722 825.5,341.5C 825.167,341.5 824.833,341.5 824.5,341.5C 824.5,340.833 824.167,340.5 823.5,340.5C 814.241,334.969 804.241,331.636 793.5,330.5C 793.5,329.833 793.167,329.5 792.5,329.5C 792.167,329.5 791.833,329.5 791.5,329.5C 757.334,312.52 741.834,284.853 745,246.5C 750.915,215.198 768.748,193.698 798.5,182C 802.021,180.326 805.687,179.16 809.5,178.5 Z"/></g>
<g><path style="opacity:0.506" fill="#7a86c1" d="M 906.5,175.5 C 910.319,175.605 913.986,176.438 917.5,178C 933.598,185.414 949.931,191.914 966.5,197.5C 965.833,197.5 965.167,197.5 964.5,197.5C 955.125,193.57 945.459,190.403 935.5,188C 926.009,183.125 916.342,178.958 906.5,175.5 Z"/></g>
<g><path style="opacity:0.306" fill="#0a0a0e" d="M 848.5,205.5 C 848.739,207.467 848.406,209.301 847.5,211C 834.644,212.342 822.644,216.175 811.5,222.5C 815.131,218.69 819.131,215.357 823.5,212.5C 831.279,208.579 839.612,206.246 848.5,205.5 Z"/></g>
<g><path style="opacity:0.803" fill="#696db6" d="M 964.5,197.5 C 965.167,197.5 965.833,197.5 966.5,197.5C 971.404,200.23 975.904,203.564 980,207.5C 985,213.833 990,220.167 995,226.5C 999.237,237.261 1003.4,248.094 1007.5,259C 1007.91,271.908 1014.24,280.408 1026.5,284.5C 1016.88,283.889 1010.05,278.889 1006,269.5C 1005.88,261.477 1003.55,254.143 999,247.5C 998,243.167 997,238.833 996,234.5C 987.823,220.116 977.323,207.782 964.5,197.5 Z"/></g>
<g><path style="opacity:0.761" fill="#494d80" d="M 823.5,212.5 C 819.131,215.357 815.131,218.69 811.5,222.5C 810.833,223.833 809.833,224.833 808.5,225.5C 808.5,224.5 808.5,223.5 808.5,222.5C 812.631,217.929 817.631,214.596 823.5,212.5 Z"/></g>
<g><path style="opacity:1" fill="#f1f4f9" d="M 960.5,219.5 C 963.247,219.187 965.914,219.52 968.5,220.5C 970.969,224.801 973.636,228.967 976.5,233C 975.207,233.49 973.873,233.657 972.5,233.5C 968.103,229.108 964.103,224.442 960.5,219.5 Z"/></g>
<g><path style="opacity:0.927" fill="#6e72b8" d="M 808.5,222.5 C 808.5,223.5 808.5,224.5 808.5,225.5C 804.111,230.278 801.278,235.945 800,242.5C 796.821,258.956 801.654,272.456 814.5,283C 821.273,287.384 828.273,291.217 835.5,294.5C 819.475,290.632 807.309,281.632 799,267.5C 792.525,250.317 795.692,235.317 808.5,222.5 Z"/></g>
<g><path style="opacity:1" fill="#5964b0" d="M 960.5,219.5 C 964.103,224.442 968.103,229.108 972.5,233.5C 971.448,233.649 970.448,233.483 969.5,233C 965.318,228.985 961.318,224.818 957.5,220.5C 958.325,219.614 959.325,219.281 960.5,219.5 Z"/></g>
<g><path style="opacity:1" fill="#6e6fad" d="M 1018.5,285.5 C 1018.5,285.833 1018.5,286.167 1018.5,286.5C 1018.59,288.786 1019.26,290.786 1020.5,292.5C 1020.81,294.226 1020.98,295.893 1021,297.5C 1019.81,295.767 1018.64,294.1 1017.5,292.5C 1017.28,289.955 1016.28,287.289 1014.5,284.5C 1014.67,284.167 1014.83,283.833 1015,283.5C 1016.11,284.305 1017.28,284.972 1018.5,285.5 Z"/></g>
<g><path style="opacity:0.25" fill="#020202" d="M 1018.5,286.5 C 1018.83,286.5 1019.17,286.5 1019.5,286.5C 1022.17,286.5 1024.83,286.5 1027.5,286.5C 1028.75,288.339 1028.75,290.172 1027.5,292C 1025.19,292.497 1022.86,292.663 1020.5,292.5C 1019.26,290.786 1018.59,288.786 1018.5,286.5 Z"/></g>
<g><path style="opacity:0.412" fill="#7fd1e5" d="M 305.5,327.5 C 305.56,326.957 305.893,326.624 306.5,326.5C 307.666,350.16 307.833,373.826 307,397.5C 305.955,396.627 305.122,395.627 304.5,394.5C 306.48,382.545 307.146,370.212 306.5,357.5C 306.827,347.319 306.494,337.319 305.5,327.5 Z"/></g>
<g><path style="opacity:0.412" fill="#7fd1e5" d="M 1208.5,327.5 C 1208.56,326.957 1208.89,326.624 1209.5,326.5C 1210.67,350.16 1210.83,373.826 1210,397.5C 1208.96,396.627 1208.12,395.627 1207.5,394.5C 1209.48,382.88 1210.15,370.88 1209.5,358.5C 1209.83,347.986 1209.49,337.653 1208.5,327.5 Z"/></g>
<g><path style="opacity:0.999" fill="#0ea6cf" d="M 287.5,335.5 C 288.314,337.273 289.648,337.773 291.5,337C 295.08,334.723 298.414,332.223 301.5,329.5C 302.605,328.4 303.938,327.733 305.5,327.5C 306.494,337.319 306.827,347.319 306.5,357.5C 272.851,356.901 239.351,356.901 206,357.5C 204.624,357.316 203.791,356.649 203.5,355.5C 209.173,345.16 217.173,337.16 227.5,331.5C 247.969,323.996 267.969,325.33 287.5,335.5 Z"/></g>
<g><path style="opacity:0.999" fill="#0fa7cf" d="M 1087.5,356.5 C 1053.95,357.351 1020.12,357.351 986,356.5C 979.46,357.899 972.96,358.899 966.5,359.5C 964.685,355.204 962.352,351.204 959.5,347.5C 959.5,347.167 959.5,346.833 959.5,346.5C 965.871,341.982 972.538,337.982 979.5,334.5C 998.877,327.45 1018.88,325.617 1039.5,329C 1058.74,332.78 1074.74,341.946 1087.5,356.5 Z"/></g>
<g><path style="opacity:0.999" fill="#0ea6cf" d="M 1190.5,335.5 C 1191.31,337.273 1192.65,337.773 1194.5,337C 1198.08,334.723 1201.41,332.223 1204.5,329.5C 1205.6,328.4 1206.94,327.733 1208.5,327.5C 1209.49,337.653 1209.83,347.986 1209.5,358.5C 1207.21,358.244 1205.04,358.577 1203,359.5C 1201,358.833 1199,358.167 1197,357.5C 1171.38,358.123 1145.54,358.29 1119.5,358C 1118.58,357.626 1117.75,357.126 1117,356.5C 1115.26,357.127 1113.43,357.46 1111.5,357.5C 1109.36,357.444 1107.69,356.777 1106.5,355.5C 1112.17,345.16 1120.17,337.16 1130.5,331.5C 1150.97,323.996 1170.97,325.33 1190.5,335.5 Z"/></g>
<g><path style="opacity:0.247" fill="#040505" d="M 301.5,329.5 C 298.414,332.223 295.08,334.723 291.5,337C 289.648,337.773 288.314,337.273 287.5,335.5C 290.621,333.552 293.621,331.385 296.5,329C 298.387,328.22 300.054,328.387 301.5,329.5 Z"/></g>
<g><path style="opacity:0.247" fill="#040505" d="M 1204.5,329.5 C 1201.41,332.223 1198.08,334.723 1194.5,337C 1192.65,337.773 1191.31,337.273 1190.5,335.5C 1193.62,333.552 1196.62,331.385 1199.5,329C 1201.39,328.22 1203.05,328.387 1204.5,329.5 Z"/></g>
<g><path style="opacity:0.275" fill="#9fdded" d="M 151.5,330.5 C 127.328,330.169 103.328,330.502 79.5,331.5C 79.1667,331.5 78.8333,331.5 78.5,331.5C 90.3145,330.168 102.481,329.501 115,329.5C 127.338,329.5 139.505,329.833 151.5,330.5 Z"/></g>
<g><path style="opacity:0.275" fill="#a0dded" d="M 443.5,329.5 C 424.833,330.167 406.167,330.833 387.5,331.5C 387.167,331.5 386.833,331.5 386.5,331.5C 405.137,329.513 424.137,328.846 443.5,329.5 Z"/></g>
<g><path style="opacity:0.998" fill="#0ca7ce" d="M 443.5,329.5 C 470.175,329.167 496.842,329.5 523.5,330.5C 516.859,339.642 510.025,348.642 503,357.5C 502.502,360.482 502.335,363.482 502.5,366.5C 501.518,369.962 501.185,373.629 501.5,377.5C 488.833,377.5 476.167,377.5 463.5,377.5C 463.5,383.167 463.5,388.833 463.5,394.5C 463.5,398.167 463.5,401.833 463.5,405.5C 463.167,405.5 462.833,405.5 462.5,405.5C 462.667,389.497 462.5,373.497 462,357.5C 457.662,351.004 453.162,344.671 448.5,338.5C 445.974,341.557 443.974,344.891 442.5,348.5C 437.5,355.167 432.5,361.833 427.5,368.5C 424.493,367.313 421.826,367.98 419.5,370.5C 418.045,369.61 416.711,369.61 415.5,370.5C 414.808,369.975 414.308,369.308 414,368.5C 412.991,369.658 411.658,370.325 410,370.5C 407.841,369.883 405.841,369.883 404,370.5C 403.055,370.095 402.388,369.428 402,368.5C 400.057,370.715 398.391,370.715 397,368.5C 396,371.167 395,371.167 394,368.5C 393.5,369 393,369.5 392.5,370C 390.343,370.078 388.343,370.245 386.5,370.5C 385.913,369.767 385.913,368.767 386.5,367.5C 390.228,361.054 394.228,354.721 398.5,348.5C 395.072,342.635 391.405,336.968 387.5,331.5C 406.167,330.833 424.833,330.167 443.5,329.5 Z"/></g>
<g><path style="opacity:0.998" fill="#04a6cf" d="M 689.5,329.5 C 689.5,342.5 689.5,355.5 689.5,368.5C 682.305,368.617 675.471,368.283 669,367.5C 667.887,368.305 666.721,368.972 665.5,369.5C 664.19,367.565 662.857,365.565 661.5,363.5C 648.851,362.501 636.184,362.168 623.5,362.5C 623.5,364.167 623.5,365.833 623.5,367.5C 622.833,367.5 622.5,367.833 622.5,368.5C 610.526,367.781 597.86,367.781 584.5,368.5C 584.5,372.167 584.5,375.833 584.5,379.5C 584.167,379.5 583.833,379.5 583.5,379.5C 583.666,372.159 583.5,364.826 583,357.5C 577.057,348.591 570.89,339.924 564.5,331.5C 564.389,330.883 564.056,330.383 563.5,330C 605.499,329.5 647.499,329.333 689.5,329.5 Z"/></g>
<g><path style="opacity:0.143" fill="#bde8f1" d="M 689.5,329.5 C 690.829,355.67 690.829,382.003 689.5,408.5C 688.893,408.376 688.56,408.043 688.5,407.5C 689.495,394.677 689.829,381.677 689.5,368.5C 689.5,355.5 689.5,342.5 689.5,329.5 Z"/></g>
<g><path style="opacity:0.998" fill="#08a6cf" d="M 791.5,329.5 C 791.833,329.5 792.167,329.5 792.5,329.5C 793.167,329.5 793.5,329.833 793.5,330.5C 804.241,331.636 814.241,334.969 823.5,340.5C 824.167,340.5 824.5,340.833 824.5,341.5C 824.833,341.5 825.167,341.5 825.5,341.5C 829.929,345.593 833.596,350.259 836.5,355.5C 836.209,356.649 835.376,357.316 834,357.5C 795.798,357.511 757.298,357.177 718.5,356.5C 712.733,347.952 706.733,339.619 700.5,331.5C 700.389,330.883 700.056,330.383 699.5,330C 730.165,329.5 760.832,329.333 791.5,329.5 Z"/></g>
<g><path style="opacity:1" fill="#07a6cf" d="M 151.5,330.5 C 153.658,338.799 155.658,347.132 157.5,355.5C 154.402,356.821 150.902,357.488 147,357.5C 136.397,357.458 125.731,357.124 115,356.5C 109.586,357.526 104.086,358.192 98.5,358.5C 98.7845,360.415 98.4511,362.081 97.5,363.5C 97.7525,360.68 97.2525,358.014 96,355.5C 90.2432,347.645 84.7432,339.645 79.5,331.5C 103.328,330.502 127.328,330.169 151.5,330.5 Z"/></g>
<g><path style="opacity:0.999" fill="#19a9d0" d="M 358.5,357.5 C 357.509,363.979 357.176,370.646 357.5,377.5C 344.5,377.5 331.5,377.5 318.5,377.5C 318.829,362.657 318.496,347.99 317.5,333.5C 317.5,332.833 317.5,332.167 317.5,331.5C 327.144,330.168 337.144,329.501 347.5,329.5C 357.5,329.667 367.5,329.833 377.5,330C 371.514,339.494 365.181,348.661 358.5,357.5 Z"/></g>
<g><path style="opacity:0.491" fill="#000000" d="M 78.5,331.5 C 78.8333,331.5 79.1667,331.5 79.5,331.5C 84.7432,339.645 90.2432,347.645 96,355.5C 97.2525,358.014 97.7525,360.68 97.5,363.5C 94.7422,370.86 92.7422,378.527 91.5,386.5C 88.0755,396.528 85.4089,406.861 83.5,417.5C 82.2318,419.905 81.5651,422.572 81.5,425.5C 79.8984,429.239 78.8984,433.239 78.5,437.5C 76.409,442.191 75.0756,447.191 74.5,452.5C 72.565,457.573 71.2317,462.906 70.5,468.5C 68.2254,474.58 66.392,480.913 65,487.5C 63.295,489.577 62.1283,491.91 61.5,494.5C 60.0937,494.973 59.427,495.973 59.5,497.5C 57.0499,499.629 55.3833,502.296 54.5,505.5C 52.6736,507.147 51.3403,509.147 50.5,511.5C 48.9458,512.914 47.6125,514.581 46.5,516.5C 68.1564,517.5 89.8231,517.833 111.5,517.5C 112.5,517.5 113.5,517.5 114.5,517.5C 115.867,519.142 116.201,520.808 115.5,522.5C 89.5085,523.5 63.5085,523.833 37.5,523.5C 37.2978,521.011 37.7978,518.677 39,516.5C 44.6667,507.833 50.3333,499.167 56,490.5C 66.5993,448.269 77.4327,406.103 88.5,364C 82.7085,354.922 76.5419,346.088 70,337.5C 69.2571,335.559 69.4238,333.726 70.5,332C 73.146,331.503 75.8127,331.336 78.5,331.5 Z"/></g>
<g><path style="opacity:0.498" fill="#010102" d="M 227.5,331.5 C 217.173,337.16 209.173,345.16 203.5,355.5C 199.026,362.055 197.026,369.389 197.5,377.5C 196.437,386.824 198.104,395.491 202.5,403.5C 204.716,409.715 208.716,414.381 214.5,417.5C 217.906,421.048 221.906,423.882 226.5,426C 232.884,429.073 239.551,431.239 246.5,432.5C 256.413,435.422 266.08,439.255 275.5,444C 277.37,446.04 279.37,447.873 281.5,449.5C 282.374,452.789 283.041,456.123 283.5,459.5C 282.812,463.584 281.812,467.584 280.5,471.5C 276.713,475.63 272.379,478.964 267.5,481.5C 266.167,481.5 264.833,481.5 263.5,481.5C 273.72,474.311 276.22,464.978 271,453.5C 267.423,450.627 263.589,448.127 259.5,446C 248.24,442.135 236.906,438.469 225.5,435C 192.54,422.244 181.04,398.744 191,364.5C 197.65,347.347 209.817,336.347 227.5,331.5 Z"/></g>
<g><path style="opacity:0.548" fill="#000000" d="M 317.5,331.5 C 317.5,332.167 317.5,332.833 317.5,333.5C 317.667,364.835 317.5,396.168 317,427.5C 316.617,426.944 316.117,426.611 315.5,426.5C 313.192,423.185 310.859,419.851 308.5,416.5C 308.333,388.498 308.5,360.498 309,332.5C 311.719,331.556 314.552,331.223 317.5,331.5 Z"/></g>
<g><path style="opacity:0.471" fill="#010101" d="M 386.5,331.5 C 386.833,331.5 387.167,331.5 387.5,331.5C 391.405,336.968 395.072,342.635 398.5,348.5C 394.228,354.721 390.228,361.054 386.5,367.5C 381.428,373.304 377.095,379.638 373.5,386.5C 368.443,392.922 363.61,399.589 359,406.5C 358.501,402.848 358.335,399.182 358.5,395.5C 368.724,381.408 378.724,367.074 388.5,352.5C 384.618,346.454 380.952,340.287 377.5,334C 377.645,333.228 377.978,332.561 378.5,332C 381.146,331.503 383.813,331.336 386.5,331.5 Z"/></g>
<g><path style="opacity:0.541" fill="#000000" d="M 564.5,331.5 C 570.89,339.924 577.057,348.591 583,357.5C 583.5,364.826 583.666,372.159 583.5,379.5C 583.667,415.835 583.5,452.168 583,488.5C 580.888,491.727 579.055,495.06 577.5,498.5C 576.094,498.973 575.427,499.973 575.5,501.5C 574.094,501.973 573.427,502.973 573.5,504.5C 570.421,507.65 568.087,511.317 566.5,515.5C 565.883,515.611 565.383,515.944 565,516.5C 564.503,513.854 564.336,511.187 564.5,508.5C 564.5,507.5 564.5,506.5 564.5,505.5C 567.891,501.072 571.058,496.406 574,491.5C 574.667,448.833 574.667,406.167 574,363.5C 568.581,354.993 562.914,346.66 557,338.5C 555.798,336.323 555.298,333.989 555.5,331.5C 558.5,331.5 561.5,331.5 564.5,331.5 Z"/></g>
<g><path style="opacity:0.517" fill="#000000" d="M 700.5,331.5 C 706.733,339.619 712.733,347.952 718.5,356.5C 719.467,364.414 719.801,372.414 719.5,380.5C 719.5,396.5 719.5,412.5 719.5,428.5C 719.5,448.833 719.5,469.167 719.5,489.5C 717.674,491.147 716.34,493.147 715.5,495.5C 713.674,497.147 712.34,499.147 711.5,501.5C 708.421,504.65 706.087,508.317 704.5,512.5C 703.094,512.973 702.427,513.973 702.5,515.5C 701.522,515.811 700.855,516.478 700.5,517.5C 724.157,518.5 747.824,518.833 771.5,518.5C 772.5,518.5 773.5,518.5 774.5,518.5C 775.341,520.379 775.675,522.379 775.5,524.5C 747.498,524.667 719.498,524.5 691.5,524C 690.243,521.924 690.576,520.09 692.5,518.5C 692.833,518.5 693.167,518.5 693.5,518.5C 694.434,517.432 694.768,516.099 694.5,514.5C 699.804,507.011 704.97,499.344 710,491.5C 710.667,448.833 710.667,406.167 710,363.5C 704.581,354.993 698.914,346.66 693,338.5C 691.798,336.323 691.298,333.989 691.5,331.5C 694.5,331.5 697.5,331.5 700.5,331.5 Z"/></g>
<g><path style="opacity:0.409" fill="#020303" d="M 1130.5,331.5 C 1120.17,337.16 1112.17,345.16 1106.5,355.5C 1103.28,360.303 1101.11,365.636 1100,371.5C 1097.64,368.778 1095.81,365.778 1094.5,362.5C 1101.58,346.418 1113.58,336.085 1130.5,331.5 Z"/></g>
<g><path style="opacity:0.778" fill="#7376ba" d="M 909.5,314.5 C 928.37,319.594 944.37,329.26 957.5,343.5C 957.932,344.71 958.599,345.71 959.5,346.5C 959.5,346.833 959.5,347.167 959.5,347.5C 958.833,347.5 958.5,347.833 958.5,348.5C 953.735,341.9 948.069,336.067 941.5,331C 931.148,324.659 920.482,319.159 909.5,314.5 Z"/></g>
<g><path style="opacity:0.169" fill="#08090a" d="M 979.5,334.5 C 972.538,337.982 965.871,341.982 959.5,346.5C 958.599,345.71 957.932,344.71 957.5,343.5C 964.359,339.406 971.692,336.406 979.5,334.5 Z"/></g>
<g><path style="opacity:0.547" fill="#000000" d="M 462.5,405.5 C 462.817,433.877 462.483,462.211 461.5,490.5C 459.05,492.629 457.383,495.296 456.5,498.5C 454.674,500.147 453.34,502.147 452.5,504.5C 451.21,505.058 450.377,506.058 450,507.5C 449.292,506.619 448.458,505.953 447.5,505.5C 447.167,504.167 446.833,502.833 446.5,501.5C 448.837,498.319 451.004,494.986 453,491.5C 453.667,448.833 453.667,406.167 453,363.5C 449.97,358.084 446.47,353.084 442.5,348.5C 443.974,344.891 445.974,341.557 448.5,338.5C 453.162,344.671 457.662,351.004 462,357.5C 462.5,373.497 462.667,389.497 462.5,405.5 Z"/></g>
<g><path style="opacity:1" fill="#0b8fb2" d="M 866.5,353.5 C 874.48,355.826 882.48,358.159 890.5,360.5C 889.694,408.498 889.027,456.498 888.5,504.5C 887.833,504.5 887.167,504.5 886.5,504.5C 879.87,502.55 873.37,500.217 867,497.5C 865.863,450.101 864.696,402.768 863.5,355.5C 863.402,352.752 864.402,352.086 866.5,353.5 Z"/></g>
<g><path style="opacity:0.538" fill="#010101" d="M 863.5,355.5 C 864.696,402.768 865.863,450.101 867,497.5C 873.37,500.217 879.87,502.55 886.5,504.5C 886.739,506.467 886.406,508.301 885.5,510C 883.19,510.497 880.857,510.663 878.5,510.5C 877.833,510.5 877.167,510.5 876.5,510.5C 876.5,509.833 876.167,509.5 875.5,509.5C 874.833,509.5 874.167,509.5 873.5,509.5C 873.5,508.833 873.167,508.5 872.5,508.5C 871.833,508.5 871.167,508.5 870.5,508.5C 870.5,507.833 870.167,507.5 869.5,507.5C 868.833,507.5 868.167,507.5 867.5,507.5C 867.5,506.833 867.167,506.5 866.5,506.5C 865.833,506.5 865.167,506.5 864.5,506.5C 864.5,505.833 864.167,505.5 863.5,505.5C 861.297,505.396 859.297,504.73 857.5,503.5C 857.551,491.153 857.217,478.82 856.5,466.5C 857.117,466.389 857.617,466.056 858,465.5C 858.167,459.833 858.333,454.167 858.5,448.5C 858.496,442.458 857.829,436.792 856.5,431.5C 855.362,406.195 854.862,380.862 855,355.5C 857.832,354.214 860.665,354.214 863.5,355.5 Z"/></g>
<g><path style="opacity:1" fill="#11aacd" d="M 836.5,355.5 C 842.267,364.561 844.934,374.561 844.5,385.5C 831.5,385.5 818.5,385.5 805.5,385.5C 805.768,387.099 805.434,388.432 804.5,389.5C 805.46,380.514 802.46,373.347 795.5,368C 784.022,363.055 772.022,361.222 759.5,362.5C 759.5,364.5 759.5,366.5 759.5,368.5C 759.5,372.167 759.5,375.833 759.5,379.5C 758.539,381.265 758.205,383.265 758.5,385.5C 746.253,385.178 734.086,385.512 722,386.5C 720.981,384.498 720.148,382.498 719.5,380.5C 719.801,372.414 719.467,364.414 718.5,356.5C 757.298,357.177 795.798,357.511 834,357.5C 835.376,357.316 836.209,356.649 836.5,355.5 Z"/></g>
<g><path style="opacity:0.565" fill="#7c8dc3" d="M 866.5,353.5 C 866.842,352.662 867.508,352.328 868.5,352.5C 869.568,353.434 870.901,353.768 872.5,353.5C 873.209,354.404 874.209,354.737 875.5,354.5C 875.833,354.5 876.167,354.5 876.5,354.5C 876.842,355.338 877.508,355.672 878.5,355.5C 878.833,355.5 879.167,355.5 879.5,355.5C 880.209,356.404 881.209,356.737 882.5,356.5C 882.833,356.5 883.167,356.5 883.5,356.5C 884.167,356.5 884.5,356.833 884.5,357.5C 885.167,357.5 885.833,357.5 886.5,357.5C 887.167,357.5 887.5,357.833 887.5,358.5C 889.403,358.796 891.07,359.463 892.5,360.5C 891.833,360.5 891.167,360.5 890.5,360.5C 882.48,358.159 874.48,355.826 866.5,353.5 Z"/></g>
<g><path style="opacity:1" fill="#11a8cc" d="M 1106.5,355.5 C 1107.69,356.777 1109.36,357.444 1111.5,357.5C 1113.43,357.46 1115.26,357.127 1117,356.5C 1117.75,357.126 1118.58,357.626 1119.5,358C 1145.54,358.29 1171.38,358.123 1197,357.5C 1199,358.167 1201,358.833 1203,359.5C 1205.04,358.577 1207.21,358.244 1209.5,358.5C 1210.15,370.88 1209.48,382.88 1207.5,394.5C 1207.17,393.5 1206.5,392.833 1205.5,392.5C 1194.5,372.333 1177.5,362.5 1154.5,363C 1149.24,363.942 1145.58,366.776 1143.5,371.5C 1142.6,372.29 1141.93,373.29 1141.5,374.5C 1140.6,375.209 1140.26,376.209 1140.5,377.5C 1111.81,376.842 1083.48,377.508 1055.5,379.5C 1033.01,362.487 1009.68,361.32 985.5,376C 983.627,377.704 981.96,379.537 980.5,381.5C 976.124,384.874 972.458,388.874 969.5,393.5C 970.175,381.978 969.175,370.645 966.5,359.5C 972.96,358.899 979.46,357.899 986,356.5C 1020.12,357.351 1053.95,357.351 1087.5,356.5C 1089.83,358.5 1092.17,360.5 1094.5,362.5C 1095.81,365.778 1097.64,368.778 1100,371.5C 1101.11,365.636 1103.28,360.303 1106.5,355.5 Z"/></g>
<g><path style="opacity:1" fill="#11a8cc" d="M 203.5,355.5 C 203.791,356.649 204.624,357.316 206,357.5C 239.351,356.901 272.851,356.901 306.5,357.5C 307.146,370.212 306.48,382.545 304.5,394.5C 304.167,393.5 303.5,392.833 302.5,392.5C 291.501,372.333 274.501,362.5 251.5,363C 246.242,363.942 242.576,366.776 240.5,371.5C 239.599,372.29 238.932,373.29 238.5,374.5C 237.596,375.209 237.263,376.209 237.5,377.5C 224.167,377.5 210.833,377.5 197.5,377.5C 197.026,369.389 199.026,362.055 203.5,355.5 Z"/></g>
<g><path style="opacity:0.984" fill="#676ab0" d="M 890.5,360.5 C 891.167,360.5 891.833,360.5 892.5,360.5C 893.492,360.328 894.158,360.662 894.5,361.5C 893.616,379.483 893.283,397.483 893.5,415.5C 892.534,429.785 892.2,444.118 892.5,458.5C 891.856,473.825 891.523,489.158 891.5,504.5C 890.5,504.5 889.5,504.5 888.5,504.5C 889.027,456.498 889.694,408.498 890.5,360.5 Z"/></g>
<g><path style="opacity:0.49" fill="#010202" d="M 302.5,392.5 C 302.665,395.85 302.498,399.183 302,402.5C 300.951,403.517 299.784,403.684 298.5,403C 291.209,392.042 282.209,382.709 271.5,375C 261.576,368.782 251.242,367.616 240.5,371.5C 242.576,366.776 246.242,363.942 251.5,363C 274.501,362.5 291.501,372.333 302.5,392.5 Z"/></g>
<g><path style="opacity:0.509" fill="#000000" d="M 665.5,369.5 C 672.593,380.59 679.259,391.924 685.5,403.5C 685.665,406.85 685.498,410.183 685,413.5C 683.333,414.833 681.667,414.833 680,413.5C 671.084,398.665 661.917,383.998 652.5,369.5C 642.856,368.502 633.19,368.168 623.5,368.5C 623.5,368.167 623.5,367.833 623.5,367.5C 623.5,365.833 623.5,364.167 623.5,362.5C 636.184,362.168 648.851,362.501 661.5,363.5C 662.857,365.565 664.19,367.565 665.5,369.5 Z"/></g>
<g><path style="opacity:0.517" fill="#010202" d="M 804.5,389.5 C 801.789,399.875 795.123,406.208 784.5,408.5C 795.06,400.535 797.56,390.535 792,378.5C 788.731,375.117 784.897,372.617 780.5,371C 773.553,369.691 766.553,368.858 759.5,368.5C 759.5,366.5 759.5,364.5 759.5,362.5C 772.022,361.222 784.022,363.055 795.5,368C 802.46,373.347 805.46,380.514 804.5,389.5 Z"/></g>
<g><path style="opacity:0.49" fill="#010202" d="M 1205.5,392.5 C 1205.67,395.85 1205.5,399.183 1205,402.5C 1203.95,403.517 1202.78,403.684 1201.5,403C 1194.21,392.042 1185.21,382.709 1174.5,375C 1164.58,368.782 1154.24,367.616 1143.5,371.5C 1145.58,366.776 1149.24,363.942 1154.5,363C 1177.5,362.5 1194.5,372.333 1205.5,392.5 Z"/></g>
<g><path style="opacity:0.492" fill="#010202" d="M 1055.5,379.5 C 1062.3,385.771 1067.63,393.104 1071.5,401.5C 1074.19,411.965 1075.19,422.631 1074.5,433.5C 1072.85,441.103 1070.19,448.436 1066.5,455.5C 1063.08,459.979 1059.41,464.312 1055.5,468.5C 1048.59,474.62 1040.59,478.62 1031.5,480.5C 1063.45,461.821 1072.62,435.155 1059,400.5C 1042.53,374.689 1019.7,366.522 990.5,376C 987.26,378.091 983.926,379.924 980.5,381.5C 981.96,379.537 983.627,377.704 985.5,376C 1009.68,361.32 1033.01,362.487 1055.5,379.5 Z"/></g>
<g><path style="opacity:0.999" fill="#13abcd" d="M 157.5,355.5 C 160.435,363.9 162.769,372.567 164.5,381.5C 164.5,382.833 164.5,384.167 164.5,385.5C 140.092,385.177 115.759,385.51 91.5,386.5C 92.7422,378.527 94.7422,370.86 97.5,363.5C 98.4511,362.081 98.7845,360.415 98.5,358.5C 104.086,358.192 109.586,357.526 115,356.5C 125.731,357.124 136.397,357.458 147,357.5C 150.902,357.488 154.402,356.821 157.5,355.5 Z"/></g>
<g><path style="opacity:0.997" fill="#1baccc" d="M 386.5,367.5 C 385.913,368.767 385.913,369.767 386.5,370.5C 388.343,370.245 390.343,370.078 392.5,370C 393,369.5 393.5,369 394,368.5C 395,371.167 396,371.167 397,368.5C 398.391,370.715 400.057,370.715 402,368.5C 402.388,369.428 403.055,370.095 404,370.5C 405.841,369.883 407.841,369.883 410,370.5C 411.658,370.325 412.991,369.658 414,368.5C 414.308,369.308 414.808,369.975 415.5,370.5C 416.711,369.61 418.045,369.61 419.5,370.5C 421.826,367.98 424.493,367.313 427.5,368.5C 424.254,374.418 420.587,380.085 416.5,385.5C 402.088,385.184 387.755,385.518 373.5,386.5C 377.095,379.638 381.428,373.304 386.5,367.5 Z"/></g>
<g><path style="opacity:1" fill="#13accd" d="M 622.5,368.5 C 622.5,374.167 622.5,379.833 622.5,385.5C 609.833,385.5 597.167,385.5 584.5,385.5C 584.5,383.5 584.5,381.5 584.5,379.5C 584.5,375.833 584.5,372.167 584.5,368.5C 597.86,367.781 610.526,367.781 622.5,368.5 Z"/></g>
<g><path style="opacity:1" fill="#1aabca" d="M 689.5,368.5 C 689.829,381.677 689.495,394.677 688.5,407.5C 687.974,405.77 686.974,404.436 685.5,403.5C 679.259,391.924 672.593,380.59 665.5,369.5C 666.721,368.972 667.887,368.305 669,367.5C 675.471,368.283 682.305,368.617 689.5,368.5 Z"/></g>
<g><path style="opacity:1" fill="#1d4ca1" d="M 959.5,347.5 C 962.352,351.204 964.685,355.204 966.5,359.5C 969.175,370.645 970.175,381.978 969.5,393.5C 968.161,400.851 965.827,407.851 962.5,414.5C 953.49,427.839 941.49,437.506 926.5,443.5C 925.761,443.631 925.094,443.464 924.5,443C 946.941,434.567 960.774,418.733 966,395.5C 968.603,378.938 966.103,363.272 958.5,348.5C 958.5,347.833 958.833,347.5 959.5,347.5 Z"/></g>
<g><path style="opacity:1" fill="#22afca" d="M 164.5,381.5 C 166.924,387.526 168.591,393.859 169.5,400.5C 168.848,401.725 167.681,402.392 166,402.5C 154.611,401.972 143.444,401.972 132.5,402.5C 132.5,403.833 132.5,405.167 132.5,406.5C 130.225,400.42 128.392,394.087 127,387.5C 124.845,393.469 123.011,399.469 121.5,405.5C 121.5,404.5 121.5,403.5 121.5,402.5C 110.358,402.15 99.0248,402.15 87.5,402.5C 86.9244,407.809 85.591,412.809 83.5,417.5C 85.4089,406.861 88.0755,396.528 91.5,386.5C 115.759,385.51 140.092,385.177 164.5,385.5C 164.5,384.167 164.5,382.833 164.5,381.5 Z"/></g>
<g><path style="opacity:1" fill="#19afcd" d="M 318.5,377.5 C 331.5,377.5 344.5,377.5 357.5,377.5C 357.666,383.509 357.499,389.509 357,395.5C 344.041,394.714 331.208,394.381 318.5,394.5C 318.5,388.833 318.5,383.167 318.5,377.5 Z"/></g>
<g><path style="opacity:1" fill="#1aafcd" d="M 502.5,366.5 C 502.5,373.833 502.5,381.167 502.5,388.5C 501.686,390.631 501.186,392.964 501,395.5C 488.442,394.663 475.942,394.33 463.5,394.5C 463.5,388.833 463.5,383.167 463.5,377.5C 476.167,377.5 488.833,377.5 501.5,377.5C 501.185,373.629 501.518,369.962 502.5,366.5 Z"/></g>
<g><path style="opacity:0.998" fill="#1eaecc" d="M 1141.5,374.5 C 1139.85,384.502 1143.85,390.835 1153.5,393.5C 1153.22,394.289 1152.72,394.956 1152,395.5C 1125.7,395.791 1099.2,395.458 1072.5,394.5C 1071.26,394.556 1070.26,395.056 1069.5,396C 1070.86,397.584 1071.53,399.418 1071.5,401.5C 1067.63,393.104 1062.3,385.771 1055.5,379.5C 1083.48,377.508 1111.81,376.842 1140.5,377.5C 1140.26,376.209 1140.6,375.209 1141.5,374.5 Z"/></g>
<g><path style="opacity:0.563" fill="#030404" d="M 132.5,406.5 C 133.898,414.76 135.898,422.76 138.5,430.5C 138.833,433.167 139.167,435.833 139.5,438.5C 136.061,438.747 132.728,438.414 129.5,437.5C 126.97,427.707 124.304,418.04 121.5,408.5C 121.5,407.5 121.5,406.5 121.5,405.5C 123.011,399.469 124.845,393.469 127,387.5C 128.392,394.087 130.225,400.42 132.5,406.5 Z"/></g>
<g><path style="opacity:0.996" fill="#26b1cc" d="M 238.5,374.5 C 237.285,380.701 238.952,385.868 243.5,390C 253.304,394.116 263.304,397.616 273.5,400.5C 273.631,401.239 273.464,401.906 273,402.5C 250.998,402.232 229.664,401.899 209,401.5C 206.723,402.117 204.556,402.784 202.5,403.5C 198.104,395.491 196.437,386.824 197.5,377.5C 210.833,377.5 224.167,377.5 237.5,377.5C 237.263,376.209 237.596,375.209 238.5,374.5 Z"/></g>
<g><path style="opacity:1" fill="#21afc9" d="M 759.5,379.5 C 759.5,386.167 759.5,392.833 759.5,399.5C 758.685,400.429 757.852,401.429 757,402.5C 745.183,402.177 733.016,402.177 720.5,402.5C 720.5,407.167 720.5,411.833 720.5,416.5C 720.5,420.5 720.5,424.5 720.5,428.5C 720.167,428.5 719.833,428.5 719.5,428.5C 719.5,412.5 719.5,396.5 719.5,380.5C 720.148,382.498 720.981,384.498 722,386.5C 734.086,385.512 746.253,385.178 758.5,385.5C 758.205,383.265 758.539,381.265 759.5,379.5 Z"/></g>
<g><path style="opacity:0.998" fill="#2bb3cb" d="M 358.5,357.5 C 358.5,370.167 358.5,382.833 358.5,395.5C 358.335,399.182 358.501,402.848 359,406.5C 363.61,399.589 368.443,392.922 373.5,386.5C 387.755,385.518 402.088,385.184 416.5,385.5C 411.312,393.889 405.646,401.889 399.5,409.5C 372.49,408.975 345.49,408.975 318.5,409.5C 318.5,404.5 318.5,399.5 318.5,394.5C 331.208,394.381 344.041,394.714 357,395.5C 357.499,389.509 357.666,383.509 357.5,377.5C 357.176,370.646 357.509,363.979 358.5,357.5 Z"/></g>
<g><path style="opacity:1" fill="#26b3cb" d="M 502.5,388.5 C 502.5,394.5 502.5,400.5 502.5,406.5C 501.596,407.209 501.263,408.209 501.5,409.5C 488.833,409.5 476.167,409.5 463.5,409.5C 463.5,408.167 463.5,406.833 463.5,405.5C 463.5,401.833 463.5,398.167 463.5,394.5C 475.942,394.33 488.442,394.663 501,395.5C 501.186,392.964 501.686,390.631 502.5,388.5 Z"/></g>
<g><path style="opacity:0.998" fill="#2cb4cb" d="M 1153.5,393.5 C 1165.95,396.865 1178.29,400.698 1190.5,405C 1196.97,407.4 1202.97,410.567 1208.5,414.5C 1178.35,416.164 1148.01,417.164 1117.5,417.5C 1117.17,417.5 1116.83,417.5 1116.5,417.5C 1116.16,416.662 1115.49,416.328 1114.5,416.5C 1101.5,416.5 1088.5,416.5 1075.5,416.5C 1075.82,422.358 1075.49,428.025 1074.5,433.5C 1075.19,422.631 1074.19,411.965 1071.5,401.5C 1071.53,399.418 1070.86,397.584 1069.5,396C 1070.26,395.056 1071.26,394.556 1072.5,394.5C 1099.2,395.458 1125.7,395.791 1152,395.5C 1152.72,394.956 1153.22,394.289 1153.5,393.5 Z"/></g>
<g><path style="opacity:0.996" fill="#32b6ca" d="M 169.5,400.5 C 172.435,408.9 174.769,417.567 176.5,426.5C 176.649,427.552 176.483,428.552 176,429.5C 164.862,428.813 153.528,428.479 142,428.5C 140.541,428.808 139.374,429.475 138.5,430.5C 135.898,422.76 133.898,414.76 132.5,406.5C 132.5,405.167 132.5,403.833 132.5,402.5C 143.444,401.972 154.611,401.972 166,402.5C 167.681,402.392 168.848,401.725 169.5,400.5 Z"/></g>
<g><path style="opacity:0.998" fill="#2fb5ca" d="M 273.5,400.5 C 284.986,403.434 295.652,408.101 305.5,414.5C 275.347,416.164 245.014,417.164 214.5,417.5C 208.716,414.381 204.716,409.715 202.5,403.5C 204.556,402.784 206.723,402.117 209,401.5C 229.664,401.899 250.998,402.232 273,402.5C 273.464,401.906 273.631,401.239 273.5,400.5 Z"/></g>
<g><path style="opacity:0.993" fill="#2db4cb" d="M 844.5,385.5 C 845.048,396.993 842.048,407.326 835.5,416.5C 797.167,416.5 758.833,416.5 720.5,416.5C 720.5,411.833 720.5,407.167 720.5,402.5C 733.016,402.177 745.183,402.177 757,402.5C 757.852,401.429 758.685,400.429 759.5,399.5C 759.5,402.833 759.5,406.167 759.5,409.5C 767.836,409.218 776.169,408.884 784.5,408.5C 795.123,406.208 801.789,399.875 804.5,389.5C 805.434,388.432 805.768,387.099 805.5,385.5C 818.5,385.5 831.5,385.5 844.5,385.5 Z"/></g>
<g><path style="opacity:1" fill="#2ab4cb" d="M 623.5,367.5 C 623.5,367.833 623.5,368.167 623.5,368.5C 623.5,380.833 623.5,393.167 623.5,405.5C 623.343,406.873 623.51,408.207 624,409.5C 633.617,402.947 643.117,396.28 652.5,389.5C 653.815,388.524 655.148,387.524 656.5,386.5C 657.499,396.478 657.832,406.478 657.5,416.5C 633.167,416.5 608.833,416.5 584.5,416.5C 584.5,406.167 584.5,395.833 584.5,385.5C 597.167,385.5 609.833,385.5 622.5,385.5C 622.5,379.833 622.5,374.167 622.5,368.5C 622.5,367.833 622.833,367.5 623.5,367.5 Z"/></g>
<g><path style="opacity:0.244" fill="#020202" d="M 652.5,389.5 C 643.117,396.28 633.617,402.947 624,409.5C 623.51,408.207 623.343,406.873 623.5,405.5C 631.645,400.257 639.645,394.757 647.5,389C 649.387,388.22 651.054,388.387 652.5,389.5 Z"/></g>
<g><path style="opacity:0.857" fill="#368a9a" d="M 317.5,333.5 C 318.496,347.99 318.829,362.657 318.5,377.5C 318.5,383.167 318.5,388.833 318.5,394.5C 318.5,399.5 318.5,404.5 318.5,409.5C 318.5,415.833 318.5,422.167 318.5,428.5C 316.821,428.715 315.821,428.048 315.5,426.5C 316.117,426.611 316.617,426.944 317,427.5C 317.5,396.168 317.667,364.835 317.5,333.5 Z"/></g>
<g><path style="opacity:0.998" fill="#35b7c9" d="M 121.5,405.5 C 121.5,406.5 121.5,407.5 121.5,408.5C 120.015,413.44 118.681,418.44 117.5,423.5C 106.153,424.193 94.9868,424.193 84,423.5C 82.9889,424.056 82.1556,424.722 81.5,425.5C 81.5651,422.572 82.2318,419.905 83.5,417.5C 85.591,412.809 86.9244,407.809 87.5,402.5C 99.0248,402.15 110.358,402.15 121.5,402.5C 121.5,403.5 121.5,404.5 121.5,405.5 Z"/></g>
<g><path style="opacity:1" fill="#34b8ca" d="M 502.5,406.5 C 502.5,412.833 502.5,419.167 502.5,425.5C 501.596,426.209 501.263,427.209 501.5,428.5C 492.217,429.785 482.55,429.785 472.5,428.5C 471.353,428.818 470.519,429.484 470,430.5C 469.667,429.833 469.333,429.167 469,428.5C 467.374,428.854 465.541,428.854 463.5,428.5C 463.5,422.167 463.5,415.833 463.5,409.5C 476.167,409.5 488.833,409.5 501.5,409.5C 501.263,408.209 501.596,407.209 502.5,406.5 Z"/></g>
<g><path style="opacity:1" fill="#3ab8c7" d="M 584.5,416.5 C 608.833,416.5 633.167,416.5 657.5,416.5C 657.666,426.839 657.5,437.172 657,447.5C 655.385,446.614 653.885,445.614 652.5,444.5C 643.159,437.066 633.659,429.732 624,422.5C 623.501,426.152 623.335,429.818 623.5,433.5C 622.566,434.568 622.232,435.901 622.5,437.5C 609.409,437.601 596.742,437.601 584.5,437.5C 584.5,430.5 584.5,423.5 584.5,416.5 Z"/></g>
<g><path style="opacity:0.998" fill="#38b8c8" d="M 1208.5,414.5 C 1213.29,417.948 1216.95,422.281 1219.5,427.5C 1219.63,428.239 1219.46,428.906 1219,429.5C 1193.66,428.849 1168.66,428.516 1144,428.5C 1143.83,428.833 1143.67,429.167 1143.5,429.5C 1144.6,430.176 1145.6,430.842 1146.5,431.5C 1135.44,429.492 1125.77,424.825 1117.5,417.5C 1148.01,417.164 1178.35,416.164 1208.5,414.5 Z"/></g>
<g><path style="opacity:0.516" fill="#010102" d="M 1116.5,417.5 C 1116.83,417.5 1117.17,417.5 1117.5,417.5C 1125.77,424.825 1135.44,429.492 1146.5,431.5C 1157.41,434.754 1168.08,438.92 1178.5,444C 1182.65,446.954 1185.32,450.787 1186.5,455.5C 1186.75,461.081 1185.75,466.414 1183.5,471.5C 1179.71,475.63 1175.38,478.964 1170.5,481.5C 1169.17,481.5 1167.83,481.5 1166.5,481.5C 1176.72,474.311 1179.22,464.978 1174,453.5C 1168.91,449.702 1163.41,446.535 1157.5,444C 1143.09,440.252 1129.09,435.418 1115.5,429.5C 1115.5,428.5 1115.5,427.5 1115.5,426.5C 1115.19,423.287 1115.52,420.287 1116.5,417.5 Z"/></g>
<g><path style="opacity:0.445" fill="#000000" d="M 559.5,423.5 C 559.167,424.833 558.833,426.167 558.5,427.5C 551.325,440.516 544.659,453.849 538.5,467.5C 536.992,469.181 535.992,471.181 535.5,473.5C 533.401,476.856 531.401,480.356 529.5,484C 526.854,484.497 524.187,484.664 521.5,484.5C 532.576,463.349 543.409,442.016 554,420.5C 557.882,417.413 559.716,418.413 559.5,423.5 Z"/></g>
<g><path style="opacity:0.769" fill="#3d575b" d="M 1114.5,416.5 C 1115.49,416.328 1116.16,416.662 1116.5,417.5C 1115.52,420.287 1115.19,423.287 1115.5,426.5C 1114.52,423.375 1114.19,420.042 1114.5,416.5 Z"/></g>
<g><path style="opacity:0.498" fill="#000101" d="M 652.5,444.5 C 652.5,447.5 652.5,450.5 652.5,453.5C 650.801,453.66 649.134,453.494 647.5,453C 639.339,447.001 631.339,440.834 623.5,434.5C 623.5,434.167 623.5,433.833 623.5,433.5C 623.335,429.818 623.501,426.152 624,422.5C 633.659,429.732 643.159,437.066 652.5,444.5 Z"/></g>
<g><path style="opacity:1" fill="#39b9c9" d="M 720.5,416.5 C 758.833,416.5 797.167,416.5 835.5,416.5C 832.589,421.746 828.922,426.413 824.5,430.5C 822.313,431.758 819.98,432.758 817.5,433.5C 818.574,432.115 819.907,430.949 821.5,430C 820.584,429.626 819.75,429.126 819,428.5C 786.654,428.895 753.82,428.895 720.5,428.5C 720.5,424.5 720.5,420.5 720.5,416.5 Z"/></g>
<g><path style="opacity:0.998" fill="#39b9c8" d="M 399.5,409.5 C 395.265,416.386 395.598,423.052 400.5,429.5C 400.217,430.289 399.717,430.956 399,431.5C 348.915,430.678 299.415,430.345 250.5,430.5C 248.645,430.34 247.312,431.007 246.5,432.5C 239.551,431.239 232.884,429.073 226.5,426C 221.906,423.882 217.906,421.048 214.5,417.5C 245.014,417.164 275.347,416.164 305.5,414.5C 306.5,415.167 307.5,415.833 308.5,416.5C 310.859,419.851 313.192,423.185 315.5,426.5C 315.821,428.048 316.821,428.715 318.5,428.5C 318.5,422.167 318.5,415.833 318.5,409.5C 345.49,408.975 372.49,408.975 399.5,409.5 Z"/></g>
<g><path style="opacity:0.998" fill="#44bcc6" d="M 400.5,429.5 C 405.222,436.23 409.555,443.23 413.5,450.5C 413.217,451.289 412.717,451.956 412,452.5C 407.85,451.63 403.85,451.296 400,451.5C 398.739,451.759 397.739,452.426 397,453.5C 395.182,451.355 393.682,451.355 392.5,453.5C 390.817,452.408 388.984,451.741 387,451.5C 383.444,452.055 380.111,452.055 377,451.5C 375.72,451.613 374.887,452.28 374.5,453.5C 375.952,454.94 376.952,456.606 377.5,458.5C 372.157,453.156 367.157,447.489 362.5,441.5C 362.033,438.703 360.367,437.369 357.5,437.5C 357.5,439.833 357.5,442.167 357.5,444.5C 355.523,443.851 353.69,443.851 352,444.5C 350.527,444.097 349.194,443.43 348,442.5C 347.667,443.167 347.333,443.833 347,444.5C 342.733,444.233 338.733,444.233 335,444.5C 334.333,441.833 333.667,441.833 333,444.5C 332.333,443.833 331.667,443.167 331,442.5C 328.633,443.047 326.467,444.047 324.5,445.5C 323.784,444.689 322.95,444.022 322,443.5C 314.255,444.34 306.422,444.673 298.5,444.5C 297.353,444.182 296.519,443.516 296,442.5C 293.8,444.831 291.8,444.831 290,442.5C 289.692,443.308 289.192,443.975 288.5,444.5C 285.726,444.351 282.893,444.018 280,443.5C 279.5,444 279,444.5 278.5,445C 280.141,446.129 281.141,447.629 281.5,449.5C 279.37,447.873 277.37,446.04 275.5,444C 266.08,439.255 256.413,435.422 246.5,432.5C 247.312,431.007 248.645,430.34 250.5,430.5C 299.415,430.345 348.915,430.678 399,431.5C 399.717,430.956 400.217,430.289 400.5,429.5 Z"/></g>
<g><path style="opacity:0.428" fill="#010101" d="M 689.5,435.5 C 682.488,448.194 675.488,460.86 668.5,473.5C 665.832,476.859 663.499,480.525 661.5,484.5C 658.914,485.48 656.247,485.813 653.5,485.5C 663.655,467.861 673.822,450.194 684,432.5C 687.882,429.413 689.716,430.413 689.5,435.5 Z"/></g>
<g><path style="opacity:1" fill="#42b9c4" d="M 719.5,428.5 C 719.833,428.5 720.167,428.5 720.5,428.5C 753.82,428.895 786.654,428.895 819,428.5C 819.75,429.126 820.584,429.626 821.5,430C 819.907,430.949 818.574,432.115 817.5,433.5C 808.588,438.481 798.921,441.148 788.5,441.5C 778.5,441.5 768.5,441.5 758.5,441.5C 758.5,442.5 758.5,443.5 758.5,444.5C 756.876,444.64 755.71,443.973 755,442.5C 754.667,443.167 754.333,443.833 754,444.5C 753.333,443.167 752.667,443.167 752,444.5C 751.309,442.109 750.309,442.109 749,444.5C 748.374,442.009 747.541,442.009 746.5,444.5C 744.694,443.141 743.194,443.475 742,445.5C 740.215,444.76 738.382,444.093 736.5,443.5C 732.683,444.522 728.35,444.522 723.5,443.5C 722.808,444.025 722.308,444.692 722,445.5C 721.667,445.167 721.333,444.833 721,444.5C 720.5,454.494 720.334,464.494 720.5,474.5C 720.821,479.695 720.487,484.695 719.5,489.5C 719.5,469.167 719.5,448.833 719.5,428.5 Z"/></g>
<g><path style="opacity:0.413" fill="#010101" d="M 824.5,430.5 C 813.101,441.188 799.435,447.021 783.5,448C 775.507,448.5 767.507,448.666 759.5,448.5C 759.5,448.167 759.5,447.833 759.5,447.5C 759.5,445.833 759.5,444.167 759.5,442.5C 769.348,442.827 779.014,442.494 788.5,441.5C 798.921,441.148 808.588,438.481 817.5,433.5C 819.98,432.758 822.313,431.758 824.5,430.5 Z"/></g>
<g><path style="opacity:0.998" fill="#43bbc6" d="M 1219.5,427.5 C 1223.15,431.808 1225.49,436.808 1226.5,442.5C 1226.63,443.376 1226.3,444.043 1225.5,444.5C 1213.66,443.325 1201.66,443.325 1189.5,444.5C 1188.58,446.218 1187.25,448.218 1185.5,450.5C 1186.31,452.071 1186.64,453.738 1186.5,455.5C 1185.32,450.787 1182.65,446.954 1178.5,444C 1168.08,438.92 1157.41,434.754 1146.5,431.5C 1145.6,430.842 1144.6,430.176 1143.5,429.5C 1143.67,429.167 1143.83,428.833 1144,428.5C 1168.66,428.516 1193.66,428.849 1219,429.5C 1219.46,428.906 1219.63,428.239 1219.5,427.5 Z"/></g>
<g><path style="opacity:1" fill="#0990b2" d="M 856.5,431.5 C 855.688,442.758 855.188,454.091 855,465.5C 848.831,467.92 843.498,471.587 839,476.5C 834.782,489.498 839.282,498.165 852.5,502.5C 867.616,508.541 882.949,514.208 898.5,519.5C 905.998,523.487 912.498,528.82 918,535.5C 925.342,551.638 922.176,565.471 908.5,577C 905.93,579.087 903.263,580.92 900.5,582.5C 899.508,582.328 898.842,582.662 898.5,583.5C 897.508,576.352 897.175,569.019 897.5,561.5C 898.885,554.892 896.885,549.725 891.5,546C 874.55,538.683 857.217,532.349 839.5,527C 824.988,522.685 813.822,514.185 806,501.5C 798.209,479.549 803.376,461.383 821.5,447C 828.733,442.553 836.067,438.386 843.5,434.5C 847.219,433.11 851.053,431.777 855,430.5C 855.383,431.056 855.883,431.389 856.5,431.5 Z"/></g>
<g><path style="opacity:1" fill="#5a5fa6" d="M 856.5,431.5 C 857.829,436.792 858.496,442.458 858.5,448.5C 858.333,454.167 858.167,459.833 858,465.5C 857.617,466.056 857.117,466.389 856.5,466.5C 855.833,466.833 855.167,467.167 854.5,467.5C 849.909,468.956 846.242,471.623 843.5,475.5C 838.422,481.218 838.255,487.218 843,493.5C 845.772,496.783 848.939,499.45 852.5,501.5C 852.5,501.833 852.5,502.167 852.5,502.5C 839.282,498.165 834.782,489.498 839,476.5C 843.498,471.587 848.831,467.92 855,465.5C 855.188,454.091 855.688,442.758 856.5,431.5 Z"/></g>
<g><path style="opacity:0.51" fill="#020202" d="M 843.5,434.5 C 836.067,438.386 828.733,442.553 821.5,447C 803.376,461.383 798.209,479.549 806,501.5C 813.822,514.185 824.988,522.685 839.5,527C 857.217,532.349 874.55,538.683 891.5,546C 896.885,549.725 898.885,554.892 897.5,561.5C 896.18,569.01 896.18,576.677 897.5,584.5C 898.107,584.376 898.44,584.043 898.5,583.5C 898.842,582.662 899.508,582.328 900.5,582.5C 900.56,583.043 900.893,583.376 901.5,583.5C 904.393,581.555 907.393,579.889 910.5,578.5C 904.776,584.858 897.776,588.858 889.5,590.5C 889.832,578.149 889.499,565.815 888.5,553.5C 882.791,550.376 876.791,548.042 870.5,546.5C 870.167,546.5 869.833,546.5 869.5,546.5C 857.85,541.671 845.85,537.504 833.5,534C 820.227,530.05 809.06,522.883 800,512.5C 785.897,479.189 795.397,455.022 828.5,440C 833.343,437.664 838.343,435.831 843.5,434.5 Z"/></g>
<g><path style="opacity:0.998" fill="#49bfc8" d="M 117.5,423.5 C 116.553,428.124 115.219,432.624 113.5,437C 118.823,437.499 124.156,437.666 129.5,437.5C 132.728,438.414 136.061,438.747 139.5,438.5C 139.167,435.833 138.833,433.167 138.5,430.5C 139.374,429.475 140.541,428.808 142,428.5C 153.528,428.479 164.862,428.813 176,429.5C 176.483,428.552 176.649,427.552 176.5,426.5C 179.101,433.56 181.101,440.893 182.5,448.5C 182.321,452.752 180.321,453.752 176.5,451.5C 174.307,451.326 172.473,451.993 171,453.5C 169.667,452.833 168.333,452.167 167,451.5C 166.374,453.991 165.541,453.991 164.5,451.5C 159.2,451.517 153.867,451.517 148.5,451.5C 147.548,453.045 147.215,454.712 147.5,456.5C 146.736,454.26 145.902,451.927 145,449.5C 143.67,450.582 142.17,451.249 140.5,451.5C 136.401,452.362 132.401,452.362 128.5,451.5C 127.167,452.167 125.833,452.833 124.5,453.5C 121.611,450.798 119.611,450.798 118.5,453.5C 117.059,452.696 115.559,452.029 114,451.5C 105.295,452.81 96.9616,452.81 89,451.5C 86.9658,451.354 85.2991,452.02 84,453.5C 83.3333,452.833 82.6667,452.167 82,451.5C 79.7289,451.67 77.5622,452.003 75.5,452.5C 76.6586,447.532 77.6586,442.532 78.5,437.5C 78.8984,433.239 79.8984,429.239 81.5,425.5C 82.1556,424.722 82.9889,424.056 84,423.5C 94.9868,424.193 106.153,424.193 117.5,423.5 Z"/></g>
<g><path style="opacity:0.795" fill="#41757a" d="M 362.5,441.5 C 361.206,440.71 360.039,439.71 359,438.5C 358.501,442.152 358.335,445.818 358.5,449.5C 358.167,449.5 357.833,449.5 357.5,449.5C 357.5,447.833 357.5,446.167 357.5,444.5C 357.5,442.167 357.5,439.833 357.5,437.5C 360.367,437.369 362.033,438.703 362.5,441.5 Z"/></g>
<g><path style="opacity:0.998" fill="#43bbc7" d="M 1114.5,416.5 C 1114.19,420.042 1114.52,423.375 1115.5,426.5C 1115.5,427.5 1115.5,428.5 1115.5,429.5C 1114.91,434.515 1114.25,439.515 1113.5,444.5C 1109.98,445.851 1106.81,445.184 1104,442.5C 1102.85,444.957 1101.51,444.957 1100,442.5C 1098.67,443.167 1097.33,443.833 1096,444.5C 1092.04,443.516 1087.87,443.182 1083.5,443.5C 1082.83,443.667 1082.17,443.833 1081.5,444C 1086.99,446.202 1086.82,448.036 1081,449.5C 1079.71,449.05 1078.55,448.383 1077.5,447.5C 1075.96,448.747 1074.46,448.747 1073,447.5C 1070.59,450.014 1068.42,452.681 1066.5,455.5C 1070.19,448.436 1072.85,441.103 1074.5,433.5C 1075.49,428.025 1075.82,422.358 1075.5,416.5C 1088.5,416.5 1101.5,416.5 1114.5,416.5 Z"/></g>
<g><path style="opacity:0.496" fill="#000000" d="M 362.5,441.5 C 367.157,447.489 372.157,453.156 377.5,458.5C 384.786,468.12 392.786,477.12 401.5,485.5C 401.833,486.5 402.5,487.167 403.5,487.5C 404.757,490.427 406.757,492.761 409.5,494.5C 409.5,495.167 409.833,495.5 410.5,495.5C 412.094,498.764 414.427,501.431 417.5,503.5C 419.094,506.764 421.427,509.431 424.5,511.5C 424.5,512.167 424.833,512.5 425.5,512.5C 427.094,515.764 429.427,518.431 432.5,520.5C 434.43,524.1 437.097,527.1 440.5,529.5C 442.43,533.1 445.097,536.1 448.5,538.5C 450.094,541.764 452.427,544.431 455.5,546.5C 457.43,550.1 460.097,553.1 463.5,555.5C 465.43,559.1 468.097,562.1 471.5,564.5C 473.094,567.764 475.427,570.431 478.5,572.5C 480.43,576.1 483.097,579.1 486.5,581.5C 490.167,586.167 493.833,590.833 497.5,595.5C 497.5,596.167 497.833,596.5 498.5,596.5C 498.5,597.167 498.833,597.5 499.5,597.5C 499.328,598.492 499.662,599.158 500.5,599.5C 500.5,600.167 500.833,600.5 501.5,600.5C 505.023,607.042 508.69,613.542 512.5,620C 512.333,621.5 511.5,622.333 510,622.5C 508.343,621.516 506.677,620.516 505,619.5C 456.673,564.009 407.839,509.009 358.5,454.5C 358.5,452.833 358.5,451.167 358.5,449.5C 358.335,445.818 358.501,442.152 359,438.5C 360.039,439.71 361.206,440.71 362.5,441.5 Z"/></g>
<g><path style="opacity:0.363" fill="#8bd6dd" d="M 564.5,505.5 C 564.5,506.5 564.5,507.5 564.5,508.5C 564.167,508.5 563.833,508.5 563.5,508.5C 563.5,502.5 563.5,496.5 563.5,490.5C 563.5,484.833 563.5,479.167 563.5,473.5C 563.83,454.992 563.497,436.659 562.5,418.5C 562.783,417.711 563.283,417.044 564,416.5C 564.5,446.165 564.667,475.831 564.5,505.5 Z"/></g>
<g><path style="opacity:0.876" fill="#3b7d82" d="M 78.5,437.5 C 77.6586,442.532 76.6586,447.532 75.5,452.5C 75.1667,452.5 74.8333,452.5 74.5,452.5C 75.0756,447.191 76.409,442.191 78.5,437.5 Z"/></g>
<g><path style="opacity:0.522" fill="#000000" d="M 196.5,445.5 C 196.5,446.5 196.5,447.5 196.5,448.5C 196.667,462.837 196.5,477.171 196,491.5C 194.205,488.901 192.705,486.234 191.5,483.5C 191.768,481.901 191.434,480.568 190.5,479.5C 189.5,474.167 188.5,468.833 187.5,463.5C 187.334,455.826 187.5,448.159 188,440.5C 189.458,439.253 190.958,439.253 192.5,440.5C 193.887,442.21 195.221,443.877 196.5,445.5 Z"/></g>
<g><path style="opacity:0.873" fill="#38868c" d="M 788.5,441.5 C 779.014,442.494 769.348,442.827 759.5,442.5C 759.5,444.167 759.5,445.833 759.5,447.5C 758.596,446.791 758.263,445.791 758.5,444.5C 758.5,443.5 758.5,442.5 758.5,441.5C 768.5,441.5 778.5,441.5 788.5,441.5 Z"/></g>
<g><path style="opacity:1" fill="#47bfc8" d="M 502.5,425.5 C 502.5,433.833 502.5,442.167 502.5,450.5C 501.685,449.571 500.852,448.571 500,447.5C 499.333,448.833 498.667,448.833 498,447.5C 497.309,449.891 496.309,449.891 495,447.5C 494.692,448.308 494.192,448.975 493.5,449.5C 492.575,448.359 491.741,448.359 491,449.5C 490.333,448.833 489.667,448.167 489,447.5C 485.304,447.703 481.637,447.703 478,447.5C 475.843,450.078 474.677,450.078 474.5,447.5C 472.378,447.623 470.211,447.623 468,447.5C 467.333,450.167 466.667,450.167 466,447.5C 465.329,448.252 464.496,448.586 463.5,448.5C 463.5,441.833 463.5,435.167 463.5,428.5C 465.541,428.854 467.374,428.854 469,428.5C 469.333,429.167 469.667,429.833 470,430.5C 470.519,429.484 471.353,428.818 472.5,428.5C 482.55,429.785 492.217,429.785 501.5,428.5C 501.263,427.209 501.596,426.209 502.5,425.5 Z"/></g>
<g><path style="opacity:0.995" fill="#4dbfc7" d="M 962.5,414.5 C 961.326,426.956 962.993,438.956 967.5,450.5C 967.649,451.552 967.483,452.552 967,453.5C 966.261,452.426 965.261,451.759 964,451.5C 962.584,452.573 961.25,452.573 960,451.5C 957.736,453.983 955.403,453.983 953,451.5C 945.29,451.543 937.29,451.543 929,451.5C 928.005,452.066 927.172,452.733 926.5,453.5C 925.076,451.485 924.41,449.152 924.5,446.5C 924.782,445.222 925.449,444.222 926.5,443.5C 941.49,437.506 953.49,427.839 962.5,414.5 Z"/></g>
<g><path style="opacity:0.456" fill="#000000" d="M 147.5,456.5 C 148.678,465.384 150.344,474.05 152.5,482.5C 152.632,485.57 152.299,488.57 151.5,491.5C 150.094,491.973 149.427,492.973 149.5,494.5C 147.674,496.147 146.34,498.147 145.5,500.5C 141.362,505.419 137.696,510.753 134.5,516.5C 155.535,517.177 176.535,517.844 197.5,518.5C 199.409,517.652 201.409,517.318 203.5,517.5C 204.5,517.5 205.5,517.5 206.5,517.5C 207.341,519.379 207.675,521.379 207.5,523.5C 202.821,523.334 198.155,523.501 193.5,524C 191.576,525.267 189.91,525.267 188.5,524C 167.5,523.667 146.5,523.333 125.5,523C 124.483,521.951 124.316,520.784 125,519.5C 131.4,509.943 137.567,500.277 143.5,490.5C 141.548,479.408 139.215,468.408 136.5,457.5C 125.979,462.925 115.646,468.592 105.5,474.5C 105.433,473.041 105.766,471.708 106.5,470.5C 118.164,464.67 129.498,458.337 140.5,451.5C 142.17,451.249 143.67,450.582 145,449.5C 145.902,451.927 146.736,454.26 147.5,456.5 Z"/></g>
<g><path style="opacity:0.859" fill="#3c8084" d="M 558.5,427.5 C 552.874,441.419 546.207,454.752 538.5,467.5C 544.659,453.849 551.325,440.516 558.5,427.5 Z"/></g>
<g><path style="opacity:1" fill="#52c2c6" d="M 357.5,444.5 C 357.5,446.167 357.5,447.833 357.5,449.5C 357.5,452.5 357.5,455.5 357.5,458.5C 333.252,459.144 308.586,459.478 283.5,459.5C 283.041,456.123 282.374,452.789 281.5,449.5C 281.141,447.629 280.141,446.129 278.5,445C 279,444.5 279.5,444 280,443.5C 282.893,444.018 285.726,444.351 288.5,444.5C 289.192,443.975 289.692,443.308 290,442.5C 291.8,444.831 293.8,444.831 296,442.5C 296.519,443.516 297.353,444.182 298.5,444.5C 306.422,444.673 314.255,444.34 322,443.5C 322.95,444.022 323.784,444.689 324.5,445.5C 326.467,444.047 328.633,443.047 331,442.5C 331.667,443.167 332.333,443.833 333,444.5C 333.667,441.833 334.333,441.833 335,444.5C 338.733,444.233 342.733,444.233 347,444.5C 347.333,443.833 347.667,443.167 348,442.5C 349.194,443.43 350.527,444.097 352,444.5C 353.69,443.851 355.523,443.851 357.5,444.5 Z"/></g>
<g><path style="opacity:0.759" fill="#3e5d5f" d="M 196.5,448.5 C 197.496,462.99 197.829,477.657 197.5,492.5C 196.178,492.67 195.011,492.337 194,491.5C 192.293,489.091 191.46,486.425 191.5,483.5C 192.705,486.234 194.205,488.901 196,491.5C 196.5,477.171 196.667,462.837 196.5,448.5 Z"/></g>
<g><path style="opacity:0.852" fill="#37898e" d="M 583.5,379.5 C 583.833,379.5 584.167,379.5 584.5,379.5C 584.5,381.5 584.5,383.5 584.5,385.5C 584.5,395.833 584.5,406.167 584.5,416.5C 584.5,423.5 584.5,430.5 584.5,437.5C 584.5,449.5 584.5,461.5 584.5,473.5C 584.666,478.844 584.499,484.177 584,489.5C 582.301,492.921 580.135,495.921 577.5,498.5C 579.055,495.06 580.888,491.727 583,488.5C 583.5,452.168 583.667,415.835 583.5,379.5 Z"/></g>
<g><path style="opacity:1" fill="#56bfc0" d="M 140.5,451.5 C 129.498,458.337 118.164,464.67 106.5,470.5C 107.749,468.864 109.416,467.697 111.5,467C 108.574,466.782 105.74,466.282 103,465.5C 93.327,466.29 83.1603,466.29 72.5,465.5C 71.8243,466.602 71.1577,467.602 70.5,468.5C 71.2317,462.906 72.565,457.573 74.5,452.5C 74.8333,452.5 75.1667,452.5 75.5,452.5C 77.5622,452.003 79.7289,451.67 82,451.5C 82.6667,452.167 83.3333,452.833 84,453.5C 85.2991,452.02 86.9658,451.354 89,451.5C 96.9616,452.81 105.295,452.81 114,451.5C 115.559,452.029 117.059,452.696 118.5,453.5C 119.611,450.798 121.611,450.798 124.5,453.5C 125.833,452.833 127.167,452.167 128.5,451.5C 132.401,452.362 136.401,452.362 140.5,451.5 Z"/></g>
<g><path style="opacity:0.995" fill="#5ac3c3" d="M 182.5,448.5 C 184.012,453.548 185.679,458.548 187.5,463.5C 188.5,468.833 189.5,474.167 190.5,479.5C 189.4,477.723 188.566,475.723 188,473.5C 177,474.166 165.167,474.166 152.5,473.5C 152.124,476.373 152.124,479.373 152.5,482.5C 150.344,474.05 148.678,465.384 147.5,456.5C 147.215,454.712 147.548,453.045 148.5,451.5C 153.867,451.517 159.2,451.517 164.5,451.5C 165.541,453.991 166.374,453.991 167,451.5C 168.333,452.167 169.667,452.833 171,453.5C 172.473,451.993 174.307,451.326 176.5,451.5C 180.321,453.752 182.321,452.752 182.5,448.5 Z"/></g>
<g><path style="opacity:1" fill="#58c5c6" d="M 502.5,450.5 C 502.5,456.5 502.5,462.5 502.5,468.5C 489.579,467.52 476.579,467.186 463.5,467.5C 463.5,461.167 463.5,454.833 463.5,448.5C 464.496,448.586 465.329,448.252 466,447.5C 466.667,450.167 467.333,450.167 468,447.5C 470.211,447.623 472.378,447.623 474.5,447.5C 474.677,450.078 475.843,450.078 478,447.5C 481.637,447.703 485.304,447.703 489,447.5C 489.667,448.167 490.333,448.833 491,449.5C 491.741,448.359 492.575,448.359 493.5,449.5C 494.192,448.975 494.692,448.308 495,447.5C 496.309,449.891 497.309,449.891 498,447.5C 498.667,448.833 499.333,448.833 500,447.5C 500.852,448.571 501.685,449.571 502.5,450.5 Z"/></g>
<g><path style="opacity:1" fill="#58c5c6" d="M 623.5,433.5 C 623.5,433.833 623.5,434.167 623.5,434.5C 623.5,451.5 623.5,468.5 623.5,485.5C 622.517,481.702 622.183,477.702 622.5,473.5C 610.059,474.618 597.393,474.618 584.5,473.5C 584.5,461.5 584.5,449.5 584.5,437.5C 596.742,437.601 609.409,437.601 622.5,437.5C 622.232,435.901 622.566,434.568 623.5,433.5 Z"/></g>
<g><path style="opacity:0.995" fill="#59c5c6" d="M 758.5,444.5 C 758.263,445.791 758.596,446.791 759.5,447.5C 759.5,447.833 759.5,448.167 759.5,448.5C 759.5,457.833 759.5,467.167 759.5,476.5C 758.766,475.071 757.599,474.071 756,473.5C 744.941,474.256 733.108,474.589 720.5,474.5C 720.334,464.494 720.5,454.494 721,444.5C 721.333,444.833 721.667,445.167 722,445.5C 722.308,444.692 722.808,444.025 723.5,443.5C 728.35,444.522 732.683,444.522 736.5,443.5C 738.382,444.093 740.215,444.76 742,445.5C 743.194,443.475 744.694,443.141 746.5,444.5C 747.541,442.009 748.374,442.009 749,444.5C 750.309,442.109 751.309,442.109 752,444.5C 752.667,443.167 753.333,443.167 754,444.5C 754.333,443.833 754.667,443.167 755,442.5C 755.71,443.973 756.876,444.64 758.5,444.5 Z"/></g>
<g><path style="opacity:0.993" fill="#58c4c5" d="M 1113.5,444.5 C 1112.51,447.464 1112.01,450.464 1112,453.5C 1115.67,458.336 1119.84,462.669 1124.5,466.5C 1103.76,467.172 1082.93,467.839 1062,468.5C 1061,467.833 1060,467.167 1059,466.5C 1058.18,467.823 1057.02,468.489 1055.5,468.5C 1059.41,464.312 1063.08,459.979 1066.5,455.5C 1068.42,452.681 1070.59,450.014 1073,447.5C 1074.46,448.747 1075.96,448.747 1077.5,447.5C 1078.55,448.383 1079.71,449.05 1081,449.5C 1086.82,448.036 1086.99,446.202 1081.5,444C 1082.17,443.833 1082.83,443.667 1083.5,443.5C 1087.87,443.182 1092.04,443.516 1096,444.5C 1097.33,443.833 1098.67,443.167 1100,442.5C 1101.51,444.957 1102.85,444.957 1104,442.5C 1106.81,445.184 1109.98,445.851 1113.5,444.5 Z"/></g>
<g><path style="opacity:0.847" fill="#3e797a" d="M 928.5,459.5 C 931.008,463.182 933.008,467.182 934.5,471.5C 931.46,468.086 929.46,464.086 928.5,459.5 Z"/></g>
<g><path style="opacity:1" fill="#5fc7c5" d="M 357.5,449.5 C 357.833,449.5 358.167,449.5 358.5,449.5C 358.5,451.167 358.5,452.833 358.5,454.5C 358.5,465.833 358.5,477.167 358.5,488.5C 357.834,483.651 357.167,478.651 356.5,473.5C 331.141,474.192 305.808,474.192 280.5,473.5C 280.5,472.833 280.5,472.167 280.5,471.5C 281.812,467.584 282.812,463.584 283.5,459.5C 308.586,459.478 333.252,459.144 357.5,458.5C 357.5,455.5 357.5,452.5 357.5,449.5 Z"/></g>
<g><path style="opacity:1" fill="#59c4c5" d="M 562.5,418.5 C 563.497,436.659 563.83,454.992 563.5,473.5C 554.281,474.243 544.948,474.243 535.5,473.5C 535.992,471.181 536.992,469.181 538.5,467.5C 546.207,454.752 552.874,441.419 558.5,427.5C 558.833,426.167 559.167,424.833 559.5,423.5C 560.737,422.035 561.737,420.368 562.5,418.5 Z"/></g>
<g><path style="opacity:1" fill="#5ac1c1" d="M 694.5,514.5 C 694.768,516.099 694.434,517.432 693.5,518.5C 693.5,512.5 693.5,506.5 693.5,500.5C 693.666,491.827 693.5,483.16 693,474.5C 685.237,474.052 677.071,473.718 668.5,473.5C 675.488,460.86 682.488,448.194 689.5,435.5C 690.976,433.231 692.476,430.898 694,428.5C 694.5,457.165 694.667,485.831 694.5,514.5 Z"/></g>
<g><path style="opacity:0.141" fill="#020202" d="M 854.5,467.5 C 854.703,469.39 854.037,470.89 852.5,472C 849.479,473.18 846.479,474.346 843.5,475.5C 846.242,471.623 849.909,468.956 854.5,467.5 Z"/></g>
<g><path style="opacity:0.997" fill="#5bc5c5" d="M 1226.5,442.5 C 1230.02,453.28 1230.35,464.28 1227.5,475.5C 1224.94,474.278 1222.11,473.611 1219,473.5C 1206.39,473.282 1194.22,473.615 1182.5,474.5C 1183.11,473.609 1183.44,472.609 1183.5,471.5C 1185.75,466.414 1186.75,461.081 1186.5,455.5C 1186.64,453.738 1186.31,452.071 1185.5,450.5C 1187.25,448.218 1188.58,446.218 1189.5,444.5C 1201.66,443.325 1213.66,443.325 1225.5,444.5C 1226.3,444.043 1226.63,443.376 1226.5,442.5 Z"/></g>
<g><path style="opacity:0.839" fill="#3f7271" d="M 70.5,468.5 C 69.6586,473.532 68.6586,478.532 67.5,483.5C 66.7874,487.929 64.7874,491.596 61.5,494.5C 62.1283,491.91 63.295,489.577 65,487.5C 66.392,480.913 68.2254,474.58 70.5,468.5 Z"/></g>
<g><path style="opacity:0.994" fill="#65c9c4" d="M 106.5,470.5 C 105.766,471.708 105.433,473.041 105.5,474.5C 104.055,477.937 103.055,481.603 102.5,485.5C 101.596,484.791 101.263,483.791 101.5,482.5C 89.4604,482.852 78.127,483.186 67.5,483.5C 68.6586,478.532 69.6586,473.532 70.5,468.5C 71.1577,467.602 71.8243,466.602 72.5,465.5C 83.1603,466.29 93.327,466.29 103,465.5C 105.74,466.282 108.574,466.782 111.5,467C 109.416,467.697 107.749,468.864 106.5,470.5 Z"/></g>
<g><path style="opacity:0.991" fill="#60c5c2" d="M 413.5,450.5 C 420.664,460.822 427.331,471.489 433.5,482.5C 427.474,482.371 421.64,482.704 416,483.5C 414,482.833 412,482.167 410,481.5C 409.333,482.167 408.667,482.833 408,483.5C 406.274,482.424 404.441,482.257 402.5,483C 401.748,483.671 401.414,484.504 401.5,485.5C 392.786,477.12 384.786,468.12 377.5,458.5C 376.952,456.606 375.952,454.94 374.5,453.5C 374.887,452.28 375.72,451.613 377,451.5C 380.111,452.055 383.444,452.055 387,451.5C 388.984,451.741 390.817,452.408 392.5,453.5C 393.682,451.355 395.182,451.355 397,453.5C 397.739,452.426 398.739,451.759 400,451.5C 403.85,451.296 407.85,451.63 412,452.5C 412.717,451.956 413.217,451.289 413.5,450.5 Z"/></g>
<g><path style="opacity:0.989" fill="#62c7c4" d="M 967.5,450.5 C 977.185,468.512 992.185,478.845 1012.5,481.5C 1009.64,482.244 1006.64,482.911 1003.5,483.5C 997.636,482.184 991.803,482.184 986,483.5C 985.374,481.009 984.541,481.009 983.5,483.5C 970.216,483.22 957.049,482.886 944,482.5C 943.536,483.094 943.369,483.761 943.5,484.5C 939.338,480.999 936.338,476.665 934.5,471.5C 933.008,467.182 931.008,463.182 928.5,459.5C 927.262,457.786 926.595,455.786 926.5,453.5C 927.172,452.733 928.005,452.066 929,451.5C 937.29,451.543 945.29,451.543 953,451.5C 955.403,453.983 957.736,453.983 960,451.5C 961.25,452.573 962.584,452.573 964,451.5C 965.261,451.759 966.261,452.426 967,453.5C 967.483,452.552 967.649,451.552 967.5,450.5 Z"/></g>
<g><path style="opacity:0.761" fill="#3e5d5f" d="M 1100.5,491.5 C 1100.83,500.017 1100.49,508.35 1099.5,516.5C 1099.67,503.496 1099.5,490.496 1099,477.5C 1098.62,478.056 1098.12,478.389 1097.5,478.5C 1097.82,476.952 1098.82,476.285 1100.5,476.5C 1100.5,481.5 1100.5,486.5 1100.5,491.5 Z"/></g>
<g><path style="opacity:0.507" fill="#000000" d="M 1099.5,516.5 C 1099.5,517.5 1099.5,518.5 1099.5,519.5C 1097.98,522.201 1095.82,524.201 1093,525.5C 1092.33,524.833 1091.67,524.167 1091,523.5C 1090.5,512.172 1090.33,500.838 1090.5,489.5C 1093.08,486.003 1095.42,482.336 1097.5,478.5C 1098.12,478.389 1098.62,478.056 1099,477.5C 1099.5,490.496 1099.67,503.496 1099.5,516.5 Z"/></g>
<g><path style="opacity:0.809" fill="#387b7d" d="M 462.5,405.5 C 462.833,405.5 463.167,405.5 463.5,405.5C 463.5,406.833 463.5,408.167 463.5,409.5C 463.5,415.833 463.5,422.167 463.5,428.5C 463.5,435.167 463.5,441.833 463.5,448.5C 463.5,454.833 463.5,461.167 463.5,467.5C 463.666,474.841 463.5,482.174 463,489.5C 462.617,490.056 462.117,490.389 461.5,490.5C 462.483,462.211 462.817,433.877 462.5,405.5 Z"/></g>
<g><path style="opacity:0.827" fill="#407473" d="M 280.5,471.5 C 280.5,472.167 280.5,472.833 280.5,473.5C 278.37,475.127 276.37,476.96 274.5,479C 272.35,480.411 270.016,481.245 267.5,481.5C 272.379,478.964 276.713,475.63 280.5,471.5 Z"/></g>
<g><path style="opacity:0.847" fill="#457e7c" d="M 1183.5,471.5 C 1183.44,472.609 1183.11,473.609 1182.5,474.5C 1179.41,478.377 1175.41,480.711 1170.5,481.5C 1175.38,478.964 1179.71,475.63 1183.5,471.5 Z"/></g>
<g><path style="opacity:0.999" fill="#6bcbc4" d="M 263.5,481.5 C 264.833,481.5 266.167,481.5 267.5,481.5C 270.016,481.245 272.35,480.411 274.5,479C 276.37,476.96 278.37,475.127 280.5,473.5C 305.808,474.192 331.141,474.192 356.5,473.5C 357.167,478.651 357.834,483.651 358.5,488.5C 359.89,489.899 360.89,491.566 361.5,493.5C 347.37,493.906 333.036,493.906 318.5,493.5C 317.5,490.833 316.5,490.833 315.5,493.5C 315.262,495.404 314.262,496.738 312.5,497.5C 314.244,495.394 313.744,494.061 311,493.5C 257.454,493.593 203.62,493.926 149.5,494.5C 149.427,492.973 150.094,491.973 151.5,491.5C 152.117,491.389 152.617,491.056 153,490.5C 153.801,487.633 153.634,484.966 152.5,482.5C 152.124,479.373 152.124,476.373 152.5,473.5C 165.167,474.166 177,474.166 188,473.5C 188.566,475.723 189.4,477.723 190.5,479.5C 191.434,480.568 191.768,481.901 191.5,483.5C 191.46,486.425 192.293,489.091 194,491.5C 195.011,492.337 196.178,492.67 197.5,492.5C 197.829,477.657 197.496,462.99 196.5,448.5C 196.5,447.5 196.5,446.5 196.5,445.5C 196.187,442.753 196.52,440.086 197.5,437.5C 206.594,453.428 218.928,466.261 234.5,476C 243.62,481.074 253.286,482.907 263.5,481.5 Z"/></g>
<g><path style="opacity:0.987" fill="#6acac3" d="M 463.5,467.5 C 476.579,467.186 489.579,467.52 502.5,468.5C 502.5,473.833 502.5,479.167 502.5,484.5C 508.833,484.5 515.167,484.5 521.5,484.5C 524.187,484.664 526.854,484.497 529.5,484C 531.401,480.356 533.401,476.856 535.5,473.5C 544.948,474.243 554.281,474.243 563.5,473.5C 563.5,479.167 563.5,484.833 563.5,490.5C 562.603,491.598 561.77,491.598 561,490.5C 560.667,491.167 560.333,491.833 560,492.5C 554.489,490.337 549.156,490.337 544,492.5C 541.615,490.461 539.448,490.461 537.5,492.5C 535.758,490.027 533.925,490.027 532,492.5C 530.316,490.541 528.316,490.541 526,492.5C 525.667,491.833 525.333,491.167 525,490.5C 523.451,493.003 521.784,493.003 520,490.5C 516.744,492.769 513.411,492.769 510,490.5C 509.333,491.167 508.667,491.833 508,492.5C 506.215,491.76 504.382,491.093 502.5,490.5C 500.93,490.694 499.43,490.694 498,490.5C 496.667,493.167 495.333,493.167 494,490.5C 493.692,491.308 493.192,491.975 492.5,492.5C 488.123,491.416 483.623,490.749 479,490.5C 478.309,492.891 477.309,492.891 476,490.5C 475.259,491.641 474.425,491.641 473.5,490.5C 472.5,491.167 471.5,491.833 470.5,492.5C 469.784,491.689 468.95,491.022 468,490.5C 466.85,491.424 465.85,491.424 465,490.5C 463.887,491.305 462.721,491.972 461.5,492.5C 461.5,491.833 461.5,491.167 461.5,490.5C 462.117,490.389 462.617,490.056 463,489.5C 463.5,482.174 463.666,474.841 463.5,467.5 Z"/></g>
<g><path style="opacity:0.997" fill="#6bcbc3" d="M 1124.5,466.5 C 1136.24,477.858 1150.24,482.858 1166.5,481.5C 1167.83,481.5 1169.17,481.5 1170.5,481.5C 1175.41,480.711 1179.41,478.377 1182.5,474.5C 1194.22,473.615 1206.39,473.282 1219,473.5C 1222.11,473.611 1224.94,474.278 1227.5,475.5C 1225.97,481.776 1223.31,487.442 1219.5,492.5C 1217.8,491.266 1215.8,490.599 1213.5,490.5C 1210.55,491.566 1207.89,491.566 1205.5,490.5C 1204.5,491.167 1203.5,491.833 1202.5,492.5C 1199.8,490.165 1197.3,490.165 1195,492.5C 1193.98,489.972 1192.82,489.972 1191.5,492.5C 1190.52,492.023 1189.69,491.357 1189,490.5C 1188.26,491.641 1187.43,491.641 1186.5,490.5C 1185.46,492.991 1184.63,492.991 1184,490.5C 1183.37,492.991 1182.54,492.991 1181.5,490.5C 1180.81,491.025 1180.31,491.692 1180,492.5C 1178.45,489.997 1176.78,489.997 1175,492.5C 1174.69,491.692 1174.19,491.025 1173.5,490.5C 1171.93,490.694 1170.43,490.694 1169,490.5C 1167.21,492.513 1165.88,492.513 1165,490.5C 1163.67,493.167 1162.33,493.167 1161,490.5C 1159.69,492.891 1158.69,492.891 1158,490.5C 1157.33,491.833 1156.67,491.833 1156,490.5C 1155.33,493.167 1154.67,493.167 1154,490.5C 1153.37,492.991 1152.54,492.991 1151.5,490.5C 1150.57,491.641 1149.74,491.641 1149,490.5C 1148.67,491.167 1148.33,491.833 1148,492.5C 1146.21,492.377 1144.38,492.377 1142.5,492.5C 1141.83,491.833 1141.17,491.167 1140.5,490.5C 1138.36,490.638 1136.2,490.638 1134,490.5C 1133.05,491.022 1132.22,491.689 1131.5,492.5C 1130.3,492.154 1130.3,491.654 1131.5,491C 1129.57,490.217 1128.07,490.717 1127,492.5C 1126.48,491.484 1125.65,490.818 1124.5,490.5C 1121.35,491.598 1118.51,491.598 1116,490.5C 1115.67,491.167 1115.33,491.833 1115,492.5C 1113.99,492.018 1112.82,491.852 1111.5,492C 1112.7,491.346 1112.7,490.846 1111.5,490.5C 1109.88,493.058 1108.38,493.058 1107,490.5C 1106.33,491.167 1105.67,491.833 1105,492.5C 1103.44,492.088 1101.94,491.755 1100.5,491.5C 1100.5,486.5 1100.5,481.5 1100.5,476.5C 1098.82,476.285 1097.82,476.952 1097.5,478.5C 1095.42,482.336 1093.08,486.003 1090.5,489.5C 1087.5,492.167 1084.5,494.833 1081.5,497.5C 1080.4,496.603 1080.4,495.77 1081.5,495C 1080.5,494.5 1079.5,494 1078.5,493.5C 1037.66,493.789 995.99,493.789 953.5,493.5C 950.167,490.5 946.833,487.5 943.5,484.5C 943.369,483.761 943.536,483.094 944,482.5C 957.049,482.886 970.216,483.22 983.5,483.5C 984.541,481.009 985.374,481.009 986,483.5C 991.803,482.184 997.636,482.184 1003.5,483.5C 1006.64,482.911 1009.64,482.244 1012.5,481.5C 1018.86,482.405 1025.19,482.071 1031.5,480.5C 1040.59,478.62 1048.59,474.62 1055.5,468.5C 1057.02,468.489 1058.18,467.823 1059,466.5C 1060,467.167 1061,467.833 1062,468.5C 1082.93,467.839 1103.76,467.172 1124.5,466.5 Z"/></g>
<g><path style="opacity:0.995" fill="#6bcbc3" d="M 759.5,476.5 C 759.334,480.514 759.501,484.514 760,488.5C 761.442,490.391 762.609,492.391 763.5,494.5C 748.029,493.893 732.863,493.559 718,493.5C 717.292,494.381 716.458,495.047 715.5,495.5C 716.34,493.147 717.674,491.147 719.5,489.5C 720.487,484.695 720.821,479.695 720.5,474.5C 733.108,474.589 744.941,474.256 756,473.5C 757.599,474.071 758.766,475.071 759.5,476.5 Z"/></g>
<g><path style="opacity:0.808" fill="#406f6d" d="M 943.5,484.5 C 946.833,487.5 950.167,490.5 953.5,493.5C 954.833,495.167 956.167,496.833 957.5,498.5C 951.833,494.833 947.167,490.167 943.5,484.5 Z"/></g>
<g><path style="opacity:0.82" fill="#407270" d="M 152.5,482.5 C 153.634,484.966 153.801,487.633 153,490.5C 152.617,491.056 152.117,491.389 151.5,491.5C 152.299,488.57 152.632,485.57 152.5,482.5 Z"/></g>
<g><path style="opacity:0.82" fill="#407371" d="M 403.5,487.5 C 406.243,489.239 408.243,491.573 409.5,494.5C 406.757,492.761 404.757,490.427 403.5,487.5 Z"/></g>
<g><path style="opacity:0.486" fill="#000000" d="M 368.5,517.5 C 369.5,517.5 370.5,517.5 371.5,517.5C 372.536,519.391 372.536,521.224 371.5,523C 350.503,523.5 329.503,523.667 308.5,523.5C 308.5,516.833 308.5,510.167 308.5,503.5C 310.226,501.772 311.559,499.772 312.5,497.5C 314.262,496.738 315.262,495.404 315.5,493.5C 316.117,493.389 316.617,493.056 317,492.5C 317.5,500.827 317.666,509.16 317.5,517.5C 334.5,517.5 351.5,517.5 368.5,517.5 Z"/></g>
<g><path style="opacity:1" fill="#70cdc2" d="M 584.5,473.5 C 597.393,474.618 610.059,474.618 622.5,473.5C 622.183,477.702 622.517,481.702 623.5,485.5C 633.5,485.5 643.5,485.5 653.5,485.5C 656.247,485.813 658.914,485.48 661.5,484.5C 663.499,480.525 665.832,476.859 668.5,473.5C 677.071,473.718 685.237,474.052 693,474.5C 693.5,483.16 693.666,491.827 693.5,500.5C 692.25,500.577 691.417,501.244 691,502.5C 689.609,500.285 687.943,500.285 686,502.5C 685.692,501.692 685.192,501.025 684.5,500.5C 682.737,500.694 680.903,500.694 679,500.5C 678.667,501.167 678.333,501.833 678,502.5C 677.481,501.484 676.647,500.818 675.5,500.5C 668.189,501.16 661.023,501.16 654,500.5C 652.635,500.844 651.468,501.511 650.5,502.5C 649.5,501.833 648.5,501.167 647.5,500.5C 641.273,500.939 635.106,500.939 629,500.5C 628.055,500.905 627.388,501.572 627,502.5C 625.527,500.993 623.693,500.326 621.5,500.5C 612.215,500.858 603.215,500.858 594.5,500.5C 593.808,501.025 593.308,501.692 593,502.5C 591.333,502.5 589.667,502.5 588,502.5C 587.612,501.572 586.945,500.905 586,500.5C 582.073,500.953 578.573,501.286 575.5,501.5C 575.427,499.973 576.094,498.973 577.5,498.5C 580.135,495.921 582.301,492.921 584,489.5C 584.499,484.177 584.666,478.844 584.5,473.5 Z"/></g>
<g><path style="opacity:0.808" fill="#41706c" d="M 957.5,498.5 C 959.749,499.08 961.415,500.413 962.5,502.5C 960.251,501.92 958.585,500.587 957.5,498.5 Z"/></g>
<g><path style="opacity:0.804" fill="#406e6c" d="M 410.5,495.5 C 413.573,497.569 415.906,500.236 417.5,503.5C 414.427,501.431 412.094,498.764 410.5,495.5 Z"/></g>
<g><path style="opacity:0.996" fill="#78cfc2" d="M 102.5,485.5 C 101.697,486.423 101.53,487.423 102,488.5C 108.376,498.087 114.876,507.587 121.5,517C 119.19,517.497 116.857,517.663 114.5,517.5C 113.5,517.5 112.5,517.5 111.5,517.5C 90.6707,516.668 69.6707,516.168 48.5,516C 49.5822,514.67 50.2488,513.17 50.5,511.5C 51.3403,509.147 52.6736,507.147 54.5,505.5C 56.9501,503.371 58.6167,500.704 59.5,497.5C 59.427,495.973 60.0937,494.973 61.5,494.5C 64.7874,491.596 66.7874,487.929 67.5,483.5C 78.127,483.186 89.4604,482.852 101.5,482.5C 101.263,483.791 101.596,484.791 102.5,485.5 Z"/></g>
<g><path style="opacity:1" fill="#78cfc1" d="M 312.5,497.5 C 311.559,499.772 310.226,501.772 308.5,503.5C 306.833,504.833 305.167,506.167 303.5,507.5C 298.109,509.693 292.776,512.193 287.5,515C 282.423,516.68 277.423,518.18 272.5,519.5C 268.681,520.166 264.681,520.499 260.5,520.5C 254.583,520.695 248.916,520.029 243.5,518.5C 235.299,515.402 227.299,511.735 219.5,507.5C 217.596,507.262 216.262,506.262 215.5,504.5C 214.341,502.623 212.674,502.123 210.5,503C 209.177,503.816 208.511,504.983 208.5,506.5C 207.747,509.688 208.747,512.354 211.5,514.5C 211.5,515.167 211.833,515.5 212.5,515.5C 211.082,517.308 209.082,517.975 206.5,517.5C 205.5,517.5 204.5,517.5 203.5,517.5C 181.33,516.833 158.996,516.167 136.5,515.5C 139.952,510.727 142.952,505.727 145.5,500.5C 146.34,498.147 147.674,496.147 149.5,494.5C 203.62,493.926 257.454,493.593 311,493.5C 313.744,494.061 314.244,495.394 312.5,497.5 Z"/></g>
<g><path style="opacity:0.993" fill="#79d1c2" d="M 318.5,493.5 C 333.036,493.906 347.37,493.906 361.5,493.5C 366.97,501.155 372.304,508.989 377.5,517C 375.527,517.495 373.527,517.662 371.5,517.5C 370.5,517.5 369.5,517.5 368.5,517.5C 352.008,516.503 335.342,516.17 318.5,516.5C 318.5,508.833 318.5,501.167 318.5,493.5 Z"/></g>
<g><path style="opacity:1" fill="#76cfc2" d="M 433.5,482.5 C 437.586,489.007 441.92,495.34 446.5,501.5C 446.833,502.833 447.167,504.167 447.5,505.5C 447.418,507.252 448.251,508.252 450,508.5C 451.595,507.644 452.428,506.311 452.5,504.5C 453.34,502.147 454.674,500.147 456.5,498.5C 458.167,496.5 459.833,494.5 461.5,492.5C 462.721,491.972 463.887,491.305 465,490.5C 465.85,491.424 466.85,491.424 468,490.5C 468.95,491.022 469.784,491.689 470.5,492.5C 471.5,491.833 472.5,491.167 473.5,490.5C 474.425,491.641 475.259,491.641 476,490.5C 477.309,492.891 478.309,492.891 479,490.5C 483.623,490.749 488.123,491.416 492.5,492.5C 493.192,491.975 493.692,491.308 494,490.5C 495.333,493.167 496.667,493.167 498,490.5C 499.43,490.694 500.93,490.694 502.5,490.5C 504.382,491.093 506.215,491.76 508,492.5C 508.667,491.833 509.333,491.167 510,490.5C 513.411,492.769 516.744,492.769 520,490.5C 521.784,493.003 523.451,493.003 525,490.5C 525.333,491.167 525.667,491.833 526,492.5C 528.316,490.541 530.316,490.541 532,492.5C 533.925,490.027 535.758,490.027 537.5,492.5C 539.448,490.461 541.615,490.461 544,492.5C 549.156,490.337 554.489,490.337 560,492.5C 560.333,491.833 560.667,491.167 561,490.5C 561.77,491.598 562.603,491.598 563.5,490.5C 563.5,496.5 563.5,502.5 563.5,508.5C 563.5,509.5 563.5,510.5 563.5,511.5C 562.778,511.918 562.278,512.584 562,513.5C 561.667,512.833 561.333,512.167 561,511.5C 559.333,511.5 557.667,511.5 556,511.5C 555.667,512.167 555.333,512.833 555,513.5C 554.196,512.196 553.029,511.529 551.5,511.5C 548.314,511.668 544.981,511.835 541.5,512C 539.987,514.023 538.654,513.856 537.5,511.5C 535.833,511.5 534.167,511.5 532.5,511.5C 531.808,512.025 531.308,512.692 531,513.5C 528.305,510.866 526.471,510.866 525.5,513.5C 524.833,512.833 524.167,512.167 523.5,511.5C 523.167,512.167 522.833,512.833 522.5,513.5C 521.318,511.355 519.818,511.355 518,513.5C 517.667,512.833 517.333,512.167 517,511.5C 514.351,511.745 511.518,512.411 508.5,513.5C 507.214,513.148 506.381,512.482 506,511.5C 502.112,511.545 498.278,511.545 494.5,511.5C 493.833,511.667 493.167,511.833 492.5,512C 493.696,512.654 493.696,513.154 492.5,513.5C 491.522,513.023 490.689,512.357 490,511.5C 488.867,513.211 487.367,513.711 485.5,513C 485.833,512.667 486.167,512.333 486.5,512C 483.422,512.066 480.422,511.899 477.5,511.5C 475.373,512.648 473.206,513.648 471,514.5C 469.981,513.313 468.814,512.313 467.5,511.5C 466.28,512.711 465.113,512.711 464,511.5C 463.667,512.167 463.333,512.833 463,513.5C 462.612,512.572 461.945,511.905 461,511.5C 457.213,513.981 453.546,513.981 450,511.5C 447.586,512.084 444.919,512.084 442,511.5C 439.703,513.421 437.703,513.421 436,511.5C 432.998,511.217 429.832,511.55 426.5,512.5C 426.167,512.5 425.833,512.5 425.5,512.5C 424.833,512.5 424.5,512.167 424.5,511.5C 422.906,508.236 420.573,505.569 417.5,503.5C 415.906,500.236 413.573,497.569 410.5,495.5C 409.833,495.5 409.5,495.167 409.5,494.5C 408.243,491.573 406.243,489.239 403.5,487.5C 402.5,487.167 401.833,486.5 401.5,485.5C 401.414,484.504 401.748,483.671 402.5,483C 404.441,482.257 406.274,482.424 408,483.5C 408.667,482.833 409.333,482.167 410,481.5C 412,482.167 414,482.833 416,483.5C 421.64,482.704 427.474,482.371 433.5,482.5 Z"/></g>
<g><path style="opacity:0.8" fill="#3c6b67" d="M 461.5,490.5 C 461.5,491.167 461.5,491.833 461.5,492.5C 459.833,494.5 458.167,496.5 456.5,498.5C 457.383,495.296 459.05,492.629 461.5,490.5 Z"/></g>
<g><path style="opacity:1" fill="#7ad1c2" d="M 693.5,500.5 C 693.5,506.5 693.5,512.5 693.5,518.5C 693.167,518.5 692.833,518.5 692.5,518.5C 691.5,518.5 690.5,518.5 689.5,518.5C 689.167,518.5 688.833,518.5 688.5,518.5C 647.656,518.165 606.99,517.165 566.5,515.5C 569.579,512.35 571.913,508.683 573.5,504.5C 573.427,502.973 574.094,501.973 575.5,501.5C 578.573,501.286 582.073,500.953 586,500.5C 586.945,500.905 587.612,501.572 588,502.5C 589.667,502.5 591.333,502.5 593,502.5C 593.308,501.692 593.808,501.025 594.5,500.5C 603.215,500.858 612.215,500.858 621.5,500.5C 623.693,500.326 625.527,500.993 627,502.5C 627.388,501.572 628.055,500.905 629,500.5C 635.106,500.939 641.273,500.939 647.5,500.5C 648.5,501.167 649.5,501.833 650.5,502.5C 651.468,501.511 652.635,500.844 654,500.5C 661.023,501.16 668.189,501.16 675.5,500.5C 676.647,500.818 677.481,501.484 678,502.5C 678.333,501.833 678.667,501.167 679,500.5C 680.903,500.694 682.737,500.694 684.5,500.5C 685.192,501.025 685.692,501.692 686,502.5C 687.943,500.285 689.609,500.285 691,502.5C 691.417,501.244 692.25,500.577 693.5,500.5 Z"/></g>
<g><path style="opacity:0.995" fill="#79d0c2" d="M 763.5,494.5 C 769.496,501.843 775.163,509.51 780.5,517.5C 778.604,518.466 776.604,518.799 774.5,518.5C 773.5,518.5 772.5,518.5 771.5,518.5C 748.315,518.164 725.315,517.164 702.5,515.5C 702.427,513.973 703.094,512.973 704.5,512.5C 707.579,509.35 709.913,505.683 711.5,501.5C 712.34,499.147 713.674,497.147 715.5,495.5C 716.458,495.047 717.292,494.381 718,493.5C 732.863,493.559 748.029,493.893 763.5,494.5 Z"/></g>
<g><path style="opacity:1" fill="#78cfc1" d="M 953.5,493.5 C 995.99,493.789 1037.66,493.789 1078.5,493.5C 1079.5,494 1080.5,494.5 1081.5,495C 1080.4,495.77 1080.4,496.603 1081.5,497.5C 1081.17,498.5 1080.5,499.167 1079.5,499.5C 1078.13,499.343 1076.79,499.51 1075.5,500C 1071.1,503.188 1066.77,506.355 1062.5,509.5C 1057.46,513.18 1051.8,515.514 1045.5,516.5C 1042.57,516.565 1039.91,517.232 1037.5,518.5C 1035.39,519.468 1033.06,519.802 1030.5,519.5C 1018.43,519.871 1006.43,519.204 994.5,517.5C 985.671,514.424 977.004,510.758 968.5,506.5C 966.147,505.66 964.147,504.326 962.5,502.5C 961.415,500.413 959.749,499.08 957.5,498.5C 956.167,496.833 954.833,495.167 953.5,493.5 Z"/></g>
<g><path style="opacity:0.017" fill="#000000" d="M 1078.5,500.5 C 1077.74,502.262 1076.4,503.262 1074.5,503.5C 1075.26,501.738 1076.6,500.738 1078.5,500.5 Z"/></g>
<g><path style="opacity:1" fill="#77cec1" d="M 1219.5,492.5 C 1216.28,498.391 1211.95,503.391 1206.5,507.5C 1201.11,509.693 1195.78,512.193 1190.5,515C 1185.42,516.68 1180.42,518.18 1175.5,519.5C 1171.68,520.166 1167.68,520.499 1163.5,520.5C 1157.58,520.695 1151.92,520.029 1146.5,518.5C 1143.78,516.928 1140.78,515.928 1137.5,515.5C 1132.67,512.582 1127.67,509.916 1122.5,507.5C 1120.6,507.262 1119.26,506.262 1118.5,504.5C 1117.34,502.623 1115.67,502.123 1113.5,503C 1112.18,503.816 1111.51,504.983 1111.5,506.5C 1110.19,507.467 1109.53,508.801 1109.5,510.5C 1106.17,513.5 1102.83,516.5 1099.5,519.5C 1099.5,518.5 1099.5,517.5 1099.5,516.5C 1100.49,508.35 1100.83,500.017 1100.5,491.5C 1101.94,491.755 1103.44,492.088 1105,492.5C 1105.67,491.833 1106.33,491.167 1107,490.5C 1108.38,493.058 1109.88,493.058 1111.5,490.5C 1112.7,490.846 1112.7,491.346 1111.5,492C 1112.82,491.852 1113.99,492.018 1115,492.5C 1115.33,491.833 1115.67,491.167 1116,490.5C 1118.51,491.598 1121.35,491.598 1124.5,490.5C 1125.65,490.818 1126.48,491.484 1127,492.5C 1128.07,490.717 1129.57,490.217 1131.5,491C 1130.3,491.654 1130.3,492.154 1131.5,492.5C 1132.22,491.689 1133.05,491.022 1134,490.5C 1136.2,490.638 1138.36,490.638 1140.5,490.5C 1141.17,491.167 1141.83,491.833 1142.5,492.5C 1144.38,492.377 1146.21,492.377 1148,492.5C 1148.33,491.833 1148.67,491.167 1149,490.5C 1149.74,491.641 1150.57,491.641 1151.5,490.5C 1152.54,492.991 1153.37,492.991 1154,490.5C 1154.67,493.167 1155.33,493.167 1156,490.5C 1156.67,491.833 1157.33,491.833 1158,490.5C 1158.69,492.891 1159.69,492.891 1161,490.5C 1162.33,493.167 1163.67,493.167 1165,490.5C 1165.88,492.513 1167.21,492.513 1169,490.5C 1170.43,490.694 1171.93,490.694 1173.5,490.5C 1174.19,491.025 1174.69,491.692 1175,492.5C 1176.78,489.997 1178.45,489.997 1180,492.5C 1180.31,491.692 1180.81,491.025 1181.5,490.5C 1182.54,492.991 1183.37,492.991 1184,490.5C 1184.63,492.991 1185.46,492.991 1186.5,490.5C 1187.43,491.641 1188.26,491.641 1189,490.5C 1189.69,491.357 1190.52,492.023 1191.5,492.5C 1192.82,489.972 1193.98,489.972 1195,492.5C 1197.3,490.165 1199.8,490.165 1202.5,492.5C 1203.5,491.833 1204.5,491.167 1205.5,490.5C 1207.89,491.566 1210.55,491.566 1213.5,490.5C 1215.8,490.599 1217.8,491.266 1219.5,492.5 Z"/></g>
<g><path style="opacity:0.804" fill="#40706b" d="M 59.5,497.5 C 58.6167,500.704 56.9501,503.371 54.5,505.5C 55.3833,502.296 57.0499,499.629 59.5,497.5 Z"/></g>
<g><path style="opacity:0.82" fill="#40716d" d="M 215.5,504.5 C 214.417,504.461 213.417,504.127 212.5,503.5C 211.148,504.524 209.815,505.524 208.5,506.5C 208.511,504.983 209.177,503.816 210.5,503C 212.674,502.123 214.341,502.623 215.5,504.5 Z"/></g>
<g><path style="opacity:0.457" fill="#000000" d="M 215.5,504.5 C 216.262,506.262 217.596,507.262 219.5,507.5C 226.44,513.301 234.44,516.967 243.5,518.5C 248.916,520.029 254.583,520.695 260.5,520.5C 264.681,520.499 268.681,520.166 272.5,519.5C 283.018,518.55 292.684,515.217 301.5,509.5C 291.97,518.43 280.637,523.93 267.5,526C 247.843,529.368 229.509,525.868 212.5,515.5C 211.833,515.5 211.5,515.167 211.5,514.5C 208.747,512.354 207.747,509.688 208.5,506.5C 209.815,505.524 211.148,504.524 212.5,503.5C 213.417,504.127 214.417,504.461 215.5,504.5 Z"/></g>
<g><path style="opacity:0.82" fill="#40716d" d="M 1118.5,504.5 C 1117.42,504.461 1116.42,504.127 1115.5,503.5C 1114.15,504.524 1112.81,505.524 1111.5,506.5C 1111.51,504.983 1112.18,503.816 1113.5,503C 1115.67,502.123 1117.34,502.623 1118.5,504.5 Z"/></g>
<g><path style="opacity:0.452" fill="#000101" d="M 1118.5,504.5 C 1119.26,506.262 1120.6,507.262 1122.5,507.5C 1126.74,511.455 1131.74,514.122 1137.5,515.5C 1140.08,517.472 1143.08,518.472 1146.5,518.5C 1151.92,520.029 1157.58,520.695 1163.5,520.5C 1167.68,520.499 1171.68,520.166 1175.5,519.5C 1186.02,518.55 1195.68,515.217 1204.5,509.5C 1194.97,518.43 1183.64,523.93 1170.5,526C 1147.71,530.014 1127.37,524.847 1109.5,510.5C 1109.53,508.801 1110.19,507.467 1111.5,506.5C 1112.81,505.524 1114.15,504.524 1115.5,503.5C 1116.42,504.127 1117.42,504.461 1118.5,504.5 Z"/></g>
<g><path style="opacity:0.639" fill="#548e8a" d="M 1079.5,499.5 C 1079.5,500.167 1079.17,500.5 1078.5,500.5C 1076.6,500.738 1075.26,501.738 1074.5,503.5C 1070.75,505.904 1066.75,507.904 1062.5,509.5C 1066.77,506.355 1071.1,503.188 1075.5,500C 1076.79,499.51 1078.13,499.343 1079.5,499.5 Z"/></g>
<g><path style="opacity:0.796" fill="#3f6865" d="M 417.5,503.5 C 420.573,505.569 422.906,508.236 424.5,511.5C 421.427,509.431 419.094,506.764 417.5,503.5 Z"/></g>
<g><path style="opacity:0.788" fill="#3c6964" d="M 452.5,504.5 C 452.428,506.311 451.595,507.644 450,508.5C 448.251,508.252 447.418,507.252 447.5,505.5C 448.458,505.953 449.292,506.619 450,507.5C 450.377,506.058 451.21,505.058 452.5,504.5 Z"/></g>
<g><path style="opacity:0.8" fill="#406d67" d="M 573.5,504.5 C 571.913,508.683 569.579,512.35 566.5,515.5C 568.087,511.317 570.421,507.65 573.5,504.5 Z"/></g>
<g><path style="opacity:0.8" fill="#406d68" d="M 711.5,501.5 C 709.913,505.683 707.579,509.35 704.5,512.5C 706.087,508.317 708.421,504.65 711.5,501.5 Z"/></g>
<g><path style="opacity:0.565" fill="#7684bf" d="M 852.5,501.5 C 854.167,502.167 855.833,502.833 857.5,503.5C 859.297,504.73 861.297,505.396 863.5,505.5C 864.167,505.5 864.5,505.833 864.5,506.5C 865.167,506.5 865.833,506.5 866.5,506.5C 867.167,506.5 867.5,506.833 867.5,507.5C 868.167,507.5 868.833,507.5 869.5,507.5C 870.167,507.5 870.5,507.833 870.5,508.5C 871.167,508.5 871.833,508.5 872.5,508.5C 873.167,508.5 873.5,508.833 873.5,509.5C 874.167,509.5 874.833,509.5 875.5,509.5C 876.167,509.5 876.5,509.833 876.5,510.5C 877.167,510.5 877.833,510.5 878.5,510.5C 885.746,512.916 892.746,515.916 899.5,519.5C 899.167,519.5 898.833,519.5 898.5,519.5C 882.949,514.208 867.616,508.541 852.5,502.5C 852.5,502.167 852.5,501.833 852.5,501.5 Z"/></g>
<g><path style="opacity:0.8" fill="#416c67" d="M 968.5,506.5 C 977.004,510.758 985.671,514.424 994.5,517.5C 984.837,515.997 976.17,512.33 968.5,506.5 Z"/></g>
<g><path style="opacity:0.8" fill="#406b66" d="M 219.5,507.5 C 227.299,511.735 235.299,515.402 243.5,518.5C 234.44,516.967 226.44,513.301 219.5,507.5 Z"/></g>
<g><path style="opacity:0.993" fill="#80d3c2" d="M 563.5,511.5 C 563.5,513.5 563.5,515.5 563.5,517.5C 527.5,517.5 491.5,517.5 455.5,517.5C 455.229,519.38 455.896,520.713 457.5,521.5C 458.728,522.306 459.728,523.306 460.5,524.5C 478.86,554.517 497.194,584.517 515.5,614.5C 510.833,609.833 506.167,605.167 501.5,600.5C 500.833,600.5 500.5,600.167 500.5,599.5C 500.672,598.508 500.338,597.842 499.5,597.5C 498.833,597.5 498.5,597.167 498.5,596.5C 497.833,596.5 497.5,596.167 497.5,595.5C 493.833,590.833 490.167,586.167 486.5,581.5C 484.57,577.9 481.903,574.9 478.5,572.5C 476.906,569.236 474.573,566.569 471.5,564.5C 469.57,560.9 466.903,557.9 463.5,555.5C 461.57,551.9 458.903,548.9 455.5,546.5C 453.906,543.236 451.573,540.569 448.5,538.5C 446.57,534.9 443.903,531.9 440.5,529.5C 438.57,525.9 435.903,522.9 432.5,520.5C 430.909,517.569 428.909,514.902 426.5,512.5C 429.832,511.55 432.998,511.217 436,511.5C 437.703,513.421 439.703,513.421 442,511.5C 444.919,512.084 447.586,512.084 450,511.5C 453.546,513.981 457.213,513.981 461,511.5C 461.945,511.905 462.612,512.572 463,513.5C 463.333,512.833 463.667,512.167 464,511.5C 465.113,512.711 466.28,512.711 467.5,511.5C 468.814,512.313 469.981,513.313 471,514.5C 473.206,513.648 475.373,512.648 477.5,511.5C 480.422,511.899 483.422,512.066 486.5,512C 486.167,512.333 485.833,512.667 485.5,513C 487.367,513.711 488.867,513.211 490,511.5C 490.689,512.357 491.522,513.023 492.5,513.5C 493.696,513.154 493.696,512.654 492.5,512C 493.167,511.833 493.833,511.667 494.5,511.5C 498.278,511.545 502.112,511.545 506,511.5C 506.381,512.482 507.214,513.148 508.5,513.5C 511.518,512.411 514.351,511.745 517,511.5C 517.333,512.167 517.667,512.833 518,513.5C 519.818,511.355 521.318,511.355 522.5,513.5C 522.833,512.833 523.167,512.167 523.5,511.5C 524.167,512.167 524.833,512.833 525.5,513.5C 526.471,510.866 528.305,510.866 531,513.5C 531.308,512.692 531.808,512.025 532.5,511.5C 534.167,511.5 535.833,511.5 537.5,511.5C 538.654,513.856 539.987,514.023 541.5,512C 544.981,511.835 548.314,511.668 551.5,511.5C 553.029,511.529 554.196,512.196 555,513.5C 555.333,512.833 555.667,512.167 556,511.5C 557.667,511.5 559.333,511.5 561,511.5C 561.333,512.167 561.667,512.833 562,513.5C 562.278,512.584 562.778,511.918 563.5,511.5 Z"/></g>
<g><path style="opacity:0.796" fill="#416d68" d="M 1122.5,507.5 C 1127.67,509.916 1132.67,512.582 1137.5,515.5C 1131.74,514.122 1126.74,511.455 1122.5,507.5 Z"/></g>
<g><path style="opacity:0.796" fill="#416d64" d="M 50.5,511.5 C 50.2488,513.17 49.5822,514.67 48.5,516C 69.6707,516.168 90.6707,516.668 111.5,517.5C 89.8231,517.833 68.1564,517.5 46.5,516.5C 47.6125,514.581 48.9458,512.914 50.5,511.5 Z"/></g>
<g><path style="opacity:0.796" fill="#416d65" d="M 145.5,500.5 C 142.952,505.727 139.952,510.727 136.5,515.5C 158.996,516.167 181.33,516.833 203.5,517.5C 201.409,517.318 199.409,517.652 197.5,518.5C 176.535,517.844 155.535,517.177 134.5,516.5C 137.696,510.753 141.362,505.419 145.5,500.5 Z"/></g>
<g><path style="opacity:0.776" fill="#406865" d="M 425.5,512.5 C 425.833,512.5 426.167,512.5 426.5,512.5C 428.909,514.902 430.909,517.569 432.5,520.5C 429.427,518.431 427.094,515.764 425.5,512.5 Z"/></g>
<g><path style="opacity:0.804" fill="#416d68" d="M 1137.5,515.5 C 1140.78,515.928 1143.78,516.928 1146.5,518.5C 1143.08,518.472 1140.08,517.472 1137.5,515.5 Z"/></g>
<g><path style="opacity:0.796" fill="#427069" d="M 318.5,493.5 C 318.5,501.167 318.5,508.833 318.5,516.5C 335.342,516.17 352.008,516.503 368.5,517.5C 351.5,517.5 334.5,517.5 317.5,517.5C 317.666,509.16 317.5,500.827 317,492.5C 316.617,493.056 316.117,493.389 315.5,493.5C 316.5,490.833 317.5,490.833 318.5,493.5 Z"/></g>
<g><path style="opacity:0.796" fill="#426d65" d="M 563.5,508.5 C 563.833,508.5 564.167,508.5 564.5,508.5C 564.336,511.187 564.503,513.854 565,516.5C 565.383,515.944 565.883,515.611 566.5,515.5C 606.99,517.165 647.656,518.165 688.5,518.5C 611.166,518.333 533.833,518.5 456.5,519C 457.252,519.671 457.586,520.504 457.5,521.5C 455.896,520.713 455.229,519.38 455.5,517.5C 491.5,517.5 527.5,517.5 563.5,517.5C 563.5,515.5 563.5,513.5 563.5,511.5C 563.5,510.5 563.5,509.5 563.5,508.5 Z"/></g>
<g><path style="opacity:0.796" fill="#426d64" d="M 702.5,515.5 C 725.315,517.164 748.315,518.164 771.5,518.5C 747.824,518.833 724.157,518.5 700.5,517.5C 700.855,516.478 701.522,515.811 702.5,515.5 Z"/></g>
<g><path style="opacity:0.808" fill="#416d69" d="M 1045.5,516.5 C 1043.16,518.04 1040.5,518.706 1037.5,518.5C 1039.91,517.232 1042.57,516.565 1045.5,516.5 Z"/></g>
<g><path style="opacity:0.804" fill="#436f6b" d="M 1206.5,507.5 C 1206.17,508.5 1205.5,509.167 1204.5,509.5C 1195.68,515.217 1186.02,518.55 1175.5,519.5C 1180.42,518.18 1185.42,516.68 1190.5,515C 1195.78,512.193 1201.11,509.693 1206.5,507.5 Z"/></g>
<g><path style="opacity:0.816" fill="#44726e" d="M 303.5,507.5 C 303.167,508.5 302.5,509.167 301.5,509.5C 292.684,515.217 283.018,518.55 272.5,519.5C 277.423,518.18 282.423,516.68 287.5,515C 292.776,512.193 298.109,509.693 303.5,507.5 Z"/></g>
<g><path style="opacity:0.476" fill="#000000" d="M 688.5,518.5 C 688.833,518.5 689.167,518.5 689.5,518.5C 689.5,520.5 689.5,522.5 689.5,524.5C 613.167,524.5 536.833,524.5 460.5,524.5C 459.728,523.306 458.728,522.306 457.5,521.5C 457.586,520.504 457.252,519.671 456.5,519C 533.833,518.5 611.166,518.333 688.5,518.5 Z"/></g>
<g><path style="opacity:0.796" fill="#416e69" d="M 994.5,517.5 C 1006.43,519.204 1018.43,519.871 1030.5,519.5C 1022.01,520.657 1013.34,520.824 1004.5,520C 1000.91,519.689 997.577,518.856 994.5,517.5 Z"/></g>
<g><path style="opacity:0.784" fill="#3e6460" d="M 432.5,520.5 C 435.903,522.9 438.57,525.9 440.5,529.5C 437.097,527.1 434.43,524.1 432.5,520.5 Z"/></g>
<g><path style="opacity:0.882" fill="#696cb2" d="M 898.5,519.5 C 898.833,519.5 899.167,519.5 899.5,519.5C 920.791,527.087 928.625,541.753 923,563.5C 919.747,569.39 915.58,574.39 910.5,578.5C 907.393,579.889 904.393,581.555 901.5,583.5C 900.893,583.376 900.56,583.043 900.5,582.5C 903.263,580.92 905.93,579.087 908.5,577C 922.176,565.471 925.342,551.638 918,535.5C 912.498,528.82 905.998,523.487 898.5,519.5 Z"/></g>
<g><path style="opacity:0.792" fill="#3f6762" d="M 440.5,529.5 C 443.903,531.9 446.57,534.9 448.5,538.5C 445.097,536.1 442.43,533.1 440.5,529.5 Z"/></g>
<g><path style="opacity:0.776" fill="#406763" d="M 448.5,538.5 C 451.573,540.569 453.906,543.236 455.5,546.5C 452.427,544.431 450.094,541.764 448.5,538.5 Z"/></g>
<g><path style="opacity:1" fill="#0c8fb2" d="M 869.5,546.5 C 869.833,546.5 870.167,546.5 870.5,546.5C 875.258,549.042 880.258,551.375 885.5,553.5C 886.272,602.172 885.772,650.839 884,699.5C 883.405,703.912 881.905,707.912 879.5,711.5C 877.019,711.677 875.186,710.677 874,708.5C 872.601,705.637 871.601,702.637 871,699.5C 869.972,649.432 868.806,599.432 867.5,549.5C 867.285,547.821 867.952,546.821 869.5,546.5 Z"/></g>
<g><path style="opacity:0.535" fill="#020303" d="M 867.5,549.5 C 868.806,599.432 869.972,649.432 871,699.5C 871.601,702.637 872.601,705.637 874,708.5C 875.186,710.677 877.019,711.677 879.5,711.5C 879.833,711.5 880.167,711.5 880.5,711.5C 878.004,717.204 873.671,719.038 867.5,717C 864.333,713.845 862.499,710.012 862,705.5C 860.847,671.507 860.013,637.507 859.5,603.5C 860.753,600.093 861.42,596.427 861.5,592.5C 861.486,588.761 860.82,585.428 859.5,582.5C 858.482,571.519 858.316,560.519 859,549.5C 861.832,548.214 864.665,548.214 867.5,549.5 Z"/></g>
<g><path style="opacity:0.784" fill="#3e6460" d="M 455.5,546.5 C 458.903,548.9 461.57,551.9 463.5,555.5C 460.097,553.1 457.43,550.1 455.5,546.5 Z"/></g>
<g><path style="opacity:0.981" fill="#666db4" d="M 870.5,546.5 C 876.791,548.042 882.791,550.376 888.5,553.5C 889.499,565.815 889.832,578.149 889.5,590.5C 889.193,624.502 888.693,658.502 888,692.5C 888.038,698.51 886.705,704.176 884,709.5C 883.184,710.823 882.017,711.489 880.5,711.5C 880.167,711.5 879.833,711.5 879.5,711.5C 881.905,707.912 883.405,703.912 884,699.5C 885.772,650.839 886.272,602.172 885.5,553.5C 880.258,551.375 875.258,549.042 870.5,546.5 Z"/></g>
<g><path style="opacity:0.765" fill="#3f6662" d="M 463.5,555.5 C 466.903,557.9 469.57,560.9 471.5,564.5C 468.097,562.1 465.43,559.1 463.5,555.5 Z"/></g>
<g><path style="opacity:0.773" fill="#3f6762" d="M 471.5,564.5 C 474.573,566.569 476.906,569.236 478.5,572.5C 475.427,570.431 473.094,567.764 471.5,564.5 Z"/></g>
<g><path style="opacity:0.759" fill="#374a4f" d="M 897.5,561.5 C 897.175,569.019 897.508,576.352 898.5,583.5C 898.44,584.043 898.107,584.376 897.5,584.5C 896.18,576.677 896.18,569.01 897.5,561.5 Z"/></g>
<g><path style="opacity:0.655" fill="#487974" d="M 478.5,572.5 C 481.903,574.9 484.57,577.9 486.5,581.5C 483.097,579.1 480.43,576.1 478.5,572.5 Z"/></g>
<g><path style="opacity:0.425" fill="#020203" d="M 853.5,583.5 C 849.017,587.137 844.35,590.637 839.5,594C 825.754,607.078 820.088,622.912 822.5,641.5C 821.933,643.03 821.267,644.53 820.5,646C 814.049,648.567 811.382,646.234 812.5,639C 813.483,610.883 827.15,592.383 853.5,583.5 Z"/></g>
<g><path style="opacity:1" fill="#128fb2" d="M 859.5,582.5 C 858.869,589.113 858.202,595.779 857.5,602.5C 842.456,608.877 831.79,619.544 825.5,634.5C 824.599,635.29 823.932,636.29 823.5,637.5C 823.567,638.959 823.234,640.292 822.5,641.5C 820.088,622.912 825.754,607.078 839.5,594C 844.35,590.637 849.017,587.137 853.5,583.5C 855.17,583.249 856.67,582.582 858,581.5C 858.383,582.056 858.883,582.389 859.5,582.5 Z"/></g>
<g><path style="opacity:0.099" fill="#030304" d="M 857.5,604.5 C 857.489,606.017 856.823,607.184 855.5,608C 851.606,610.446 847.606,612.612 843.5,614.5C 847.308,610.035 851.974,606.702 857.5,604.5 Z"/></g>
<g><path style="opacity:0.369" fill="#8ad7d8" d="M 515.5,614.5 C 516.167,614.5 516.5,614.833 516.5,615.5C 516.167,615.167 515.833,614.833 515.5,614.5 Z"/></g>
<g><path style="opacity:0.051" fill="#d2f0f1" d="M 516.5,615.5 C 517.833,616.167 517.833,616.167 516.5,615.5 Z"/></g>
<g><path style="opacity:0.844" fill="#6265ab" d="M 859.5,582.5 C 860.82,585.428 861.486,588.761 861.5,592.5C 861.42,596.427 860.753,600.093 859.5,603.5C 858.833,603.833 858.167,604.167 857.5,604.5C 851.974,606.702 847.308,610.035 843.5,614.5C 835.117,620.915 829.451,629.249 826.5,639.5C 825.549,638.081 825.216,636.415 825.5,634.5C 831.79,619.544 842.456,608.877 857.5,602.5C 858.202,595.779 858.869,589.113 859.5,582.5 Z"/></g>
<g><path style="opacity:0.118" fill="#bfc4e1" d="M 825.5,634.5 C 825.216,636.415 825.549,638.081 826.5,639.5C 826.44,640.043 826.107,640.376 825.5,640.5C 824.824,639.398 824.158,638.398 823.5,637.5C 823.932,636.29 824.599,635.29 825.5,634.5 Z"/></g>
</svg>
