<?xml version="1.0" encoding="UTF-8"?>
<!DOCTYPE svg PUBLIC "-//W3C//DTD SVG 1.1//EN" "http://www.w3.org/Graphics/SVG/1.1/DTD/svg11.dtd">
<svg xmlns="http://www.w3.org/2000/svg" version="1.1" width="512px" height="512px" style="shape-rendering:geometricPrecision; text-rendering:geometricPrecision; image-rendering:optimizeQuality; fill-rule:evenodd; clip-rule:evenodd" xmlns:xlink="http://www.w3.org/1999/xlink">
<g><path style="opacity:0.933" fill="#010202" d="M 354.5,68.5 C 356.857,68.3367 359.19,68.5034 361.5,69C 382.333,89.8333 403.167,110.667 424,131.5C 424.667,133.167 424.667,134.833 424,136.5C 417.22,143.955 409.887,150.621 402,156.5C 395.617,152.127 389.784,146.96 384.5,141C 383.833,140.333 383.167,140.333 382.5,141C 368.5,155 354.5,169 340.5,183C 352.667,195.167 364.833,207.333 377,219.5C 378.376,224.455 376.542,226.621 371.5,226C 365.667,220.167 359.833,214.333 354,208.5C 313.167,249.333 272.333,290.167 231.5,331C 227.018,334.287 222.018,335.287 216.5,334C 212.069,331.404 208.069,328.238 204.5,324.5C 200.682,327.818 197.015,331.318 193.5,335C 183.624,342.007 173.624,342.174 163.5,335.5C 145.347,353.153 127.347,370.986 109.5,389C 104.527,391.434 102.027,389.934 102,384.5C 120.5,366 139,347.5 157.5,329C 150.745,318.442 150.912,307.942 158,297.5C 161.349,294.318 164.516,290.985 167.5,287.5C 165.183,284.683 162.683,282.016 160,279.5C 156.667,273.833 156.667,268.167 160,262.5C 201,221.5 242,180.5 283,139.5C 283.667,138.833 283.667,138.167 283,137.5C 277.667,132.167 272.333,126.833 267,121.5C 265.67,116.502 267.504,114.336 272.5,115C 284.5,127 296.5,139 308.5,151C 309.167,151.667 309.833,151.667 310.5,151C 324.5,137 338.5,123 352.5,109C 346.042,103.218 340.375,96.8846 335.5,90C 335.667,89.1667 335.833,88.3333 336,87.5C 342.369,81.2981 348.536,74.9648 354.5,68.5 Z"/></g>
<g><path style="opacity:1" fill="#8ebefe" d="M 355.5,79.5 C 357.929,79.585 359.929,80.585 361.5,82.5C 377.833,98.8333 394.167,115.167 410.5,131.5C 411.95,132.85 412.617,134.516 412.5,136.5C 409.833,139.833 406.833,142.833 403.5,145.5C 384.417,127.584 365.75,109.084 347.5,90C 348.823,89.1841 349.489,88.0174 349.5,86.5C 351.132,83.8666 353.132,81.5333 355.5,79.5 Z"/></g>
<g><path style="opacity:1" fill="#fafafa" d="M 357.5,114.5 C 364.41,119.904 370.91,125.904 377,132.5C 377.667,133.5 377.667,134.5 377,135.5C 362.986,149.681 348.819,163.681 334.5,177.5C 327.681,171.181 321.014,164.681 314.5,158C 329.035,143.632 343.369,129.132 357.5,114.5 Z"/></g>
<g><path style="opacity:1" fill="#86b3e4" d="M 349.5,86.5 C 349.489,88.0174 348.823,89.1841 347.5,90C 365.75,109.084 384.417,127.584 403.5,145.5C 403.217,146.289 402.717,146.956 402,147.5C 383.333,128.833 364.667,110.167 346,91.5C 345.36,88.6318 346.527,86.9651 349.5,86.5 Z"/></g>
<g><path style="opacity:1" fill="#86b3e4" d="M 412.5,136.5 C 412.617,134.516 411.95,132.85 410.5,131.5C 394.167,115.167 377.833,98.8333 361.5,82.5C 359.929,80.585 357.929,79.585 355.5,79.5C 356.314,77.7274 357.648,77.2274 359.5,78C 378.167,96.6667 396.833,115.333 415.5,134C 414.627,135.045 413.627,135.878 412.5,136.5 Z"/></g>
<g><path style="opacity:1" fill="#8ebefd" d="M 288.5,145.5 C 288.81,146.738 289.31,146.738 290,145.5C 307.764,163.719 325.764,181.719 344,199.5C 345.128,201.345 345.628,203.345 345.5,205.5C 312.5,239.167 279.167,272.5 245.5,305.5C 225.629,287.297 206.295,268.297 187.5,248.5C 192.167,243.167 197.167,238.167 202.5,233.5C 208.242,239.249 214.242,244.583 220.5,249.5C 225.068,249.917 226.568,247.917 225,243.5C 218.985,237.652 213.152,231.652 207.5,225.5C 213.5,220.167 219.167,214.5 224.5,208.5C 228.985,212.485 233.318,216.651 237.5,221C 241.487,221.339 242.987,219.506 242,215.5C 237.984,211.652 234.151,207.652 230.5,203.5C 235.833,197.5 241.5,191.833 247.5,186.5C 253.652,192.152 259.652,197.985 265.5,204C 269.62,204.514 271.12,202.68 270,198.5C 263.985,192.652 258.152,186.652 252.5,180.5C 258.485,175.015 264.319,169.348 270,163.5C 274.167,167.667 278.333,171.833 282.5,176C 286.487,176.339 287.987,174.506 287,170.5C 282.984,166.652 279.151,162.652 275.5,158.5C 279.521,153.812 283.854,149.479 288.5,145.5 Z"/></g>
<g><path style="opacity:1" fill="#85b1e0" d="M 345.5,205.5 C 345.628,203.345 345.128,201.345 344,199.5C 325.764,181.719 307.764,163.719 290,145.5C 289.31,146.738 288.81,146.738 288.5,145.5C 288.517,143.972 289.184,143.472 290.5,144C 309.667,163.167 328.833,182.333 348,201.5C 348.279,203.412 347.446,204.746 345.5,205.5 Z"/></g>
<g><path style="opacity:1" fill="#fafafa" d="M 178.5,253.5 C 198.749,272.247 218.582,291.58 238,311.5C 238.667,312.167 238.667,312.833 238,313.5C 234.167,317.333 230.333,321.167 226.5,325C 223.634,326.457 220.634,326.79 217.5,326C 200.667,309.167 183.833,292.333 167,275.5C 165.578,272.97 165.245,270.303 166,267.5C 170.768,263.24 174.934,258.573 178.5,253.5 Z"/></g>
<g><path style="opacity:1" fill="#88b6e4" d="M 220.5,249.5 C 214.242,244.583 208.242,239.249 202.5,233.5C 197.167,238.167 192.167,243.167 187.5,248.5C 206.295,268.297 225.629,287.297 245.5,305.5C 245.217,306.289 244.717,306.956 244,307.5C 224.319,287.986 204.819,268.32 185.5,248.5C 190.833,242.5 196.5,236.833 202.5,231.5C 208.854,237.188 214.854,243.188 220.5,249.5 Z"/></g>
<g><path style="opacity:1" fill="#8dbcf9" d="M 172.5,293.5 C 173.552,293.351 174.552,293.517 175.5,294C 183.5,302 191.5,310 199.5,318C 194.622,324.224 188.622,328.89 181.5,332C 165.381,331.867 158.548,323.7 161,307.5C 164.29,302.378 168.123,297.711 172.5,293.5 Z"/></g>
<g><path style="opacity:0.896" fill="#030303" d="M 103.5,396.5 C 107.273,395.822 110.106,397.156 112,400.5C 117.223,406.277 120.89,412.944 123,420.5C 124.702,431.263 120.535,438.763 110.5,443C 90.996,443.82 83.496,434.653 88,415.5C 91.7606,407.955 96.9272,401.622 103.5,396.5 Z"/></g>
<g><path style="opacity:1" fill="#f8f8f8" d="M 101.5,409.5 C 107.615,416.283 108.948,423.95 105.5,432.5C 106.949,433.172 108.282,433.839 109.5,434.5C 97.5795,436.744 92.7462,431.744 95,419.5C 96.4442,415.589 98.6109,412.256 101.5,409.5 Z"/></g>
<g><path style="opacity:1" fill="#e5e4e5" d="M 109.5,434.5 C 108.282,433.839 106.949,433.172 105.5,432.5C 108.948,423.95 107.615,416.283 101.5,409.5C 102.479,407.855 103.812,406.521 105.5,405.5C 109.679,409.857 112.845,414.857 115,420.5C 116.754,426.649 114.921,431.315 109.5,434.5 Z"/></g>
</svg>
