<?xml version="1.0" encoding="UTF-8"?>
<!DOCTYPE svg PUBLIC "-//W3C//DTD SVG 1.1//EN" "http://www.w3.org/Graphics/SVG/1.1/DTD/svg11.dtd">
<svg xmlns="http://www.w3.org/2000/svg" version="1.1" width="1312px" height="862px" style="shape-rendering:geometricPrecision; text-rendering:geometricPrecision; image-rendering:optimizeQuality; fill-rule:evenodd; clip-rule:evenodd" xmlns:xlink="http://www.w3.org/1999/xlink">
<g><path style="opacity:1" fill="#1192b5" d="M 877.5,61.5 C 889.999,62.4874 897.833,69.1541 901,81.5C 902.725,100.146 901.058,118.479 896,136.5C 894.317,190.824 893.15,245.157 892.5,299.5C 882.945,298.18 873.278,296.013 863.5,293C 862.703,289.255 862.203,285.421 862,281.5C 861.063,232.487 859.73,183.487 858,134.5C 855.568,123.243 853.568,111.91 852,100.5C 850.718,90.8832 851.718,81.5499 855,72.5C 860.225,64.36 867.725,60.6933 877.5,61.5 Z"/></g>
<g><path style="opacity:0.976" fill="#6c70b7" d="M 877.5,61.5 C 894.845,61.3419 904.012,70.0086 905,87.5C 905.667,92.8333 905.667,98.1667 905,103.5C 902.738,118.141 900.738,132.808 899,147.5C 897.915,198.174 896.581,248.841 895,299.5C 894.23,300.598 893.397,300.598 892.5,299.5C 893.15,245.157 894.317,190.824 896,136.5C 901.058,118.479 902.725,100.146 901,81.5C 897.833,69.1541 889.999,62.4874 877.5,61.5 Z"/></g>
<g><path style="opacity:0.998" fill="#1f9cbc" d="M 850.5,170.5 C 850.5,181.833 850.5,193.167 850.5,204.5C 851.5,204.5 852.5,204.5 853.5,204.5C 846.225,205.892 838.891,207.558 831.5,209.5C 805.206,217.103 793.706,234.436 797,261.5C 800.483,272.654 807.316,281.154 817.5,287C 823.188,290.347 829.188,292.847 835.5,294.5C 856.265,300.189 876.931,305.856 897.5,311.5C 900.55,313.101 903.884,314.101 907.5,314.5C 908.167,314.5 908.833,314.5 909.5,314.5C 920.482,319.159 931.148,324.659 941.5,331C 947.736,335.734 953.069,341.234 957.5,347.5C 966.534,364.139 969.034,381.806 965,400.5C 958.379,421.124 944.879,435.29 924.5,443C 925.094,443.464 925.761,443.631 926.5,443.5C 925.432,444.434 924.099,444.768 922.5,444.5C 919.843,444.935 917.509,445.935 915.5,447.5C 911.668,447.882 908.335,449.215 905.5,451.5C 903.283,452.369 900.95,452.702 898.5,452.5C 899.252,440.192 899.752,427.858 900,415.5C 907.177,411.991 913.51,407.325 919,401.5C 929.052,383.667 925.552,369.167 908.5,358C 902.736,354.784 896.736,352.117 890.5,350C 867.833,344 845.167,338 822.5,332C 805.434,327.135 790.1,319.135 776.5,308C 757.354,288.27 750.187,264.77 755,237.5C 762.566,210.929 779.066,192.095 804.5,181C 819.336,174.286 834.669,170.786 850.5,170.5 Z"/></g>
<g><path style="opacity:1" fill="#6a6ab5" d="M 850.5,170.5 C 851.5,170.5 852.5,170.5 853.5,170.5C 853.5,181.833 853.5,193.167 853.5,204.5C 852.5,204.5 851.5,204.5 850.5,204.5C 850.5,193.167 850.5,181.833 850.5,170.5 Z"/></g>
<g><path style="opacity:0.999" fill="#1192b5" d="M 906.5,175.5 C 916.342,178.958 926.009,183.125 935.5,188C 945.459,190.403 955.125,193.57 964.5,197.5C 977.323,207.782 987.823,220.116 996,234.5C 997,238.833 998,243.167 999,247.5C 1003.55,254.143 1005.88,261.477 1006,269.5C 1009.94,278.551 1016.77,283.884 1026.5,285.5C 1028.1,285.232 1029.43,285.566 1030.5,286.5C 1026.4,286.763 1022.4,286.43 1018.5,285.5C 1017.28,284.972 1016.11,284.305 1015,283.5C 1015.15,285.506 1015.65,287.506 1016.5,289.5C 1016.77,291.099 1016.43,292.432 1015.5,293.5C 1012.11,285.227 1007.11,278.06 1000.5,272C 995.35,271.732 990.35,270.732 985.5,269C 960.137,257.007 938.137,240.673 919.5,220C 914.567,216.732 909.4,213.899 904,211.5C 903.975,204.184 904.142,196.85 904.5,189.5C 904.507,184.449 905.173,179.783 906.5,175.5 Z"/></g>
<g><path style="opacity:0.506" fill="#7a86c1" d="M 906.5,175.5 C 910.319,175.605 913.986,176.438 917.5,178C 933.598,185.414 949.931,191.914 966.5,197.5C 965.833,197.5 965.167,197.5 964.5,197.5C 955.125,193.57 945.459,190.403 935.5,188C 926.009,183.125 916.342,178.958 906.5,175.5 Z"/></g>
<g><path style="opacity:0.803" fill="#696db6" d="M 964.5,197.5 C 965.167,197.5 965.833,197.5 966.5,197.5C 971.404,200.23 975.904,203.564 980,207.5C 985,213.833 990,220.167 995,226.5C 999.237,237.261 1003.4,248.094 1007.5,259C 1007.91,271.908 1014.24,280.408 1026.5,284.5C 1026.5,284.833 1026.5,285.167 1026.5,285.5C 1016.77,283.884 1009.94,278.551 1006,269.5C 1005.88,261.477 1003.55,254.143 999,247.5C 998,243.167 997,238.833 996,234.5C 987.823,220.116 977.323,207.782 964.5,197.5 Z"/></g>
<g><path style="opacity:1" fill="#f1f4f9" d="M 960.5,219.5 C 963.247,219.187 965.914,219.52 968.5,220.5C 970.969,224.801 973.636,228.967 976.5,233C 975.207,233.49 973.873,233.657 972.5,233.5C 968.103,229.108 964.103,224.442 960.5,219.5 Z"/></g>
<g><path style="opacity:0.927" fill="#6f73b9" d="M 831.5,209.5 C 800.71,222.414 792.21,244.081 806,274.5C 814.391,283.408 824.224,290.074 835.5,294.5C 829.188,292.847 823.188,290.347 817.5,287C 807.316,281.154 800.483,272.654 797,261.5C 793.706,234.436 805.206,217.103 831.5,209.5 Z"/></g>
<g><path style="opacity:1" fill="#5964b0" d="M 960.5,219.5 C 964.103,224.442 968.103,229.108 972.5,233.5C 971.448,233.649 970.448,233.483 969.5,233C 965.318,228.985 961.318,224.818 957.5,220.5C 958.325,219.614 959.325,219.281 960.5,219.5 Z"/></g>
<g><path style="opacity:0.078" fill="#adbbda" d="M 1026.5,285.5 C 1026.5,285.167 1026.5,284.833 1026.5,284.5C 1028.92,284.192 1031.26,284.526 1033.5,285.5C 1032.68,286.386 1031.68,286.719 1030.5,286.5C 1029.43,285.566 1028.1,285.232 1026.5,285.5 Z"/></g>
<g><path style="opacity:0.537" fill="#6b6cb5" d="M 1018.5,285.5 C 1018.83,287.5 1019.17,289.5 1019.5,291.5C 1019.67,292.492 1019.34,293.158 1018.5,293.5C 1018.5,293.167 1018.5,292.833 1018.5,292.5C 1018.07,291.29 1017.4,290.29 1016.5,289.5C 1015.65,287.506 1015.15,285.506 1015,283.5C 1016.11,284.305 1017.28,284.972 1018.5,285.5 Z"/></g>
<g><path style="opacity:0.616" fill="#9ccedf" d="M 1016.5,289.5 C 1017.4,290.29 1018.07,291.29 1018.5,292.5C 1017.69,294.013 1017.52,295.68 1018,297.5C 1016.91,296.307 1016.07,294.973 1015.5,293.5C 1016.43,292.432 1016.77,291.099 1016.5,289.5 Z"/></g>
<g><path style="opacity:0.361" fill="#afaed7" d="M 1019.5,291.5 C 1020.62,293.316 1021.12,295.316 1021,297.5C 1019.91,296.307 1019.07,294.973 1018.5,293.5C 1019.34,293.158 1019.67,292.492 1019.5,291.5 Z"/></g>
<g><path style="opacity:0.506" fill="#8395c7" d="M 897.5,311.5 C 901.214,311.59 904.548,312.59 907.5,314.5C 903.884,314.101 900.55,313.101 897.5,311.5 Z"/></g>
<g><path style="opacity:0.412" fill="#7fd2e5" d="M 305.5,327.5 C 305.56,326.957 305.893,326.624 306.5,326.5C 307.666,350.16 307.833,373.826 307,397.5C 306.283,396.956 305.783,396.289 305.5,395.5C 306.495,383.345 306.829,371.011 306.5,358.5C 306.828,347.986 306.494,337.653 305.5,327.5 Z"/></g>
<g><path style="opacity:0.412" fill="#7fd2e5" d="M 1208.5,327.5 C 1208.56,326.957 1208.89,326.624 1209.5,326.5C 1210.67,350.16 1210.83,373.826 1210,397.5C 1209.28,396.956 1208.78,396.289 1208.5,395.5C 1209.5,383.345 1209.83,371.011 1209.5,358.5C 1209.83,347.986 1209.49,337.653 1208.5,327.5 Z"/></g>
<g><path style="opacity:0.999" fill="#11a8d0" d="M 305.5,327.5 C 306.494,337.653 306.828,347.986 306.5,358.5C 295.252,358.179 284.085,358.513 273,359.5C 249.218,359.172 225.718,358.172 202.5,356.5C 213.223,336.704 230.056,326.704 253,326.5C 266.322,326.942 278.655,330.608 290,337.5C 295.122,334.027 300.288,330.694 305.5,327.5 Z"/></g>
<g><path style="opacity:0.999" fill="#10a7d0" d="M 1087.5,356.5 C 1072.65,356.943 1057.32,357.609 1041.5,358.5C 1021.4,358.718 1001.24,358.385 981,357.5C 976.066,358.144 971.233,358.81 966.5,359.5C 964.685,355.204 962.352,351.204 959.5,347.5C 959.5,347.167 959.5,346.833 959.5,346.5C 986.263,327.649 1015.6,322.482 1047.5,331C 1063.34,335.743 1076.67,344.243 1087.5,356.5 Z"/></g>
<g><path style="opacity:0.999" fill="#11a8d0" d="M 1208.5,327.5 C 1209.49,337.653 1209.83,347.986 1209.5,358.5C 1177.32,357.873 1144.82,357.873 1112,358.5C 1109.39,358.467 1107.22,357.8 1105.5,356.5C 1116.22,336.704 1133.06,326.704 1156,326.5C 1169.32,326.942 1181.66,330.608 1193,337.5C 1198.12,334.027 1203.29,330.694 1208.5,327.5 Z"/></g>
<g><path style="opacity:0.275" fill="#9fdded" d="M 151.5,330.5 C 127.328,330.169 103.328,330.502 79.5,331.5C 78.9569,331.44 78.6236,331.107 78.5,330.5C 102.997,329.171 127.33,329.171 151.5,330.5 Z"/></g>
<g><path style="opacity:0.275" fill="#a0dded" d="M 443.5,329.5 C 424.833,330.167 406.167,330.833 387.5,331.5C 386.957,331.44 386.624,331.107 386.5,330.5C 405.488,329.5 424.488,329.167 443.5,329.5 Z"/></g>
<g><path style="opacity:0.997" fill="#0fa7d0" d="M 443.5,329.5 C 470.175,329.167 496.842,329.5 523.5,330.5C 516.827,339.829 509.827,348.829 502.5,357.5C 489.376,357.454 476.042,357.454 462.5,357.5C 457.531,351.585 453.031,345.252 449,338.5C 444.49,344.863 439.99,351.196 435.5,357.5C 425.049,358.197 414.715,358.531 404.5,358.5C 400.435,358.489 396.768,357.822 393.5,356.5C 395.14,353.851 396.807,351.184 398.5,348.5C 394.574,342.975 390.907,337.309 387.5,331.5C 406.167,330.833 424.833,330.167 443.5,329.5 Z"/></g>
<g><path style="opacity:0.998" fill="#06a7cf" d="M 689.5,329.5 C 689.5,343.167 689.5,356.833 689.5,370.5C 684.26,369.257 678.76,369.257 673,370.5C 671.324,369.939 669.991,368.939 669,367.5C 667.644,368.38 666.144,368.714 664.5,368.5C 663.298,366.608 661.965,364.774 660.5,363C 648.171,362.5 635.838,362.333 623.5,362.5C 622.539,364.265 622.205,366.265 622.5,368.5C 610.139,368.202 597.139,367.868 583.5,367.5C 583.665,364.15 583.498,360.817 583,357.5C 576.5,348.333 570,339.167 563.5,330C 605.499,329.5 647.499,329.333 689.5,329.5 Z"/></g>
<g><path style="opacity:0.143" fill="#bde8f1" d="M 689.5,329.5 C 690.829,355.67 690.829,382.003 689.5,408.5C 688.893,408.376 688.56,408.043 688.5,407.5C 689.495,395.345 689.829,383.011 689.5,370.5C 689.5,356.833 689.5,343.167 689.5,329.5 Z"/></g>
<g><path style="opacity:0.998" fill="#0da7d0" d="M 836.5,355.5 C 835.172,357.745 833.339,358.078 831,356.5C 825.351,358.488 819.518,358.988 813.5,358C 813,357.5 812.5,357 812,356.5C 805.333,357.833 798.667,357.833 792,356.5C 791.5,357 791,357.5 790.5,358C 766.836,358.5 743.169,358.667 719.5,358.5C 713.053,348.88 706.386,339.38 699.5,330C 732.863,329.051 766.197,329.384 799.5,331C 815.603,333.703 827.937,341.869 836.5,355.5 Z"/></g>
<g><path style="opacity:0.999" fill="#0ca7d0" d="M 151.5,330.5 C 153.658,338.799 155.658,347.132 157.5,355.5C 154.402,356.821 150.902,357.488 147,357.5C 130.502,357.284 114.002,357.284 97.5,357.5C 91.0095,349.19 85.0095,340.524 79.5,331.5C 103.328,330.502 127.328,330.169 151.5,330.5 Z"/></g>
<g><path style="opacity:0.999" fill="#0ba7d0" d="M 376.5,330.5 C 371.241,340.024 365.241,349.024 358.5,357.5C 358.167,357.5 357.833,357.5 357.5,357.5C 344.504,357.476 331.504,357.476 318.5,357.5C 318.5,348.5 318.5,339.5 318.5,330.5C 337.833,330.5 357.167,330.5 376.5,330.5 Z"/></g>
<g><path style="opacity:0.778" fill="#7578bb" d="M 909.5,314.5 C 923.625,318.896 936.625,325.396 948.5,334C 952.747,337.742 956.414,341.908 959.5,346.5C 959.5,346.833 959.5,347.167 959.5,347.5C 958.833,347.5 958.167,347.5 957.5,347.5C 953.069,341.234 947.736,335.734 941.5,331C 931.148,324.659 920.482,319.159 909.5,314.5 Z"/></g>
<g><path style="opacity:1" fill="#1492b5" d="M 865.5,353.5 C 865.833,353.5 866.167,353.5 866.5,353.5C 874.48,355.826 882.48,358.159 890.5,360.5C 889.709,408.165 889.043,455.831 888.5,503.5C 888.5,503.833 888.5,504.167 888.5,504.5C 881.402,502.913 874.402,500.913 867.5,498.5C 865.521,457.862 864.521,417.195 864.5,376.5C 864.175,368.648 864.508,360.982 865.5,353.5 Z"/></g>
<g><path style="opacity:0.995" fill="#15abce" d="M 836.5,355.5 C 842.267,364.561 844.934,374.561 844.5,385.5C 831.087,385.814 817.754,385.481 804.5,384.5C 802.656,372.491 795.656,365.657 783.5,364C 775.53,362.978 767.53,362.478 759.5,362.5C 759.5,368.167 759.5,373.833 759.5,379.5C 758.539,381.265 758.205,383.265 758.5,385.5C 745.321,385.566 732.321,385.566 719.5,385.5C 719.5,376.5 719.5,367.5 719.5,358.5C 743.169,358.667 766.836,358.5 790.5,358C 791,357.5 791.5,357 792,356.5C 798.667,357.833 805.333,357.833 812,356.5C 812.5,357 813,357.5 813.5,358C 819.518,358.988 825.351,358.488 831,356.5C 833.339,358.078 835.172,357.745 836.5,355.5 Z"/></g>
<g><path style="opacity:0.565" fill="#7c8dc3" d="M 866.5,353.5 C 866.56,352.957 866.893,352.624 867.5,352.5C 876.088,354.723 884.422,357.39 892.5,360.5C 891.833,360.5 891.167,360.5 890.5,360.5C 882.48,358.159 874.48,355.826 866.5,353.5 Z"/></g>
<g><path style="opacity:0.997" fill="#19abcf" d="M 1087.5,356.5 C 1092.6,360.69 1096.77,365.69 1100,371.5C 1101.17,366.143 1103,361.143 1105.5,356.5C 1107.22,357.8 1109.39,358.467 1112,358.5C 1144.82,357.873 1177.32,357.873 1209.5,358.5C 1209.83,371.011 1209.5,383.345 1208.5,395.5C 1201.99,385.666 1193.99,377.166 1184.5,370C 1172.23,362.096 1159.56,361.096 1146.5,367C 1144.2,369.099 1142.54,371.599 1141.5,374.5C 1140.6,375.209 1140.26,376.209 1140.5,377.5C 1111.5,377.5 1082.5,377.5 1053.5,377.5C 1030.64,361.879 1007.64,361.713 984.5,377C 978.895,382.097 973.895,387.597 969.5,393.5C 970.175,381.978 969.175,370.645 966.5,359.5C 971.233,358.81 976.066,358.144 981,357.5C 1001.24,358.385 1021.4,358.718 1041.5,358.5C 1057.32,357.609 1072.65,356.943 1087.5,356.5 Z"/></g>
<g><path style="opacity:0.998" fill="#1daccf" d="M 202.5,356.5 C 225.718,358.172 249.218,359.172 273,359.5C 284.085,358.513 295.252,358.179 306.5,358.5C 306.829,371.011 306.495,383.345 305.5,395.5C 298.985,385.666 290.985,377.166 281.5,370C 269.231,362.096 256.564,361.096 243.5,367C 238.962,371.915 237.295,377.749 238.5,384.5C 225.01,385.496 211.344,385.829 197.5,385.5C 196.024,375.36 197.69,365.693 202.5,356.5 Z"/></g>
<g><path style="opacity:0.412" fill="#7dd1e3" d="M 357.5,357.5 C 357.833,357.5 358.167,357.5 358.5,357.5C 358.17,374.009 358.504,390.342 359.5,406.5C 359.44,407.043 359.107,407.376 358.5,407.5C 357.509,403.555 357.176,399.555 357.5,395.5C 357.5,389.5 357.5,383.5 357.5,377.5C 357.5,370.833 357.5,364.167 357.5,357.5 Z"/></g>
<g><path style="opacity:0.984" fill="#6c6eb7" d="M 890.5,360.5 C 891.167,360.5 891.833,360.5 892.5,360.5C 893.765,361.514 894.431,363.014 894.5,365C 893.389,406.828 892.389,448.661 891.5,490.5C 891.135,495.094 890.135,499.427 888.5,503.5C 889.043,455.831 889.709,408.165 890.5,360.5 Z"/></g>
<g><path style="opacity:0.173" fill="#afdce7" d="M 865.5,353.5 C 864.508,360.982 864.175,368.648 864.5,376.5C 863.18,368.657 863.18,360.657 864.5,352.5C 865.107,352.624 865.44,352.957 865.5,353.5 Z"/></g>
<g><path style="opacity:0.998" fill="#14abce" d="M 157.5,355.5 C 159.924,361.526 161.591,367.859 162.5,374.5C 162.5,375.5 162.5,376.5 162.5,377.5C 139.833,377.5 117.167,377.5 94.5,377.5C 94.5,376.5 94.5,375.5 94.5,374.5C 95.6597,368.861 96.6597,363.195 97.5,357.5C 114.002,357.284 130.502,357.284 147,357.5C 150.902,357.488 154.402,356.821 157.5,355.5 Z"/></g>
<g><path style="opacity:1" fill="#0daace" d="M 357.5,357.5 C 357.5,364.167 357.5,370.833 357.5,377.5C 344.5,377.5 331.5,377.5 318.5,377.5C 318.5,370.833 318.5,364.167 318.5,357.5C 331.504,357.476 344.504,357.476 357.5,357.5 Z"/></g>
<g><path style="opacity:0.996" fill="#1aaccf" d="M 393.5,356.5 C 396.768,357.822 400.435,358.489 404.5,358.5C 414.715,358.531 425.049,358.197 435.5,357.5C 431.19,364.466 426.523,371.133 421.5,377.5C 407.459,378.149 393.792,377.482 380.5,375.5C 384.475,368.869 388.809,362.536 393.5,356.5 Z"/></g>
<g><path style="opacity:0.994" fill="#0daace" d="M 502.5,357.5 C 502.5,360.5 502.5,363.5 502.5,366.5C 501.518,369.962 501.185,373.629 501.5,377.5C 488.5,377.5 475.5,377.5 462.5,377.5C 462.5,370.833 462.5,364.167 462.5,357.5C 476.042,357.454 489.376,357.454 502.5,357.5 Z"/></g>
<g><path style="opacity:0.996" fill="#13accd" d="M 583.5,367.5 C 597.139,367.868 610.139,368.202 622.5,368.5C 622.5,374.167 622.5,379.833 622.5,385.5C 609.5,385.5 596.5,385.5 583.5,385.5C 583.5,379.5 583.5,373.5 583.5,367.5 Z"/></g>
<g><path style="opacity:0.996" fill="#24afce" d="M 689.5,370.5 C 689.829,383.011 689.495,395.345 688.5,407.5C 680.5,394.5 672.5,381.5 664.5,368.5C 666.144,368.714 667.644,368.38 669,367.5C 669.991,368.939 671.324,369.939 673,370.5C 678.76,369.257 684.26,369.257 689.5,370.5 Z"/></g>
<g><path style="opacity:1" fill="#194ba0" d="M 957.5,347.5 C 958.167,347.5 958.833,347.5 959.5,347.5C 962.352,351.204 964.685,355.204 966.5,359.5C 969.175,370.645 970.175,381.978 969.5,393.5C 969.567,394.959 969.234,396.292 968.5,397.5C 965.676,401.63 964.009,406.297 963.5,411.5C 963.443,412.609 963.11,413.609 962.5,414.5C 953.49,427.839 941.49,437.506 926.5,443.5C 925.761,443.631 925.094,443.464 924.5,443C 944.879,435.29 958.379,421.124 965,400.5C 969.034,381.806 966.534,364.139 957.5,347.5 Z"/></g>
<g><path style="opacity:0.997" fill="#20b0cd" d="M 94.5,374.5 C 94.5,375.5 94.5,376.5 94.5,377.5C 117.167,377.5 139.833,377.5 162.5,377.5C 162.5,376.5 162.5,375.5 162.5,374.5C 164.769,380.231 166.435,386.231 167.5,392.5C 167.719,393.675 167.386,394.675 166.5,395.5C 153.957,395.051 141.291,394.717 128.5,394.5C 127.574,386.737 126.24,386.737 124.5,394.5C 112.877,394.267 101.377,394.6 90,395.5C 89.5357,394.906 89.369,394.239 89.5,393.5C 90.4089,386.859 92.0756,380.526 94.5,374.5 Z"/></g>
<g><path style="opacity:1" fill="#30b3d0" d="M 376.5,330.5 C 357.167,330.5 337.833,330.5 318.5,330.5C 318.5,339.5 318.5,348.5 318.5,357.5C 318.5,364.167 318.5,370.833 318.5,377.5C 331.5,377.5 344.5,377.5 357.5,377.5C 357.5,383.5 357.5,389.5 357.5,395.5C 344.373,394.659 331.373,394.326 318.5,394.5C 318.672,393.508 318.338,392.842 317.5,392.5C 317.5,371.5 317.5,350.5 317.5,329.5C 337.91,329.167 357.576,329.501 376.5,330.5 Z"/></g>
<g><path style="opacity:0.994" fill="#22b0cd" d="M 380.5,375.5 C 393.792,377.482 407.459,378.149 421.5,377.5C 418.093,383.309 414.426,388.975 410.5,394.5C 395.932,394.706 382.432,395.04 370,395.5C 369.283,394.956 368.783,394.289 368.5,393.5C 372.007,387.148 376.007,381.148 380.5,375.5 Z"/></g>
<g><path style="opacity:0.994" fill="#1aafcd" d="M 502.5,366.5 C 502.5,373.833 502.5,381.167 502.5,388.5C 501.686,390.631 501.186,392.964 501,395.5C 488.117,394.755 475.284,394.422 462.5,394.5C 462.5,388.833 462.5,383.167 462.5,377.5C 475.5,377.5 488.5,377.5 501.5,377.5C 501.185,373.629 501.518,369.962 502.5,366.5 Z"/></g>
<g><path style="opacity:0.997" fill="#20b0cd" d="M 1141.5,374.5 C 1139.85,384.502 1143.85,390.835 1153.5,393.5C 1153.22,394.289 1152.72,394.956 1152,395.5C 1124.21,395.28 1096.05,394.947 1067.5,394.5C 1063.59,388.251 1058.92,382.585 1053.5,377.5C 1082.5,377.5 1111.5,377.5 1140.5,377.5C 1140.26,376.209 1140.6,375.209 1141.5,374.5 Z"/></g>
<g><path style="opacity:0.995" fill="#20b1cc" d="M 583.5,385.5 C 596.5,385.5 609.5,385.5 622.5,385.5C 622.829,391.206 622.495,396.872 621.5,402.5C 609.417,402.187 596.75,402.187 583.5,402.5C 583.5,396.833 583.5,391.167 583.5,385.5 Z"/></g>
<g><path style="opacity:0.995" fill="#20b1cc" d="M 759.5,379.5 C 759.5,386.167 759.5,392.833 759.5,399.5C 758.685,400.429 757.852,401.429 757,402.5C 744.869,401.968 732.369,401.968 719.5,402.5C 719.5,396.833 719.5,391.167 719.5,385.5C 732.321,385.566 745.321,385.566 758.5,385.5C 758.205,383.265 758.539,381.265 759.5,379.5 Z"/></g>
<g><path style="opacity:0.994" fill="#25b2cd" d="M 804.5,384.5 C 817.754,385.481 831.087,385.814 844.5,385.5C 844.791,391.303 844.125,396.969 842.5,402.5C 828.088,401.96 814.254,401.96 801,402.5C 800.283,401.956 799.783,401.289 799.5,400.5C 802.67,395.663 804.337,390.33 804.5,384.5 Z"/></g>
<g><path style="opacity:0.994" fill="#2db4cc" d="M 89.5,393.5 C 89.369,394.239 89.5357,394.906 90,395.5C 101.377,394.6 112.877,394.267 124.5,394.5C 123.611,399.728 122.278,404.728 120.5,409.5C 109.167,409.5 97.8333,409.5 86.5,409.5C 86.5,408.167 86.5,406.833 86.5,405.5C 86.8984,401.239 87.8984,397.239 89.5,393.5 Z"/></g>
<g><path style="opacity:0.996" fill="#2cb4cc" d="M 167.5,392.5 C 169.279,397.278 170.613,402.278 171.5,407.5C 167.893,408.824 163.893,409.491 159.5,409.5C 150.636,408.861 141.636,408.861 132.5,409.5C 131.167,404.5 129.833,399.5 128.5,394.5C 141.291,394.717 153.957,395.051 166.5,395.5C 167.386,394.675 167.719,393.675 167.5,392.5 Z"/></g>
<g><path style="opacity:0.995" fill="#2cb4cc" d="M 238.5,384.5 C 240.7,387.858 243.7,390.358 247.5,392C 263.582,396.637 279.249,402.137 294.5,408.5C 265.161,409.411 235.494,409.744 205.5,409.5C 200.254,402.43 197.588,394.43 197.5,385.5C 211.344,385.829 225.01,385.496 238.5,384.5 Z"/></g>
<g><path style="opacity:0.996" fill="#29b4cc" d="M 368.5,393.5 C 368.783,394.289 369.283,394.956 370,395.5C 382.432,395.04 395.932,394.706 410.5,394.5C 407.188,399.804 403.521,404.804 399.5,409.5C 372.49,408.975 345.49,408.975 318.5,409.5C 318.5,404.5 318.5,399.5 318.5,394.5C 331.373,394.326 344.373,394.659 357.5,395.5C 357.176,399.555 357.509,403.555 358.5,407.5C 359.107,407.376 359.44,407.043 359.5,406.5C 361.763,401.635 364.763,397.302 368.5,393.5 Z"/></g>
<g><path style="opacity:0.993" fill="#26b3cb" d="M 502.5,388.5 C 502.5,394.5 502.5,400.5 502.5,406.5C 501.596,407.209 501.263,408.209 501.5,409.5C 488.5,409.5 475.5,409.5 462.5,409.5C 462.5,404.5 462.5,399.5 462.5,394.5C 475.284,394.422 488.117,394.755 501,395.5C 501.186,392.964 501.686,390.631 502.5,388.5 Z"/></g>
<g><path style="opacity:0.997" fill="#2bb4cc" d="M 1153.5,393.5 C 1168.67,397.332 1183.33,402.332 1197.5,408.5C 1191.1,409.184 1184.6,409.85 1178,410.5C 1177,409.833 1176,409.167 1175,408.5C 1144.33,409.167 1113.67,409.833 1083,410.5C 1079.94,409.549 1076.78,409.216 1073.5,409.5C 1071.89,404.341 1069.89,399.341 1067.5,394.5C 1096.05,394.947 1124.21,395.28 1152,395.5C 1152.72,394.956 1153.22,394.289 1153.5,393.5 Z"/></g>
<g><path style="opacity:0.991" fill="#30b6cb" d="M 759.5,399.5 C 759.5,402.833 759.5,406.167 759.5,409.5C 770.663,409.629 781.663,408.463 792.5,406C 794.996,404.334 797.329,402.5 799.5,400.5C 799.783,401.289 800.283,401.956 801,402.5C 814.254,401.96 828.088,401.96 842.5,402.5C 841.201,407.764 838.868,412.431 835.5,416.5C 796.833,416.5 758.167,416.5 719.5,416.5C 719.5,411.833 719.5,407.167 719.5,402.5C 732.369,401.968 744.869,401.968 757,402.5C 757.852,401.429 758.685,400.429 759.5,399.5 Z"/></g>
<g><path style="opacity:0.557" fill="#7977bb" d="M 968.5,397.5 C 967.602,402.534 965.935,407.201 963.5,411.5C 964.009,406.297 965.676,401.63 968.5,397.5 Z"/></g>
<g><path style="opacity:0.998" fill="#35b8ca" d="M 1197.5,408.5 C 1207.64,412.304 1215.31,418.971 1220.5,428.5C 1220.59,429.995 1219.92,430.995 1218.5,431.5C 1193.19,430.907 1167.85,430.574 1142.5,430.5C 1132.69,428.261 1124.02,423.928 1116.5,417.5C 1116.44,416.957 1116.11,416.624 1115.5,416.5C 1114.51,420.445 1114.18,424.445 1114.5,428.5C 1102.21,429.364 1089.21,429.364 1075.5,428.5C 1075.82,424.298 1075.48,420.298 1074.5,416.5C 1073.78,414.236 1073.45,411.903 1073.5,409.5C 1076.78,409.216 1079.94,409.549 1083,410.5C 1113.67,409.833 1144.33,409.167 1175,408.5C 1176,409.167 1177,409.833 1178,410.5C 1184.6,409.85 1191.1,409.184 1197.5,408.5 Z"/></g>
<g><path style="opacity:0.996" fill="#30b6cc" d="M 623.5,362.5 C 623.333,378.17 623.5,393.837 624,409.5C 634.921,401.956 645.754,394.29 656.5,386.5C 657.499,396.478 657.832,406.478 657.5,416.5C 632.833,416.5 608.167,416.5 583.5,416.5C 583.5,411.833 583.5,407.167 583.5,402.5C 596.75,402.187 609.417,402.187 621.5,402.5C 622.495,396.872 622.829,391.206 622.5,385.5C 622.5,379.833 622.5,374.167 622.5,368.5C 622.205,366.265 622.539,364.265 623.5,362.5 Z"/></g>
<g><path style="opacity:0.995" fill="#37b9ca" d="M 317.5,392.5 C 318.338,392.842 318.672,393.508 318.5,394.5C 318.5,399.5 318.5,404.5 318.5,409.5C 345.49,408.975 372.49,408.975 399.5,409.5C 395.999,415.001 395.666,420.667 398.5,426.5C 398.213,428.121 397.213,429.121 395.5,429.5C 344.772,429.286 293.772,428.953 242.5,428.5C 240.962,428.453 239.962,429.12 239.5,430.5C 225.587,427.55 214.254,420.55 205.5,409.5C 235.494,409.744 265.161,409.411 294.5,408.5C 304.259,412.088 311.759,418.421 317,427.5C 317.5,415.838 317.667,404.171 317.5,392.5 Z"/></g>
<g><path style="opacity:0.996" fill="#38b9cb" d="M 86.5,405.5 C 86.5,406.833 86.5,408.167 86.5,409.5C 97.8333,409.5 109.167,409.5 120.5,409.5C 119.815,414.239 118.815,418.905 117.5,423.5C 105.8,424.767 94.1333,424.767 82.5,423.5C 82.5,422.5 82.5,421.5 82.5,420.5C 83.3872,415.278 84.7205,410.278 86.5,405.5 Z"/></g>
<g><path style="opacity:0.996" fill="#39b9cb" d="M 171.5,407.5 C 174.072,414.568 176.072,421.901 177.5,429.5C 164.457,429.413 151.123,429.413 137.5,429.5C 135.833,422.833 134.167,416.167 132.5,409.5C 141.636,408.861 150.636,408.861 159.5,409.5C 163.893,409.491 167.893,408.824 171.5,407.5 Z"/></g>
<g><path style="opacity:0.992" fill="#34b8ca" d="M 502.5,406.5 C 502.5,412.833 502.5,419.167 502.5,425.5C 501.596,426.209 501.263,427.209 501.5,428.5C 492.217,429.785 482.55,429.785 472.5,428.5C 471.353,428.818 470.519,429.484 470,430.5C 469.667,429.833 469.333,429.167 469,428.5C 467.044,428.784 464.877,428.784 462.5,428.5C 462.5,422.167 462.5,415.833 462.5,409.5C 475.5,409.5 488.5,409.5 501.5,409.5C 501.263,408.209 501.596,407.209 502.5,406.5 Z"/></g>
<g><path style="opacity:0.995" fill="#3bbaca" d="M 583.5,416.5 C 608.167,416.5 632.833,416.5 657.5,416.5C 657.666,426.839 657.5,437.172 657,447.5C 645.981,439.303 635.148,430.97 624.5,422.5C 624.44,421.957 624.107,421.624 623.5,421.5C 622.52,424.086 622.187,426.753 622.5,429.5C 609.74,429.02 596.74,429.02 583.5,429.5C 583.5,425.167 583.5,420.833 583.5,416.5 Z"/></g>
<g><path style="opacity:0.994" fill="#39bac9" d="M 719.5,416.5 C 758.167,416.5 796.833,416.5 835.5,416.5C 832.954,421.719 829.287,426.052 824.5,429.5C 789.9,428.789 754.9,428.789 719.5,429.5C 719.5,425.167 719.5,420.833 719.5,416.5 Z"/></g>
<g><path style="opacity:0.391" fill="#a2dee7" d="M 1116.5,417.5 C 1115.83,422.833 1115.17,428.167 1114.5,433.5C 1114.5,431.833 1114.5,430.167 1114.5,428.5C 1114.18,424.445 1114.51,420.445 1115.5,416.5C 1116.11,416.624 1116.44,416.957 1116.5,417.5 Z"/></g>
<g><path style="opacity:0.996" fill="#45bec8" d="M 398.5,426.5 C 402.736,432.628 406.736,438.962 410.5,445.5C 408.317,447.234 405.65,448.234 402.5,448.5C 401.038,447.529 399.705,447.862 398.5,449.5C 397.522,449.023 396.689,448.357 396,447.5C 395.374,449.991 394.541,449.991 393.5,447.5C 390.713,448.711 387.879,448.711 385,447.5C 384.333,450.167 383.667,450.167 383,447.5C 380.364,447.545 377.53,447.712 374.5,448C 373.282,449.416 371.949,449.249 370.5,447.5C 369.584,447.543 368.917,447.876 368.5,448.5C 364.788,445.789 361.788,442.456 359.5,438.5C 359.44,437.957 359.107,437.624 358.5,437.5C 357.526,439.743 357.192,442.076 357.5,444.5C 355.523,443.851 353.69,443.851 352,444.5C 350.527,444.097 349.194,443.43 348,442.5C 347.667,443.167 347.333,443.833 347,444.5C 342.733,444.233 338.733,444.233 335,444.5C 334.333,441.833 333.667,441.833 333,444.5C 332.333,443.833 331.667,443.167 331,442.5C 328.633,443.047 326.467,444.047 324.5,445.5C 323.784,444.689 322.95,444.022 322,443.5C 314.255,444.34 306.422,444.673 298.5,444.5C 297.353,444.182 296.519,443.516 296,442.5C 293.8,444.831 291.8,444.831 290,442.5C 289.692,443.308 289.192,443.975 288.5,444.5C 285.726,444.351 282.893,444.018 280,443.5C 279.292,444.381 278.458,445.047 277.5,445.5C 272.805,442.486 267.805,439.986 262.5,438C 254.626,435.764 246.96,433.264 239.5,430.5C 239.962,429.12 240.962,428.453 242.5,428.5C 293.772,428.953 344.772,429.286 395.5,429.5C 397.213,429.121 398.213,428.121 398.5,426.5 Z"/></g>
<g><path style="opacity:0.993" fill="#44bec9" d="M 824.5,429.5 C 814.151,436.898 802.484,441.064 789.5,442C 779.506,442.5 769.506,442.666 759.5,442.5C 757.961,444.982 756.461,444.982 755,442.5C 754.667,443.167 754.333,443.833 754,444.5C 753.333,443.167 752.667,443.167 752,444.5C 751.309,442.109 750.309,442.109 749,444.5C 748.374,442.009 747.541,442.009 746.5,444.5C 744.694,443.141 743.194,443.475 742,445.5C 740.215,444.76 738.382,444.093 736.5,443.5C 732.683,444.522 728.35,444.522 723.5,443.5C 722.808,444.025 722.308,444.692 722,445.5C 721.292,444.619 720.458,443.953 719.5,443.5C 719.5,438.833 719.5,434.167 719.5,429.5C 754.9,428.789 789.9,428.789 824.5,429.5 Z"/></g>
<g><path style="opacity:0.999" fill="#1092b4" d="M 855.5,431.5 C 855.667,442.838 855.5,454.172 855,465.5C 848.831,467.92 843.498,471.587 839,476.5C 834.782,489.498 839.282,498.165 852.5,502.5C 867.616,508.541 882.949,514.208 898.5,519.5C 905.998,523.487 912.498,528.82 918,535.5C 925.342,551.638 922.176,565.471 908.5,577C 905.971,579.029 903.304,580.862 900.5,582.5C 900.624,583.107 900.957,583.44 901.5,583.5C 900.652,584.625 899.652,584.625 898.5,583.5C 897.507,575.016 897.174,566.349 897.5,557.5C 897.504,551.662 894.837,547.496 889.5,545C 873.716,538.739 857.716,533.072 841.5,528C 829.45,523.94 818.95,517.44 810,508.5C 796.064,482.409 801.231,460.909 825.5,444C 835.239,438.269 845.239,434.102 855.5,431.5 Z"/></g>
<g><path style="opacity:0.997" fill="#49bfc9" d="M 82.5,420.5 C 82.5,421.5 82.5,422.5 82.5,423.5C 94.1333,424.767 105.8,424.767 117.5,423.5C 116.553,428.124 115.219,432.624 113.5,437C 122.186,437.832 130.853,437.665 139.5,436.5C 138.675,434.199 138.008,431.865 137.5,429.5C 151.123,429.413 164.457,429.413 177.5,429.5C 179.122,433.322 180.122,437.322 180.5,441.5C 179.855,442.812 178.855,443.812 177.5,444.5C 174.496,444.534 171.662,444.2 169,443.5C 167.739,443.759 166.739,444.426 166,445.5C 165.692,444.692 165.192,444.025 164.5,443.5C 161.424,444.067 158.424,444.401 155.5,444.5C 154.808,443.975 154.308,443.308 154,442.5C 153.311,443.357 152.478,444.023 151.5,444.5C 138.907,444.208 126.907,443.875 115.5,443.5C 114.784,444.311 113.95,444.978 113,445.5C 111.85,444.576 110.85,444.576 110,445.5C 109.646,443.193 108.646,442.859 107,444.5C 106.05,443.978 105.216,443.311 104.5,442.5C 104.167,443.167 103.833,443.833 103.5,444.5C 102.28,443.289 101.113,443.289 100,444.5C 98.4279,442.411 96.5945,442.411 94.5,444.5C 91.8543,443.796 89.021,443.796 86,444.5C 85.3333,443.833 84.6667,443.167 84,442.5C 81.6697,444.547 79.1697,444.88 76.5,443.5C 78.0556,435.606 80.0556,427.94 82.5,420.5 Z"/></g>
<g><path style="opacity:0.988" fill="#49bfc9" d="M 1220.5,428.5 C 1224,433.981 1226.33,439.981 1227.5,446.5C 1226.53,445.365 1225.36,444.365 1224,443.5C 1215.36,444.656 1206.52,444.656 1197.5,443.5C 1195.29,444.106 1193.12,444.773 1191,445.5C 1187.55,444.39 1184.05,444.39 1180.5,445.5C 1175.81,442.486 1170.81,439.986 1165.5,438C 1157.63,435.764 1149.96,433.264 1142.5,430.5C 1167.85,430.574 1193.19,430.907 1218.5,431.5C 1219.92,430.995 1220.59,429.995 1220.5,428.5 Z"/></g>
<g><path style="opacity:0.992" fill="#45bec8" d="M 622.5,429.5 C 622.827,434.544 622.494,439.544 621.5,444.5C 615.951,444.545 610.451,444.211 605,443.5C 603.184,445.441 601.184,446.108 599,445.5C 598.641,442.456 597.974,442.122 597,444.5C 592.497,443.992 587.997,443.659 583.5,443.5C 583.5,438.833 583.5,434.167 583.5,429.5C 596.74,429.02 609.74,429.02 622.5,429.5 Z"/></g>
<g><path style="opacity:0.995" fill="#47bfc9" d="M 1074.5,416.5 C 1075.48,420.298 1075.82,424.298 1075.5,428.5C 1089.21,429.364 1102.21,429.364 1114.5,428.5C 1114.5,430.167 1114.5,431.833 1114.5,433.5C 1114.58,437.215 1114.24,440.881 1113.5,444.5C 1109.98,445.851 1106.81,445.184 1104,442.5C 1102.85,444.957 1101.51,444.957 1100,442.5C 1098.67,443.167 1097.33,443.833 1096,444.5C 1088.97,443.818 1081.14,443.818 1072.5,444.5C 1072.5,443.5 1072.5,442.5 1072.5,441.5C 1074.12,433.258 1074.79,424.924 1074.5,416.5 Z"/></g>
<g><path style="opacity:0.304" fill="#99dbe2" d="M 198.5,438.5 C 197.504,452.99 197.171,467.657 197.5,482.5C 197.665,486.182 197.499,489.848 197,493.5C 196.283,492.956 195.783,492.289 195.5,491.5C 196.167,473.662 196.833,455.662 197.5,437.5C 198.107,437.624 198.44,437.957 198.5,438.5 Z"/></g>
<g><path style="opacity:0.363" fill="#8bd6dd" d="M 565.5,516.5 C 565.167,517.167 564.833,517.833 564.5,518.5C 564.167,518.5 563.833,518.5 563.5,518.5C 563.5,516.167 563.5,513.833 563.5,511.5C 563.5,505.833 563.5,500.167 563.5,494.5C 563.5,482.5 563.5,470.5 563.5,458.5C 563.829,444.99 563.496,431.656 562.5,418.5C 562.783,417.711 563.283,417.044 564,416.5C 564.168,450.003 564.668,483.336 565.5,516.5 Z"/></g>
<g><path style="opacity:1" fill="#47bfc8" d="M 502.5,425.5 C 502.5,433.833 502.5,442.167 502.5,450.5C 501.685,449.571 500.852,448.571 500,447.5C 499.333,448.833 498.667,448.833 498,447.5C 497.309,449.891 496.309,449.891 495,447.5C 494.692,448.308 494.192,448.975 493.5,449.5C 492.575,448.359 491.741,448.359 491,449.5C 490.333,448.833 489.667,448.167 489,447.5C 485.304,447.703 481.637,447.703 478,447.5C 475.843,450.078 474.677,450.078 474.5,447.5C 472.378,447.623 470.211,447.623 468,447.5C 467.333,450.167 466.667,450.167 466,447.5C 464.887,448.305 463.721,448.972 462.5,449.5C 462.5,442.5 462.5,435.5 462.5,428.5C 464.877,428.784 467.044,428.784 469,428.5C 469.333,429.167 469.667,429.833 470,430.5C 470.519,429.484 471.353,428.818 472.5,428.5C 482.55,429.785 492.217,429.785 501.5,428.5C 501.263,427.209 501.596,426.209 502.5,425.5 Z"/></g>
<g><path style="opacity:0.361" fill="#8c90c7" d="M 922.5,444.5 C 922.5,444.833 922.5,445.167 922.5,445.5C 920.299,446.566 917.965,447.233 915.5,447.5C 917.509,445.935 919.843,444.935 922.5,444.5 Z"/></g>
<g><path style="opacity:0.994" fill="#52c3c7" d="M 180.5,441.5 C 182.767,447.224 184.434,453.224 185.5,459.5C 172.466,459.477 159.8,459.477 147.5,459.5C 146.86,456.135 146.026,452.802 145,449.5C 138.611,453.395 132.111,457.061 125.5,460.5C 125.631,459.761 125.464,459.094 125,458.5C 108.149,458.536 90.9822,458.87 73.5,459.5C 73.5,458.167 73.5,456.833 73.5,455.5C 74.0966,451.381 75.0966,447.381 76.5,443.5C 79.1697,444.88 81.6697,444.547 84,442.5C 84.6667,443.167 85.3333,443.833 86,444.5C 89.021,443.796 91.8543,443.796 94.5,444.5C 96.5945,442.411 98.4279,442.411 100,444.5C 101.113,443.289 102.28,443.289 103.5,444.5C 103.833,443.833 104.167,443.167 104.5,442.5C 105.216,443.311 106.05,443.978 107,444.5C 108.646,442.859 109.646,443.193 110,445.5C 110.85,444.576 111.85,444.576 113,445.5C 113.95,444.978 114.784,444.311 115.5,443.5C 126.907,443.875 138.907,444.208 151.5,444.5C 152.478,444.023 153.311,443.357 154,442.5C 154.308,443.308 154.808,443.975 155.5,444.5C 158.424,444.401 161.424,444.067 164.5,443.5C 165.192,444.025 165.692,444.692 166,445.5C 166.739,444.426 167.739,443.759 169,443.5C 171.662,444.2 174.496,444.534 177.5,444.5C 178.855,443.812 179.855,442.812 180.5,441.5 Z"/></g>
<g><path style="opacity:0.992" fill="#50c1c8" d="M 962.5,414.5 C 961.326,426.956 962.993,438.956 967.5,450.5C 967.649,451.552 967.483,452.552 967,453.5C 966.261,452.426 965.261,451.759 964,451.5C 962.584,452.573 961.25,452.573 960,451.5C 957.736,453.983 955.403,453.983 953,451.5C 945.29,451.543 937.29,451.543 929,451.5C 927.887,452.305 926.721,452.972 925.5,453.5C 925.097,450.514 924.097,447.848 922.5,445.5C 922.5,445.167 922.5,444.833 922.5,444.5C 924.099,444.768 925.432,444.434 926.5,443.5C 941.49,437.506 953.49,427.839 962.5,414.5 Z"/></g>
<g><path style="opacity:0.506" fill="#929bcc" d="M 915.5,447.5 C 912.482,449.4 909.149,450.733 905.5,451.5C 908.335,449.215 911.668,447.882 915.5,447.5 Z"/></g>
<g><path style="opacity:0.998" fill="#52c3c7" d="M 357.5,444.5 C 357.5,449.167 357.5,453.833 357.5,458.5C 333.58,459.035 309.247,459.368 284.5,459.5C 283.824,458.398 283.158,457.398 282.5,456.5C 282.182,452.199 280.515,448.532 277.5,445.5C 278.458,445.047 279.292,444.381 280,443.5C 282.893,444.018 285.726,444.351 288.5,444.5C 289.192,443.975 289.692,443.308 290,442.5C 291.8,444.831 293.8,444.831 296,442.5C 296.519,443.516 297.353,444.182 298.5,444.5C 306.422,444.673 314.255,444.34 322,443.5C 322.95,444.022 323.784,444.689 324.5,445.5C 326.467,444.047 328.633,443.047 331,442.5C 331.667,443.167 332.333,443.833 333,444.5C 333.667,441.833 334.333,441.833 335,444.5C 338.733,444.233 342.733,444.233 347,444.5C 347.333,443.833 347.667,443.167 348,442.5C 349.194,443.43 350.527,444.097 352,444.5C 353.69,443.851 355.523,443.851 357.5,444.5 Z"/></g>
<g><path style="opacity:0.984" fill="#50c2c7" d="M 562.5,418.5 C 563.496,431.656 563.829,444.99 563.5,458.5C 556.825,458.404 549.825,458.738 542.5,459.5C 548.897,445.706 555.564,432.04 562.5,418.5 Z"/></g>
<g><path style="opacity:0.988" fill="#54c3c8" d="M 624.5,422.5 C 623.503,443.327 623.169,464.327 623.5,485.5C 622.517,481.702 622.183,477.702 622.5,473.5C 622.5,468.833 622.5,464.167 622.5,459.5C 608.764,459.236 595.764,459.236 583.5,459.5C 583.5,454.167 583.5,448.833 583.5,443.5C 587.997,443.659 592.497,443.992 597,444.5C 597.974,442.122 598.641,442.456 599,445.5C 601.184,446.108 603.184,445.441 605,443.5C 610.451,444.211 615.951,444.545 621.5,444.5C 622.494,439.544 622.827,434.544 622.5,429.5C 622.187,426.753 622.52,424.086 623.5,421.5C 624.107,421.624 624.44,421.957 624.5,422.5 Z"/></g>
<g><path style="opacity:0.988" fill="#52c3c6" d="M 759.5,442.5 C 759.5,448.167 759.5,453.833 759.5,459.5C 746.167,459.5 732.833,459.5 719.5,459.5C 719.5,454.167 719.5,448.833 719.5,443.5C 720.458,443.953 721.292,444.619 722,445.5C 722.308,444.692 722.808,444.025 723.5,443.5C 728.35,444.522 732.683,444.522 736.5,443.5C 738.382,444.093 740.215,444.76 742,445.5C 743.194,443.475 744.694,443.141 746.5,444.5C 747.541,442.009 748.374,442.009 749,444.5C 750.309,442.109 751.309,442.109 752,444.5C 752.667,443.167 753.333,443.167 754,444.5C 754.333,443.833 754.667,443.167 755,442.5C 756.461,444.982 757.961,444.982 759.5,442.5 Z"/></g>
<g><path style="opacity:0.995" fill="#53c3c7" d="M 1227.5,446.5 C 1228.39,449.054 1228.72,451.721 1228.5,454.5C 1228.77,456.429 1228.27,458.095 1227,459.5C 1213.82,458.923 1200.65,458.923 1187.5,459.5C 1186.82,458.398 1186.16,457.398 1185.5,456.5C 1185.18,452.199 1183.52,448.532 1180.5,445.5C 1184.05,444.39 1187.55,444.39 1191,445.5C 1193.12,444.773 1195.29,444.106 1197.5,443.5C 1206.52,444.656 1215.36,444.656 1224,443.5C 1225.36,444.365 1226.53,445.365 1227.5,446.5 Z"/></g>
<g><path style="opacity:0.999" fill="#5fc7c7" d="M 359.5,438.5 C 358.503,454.992 358.17,471.658 358.5,488.5C 357.834,483.651 357.167,478.651 356.5,473.5C 330.659,474.675 304.659,474.675 278.5,473.5C 281.984,468.39 283.317,462.723 282.5,456.5C 283.158,457.398 283.824,458.398 284.5,459.5C 309.247,459.368 333.58,459.035 357.5,458.5C 357.5,453.833 357.5,449.167 357.5,444.5C 357.192,442.076 357.526,439.743 358.5,437.5C 359.107,437.624 359.44,437.957 359.5,438.5 Z"/></g>
<g><path style="opacity:0.986" fill="#59c5c6" d="M 410.5,445.5 C 414.736,451.628 418.736,457.962 422.5,464.5C 421.848,465.725 420.681,466.392 419,466.5C 415.904,466.206 412.737,465.873 409.5,465.5C 407.309,466.872 405.142,467.206 403,466.5C 397.056,468.112 390.889,468.445 384.5,467.5C 378.921,461.321 373.588,454.988 368.5,448.5C 368.917,447.876 369.584,447.543 370.5,447.5C 371.949,449.249 373.282,449.416 374.5,448C 377.53,447.712 380.364,447.545 383,447.5C 383.667,450.167 384.333,450.167 385,447.5C 387.879,448.711 390.713,448.711 393.5,447.5C 394.541,449.991 395.374,449.991 396,447.5C 396.689,448.357 397.522,449.023 398.5,449.5C 399.705,447.862 401.038,447.529 402.5,448.5C 405.65,448.234 408.317,447.234 410.5,445.5 Z"/></g>
<g><path style="opacity:0.985" fill="#58c5c6" d="M 502.5,450.5 C 502.5,456.5 502.5,462.5 502.5,468.5C 489.246,467.519 475.913,467.186 462.5,467.5C 462.5,461.5 462.5,455.5 462.5,449.5C 463.721,448.972 464.887,448.305 466,447.5C 466.667,450.167 467.333,450.167 468,447.5C 470.211,447.623 472.378,447.623 474.5,447.5C 474.677,450.078 475.843,450.078 478,447.5C 481.637,447.703 485.304,447.703 489,447.5C 489.667,448.167 490.333,448.833 491,449.5C 491.741,448.359 492.575,448.359 493.5,449.5C 494.192,448.975 494.692,448.308 495,447.5C 496.309,449.891 497.309,449.891 498,447.5C 498.667,448.833 499.333,448.833 500,447.5C 500.852,448.571 501.685,449.571 502.5,450.5 Z"/></g>
<g><path style="opacity:0.989" fill="#5cc6c5" d="M 622.5,473.5 C 609.845,474.189 596.845,474.189 583.5,473.5C 583.5,468.833 583.5,464.167 583.5,459.5C 595.764,459.236 608.764,459.236 622.5,459.5C 622.5,464.167 622.5,468.833 622.5,473.5 Z"/></g>
<g><path style="opacity:0.991" fill="#5ac6c6" d="M 967.5,450.5 C 970.33,455.481 973.664,460.148 977.5,464.5C 977.389,465.117 977.056,465.617 976.5,466C 968.855,466.42 961.689,466.254 955,465.5C 954.25,466.126 953.416,466.626 952.5,467C 945.654,467.172 938.987,467.672 932.5,468.5C 929.381,463.926 927.048,458.926 925.5,453.5C 926.721,452.972 927.887,452.305 929,451.5C 937.29,451.543 945.29,451.543 953,451.5C 955.403,453.983 957.736,453.983 960,451.5C 961.25,452.573 962.584,452.573 964,451.5C 965.261,451.759 966.261,452.426 967,453.5C 967.483,452.552 967.649,451.552 967.5,450.5 Z"/></g>
<g><path style="opacity:0.988" fill="#59c5c6" d="M 1072.5,441.5 C 1072.5,442.5 1072.5,443.5 1072.5,444.5C 1081.14,443.818 1088.97,443.818 1096,444.5C 1097.33,443.833 1098.67,443.167 1100,442.5C 1101.51,444.957 1102.85,444.957 1104,442.5C 1106.81,445.184 1109.98,445.851 1113.5,444.5C 1112.51,447.464 1112.01,450.464 1112,453.5C 1115.67,458.336 1119.84,462.669 1124.5,466.5C 1103.76,467.172 1082.93,467.839 1062,468.5C 1060.3,467.594 1058.47,467.261 1056.5,467.5C 1063.38,459.735 1068.71,451.068 1072.5,441.5 Z"/></g>
<g><path style="opacity:0.98" fill="#61c8c6" d="M 73.5,455.5 C 73.5,456.833 73.5,458.167 73.5,459.5C 90.9822,458.87 108.149,458.536 125,458.5C 125.464,459.094 125.631,459.761 125.5,460.5C 119.393,464.392 113.06,468.059 106.5,471.5C 105.232,473.304 104.565,475.304 104.5,477.5C 103.566,476.432 103.232,475.099 103.5,473.5C 93.539,474.089 83.539,474.089 73.5,473.5C 71.8045,474.174 70.1379,474.841 68.5,475.5C 69.565,468.573 71.2317,461.906 73.5,455.5 Z"/></g>
<g><path style="opacity:0.988" fill="#60c8c6" d="M 185.5,459.5 C 187.455,464.655 188.789,469.989 189.5,475.5C 188.778,475.082 188.278,474.416 188,473.5C 177,474.166 165.167,474.166 152.5,473.5C 151.818,474.243 151.151,474.909 150.5,475.5C 149.5,470.167 148.5,464.833 147.5,459.5C 159.8,459.477 172.466,459.477 185.5,459.5 Z"/></g>
<g><path style="opacity:0.985" fill="#5ec7c7" d="M 693.5,518.5 C 693.5,512.5 693.5,506.5 693.5,500.5C 693.5,497.167 693.5,493.833 693.5,490.5C 693.807,484.907 693.473,479.407 692.5,474C 684.454,473.21 676.12,473.377 667.5,474.5C 676.057,459.058 684.89,443.725 694,428.5C 694.831,458.669 694.664,488.669 693.5,518.5 Z"/></g>
<g><path style="opacity:0.976" fill="#5ec7c5" d="M 759.5,459.5 C 759.5,465.167 759.5,470.833 759.5,476.5C 758.766,475.071 757.599,474.071 756,473.5C 744.488,474.27 732.321,474.27 719.5,473.5C 719.5,468.833 719.5,464.167 719.5,459.5C 732.833,459.5 746.167,459.5 759.5,459.5 Z"/></g>
<g><path style="opacity:0.992" fill="#61c8c6" d="M 1228.5,454.5 C 1229.58,461.403 1229.24,468.403 1227.5,475.5C 1224.94,474.278 1222.11,473.611 1219,473.5C 1206.08,473.998 1193.58,473.998 1181.5,473.5C 1184.98,468.39 1186.32,462.723 1185.5,456.5C 1186.16,457.398 1186.82,458.398 1187.5,459.5C 1200.65,458.923 1213.82,458.923 1227,459.5C 1228.27,458.095 1228.77,456.429 1228.5,454.5 Z"/></g>
<g><path style="opacity:0.862" fill="#6b70b7" d="M 855.5,431.5 C 856.5,431.5 857.5,431.5 858.5,431.5C 858.747,442.845 858.914,454.178 859,465.5C 851.576,467.932 845.576,472.266 841,478.5C 838.929,489.025 842.762,496.692 852.5,501.5C 852.5,501.833 852.5,502.167 852.5,502.5C 839.282,498.165 834.782,489.498 839,476.5C 843.498,471.587 848.831,467.92 855,465.5C 855.5,454.172 855.667,442.838 855.5,431.5 Z"/></g>
<g><path style="opacity:0.986" fill="#64c9c6" d="M 198.5,438.5 C 208.004,455.504 221.338,468.671 238.5,478C 243.535,479.849 248.535,481.349 253.5,482.5C 244.325,482.659 235.492,482.659 227,482.5C 224.966,482.354 223.299,483.02 222,484.5C 221.692,483.692 221.192,483.025 220.5,482.5C 212.567,482.817 204.9,482.817 197.5,482.5C 197.171,467.657 197.504,452.99 198.5,438.5 Z"/></g>
<g><path style="opacity:0.981" fill="#69cbc5" d="M 422.5,464.5 C 429.222,474.564 435.556,484.898 441.5,495.5C 439.246,494.685 436.913,494.019 434.5,493.5C 427.278,493.945 419.944,493.945 412.5,493.5C 410.3,494.325 409.966,495.658 411.5,497.5C 402.529,487.526 393.529,477.526 384.5,467.5C 390.889,468.445 397.056,468.112 403,466.5C 405.142,467.206 407.309,466.872 409.5,465.5C 412.737,465.873 415.904,466.206 419,466.5C 420.681,466.392 421.848,465.725 422.5,464.5 Z"/></g>
<g><path style="opacity:0.999" fill="#6ecdc4" d="M 189.5,475.5 C 191.185,480.873 193.185,486.206 195.5,491.5C 195.783,492.289 196.283,492.956 197,493.5C 197.499,489.848 197.665,486.182 197.5,482.5C 204.9,482.817 212.567,482.817 220.5,482.5C 221.192,483.025 221.692,483.692 222,484.5C 223.299,483.02 224.966,482.354 227,482.5C 235.492,482.659 244.325,482.659 253.5,482.5C 263.283,483.241 271.616,480.241 278.5,473.5C 304.659,474.675 330.659,474.675 356.5,473.5C 357.167,478.651 357.834,483.651 358.5,488.5C 359.89,489.899 360.89,491.566 361.5,493.5C 347.488,494.142 333.321,494.142 319,493.5C 318.5,501.493 318.334,509.493 318.5,517.5C 317.671,509.343 317.171,501.01 317,492.5C 314.716,496.949 311.549,500.616 307.5,503.5C 306.596,502.791 306.263,501.791 306.5,500.5C 297.626,501.579 289.292,501.579 281.5,500.5C 280.808,501.025 280.308,501.692 280,502.5C 276.778,499.995 273.444,499.995 270,502.5C 269.612,501.572 268.945,500.905 268,500.5C 259.609,501.65 251.275,501.65 243,500.5C 242.055,500.905 241.388,501.572 241,502.5C 240.481,501.484 239.647,500.818 238.5,500.5C 231.398,501.603 224.231,501.603 217,500.5C 216.055,500.905 215.388,501.572 215,502.5C 213.475,501.28 211.641,500.613 209.5,500.5C 205.791,501.762 202.291,501.762 199,500.5C 198.612,501.428 197.945,502.095 197,502.5C 195.78,501.612 194.447,500.945 193,500.5C 188.319,501.805 183.652,501.805 179,500.5C 177.833,500.667 176.667,500.833 175.5,501C 176.696,501.654 176.696,502.154 175.5,502.5C 174.808,501.975 174.308,501.308 174,500.5C 167.253,500.569 160.086,500.736 152.5,501C 151.093,502.452 149.593,502.285 148,500.5C 147.667,501.167 147.333,501.833 147,502.5C 146.329,501.748 145.496,501.414 144.5,501.5C 146.728,497.388 149.228,493.388 152,489.5C 152.267,484.763 151.767,480.096 150.5,475.5C 151.151,474.909 151.818,474.243 152.5,473.5C 165.167,474.166 177,474.166 188,473.5C 188.278,474.416 188.778,475.082 189.5,475.5 Z"/></g>
<g><path style="opacity:0.976" fill="#6acbc4" d="M 563.5,458.5 C 563.5,470.5 563.5,482.5 563.5,494.5C 528.659,494.342 493.992,494.009 459.5,493.5C 459.795,491.577 460.628,489.91 462,488.5C 462.5,481.508 462.666,474.508 462.5,467.5C 475.913,467.186 489.246,467.519 502.5,468.5C 502.5,473.833 502.5,479.167 502.5,484.5C 511.525,484.832 520.525,484.498 529.5,483.5C 533.353,475.119 537.687,467.119 542.5,459.5C 549.825,458.738 556.825,458.404 563.5,458.5 Z"/></g>
<g><path style="opacity:0.969" fill="#6bccc4" d="M 583.5,473.5 C 596.845,474.189 609.845,474.189 622.5,473.5C 622.183,477.702 622.517,481.702 623.5,485.5C 635.838,485.667 648.171,485.5 660.5,485C 662.733,481.349 665.066,477.849 667.5,474.5C 676.12,473.377 684.454,473.21 692.5,474C 693.473,479.407 693.807,484.907 693.5,490.5C 691.657,489.957 689.99,490.624 688.5,492.5C 687.522,492.023 686.689,491.357 686,490.5C 685.333,493.167 684.667,493.167 684,490.5C 682.107,491.327 679.941,491.327 677.5,490.5C 676.522,490.977 675.689,491.643 675,492.5C 674.667,491.833 674.333,491.167 674,490.5C 672.915,491.293 671.748,491.96 670.5,492.5C 670.511,491.559 670.011,490.892 669,490.5C 667.128,491.068 665.295,491.735 663.5,492.5C 661.674,490.219 659.674,490.219 657.5,492.5C 656.389,489.798 654.389,489.798 651.5,492.5C 650.459,490.009 649.626,490.009 649,492.5C 648.326,491.422 647.326,490.755 646,490.5C 644.089,491.407 642.256,491.407 640.5,490.5C 637.721,492.986 634.888,492.986 632,490.5C 629.667,493.167 627.333,493.167 625,490.5C 616.905,490.69 608.905,490.69 601,490.5C 599.209,492.513 597.875,492.513 597,490.5C 596.125,492.513 594.791,492.513 593,490.5C 591.518,492.781 589.851,492.781 588,490.5C 587.612,491.428 586.945,492.095 586,492.5C 584.56,491.852 583.06,491.519 581.5,491.5C 583.356,485.718 584.023,479.718 583.5,473.5 Z"/></g>
<g><path style="opacity:0.993" fill="#6bccc4" d="M 977.5,464.5 C 995.301,481.695 1015.97,486.195 1039.5,478C 1045.6,475.041 1051.27,471.541 1056.5,467.5C 1058.47,467.261 1060.3,467.594 1062,468.5C 1082.93,467.839 1103.76,467.172 1124.5,466.5C 1138.11,479.648 1154.11,484.148 1172.5,480C 1175.94,478.389 1178.94,476.223 1181.5,473.5C 1193.58,473.998 1206.08,473.998 1219,473.5C 1222.11,473.611 1224.94,474.278 1227.5,475.5C 1225.97,481.776 1223.31,487.442 1219.5,492.5C 1217.8,491.266 1215.8,490.599 1213.5,490.5C 1210.55,491.566 1207.89,491.566 1205.5,490.5C 1204.5,491.167 1203.5,491.833 1202.5,492.5C 1199.8,490.165 1197.3,490.165 1195,492.5C 1193.98,489.972 1192.82,489.972 1191.5,492.5C 1190.52,492.023 1189.69,491.357 1189,490.5C 1188.26,491.641 1187.43,491.641 1186.5,490.5C 1185.46,492.991 1184.63,492.991 1184,490.5C 1183.37,492.991 1182.54,492.991 1181.5,490.5C 1180.81,491.025 1180.31,491.692 1180,492.5C 1178.45,489.997 1176.78,489.997 1175,492.5C 1174.69,491.692 1174.19,491.025 1173.5,490.5C 1171.93,490.694 1170.43,490.694 1169,490.5C 1167.21,492.513 1165.88,492.513 1165,490.5C 1163.67,493.167 1162.33,493.167 1161,490.5C 1159.69,492.891 1158.69,492.891 1158,490.5C 1157.33,491.833 1156.67,491.833 1156,490.5C 1155.33,493.167 1154.67,493.167 1154,490.5C 1153.37,492.991 1152.54,492.991 1151.5,490.5C 1150.57,491.641 1149.74,491.641 1149,490.5C 1148.67,491.167 1148.33,491.833 1148,492.5C 1146.21,492.377 1144.38,492.377 1142.5,492.5C 1141.83,491.833 1141.17,491.167 1140.5,490.5C 1138.36,490.638 1136.2,490.638 1134,490.5C 1133.05,491.022 1132.22,491.689 1131.5,492.5C 1130.3,492.154 1130.3,491.654 1131.5,491C 1129.57,490.217 1128.07,490.717 1127,492.5C 1126.48,491.484 1125.65,490.818 1124.5,490.5C 1121.35,491.598 1118.51,491.598 1116,490.5C 1115.67,491.167 1115.33,491.833 1115,492.5C 1114.26,491.359 1113.43,491.359 1112.5,492.5C 1112.17,491.833 1111.83,491.167 1111.5,490.5C 1109.88,493.058 1108.38,493.058 1107,490.5C 1106.33,491.167 1105.67,491.833 1105,492.5C 1104,491.167 1103,491.167 1102,492.5C 1100.94,486.912 1100.11,481.912 1099.5,477.5C 1096.58,481.601 1093.41,485.601 1090,489.5C 1087.91,492.094 1085.41,494.094 1082.5,495.5C 1082.63,494.761 1082.46,494.094 1082,493.5C 1039.66,493.67 996.489,494.004 952.5,494.5C 943.926,487.264 937.259,478.597 932.5,468.5C 938.987,467.672 945.654,467.172 952.5,467C 953.416,466.626 954.25,466.126 955,465.5C 961.689,466.254 968.855,466.42 976.5,466C 977.056,465.617 977.389,465.117 977.5,464.5 Z"/></g>
<g><path style="opacity:0.985" fill="#6dccc4" d="M 104.5,477.5 C 103.506,480.804 102.506,484.137 101.5,487.5C 103.11,489.725 104.443,492.059 105.5,494.5C 92.7913,494.146 79.9579,493.813 67,493.5C 64.846,494.23 62.6794,494.897 60.5,495.5C 61.7226,492.726 63.2226,490.059 65,487.5C 65.8806,483.291 67.0473,479.291 68.5,475.5C 70.1379,474.841 71.8045,474.174 73.5,473.5C 83.539,474.089 93.539,474.089 103.5,473.5C 103.232,475.099 103.566,476.432 104.5,477.5 Z"/></g>
<g><path style="opacity:0.985" fill="#6cccc4" d="M 719.5,473.5 C 732.321,474.27 744.488,474.27 756,473.5C 757.599,474.071 758.766,475.071 759.5,476.5C 759.334,480.514 759.501,484.514 760,488.5C 761.442,490.391 762.609,492.391 763.5,494.5C 747.36,494.113 731.36,494.113 715.5,494.5C 719.21,488.098 720.543,481.098 719.5,473.5 Z"/></g>
<g><path style="opacity:0.997" fill="#73cfc3" d="M 693.5,490.5 C 693.5,493.833 693.5,497.167 693.5,500.5C 692.25,500.577 691.417,501.244 691,502.5C 689.609,500.285 687.943,500.285 686,502.5C 685.692,501.692 685.192,501.025 684.5,500.5C 682.737,500.694 680.903,500.694 679,500.5C 678.667,501.167 678.333,501.833 678,502.5C 677.481,501.484 676.647,500.818 675.5,500.5C 668.189,501.16 661.023,501.16 654,500.5C 652.635,500.844 651.468,501.511 650.5,502.5C 649.5,501.833 648.5,501.167 647.5,500.5C 641.273,500.939 635.106,500.939 629,500.5C 628.055,500.905 627.388,501.572 627,502.5C 625.527,500.993 623.693,500.326 621.5,500.5C 612.215,500.858 603.215,500.858 594.5,500.5C 593.808,501.025 593.308,501.692 593,502.5C 591.333,502.5 589.667,502.5 588,502.5C 587.612,501.572 586.945,500.905 586,500.5C 583.189,501.404 580.522,501.737 578,501.5C 577.283,500.956 576.783,500.289 576.5,499.5C 577.669,496.489 579.336,493.822 581.5,491.5C 583.06,491.519 584.56,491.852 586,492.5C 586.945,492.095 587.612,491.428 588,490.5C 589.851,492.781 591.518,492.781 593,490.5C 594.791,492.513 596.125,492.513 597,490.5C 597.875,492.513 599.209,492.513 601,490.5C 608.905,490.69 616.905,490.69 625,490.5C 627.333,493.167 629.667,493.167 632,490.5C 634.888,492.986 637.721,492.986 640.5,490.5C 642.256,491.407 644.089,491.407 646,490.5C 647.326,490.755 648.326,491.422 649,492.5C 649.626,490.009 650.459,490.009 651.5,492.5C 654.389,489.798 656.389,489.798 657.5,492.5C 659.674,490.219 661.674,490.219 663.5,492.5C 665.295,491.735 667.128,491.068 669,490.5C 670.011,490.892 670.511,491.559 670.5,492.5C 671.748,491.96 672.915,491.293 674,490.5C 674.333,491.167 674.667,491.833 675,492.5C 675.689,491.643 676.522,490.977 677.5,490.5C 679.941,491.327 682.107,491.327 684,490.5C 684.667,493.167 685.333,493.167 686,490.5C 686.689,491.357 687.522,492.023 688.5,492.5C 689.99,490.624 691.657,489.957 693.5,490.5 Z"/></g>
<g><path style="opacity:0.99" fill="#7ad1c3" d="M 105.5,494.5 C 110.934,501.845 116.268,509.345 121.5,517C 96.4933,517.833 71.4933,517.666 46.5,516.5C 50.942,509.263 55.6086,502.263 60.5,495.5C 62.6794,494.897 64.846,494.23 67,493.5C 79.9579,493.813 92.7913,494.146 105.5,494.5 Z"/></g>
<g><path style="opacity:0.991" fill="#7bd1c3" d="M 307.5,503.5 C 294.399,515.263 278.899,521.263 261,521.5C 242.777,520.927 226.61,514.927 212.5,503.5C 210.493,505.008 208.826,506.842 207.5,509C 209.291,511.414 210.957,513.914 212.5,516.5C 207.868,517.328 203.202,517.828 198.5,518C 198,518.5 197.5,519 197,519.5C 176.063,517.683 154.896,516.85 133.5,517C 137.311,511.854 140.978,506.688 144.5,501.5C 145.496,501.414 146.329,501.748 147,502.5C 147.333,501.833 147.667,501.167 148,500.5C 149.593,502.285 151.093,502.452 152.5,501C 160.086,500.736 167.253,500.569 174,500.5C 174.308,501.308 174.808,501.975 175.5,502.5C 176.696,502.154 176.696,501.654 175.5,501C 176.667,500.833 177.833,500.667 179,500.5C 183.652,501.805 188.319,501.805 193,500.5C 194.447,500.945 195.78,501.612 197,502.5C 197.945,502.095 198.612,501.428 199,500.5C 202.291,501.762 205.791,501.762 209.5,500.5C 211.641,500.613 213.475,501.28 215,502.5C 215.388,501.572 216.055,500.905 217,500.5C 224.231,501.603 231.398,501.603 238.5,500.5C 239.647,500.818 240.481,501.484 241,502.5C 241.388,501.572 242.055,500.905 243,500.5C 251.275,501.65 259.609,501.65 268,500.5C 268.945,500.905 269.612,501.572 270,502.5C 273.444,499.995 276.778,499.995 280,502.5C 280.308,501.692 280.808,501.025 281.5,500.5C 289.292,501.579 297.626,501.579 306.5,500.5C 306.263,501.791 306.596,502.791 307.5,503.5 Z"/></g>
<g><path style="opacity:0.993" fill="#79d1c2" d="M 361.5,493.5 C 366.97,501.155 372.304,508.989 377.5,517C 357.836,517.5 338.169,517.667 318.5,517.5C 318.334,509.493 318.5,501.493 319,493.5C 333.321,494.142 347.488,494.142 361.5,493.5 Z"/></g>
<g><path style="opacity:0.995" fill="#78d0c3" d="M 441.5,495.5 C 444.47,499.32 447.304,503.32 450,507.5C 452.639,502.382 455.805,497.715 459.5,493.5C 493.992,494.009 528.659,494.342 563.5,494.5C 563.5,500.167 563.5,505.833 563.5,511.5C 562.778,511.918 562.278,512.584 562,513.5C 561.667,512.833 561.333,512.167 561,511.5C 559.333,511.5 557.667,511.5 556,511.5C 555.667,512.167 555.333,512.833 555,513.5C 554.196,512.196 553.029,511.529 551.5,511.5C 548.314,511.668 544.981,511.835 541.5,512C 539.987,514.023 538.654,513.856 537.5,511.5C 535.833,511.5 534.167,511.5 532.5,511.5C 531.808,512.025 531.308,512.692 531,513.5C 528.305,510.866 526.471,510.866 525.5,513.5C 524.833,512.833 524.167,512.167 523.5,511.5C 523.167,512.167 522.833,512.833 522.5,513.5C 521.318,511.355 519.818,511.355 518,513.5C 517.667,512.833 517.333,512.167 517,511.5C 514.351,511.745 511.518,512.411 508.5,513.5C 507.214,513.148 506.381,512.482 506,511.5C 502.112,511.545 498.278,511.545 494.5,511.5C 493.833,511.667 493.167,511.833 492.5,512C 493.696,512.654 493.696,513.154 492.5,513.5C 491.522,513.023 490.689,512.357 490,511.5C 488.867,513.211 487.367,513.711 485.5,513C 485.833,512.667 486.167,512.333 486.5,512C 483.422,512.066 480.422,511.899 477.5,511.5C 475.373,512.648 473.206,513.648 471,514.5C 469.981,513.313 468.814,512.313 467.5,511.5C 466.28,512.711 465.113,512.711 464,511.5C 463.667,512.167 463.333,512.833 463,513.5C 462.612,512.572 461.945,511.905 461,511.5C 457.213,513.981 453.546,513.981 450,511.5C 447.586,512.084 444.919,512.084 442,511.5C 439.703,513.421 437.703,513.421 436,511.5C 433.714,512.253 431.214,512.253 428.5,511.5C 427.482,512.193 426.482,512.859 425.5,513.5C 420.49,508.488 415.823,503.155 411.5,497.5C 409.966,495.658 410.3,494.325 412.5,493.5C 419.944,493.945 427.278,493.945 434.5,493.5C 436.913,494.019 439.246,494.685 441.5,495.5 Z"/></g>
<g><path style="opacity:0.998" fill="#7ad1c2" d="M 576.5,499.5 C 576.783,500.289 577.283,500.956 578,501.5C 580.522,501.737 583.189,501.404 586,500.5C 586.945,500.905 587.612,501.572 588,502.5C 589.667,502.5 591.333,502.5 593,502.5C 593.308,501.692 593.808,501.025 594.5,500.5C 603.215,500.858 612.215,500.858 621.5,500.5C 623.693,500.326 625.527,500.993 627,502.5C 627.388,501.572 628.055,500.905 629,500.5C 635.106,500.939 641.273,500.939 647.5,500.5C 648.5,501.167 649.5,501.833 650.5,502.5C 651.468,501.511 652.635,500.844 654,500.5C 661.023,501.16 668.189,501.16 675.5,500.5C 676.647,500.818 677.481,501.484 678,502.5C 678.333,501.833 678.667,501.167 679,500.5C 680.903,500.694 682.737,500.694 684.5,500.5C 685.192,501.025 685.692,501.692 686,502.5C 687.943,500.285 689.609,500.285 691,502.5C 691.417,501.244 692.25,500.577 693.5,500.5C 693.5,506.5 693.5,512.5 693.5,518.5C 650.5,518.5 607.5,518.5 564.5,518.5C 564.833,517.833 565.167,517.167 565.5,516.5C 568.78,510.559 572.447,504.892 576.5,499.5 Z"/></g>
<g><path style="opacity:0.99" fill="#7ad1c2" d="M 763.5,494.5 C 769.496,501.843 775.163,509.51 780.5,517.5C 753.506,518.667 726.506,518.833 699.5,518C 704.98,510.187 710.313,502.354 715.5,494.5C 731.36,494.113 747.36,494.113 763.5,494.5 Z"/></g>
<g><path style="opacity:0.318" fill="#8d8dc7" d="M 891.5,490.5 C 891.5,495.167 891.5,499.833 891.5,504.5C 890.5,504.5 889.5,504.5 888.5,504.5C 888.5,504.167 888.5,503.833 888.5,503.5C 890.135,499.427 891.135,495.094 891.5,490.5 Z"/></g>
<g><path style="opacity:0.989" fill="#79d1c3" d="M 1082.5,495.5 C 1064.8,512.67 1043.46,521.003 1018.5,520.5C 992.718,521.025 970.718,512.358 952.5,494.5C 996.489,494.004 1039.66,493.67 1082,493.5C 1082.46,494.094 1082.63,494.761 1082.5,495.5 Z"/></g>
<g><path style="opacity:0.991" fill="#79d1c3" d="M 1219.5,492.5 C 1210.6,506.471 1197.94,515.304 1181.5,519C 1157,524.467 1135,519.3 1115.5,503.5C 1110.54,508.959 1105.38,514.292 1100,519.5C 1099.5,505.504 1099.33,491.504 1099.5,477.5C 1100.11,481.912 1100.94,486.912 1102,492.5C 1103,491.167 1104,491.167 1105,492.5C 1105.67,491.833 1106.33,491.167 1107,490.5C 1108.38,493.058 1109.88,493.058 1111.5,490.5C 1111.83,491.167 1112.17,491.833 1112.5,492.5C 1113.43,491.359 1114.26,491.359 1115,492.5C 1115.33,491.833 1115.67,491.167 1116,490.5C 1118.51,491.598 1121.35,491.598 1124.5,490.5C 1125.65,490.818 1126.48,491.484 1127,492.5C 1128.07,490.717 1129.57,490.217 1131.5,491C 1130.3,491.654 1130.3,492.154 1131.5,492.5C 1132.22,491.689 1133.05,491.022 1134,490.5C 1136.2,490.638 1138.36,490.638 1140.5,490.5C 1141.17,491.167 1141.83,491.833 1142.5,492.5C 1144.38,492.377 1146.21,492.377 1148,492.5C 1148.33,491.833 1148.67,491.167 1149,490.5C 1149.74,491.641 1150.57,491.641 1151.5,490.5C 1152.54,492.991 1153.37,492.991 1154,490.5C 1154.67,493.167 1155.33,493.167 1156,490.5C 1156.67,491.833 1157.33,491.833 1158,490.5C 1158.69,492.891 1159.69,492.891 1161,490.5C 1162.33,493.167 1163.67,493.167 1165,490.5C 1165.88,492.513 1167.21,492.513 1169,490.5C 1170.43,490.694 1171.93,490.694 1173.5,490.5C 1174.19,491.025 1174.69,491.692 1175,492.5C 1176.78,489.997 1178.45,489.997 1180,492.5C 1180.31,491.692 1180.81,491.025 1181.5,490.5C 1182.54,492.991 1183.37,492.991 1184,490.5C 1184.63,492.991 1185.46,492.991 1186.5,490.5C 1187.43,491.641 1188.26,491.641 1189,490.5C 1189.69,491.357 1190.52,492.023 1191.5,492.5C 1192.82,489.972 1193.98,489.972 1195,492.5C 1197.3,490.165 1199.8,490.165 1202.5,492.5C 1203.5,491.833 1204.5,491.167 1205.5,490.5C 1207.89,491.566 1210.55,491.566 1213.5,490.5C 1215.8,490.599 1217.8,491.266 1219.5,492.5 Z"/></g>
<g><path style="opacity:0.565" fill="#7684bf" d="M 852.5,501.5 C 868.394,507.128 884.06,513.128 899.5,519.5C 899.167,519.5 898.833,519.5 898.5,519.5C 882.949,514.208 867.616,508.541 852.5,502.5C 852.5,502.167 852.5,501.833 852.5,501.5 Z"/></g>
<g><path style="opacity:0.976" fill="#81d3c3" d="M 563.5,511.5 C 563.5,513.833 563.5,516.167 563.5,518.5C 527.832,518.333 492.165,518.5 456.5,519C 476.815,550.471 496.482,582.304 515.5,614.5C 485.275,581.062 455.275,547.396 425.5,513.5C 426.482,512.859 427.482,512.193 428.5,511.5C 431.214,512.253 433.714,512.253 436,511.5C 437.703,513.421 439.703,513.421 442,511.5C 444.919,512.084 447.586,512.084 450,511.5C 453.546,513.981 457.213,513.981 461,511.5C 461.945,511.905 462.612,512.572 463,513.5C 463.333,512.833 463.667,512.167 464,511.5C 465.113,512.711 466.28,512.711 467.5,511.5C 468.814,512.313 469.981,513.313 471,514.5C 473.206,513.648 475.373,512.648 477.5,511.5C 480.422,511.899 483.422,512.066 486.5,512C 486.167,512.333 485.833,512.667 485.5,513C 487.367,513.711 488.867,513.211 490,511.5C 490.689,512.357 491.522,513.023 492.5,513.5C 493.696,513.154 493.696,512.654 492.5,512C 493.167,511.833 493.833,511.667 494.5,511.5C 498.278,511.545 502.112,511.545 506,511.5C 506.381,512.482 507.214,513.148 508.5,513.5C 511.518,512.411 514.351,511.745 517,511.5C 517.333,512.167 517.667,512.833 518,513.5C 519.818,511.355 521.318,511.355 522.5,513.5C 522.833,512.833 523.167,512.167 523.5,511.5C 524.167,512.167 524.833,512.833 525.5,513.5C 526.471,510.866 528.305,510.866 531,513.5C 531.308,512.692 531.808,512.025 532.5,511.5C 534.167,511.5 535.833,511.5 537.5,511.5C 538.654,513.856 539.987,514.023 541.5,512C 544.981,511.835 548.314,511.668 551.5,511.5C 553.029,511.529 554.196,512.196 555,513.5C 555.333,512.833 555.667,512.167 556,511.5C 557.667,511.5 559.333,511.5 561,511.5C 561.333,512.167 561.667,512.833 562,513.5C 562.278,512.584 562.778,511.918 563.5,511.5 Z"/></g>
<g><path style="opacity:0.882" fill="#6d70b7" d="M 898.5,519.5 C 898.833,519.5 899.167,519.5 899.5,519.5C 923.526,528.865 930.36,545.199 920,568.5C 914.878,574.789 908.711,579.789 901.5,583.5C 900.957,583.44 900.624,583.107 900.5,582.5C 903.304,580.862 905.971,579.029 908.5,577C 922.176,565.471 925.342,551.638 918,535.5C 912.498,528.82 905.998,523.487 898.5,519.5 Z"/></g>
<g><path style="opacity:1" fill="#1893b5" d="M 870.5,547.5 C 875.829,549.497 881.162,551.497 886.5,553.5C 886.271,602.176 885.438,650.843 884,699.5C 883.405,703.912 881.905,707.912 879.5,711.5C 877.278,711.822 875.444,711.155 874,709.5C 872.601,706.637 871.601,703.637 871,700.5C 869.481,657.847 868.647,615.18 868.5,572.5C 867.865,563.766 868.532,555.433 870.5,547.5 Z"/></g>
<g><path style="opacity:0.624" fill="#7381be" d="M 870.5,547.5 C 870.5,547.167 870.5,546.833 870.5,546.5C 876.88,548.067 882.88,550.4 888.5,553.5C 887.833,553.5 887.167,553.5 886.5,553.5C 881.162,551.497 875.829,549.497 870.5,547.5 Z"/></g>
<g><path style="opacity:0.976" fill="#6d71b8" d="M 886.5,553.5 C 887.167,553.5 887.833,553.5 888.5,553.5C 889.826,557.614 890.493,562.114 890.5,567C 889.473,608.829 888.639,650.662 888,692.5C 888.248,699.351 886.415,705.518 882.5,711C 881.552,711.483 880.552,711.649 879.5,711.5C 881.905,707.912 883.405,703.912 884,699.5C 885.438,650.843 886.271,602.176 886.5,553.5 Z"/></g>
<g><path style="opacity:0.188" fill="#a9d9e5" d="M 870.5,546.5 C 870.5,546.833 870.5,547.167 870.5,547.5C 868.532,555.433 867.865,563.766 868.5,572.5C 867.507,564.016 867.174,555.349 867.5,546.5C 868.5,546.5 869.5,546.5 870.5,546.5 Z"/></g>
<g><path style="opacity:0.29" fill="#a7d8e4" d="M 897.5,557.5 C 897.174,566.349 897.507,575.016 898.5,583.5C 898.44,584.043 898.107,584.376 897.5,584.5C 896.178,575.342 896.178,566.342 897.5,557.5 Z"/></g>
<g><path style="opacity:0.997" fill="#1993b6" d="M 859.5,582.5 C 858.869,589.113 858.202,595.779 857.5,602.5C 842.456,608.877 831.79,619.544 825.5,634.5C 824.599,635.29 823.932,636.29 823.5,637.5C 823.5,638.167 823.5,638.833 823.5,639.5C 822.518,636.038 822.185,632.371 822.5,628.5C 824.059,611.775 831.726,598.608 845.5,589C 849.418,586.123 853.585,583.623 858,581.5C 858.383,582.056 858.883,582.389 859.5,582.5 Z"/></g>
<g><path style="opacity:0.778" fill="#6e72b8" d="M 826.5,639.5 C 825.549,638.081 825.216,636.415 825.5,634.5C 831.79,619.544 842.456,608.877 857.5,602.5C 858.202,595.779 858.869,589.113 859.5,582.5C 860.117,582.389 860.617,582.056 861,581.5C 861.621,588.182 861.954,594.849 862,601.5C 851.856,606.972 842.856,613.972 835,622.5C 831.101,627.631 828.268,633.298 826.5,639.5 Z"/></g>
<g><path style="opacity:0.369" fill="#8ad7d8" d="M 515.5,614.5 C 516.167,614.5 516.5,614.833 516.5,615.5C 516.167,615.167 515.833,614.833 515.5,614.5 Z"/></g>
<g><path style="opacity:0.051" fill="#d2f0f1" d="M 516.5,615.5 C 517.833,616.167 517.833,616.167 516.5,615.5 Z"/></g>
<g><path style="opacity:0.224" fill="#b0dce7" d="M 822.5,628.5 C 822.185,632.371 822.518,636.038 823.5,639.5C 823.217,640.289 822.717,640.956 822,641.5C 821.186,636.98 821.353,632.646 822.5,628.5 Z"/></g>
<g><path style="opacity:0.118" fill="#bfc4e1" d="M 825.5,634.5 C 825.216,636.415 825.549,638.081 826.5,639.5C 826.44,640.043 826.107,640.376 825.5,640.5C 824.824,639.398 824.158,638.398 823.5,637.5C 823.932,636.29 824.599,635.29 825.5,634.5 Z"/></g>
</svg>
