<svg xmlns="http://www.w3.org/2000/svg" width="567" height="674" viewBox="0 0 567 674" version="1.1"><path d="M 1.750 2.080 C 0.787 2.641, -0 3.553, 0 4.106 C 0 4.660, 1 4.413, 2.223 3.557 C 4.221 2.157, 32.093 2, 278.667 2 L 552.888 2 555.694 4.413 L 558.500 6.827 559.003 340.663 L 559.506 674.500 559.753 340.673 L 560 6.846 557.077 3.923 L 554.154 1 278.827 1.030 C 93.669 1.051, 2.927 1.395, 1.750 2.080 M 264.332 72.778 C 257.090 77.575, 250.922 81.743, 250.625 82.041 C 250.328 82.338, 250.733 86.838, 251.524 92.041 C 253.304 103.736, 253.312 103, 251.406 103 C 250.066 103, 249.918 103.834, 250.478 108.250 C 251.456 115.954, 251.784 116.668, 254.952 117.980 C 257.489 119.031, 258.033 120.053, 259.451 126.425 C 260.856 132.740, 261.800 134.534, 266.769 140.337 L 272.474 147 279.487 146.929 L 286.500 146.857 292.204 140.598 C 297.457 134.832, 297.994 133.799, 299 127.499 C 300.316 119.263, 300.240 119.402, 303.838 118.682 C 306.598 118.130, 306.742 117.823, 307.293 111.303 C 307.760 105.791, 307.567 104.268, 306.278 103.276 C 304.839 102.168, 304.825 101.064, 306.136 91.663 L 307.583 81.274 293.936 72.637 C 286.430 67.887, 279.662 64.013, 278.895 64.028 C 278.128 64.044, 271.575 67.981, 264.332 72.778 M 248.093 153.946 C 237.977 159.026, 236.247 159.594, 232.806 158.965 C 228.942 158.258, 228.895 158.290, 220.963 166.845 L 213 175.435 213.032 190.468 C 213.057 202.476, 213.309 205.186, 214.282 203.940 C 220.656 195.775, 224.160 192.449, 229.580 189.418 C 235.593 186.056, 236.080 185.485, 240.866 176.202 C 247.698 162.951, 247.879 162.758, 255.161 160.939 L 261.500 159.355 261.201 155.633 C 260.555 147.581, 260.725 147.602, 248.093 153.946 M 298.684 149.381 C 298.396 150.131, 297.867 152.714, 297.507 155.122 L 296.853 159.500 303.176 161.313 L 309.500 163.125 315.517 174.313 L 321.534 185.500 329.012 189.146 C 336.122 192.613, 338.386 194.691, 344.581 203.440 C 345.336 204.506, 346.114 205.181, 346.309 204.940 C 346.505 204.698, 346.403 197.945, 346.082 189.933 L 345.500 175.367 337.800 166.999 L 330.099 158.631 324.536 158.889 C 320.486 159.076, 318.093 158.624, 315.736 157.225 C 304.199 150.374, 299.188 148.069, 298.684 149.381 M 242.589 181.050 C 238.135 187.868, 235.239 191.108, 230.839 194.194 C 227.628 196.447, 225 198.388, 225 198.509 C 225 198.629, 226.716 199.917, 228.814 201.371 C 232.140 203.676, 232.988 205.139, 235.435 212.796 L 238.241 221.578 245.156 224.423 L 252.071 227.268 262.914 221.634 C 270.233 217.831, 274.931 216, 277.368 216 C 279.752 216, 284.856 217.930, 292.397 221.684 L 303.817 227.368 310.622 223.934 L 317.426 220.500 320.025 212.500 C 322.367 205.292, 323.068 204.200, 327.099 201.468 L 331.574 198.435 325.325 193.968 C 320.844 190.765, 317.344 187.006, 312.958 180.688 C 307.409 172.695, 306.593 171.924, 304.171 172.396 C 302.702 172.682, 298.372 173.222, 294.548 173.596 C 289.723 174.068, 287.123 174.826, 286.048 176.075 C 284.931 177.373, 282.372 178.060, 276.852 178.545 C 269.598 179.181, 269.168 179.104, 268.516 177.051 C 267.635 174.275, 265.241 173.432, 256 172.643 L 248.500 172.002 242.589 181.050 M 213.282 211.301 L 203.203 221.500 204.600 237.900 C 206.223 256.961, 206.474 255.501, 197.456 279.500 C 192.393 292.973, 190.223 300.649, 186.994 316.500 C 184.754 327.500, 183.051 338.016, 183.210 339.869 C 183.483 343.045, 183.843 343.345, 189.500 345.104 C 192.800 346.131, 195.553 346.977, 195.618 346.985 C 195.683 346.993, 200.919 336.087, 207.253 322.750 L 218.771 298.500 225.370 256.093 L 231.969 213.685 230.042 210.593 C 228.983 208.892, 227.046 206.061, 225.739 204.301 L 223.362 201.102 213.282 211.301 M 329.259 207.432 L 325.018 213.652 328.958 243.576 C 334.883 288.574, 336.491 294.677, 349.757 322.500 C 359.763 343.487, 360.976 345.556, 363.612 346.142 C 366.371 346.755, 366.400 346.815, 364.250 347.508 C 362.153 348.184, 362.005 348.785, 362.067 356.367 C 362.150 366.384, 366.536 382.287, 369.366 382.832 C 371.153 383.176, 371.161 381.724, 369.423 373.250 C 368.454 368.525, 371.245 371.297, 374.206 378 C 378.959 388.761, 381.680 386.901, 378.525 375.047 C 377.727 372.047, 377.282 369.385, 377.537 369.130 C 378.178 368.489, 378.220 368.552, 382.959 377.250 C 386.952 384.579, 389.424 386.665, 390.572 383.673 C 390.852 382.943, 389.903 379.078, 388.462 375.084 C 387.022 371.091, 386.065 367.601, 386.336 367.330 C 386.608 367.059, 389.402 370.255, 392.546 374.432 C 397.112 380.498, 398.538 381.798, 399.631 380.891 C 400.384 380.266, 401 379.337, 401 378.827 C 401 378.316, 398.525 372.423, 395.500 365.732 C 392.475 359.041, 390 353.181, 390 352.710 C 390 352.239, 392.383 353.216, 395.295 354.883 L 400.590 357.912 402.137 355.363 C 403.649 352.871, 403.569 352.706, 398.592 348.028 C 394.685 344.355, 391.812 342.702, 386.245 340.923 L 378.991 338.603 375.014 342.487 C 370.312 347.077, 369.056 346.803, 372.516 341.941 L 374.972 338.489 370.938 317.494 C 367.327 298.697, 366.072 294.298, 358.947 275.462 L 350.988 254.423 352.129 238.888 L 353.271 223.353 350.561 217.315 C 348.341 212.368, 346.735 210.467, 341.675 206.800 C 338.279 204.338, 335.050 202.073, 334.500 201.768 C 333.950 201.463, 331.592 204.012, 329.259 207.432 M 265 226.545 C 259.225 228.423, 253.600 229.963, 252.500 229.967 C 251.400 229.971, 246.951 228.841, 242.614 227.456 C 238.277 226.071, 234.598 225.069, 234.438 225.229 C 234.278 225.389, 236.177 232.940, 238.658 242.010 L 243.169 258.500 242.477 274.474 L 241.785 290.448 237.340 298.281 L 232.896 306.115 238.133 313.307 C 241.014 317.263, 250.980 328.209, 260.280 337.632 C 273.318 350.840, 277.637 354.646, 279.141 354.253 C 280.215 353.972, 288.275 347.163, 297.053 339.121 C 312.397 325.065, 325 310.206, 325 306.171 C 325 305.346, 323.263 301.482, 321.141 297.585 C 317.380 290.681, 317.251 290.103, 316.084 275 L 314.887 259.500 319.391 243.031 C 321.869 233.973, 323.758 226.424, 323.589 226.255 C 323.420 226.087, 318.381 227.148, 312.391 228.614 L 301.500 231.280 290.944 227.140 C 285.138 224.863, 279.288 223.029, 277.944 223.065 C 276.600 223.101, 270.775 224.667, 265 226.545 M 228.664 334.345 L 222.156 352.500 225.582 372.500 C 228.838 391.509, 228.976 393.293, 228.371 408.500 L 227.735 424.500 232.007 444.500 L 236.279 464.500 235.628 491 C 235.270 505.575, 234.502 525.679, 233.923 535.675 L 232.868 553.850 237.488 571.675 C 241.248 586.180, 249 619.772, 249 621.558 C 249 621.801, 251.475 622, 254.500 622 C 259.525 622, 260.003 621.806, 260.039 619.750 C 260.061 618.513, 260.932 608.500, 261.975 597.500 C 263.579 580.588, 264.345 576.215, 266.936 569.178 C 271.031 558.054, 271.179 547.096, 267.419 533.295 C 264.559 522.798, 264.682 518.087, 268.083 507.837 L 269.963 502.174 267.115 487.408 L 264.267 472.641 267.152 450.071 C 269.794 429.398, 274.996 371.556, 274.999 362.822 C 275 359.426, 273.471 357.496, 255.086 337.667 L 235.173 316.191 228.664 334.345 M 302.661 336.283 L 282.856 355.500 284.501 388 C 285.406 405.875, 287.182 432.200, 288.449 446.500 C 290.483 469.465, 290.584 472.830, 289.311 475.326 C 288.417 477.080, 287.652 482.771, 287.295 490.332 C 286.740 502.079, 286.813 502.697, 289.360 507.723 C 292.731 514.376, 292.763 519.786, 289.513 533.541 C 286.276 547.240, 286.762 558.132, 291.224 571.909 L 294.271 581.318 293.555 601.659 L 292.838 622 300.238 622 L 307.637 622 316.739 587.250 L 325.841 552.500 323.452 534 C 321.636 519.944, 321.055 510.628, 321.031 495.218 C 321.008 480.489, 320.629 474.049, 319.647 471.697 C 318.392 468.693, 318.690 467.042, 323.752 448.979 L 329.211 429.500 330.045 407 C 330.504 394.625, 331.765 377.357, 332.847 368.626 L 334.816 352.752 329.316 335.626 C 326.291 326.207, 323.513 318.177, 323.141 317.783 C 322.770 317.389, 313.554 325.714, 302.661 336.283 M 165.766 345.298 C 153.818 350.179, 153.031 350.670, 153.016 353.250 C 152.997 356.513, 152.825 356.494, 160.748 354.085 C 164.184 353.040, 167.187 352.494, 167.421 352.872 C 167.655 353.250, 164.781 358.946, 161.036 365.530 C 154.551 376.927, 154.323 377.546, 156.262 378.469 C 158.011 379.302, 159.141 378.525, 164.256 372.969 C 167.532 369.411, 169.902 367.400, 169.522 368.500 C 169.143 369.600, 167.780 373.273, 166.494 376.661 C 165.208 380.050, 164.421 383.088, 164.745 383.411 C 166.393 385.059, 168.194 383.317, 171.985 376.409 C 174.277 372.234, 176.393 369.060, 176.688 369.355 C 176.983 369.650, 176.698 372.911, 176.056 376.602 C 175.112 382.021, 175.138 383.472, 176.194 384.141 C 178.331 385.496, 178.464 385.300, 180.532 377.750 C 181.624 373.762, 182.964 370.608, 183.509 370.741 C 184.054 370.873, 184.633 373.911, 184.796 377.491 C 185.218 386.793, 187.205 386.130, 190.013 375.750 C 192.955 364.879, 196.024 349.847, 195.480 348.968 C 195.243 348.584, 193.180 348.019, 190.896 347.713 C 187.941 347.317, 185.688 346.124, 183.080 343.578 C 181.065 341.610, 179.210 340.022, 178.958 340.048 C 178.706 340.074, 172.770 342.437, 165.766 345.298 M 296.250 624.119 L 293 625.057 293.100 640.779 C 293.213 658.712, 293.675 661.369, 296.756 661.815 C 298.405 662.054, 299.092 661.481, 299.605 659.439 C 300.168 657.193, 300.430 657.017, 301.190 658.374 C 302.763 661.186, 305.116 660.380, 304.475 657.250 L 303.912 654.500 305.578 656.750 C 308.004 660.026, 310.402 659.739, 309.533 656.277 C 308.875 653.653, 308.919 653.617, 310.754 655.277 C 313.499 657.762, 314.998 657.401, 315.015 654.250 C 315.027 652.094, 315.243 651.824, 316.015 653 C 316.861 654.288, 317.129 654.299, 317.917 653.076 C 318.515 652.146, 318.220 650.063, 317.067 647.076 C 310 628.774, 309.871 628.529, 305.901 625.750 C 301.666 622.785, 301.164 622.700, 296.250 624.119 M 245.182 636.619 C 239.573 645.693, 238 649.069, 238 652.035 C 238 656.394, 239.916 657.718, 241.715 654.603 L 242.929 652.500 242.965 654.750 C 243.007 657.437, 244.765 657.678, 246.608 655.250 C 247.838 653.629, 247.939 653.666, 247.968 655.750 C 248.016 659.112, 250.982 658.635, 251.079 655.250 L 251.158 652.500 252.162 655.250 C 253.322 658.424, 254.475 658.731, 255.920 656.250 C 256.891 654.583, 256.941 654.583, 256.970 656.250 C 256.993 657.578, 257.845 658, 260.500 658 C 262.425 658, 264 657.841, 264 657.646 C 264 657.451, 264.917 651.306, 266.039 643.991 L 268.077 630.690 265.352 627.845 C 263.049 625.442, 261.828 625, 257.495 625 L 252.364 625 245.182 636.619" stroke="none" fill="#a3b3b3" fill-rule="evenodd"/><path d="M 0 1.535 C 0 2.743, 0.412 2.850, 1.934 2.035 C 3.254 1.329, 91.261 1, 279.011 1 L 554.154 1 557.077 3.923 L 560 6.846 560 340.483 L 560 674.121 563.750 673.810 L 567.500 673.500 567.743 336.750 L 567.985 0 283.993 0 C 29.329 0, 0 0.159, 0 1.535 M 2.750 3.080 C 1.089 4.048, 1 21.104, 1 339.050 L 1 674 280 674 L 559 674 559 340.923 L 559 7.846 556.077 4.923 L 553.154 2 278.827 2.030 C 94.348 2.051, 3.927 2.395, 2.750 3.080 M 264.332 72.778 C 257.090 77.575, 250.922 81.743, 250.625 82.041 C 250.328 82.338, 250.733 86.838, 251.524 92.041 C 253.304 103.736, 253.312 103, 251.406 103 C 250.066 103, 249.918 103.834, 250.478 108.250 C 251.456 115.954, 251.784 116.668, 254.952 117.980 C 257.489 119.031, 258.033 120.053, 259.451 126.425 C 260.856 132.740, 261.800 134.534, 266.769 140.337 L 272.474 147 279.487 146.929 L 286.500 146.857 292.204 140.598 C 297.457 134.832, 297.994 133.799, 299 127.499 C 300.316 119.263, 300.240 119.402, 303.838 118.682 C 306.598 118.130, 306.742 117.823, 307.293 111.303 C 307.760 105.791, 307.567 104.268, 306.278 103.276 C 304.839 102.168, 304.825 101.064, 306.136 91.663 L 307.583 81.274 293.936 72.637 C 286.430 67.887, 279.662 64.013, 278.895 64.028 C 278.128 64.044, 271.575 67.981, 264.332 72.778 M 248.093 153.946 C 237.977 159.026, 236.247 159.594, 232.806 158.965 C 228.942 158.258, 228.895 158.290, 220.963 166.845 L 213 175.435 213.032 190.468 C 213.057 202.476, 213.309 205.186, 214.282 203.940 C 220.656 195.775, 224.160 192.449, 229.580 189.418 C 235.593 186.056, 236.080 185.485, 240.866 176.202 C 247.698 162.951, 247.879 162.758, 255.161 160.939 L 261.500 159.355 261.201 155.633 C 260.555 147.581, 260.725 147.602, 248.093 153.946 M 298.684 149.381 C 298.396 150.131, 297.867 152.714, 297.507 155.122 L 296.853 159.500 303.176 161.313 L 309.500 163.125 315.517 174.313 L 321.534 185.500 329.012 189.146 C 336.122 192.613, 338.386 194.691, 344.581 203.440 C 345.336 204.506, 346.114 205.181, 346.309 204.940 C 346.505 204.698, 346.403 197.945, 346.082 189.933 L 345.500 175.367 337.800 166.999 L 330.099 158.631 324.536 158.889 C 320.486 159.076, 318.093 158.624, 315.736 157.225 C 304.199 150.374, 299.188 148.069, 298.684 149.381 M 242.589 181.050 C 238.135 187.868, 235.239 191.108, 230.839 194.194 C 227.628 196.447, 225 198.388, 225 198.509 C 225 198.629, 226.716 199.917, 228.814 201.371 C 232.140 203.676, 232.988 205.139, 235.435 212.796 L 238.241 221.578 245.156 224.423 L 252.071 227.268 262.914 221.634 C 270.233 217.831, 274.931 216, 277.368 216 C 279.752 216, 284.856 217.930, 292.397 221.684 L 303.817 227.368 310.622 223.934 L 317.426 220.500 320.025 212.500 C 322.367 205.292, 323.068 204.200, 327.099 201.468 L 331.574 198.435 325.325 193.968 C 320.844 190.765, 317.344 187.006, 312.958 180.688 C 307.409 172.695, 306.593 171.924, 304.171 172.396 C 302.702 172.682, 298.372 173.222, 294.548 173.596 C 289.723 174.068, 287.123 174.826, 286.048 176.075 C 284.931 177.373, 282.372 178.060, 276.852 178.545 C 269.598 179.181, 269.168 179.104, 268.516 177.051 C 267.635 174.275, 265.241 173.432, 256 172.643 L 248.500 172.002 242.589 181.050 M 213.282 211.301 L 203.203 221.500 204.600 237.900 C 206.223 256.961, 206.474 255.501, 197.456 279.500 C 192.393 292.973, 190.223 300.649, 186.994 316.500 C 184.754 327.500, 183.051 338.016, 183.210 339.869 C 183.483 343.045, 183.843 343.345, 189.500 345.104 C 192.800 346.131, 195.553 346.977, 195.618 346.985 C 195.683 346.993, 200.919 336.087, 207.253 322.750 L 218.771 298.500 225.370 256.093 L 231.969 213.685 230.042 210.593 C 228.983 208.892, 227.046 206.061, 225.739 204.301 L 223.362 201.102 213.282 211.301 M 329.259 207.432 L 325.018 213.652 328.958 243.576 C 334.883 288.574, 336.491 294.677, 349.757 322.500 C 359.763 343.487, 360.976 345.556, 363.612 346.142 C 366.371 346.755, 366.400 346.815, 364.250 347.508 C 362.153 348.184, 362.005 348.785, 362.067 356.367 C 362.150 366.384, 366.536 382.287, 369.366 382.832 C 371.153 383.176, 371.161 381.724, 369.423 373.250 C 368.454 368.525, 371.245 371.297, 374.206 378 C 378.959 388.761, 381.680 386.901, 378.525 375.047 C 377.727 372.047, 377.282 369.385, 377.537 369.130 C 378.178 368.489, 378.220 368.552, 382.959 377.250 C 386.952 384.579, 389.424 386.665, 390.572 383.673 C 390.852 382.943, 389.903 379.078, 388.462 375.084 C 387.022 371.091, 386.065 367.601, 386.336 367.330 C 386.608 367.059, 389.402 370.255, 392.546 374.432 C 397.112 380.498, 398.538 381.798, 399.631 380.891 C 400.384 380.266, 401 379.337, 401 378.827 C 401 378.316, 398.525 372.423, 395.500 365.732 C 392.475 359.041, 390 353.181, 390 352.710 C 390 352.239, 392.383 353.216, 395.295 354.883 L 400.590 357.912 402.137 355.363 C 403.649 352.871, 403.569 352.706, 398.592 348.028 C 394.685 344.355, 391.812 342.702, 386.245 340.923 L 378.991 338.603 375.014 342.487 C 370.312 347.077, 369.056 346.803, 372.516 341.941 L 374.972 338.489 370.938 317.494 C 367.327 298.697, 366.072 294.298, 358.947 275.462 L 350.988 254.423 352.129 238.888 L 353.271 223.353 350.561 217.315 C 348.341 212.368, 346.735 210.467, 341.675 206.800 C 338.279 204.338, 335.050 202.073, 334.500 201.768 C 333.950 201.463, 331.592 204.012, 329.259 207.432 M 265 226.545 C 259.225 228.423, 253.600 229.963, 252.500 229.967 C 251.400 229.971, 246.951 228.841, 242.614 227.456 C 238.277 226.071, 234.598 225.069, 234.438 225.229 C 234.278 225.389, 236.177 232.940, 238.658 242.010 L 243.169 258.500 242.477 274.474 L 241.785 290.448 237.340 298.281 L 232.896 306.115 238.133 313.307 C 241.014 317.263, 250.980 328.209, 260.280 337.632 C 273.318 350.840, 277.637 354.646, 279.141 354.253 C 280.215 353.972, 288.275 347.163, 297.053 339.121 C 312.397 325.065, 325 310.206, 325 306.171 C 325 305.346, 323.263 301.482, 321.141 297.585 C 317.380 290.681, 317.251 290.103, 316.084 275 L 314.887 259.500 319.391 243.031 C 321.869 233.973, 323.758 226.424, 323.589 226.255 C 323.420 226.087, 318.381 227.148, 312.391 228.614 L 301.500 231.280 290.944 227.140 C 285.138 224.863, 279.288 223.029, 277.944 223.065 C 276.600 223.101, 270.775 224.667, 265 226.545 M 228.664 334.345 L 222.156 352.500 225.582 372.500 C 228.838 391.509, 228.976 393.293, 228.371 408.500 L 227.735 424.500 232.007 444.500 L 236.279 464.500 235.628 491 C 235.270 505.575, 234.502 525.679, 233.923 535.675 L 232.868 553.850 237.488 571.675 C 241.248 586.180, 249 619.772, 249 621.558 C 249 621.801, 251.475 622, 254.500 622 C 259.525 622, 260.003 621.806, 260.039 619.750 C 260.061 618.513, 260.932 608.500, 261.975 597.500 C 263.579 580.588, 264.345 576.215, 266.936 569.178 C 271.031 558.054, 271.179 547.096, 267.419 533.295 C 264.559 522.798, 264.682 518.087, 268.083 507.837 L 269.963 502.174 267.115 487.408 L 264.267 472.641 267.152 450.071 C 269.794 429.398, 274.996 371.556, 274.999 362.822 C 275 359.426, 273.471 357.496, 255.086 337.667 L 235.173 316.191 228.664 334.345 M 302.661 336.283 L 282.856 355.500 284.501 388 C 285.406 405.875, 287.182 432.200, 288.449 446.500 C 290.483 469.465, 290.584 472.830, 289.311 475.326 C 288.417 477.080, 287.652 482.771, 287.295 490.332 C 286.740 502.079, 286.813 502.697, 289.360 507.723 C 292.731 514.376, 292.763 519.786, 289.513 533.541 C 286.276 547.240, 286.762 558.132, 291.224 571.909 L 294.271 581.318 293.555 601.659 L 292.838 622 300.238 622 L 307.637 622 316.739 587.250 L 325.841 552.500 323.452 534 C 321.636 519.944, 321.055 510.628, 321.031 495.218 C 321.008 480.489, 320.629 474.049, 319.647 471.697 C 318.392 468.693, 318.690 467.042, 323.752 448.979 L 329.211 429.500 330.045 407 C 330.504 394.625, 331.765 377.357, 332.847 368.626 L 334.816 352.752 329.316 335.626 C 326.291 326.207, 323.513 318.177, 323.141 317.783 C 322.770 317.389, 313.554 325.714, 302.661 336.283 M 165.766 345.298 C 153.818 350.179, 153.031 350.670, 153.016 353.250 C 152.997 356.513, 152.825 356.494, 160.748 354.085 C 164.184 353.040, 167.187 352.494, 167.421 352.872 C 167.655 353.250, 164.781 358.946, 161.036 365.530 C 154.551 376.927, 154.323 377.546, 156.262 378.469 C 158.011 379.302, 159.141 378.525, 164.256 372.969 C 167.532 369.411, 169.902 367.400, 169.522 368.500 C 169.143 369.600, 167.780 373.273, 166.494 376.661 C 165.208 380.050, 164.421 383.088, 164.745 383.411 C 166.393 385.059, 168.194 383.317, 171.985 376.409 C 174.277 372.234, 176.393 369.060, 176.688 369.355 C 176.983 369.650, 176.698 372.911, 176.056 376.602 C 175.112 382.021, 175.138 383.472, 176.194 384.141 C 178.331 385.496, 178.464 385.300, 180.532 377.750 C 181.624 373.762, 182.964 370.608, 183.509 370.741 C 184.054 370.873, 184.633 373.911, 184.796 377.491 C 185.218 386.793, 187.205 386.130, 190.013 375.750 C 192.955 364.879, 196.024 349.847, 195.480 348.968 C 195.243 348.584, 193.180 348.019, 190.896 347.713 C 187.941 347.317, 185.688 346.124, 183.080 343.578 C 181.065 341.610, 179.210 340.022, 178.958 340.048 C 178.706 340.074, 172.770 342.437, 165.766 345.298 M 296.250 624.119 L 293 625.057 293.100 640.779 C 293.213 658.712, 293.675 661.369, 296.756 661.815 C 298.405 662.054, 299.092 661.481, 299.605 659.439 C 300.168 657.193, 300.430 657.017, 301.190 658.374 C 302.763 661.186, 305.116 660.380, 304.475 657.250 L 303.912 654.500 305.578 656.750 C 308.004 660.026, 310.402 659.739, 309.533 656.277 C 308.875 653.653, 308.919 653.617, 310.754 655.277 C 313.499 657.762, 314.998 657.401, 315.015 654.250 C 315.027 652.094, 315.243 651.824, 316.015 653 C 316.861 654.288, 317.129 654.299, 317.917 653.076 C 318.515 652.146, 318.220 650.063, 317.067 647.076 C 310 628.774, 309.871 628.529, 305.901 625.750 C 301.666 622.785, 301.164 622.700, 296.250 624.119 M 245.182 636.619 C 239.573 645.693, 238 649.069, 238 652.035 C 238 656.394, 239.916 657.718, 241.715 654.603 L 242.929 652.500 242.965 654.750 C 243.007 657.437, 244.765 657.678, 246.608 655.250 C 247.838 653.629, 247.939 653.666, 247.968 655.750 C 248.016 659.112, 250.982 658.635, 251.079 655.250 L 251.158 652.500 252.162 655.250 C 253.322 658.424, 254.475 658.731, 255.920 656.250 C 256.891 654.583, 256.941 654.583, 256.970 656.250 C 256.993 657.578, 257.845 658, 260.500 658 C 262.425 658, 264 657.841, 264 657.646 C 264 657.451, 264.917 651.306, 266.039 643.991 L 268.077 630.690 265.352 627.845 C 263.049 625.442, 261.828 625, 257.495 625 L 252.364 625 245.182 636.619" stroke="none" fill="#f3fbfb" fill-rule="evenodd"/></svg>