<?xml version="1.0" encoding="UTF-8"?>
<!DOCTYPE svg PUBLIC "-//W3C//DTD SVG 1.1//EN" "http://www.w3.org/Graphics/SVG/1.1/DTD/svg11.dtd">
<svg xmlns="http://www.w3.org/2000/svg" version="1.1" width="726px" height="971px" style="shape-rendering:geometricPrecision; text-rendering:geometricPrecision; image-rendering:optimizeQuality; fill-rule:evenodd; clip-rule:evenodd" xmlns:xlink="http://www.w3.org/1999/xlink">
<g><path style="opacity:1" fill="#fefefe" d="M -0.5,-0.5 C 241.5,-0.5 483.5,-0.5 725.5,-0.5C 725.5,323.167 725.5,646.833 725.5,970.5C 483.5,970.5 241.5,970.5 -0.5,970.5C -0.5,646.833 -0.5,323.167 -0.5,-0.5 Z"/></g>
<g><path style="opacity:1" fill="#683412" d="M 637.5,281.5 C 636.32,300.221 631.987,318.221 624.5,335.5C 621.335,341.834 617.669,347.834 613.5,353.5C 609.369,357.13 605.369,360.963 601.5,365C 580.6,379.115 557.6,384.449 532.5,381C 506.252,376.891 486.585,363.391 473.5,340.5C 473.204,338.597 472.537,336.93 471.5,335.5C 465.466,318.854 461.466,301.854 459.5,284.5C 457.459,263.023 457.126,241.523 458.5,220C 456.153,210.979 455.153,201.812 455.5,192.5C 462.589,192.884 469.589,192.384 476.5,191C 472.73,185.42 471.063,179.253 471.5,172.5C 475.833,171.833 480.167,171.167 484.5,170.5C 494.815,169.733 505.148,169.399 515.5,169.5C 525.4,170.48 535.066,172.48 544.5,175.5C 545.745,174.045 545.578,172.711 544,171.5C 543.502,168.518 543.335,165.518 543.5,162.5C 612.298,172.383 643.632,212.05 637.5,281.5 Z"/></g>
<g><path style="opacity:1" fill="#683412" d="M 261.5,190.5 C 260.957,190.56 260.624,190.893 260.5,191.5C 267.468,192.497 274.468,192.83 281.5,192.5C 281.64,198.536 281.307,204.536 280.5,210.5C 279.63,219.862 280.13,229.196 282,238.5C 282.5,250.495 282.667,262.495 282.5,274.5C 281.475,277.974 280.808,281.64 280.5,285.5C 280.5,285.833 280.5,286.167 280.5,286.5C 279.033,293.773 276.699,300.773 273.5,307.5C 273.044,290.098 270.211,273.098 265,256.5C 263.568,252.469 261.734,248.636 259.5,245C 251.714,247.251 243.714,248.917 235.5,250C 215.054,252.158 195.388,249.325 176.5,241.5C 175.508,245.783 175.174,250.116 175.5,254.5C 157.616,254.486 142.116,248.486 129,236.5C 121.401,245.919 116.068,256.586 113,268.5C 111.402,274.756 110.235,281.089 109.5,287.5C 108.672,293.653 108.172,299.987 108,306.5C 106.434,301.944 104.601,297.61 102.5,293.5C 102.405,291.214 101.738,289.214 100.5,287.5C 99.3436,283.207 98.3436,278.874 97.5,274.5C 96.6228,265.867 96.2895,257.2 96.5,248.5C 97.3736,234.713 101.54,222.046 109,210.5C 125.067,187.473 146.901,172.64 174.5,166C 180.701,163.897 187.034,162.397 193.5,161.5C 193.766,165.571 193.433,169.571 192.5,173.5C 193,173.833 193.5,174.167 194,174.5C 200.764,172.733 207.597,171.233 214.5,170C 226.833,169.333 239.167,169.333 251.5,170C 256.375,171.636 261.375,172.469 266.5,172.5C 266.456,178.964 264.789,184.964 261.5,190.5 Z"/></g>
<g><path style="opacity:1" fill="#bfa898" d="M 515.5,169.5 C 505.148,169.399 494.815,169.733 484.5,170.5C 490.601,169.028 496.935,168.361 503.5,168.5C 507.681,168.501 511.681,168.834 515.5,169.5 Z"/></g>
<g><path style="opacity:1" fill="#ccb8ad" d="M 261.5,190.5 C 268.167,191.167 274.833,191.833 281.5,192.5C 274.468,192.83 267.468,192.497 260.5,191.5C 260.624,190.893 260.957,190.56 261.5,190.5 Z"/></g>
<g><path style="opacity:1" fill="#cabdb1" d="M 281.5,192.5 C 282.164,194.81 282.497,197.31 282.5,200C 282.696,203.805 282.03,207.305 280.5,210.5C 281.307,204.536 281.64,198.536 281.5,192.5 Z"/></g>
<g><path style="opacity:1" fill="#b69a88" d="M 96.5,248.5 C 96.2895,257.2 96.6228,265.867 97.5,274.5C 96.7784,274.082 96.2784,273.416 96,272.5C 95.1772,264.323 95.3439,256.323 96.5,248.5 Z"/></g>
<g><path style="opacity:1" fill="#cdbeb1" d="M 282.5,274.5 C 282.665,277.518 282.498,280.518 282,283.5C 281.722,284.416 281.222,285.082 280.5,285.5C 280.808,281.64 281.475,277.974 282.5,274.5 Z"/></g>
<g><path style="opacity:1" fill="#f1ad88" d="M 280.5,286.5 C 280.5,287.5 280.5,288.5 280.5,289.5C 280.898,291.711 281.064,294.044 281,296.5C 287.997,300.169 290.33,305.836 288,313.5C 284.589,321.942 278.423,326.608 269.5,327.5C 270.003,320.637 271.336,313.97 273.5,307.5C 276.699,300.773 279.033,293.773 280.5,286.5 Z"/></g>
<g><path style="opacity:1" fill="#f9c39c" d="M 459.5,284.5 C 461.466,301.854 465.466,318.854 471.5,335.5C 456.054,336.574 446.221,329.574 442,314.5C 438.84,303.333 442.34,295.166 452.5,290C 454.81,289.503 457.143,289.337 459.5,289.5C 459.5,287.833 459.5,286.167 459.5,284.5 Z"/></g>
<g><path style="opacity:1" fill="#f7c39d" d="M 637.5,281.5 C 637.187,284.247 637.52,286.914 638.5,289.5C 649.642,293.8 654.142,301.8 652,313.5C 647.943,327.405 638.777,334.738 624.5,335.5C 631.987,318.221 636.32,300.221 637.5,281.5 Z"/></g>
<g><path style="opacity:1" fill="#f9c49d" d="M 473.5,340.5 C 486.585,363.391 506.252,376.891 532.5,381C 557.6,384.449 580.6,379.115 601.5,365C 605.369,360.963 609.369,357.13 613.5,353.5C 612.872,356.09 611.705,358.423 610,360.5C 597.736,373.292 583.069,381.626 566,385.5C 565.17,391.528 565.336,397.528 566.5,403.5C 577.73,406.607 589.064,409.44 600.5,412C 609.069,415.556 616.235,421.056 622,428.5C 639.833,462.167 657.667,495.833 675.5,529.5C 686.343,533.249 697.176,536.916 708,540.5C 708.782,543.257 708.282,545.757 706.5,548C 702.188,548.774 698.022,548.274 694,546.5C 693.5,546.833 693,547.167 692.5,547.5C 699.348,557.201 705.681,567.201 711.5,577.5C 710.148,581.254 707.482,582.421 703.5,581C 700.429,575.679 696.762,570.846 692.5,566.5C 691.417,567.365 691.251,568.365 692,569.5C 695.252,574.334 698.252,579.334 701,584.5C 702.128,590.208 699.961,592.208 694.5,590.5C 690.736,583.962 686.736,577.628 682.5,571.5C 681.417,572.365 681.251,573.365 682,574.5C 684.607,579.38 686.94,584.38 689,589.5C 690.431,595.525 688.264,597.525 682.5,595.5C 679.39,588.943 676.057,582.609 672.5,576.5C 672.167,577 671.833,577.5 671.5,578C 673.464,582.588 675.131,587.255 676.5,592C 676.537,596.48 674.537,597.98 670.5,596.5C 647.736,552.11 625.069,507.777 602.5,463.5C 602.217,462.711 601.717,462.044 601,461.5C 600.5,494.165 600.333,526.832 600.5,559.5C 564.5,559.5 528.5,559.5 492.5,559.5C 492.667,526.832 492.5,494.165 492,461.5C 468.69,506.62 445.524,551.786 422.5,597C 418.663,598 416.663,596.5 416.5,592.5C 417.97,586.906 419.97,581.573 422.5,576.5C 421.325,576.281 420.325,576.614 419.5,577.5C 417.016,583.991 414.016,590.158 410.5,596C 408.5,596.667 406.5,596.667 404.5,596C 403.903,594.938 403.57,593.772 403.5,592.5C 405.456,586.589 407.956,580.922 411,575.5C 411.781,574.056 411.614,572.723 410.5,571.5C 406.264,577.628 402.264,583.962 398.5,590.5C 393.039,592.208 390.872,590.208 392,584.5C 395.167,578.833 398.333,573.167 401.5,567.5C 400.132,566.406 398.965,566.74 398,568.5C 395.167,572.667 392.333,576.833 389.5,581C 385.825,582.297 383.158,581.297 381.5,578C 387.786,567.263 394.452,556.763 401.5,546.5C 401.167,546.167 400.833,545.833 400.5,545.5C 395.992,547.801 391.325,548.468 386.5,547.5C 382.854,541.665 384.52,538.165 391.5,537C 400.724,534.646 409.724,531.813 418.5,528.5C 435.603,496.626 452.436,464.626 469,432.5C 474.661,423.172 482.494,416.339 492.5,412C 504.402,408.641 516.402,405.808 528.5,403.5C 528.5,397.5 528.5,391.5 528.5,385.5C 501.728,380.638 483.395,365.638 473.5,340.5 Z"/></g>
<g><path style="opacity:1" fill="#ed9f7b" d="M 172.5,385.5 C 184.402,387.78 196.402,388.114 208.5,386.5C 208.5,388.833 208.5,391.167 208.5,393.5C 196.496,394.773 184.496,394.773 172.5,393.5C 172.5,390.833 172.5,388.167 172.5,385.5 Z"/></g>
<g><path style="opacity:1" fill="#f9c39c" d="M 273.5,307.5 C 271.336,313.97 270.003,320.637 269.5,327.5C 278.423,326.608 284.589,321.942 288,313.5C 290.33,305.836 287.997,300.169 281,296.5C 281.064,294.044 280.898,291.711 280.5,289.5C 293.747,292.638 298.914,300.972 296,314.5C 291.129,329.206 280.962,336.206 265.5,335.5C 259.098,357.076 245.431,372.242 224.5,381C 219.764,382.959 214.93,384.459 210,385.5C 209.501,391.491 209.334,397.491 209.5,403.5C 224.146,406.578 238.479,410.745 252.5,416C 258.903,419.947 264.07,425.114 268,431.5C 284.715,463.928 301.715,496.262 319,528.5C 320.255,529.211 321.421,530.044 322.5,531C 330.214,532.875 337.881,534.875 345.5,537C 352.552,538.306 354.219,541.973 350.5,548C 345.712,548.482 341.045,548.148 336.5,547C 342.335,555.852 348.168,564.686 354,573.5C 356.831,579.528 354.997,582.028 348.5,581C 344.955,576.077 341.288,571.244 337.5,566.5C 336.417,567.365 336.251,568.365 337,569.5C 340.647,575.127 343.481,581.127 345.5,587.5C 345.202,591.226 343.202,592.393 339.5,591C 335.456,585.081 331.789,578.914 328.5,572.5C 327.675,571.614 326.675,571.281 325.5,571.5C 327.498,577.304 329.998,582.97 333,588.5C 335.011,596.17 332.678,598.17 326,594.5C 323.285,588.13 320.119,582.13 316.5,576.5C 315.386,577.723 315.219,579.056 316,580.5C 318.193,584.053 319.693,587.887 320.5,592C 320.26,597.281 318.093,598.448 314,595.5C 291.737,551.307 269.237,507.307 246.5,463.5C 246.631,462.624 246.298,461.957 245.5,461.5C 244.5,494.16 244.167,526.827 244.5,559.5C 208.833,559.5 173.167,559.5 137.5,559.5C 136.668,527.336 136.168,495.003 136,462.5C 112.736,506.859 89.5692,551.359 66.5,596C 62.9049,597.073 60.9049,595.739 60.5,592C 62.6695,586.839 64.6695,581.673 66.5,576.5C 65.325,576.281 64.325,576.614 63.5,577.5C 61,583.167 58.5,588.833 56,594.5C 52.1094,597.652 49.2761,596.985 47.5,592.5C 49.9655,585.571 52.9655,578.904 56.5,572.5C 56,572.167 55.5,571.833 55,571.5C 51.0101,576.803 47.5101,582.469 44.5,588.5C 42.1805,591.729 39.6805,592.062 37,589.5C 36.3333,587.5 36.3333,585.5 37,583.5C 48.5752,562.272 47.4085,561.439 33.5,581C 27.3333,582.833 25.1667,580.667 27,574.5C 33.8247,565.15 39.8247,555.484 45,545.5C 40.8083,548.004 36.3083,548.837 31.5,548C 28.0106,542.632 29.3439,538.966 35.5,537C 44.465,534.9 53.2983,532.4 62,529.5C 80.0358,496.437 97.7024,463.104 115,429.5C 121.242,420.794 129.409,414.628 139.5,411C 150.393,408.027 161.393,405.527 172.5,403.5C 172.5,400.167 172.5,396.833 172.5,393.5C 184.496,394.773 196.496,394.773 208.5,393.5C 208.5,391.167 208.5,388.833 208.5,386.5C 196.402,388.114 184.402,387.78 172.5,385.5C 143.751,380.252 124.751,363.752 115.5,336C 100.662,335.843 90.8284,328.677 86,314.5C 83.3458,305.157 85.8458,297.657 93.5,292C 96.314,290.946 98.6473,289.446 100.5,287.5C 101.738,289.214 102.405,291.214 102.5,293.5C 101.386,296.775 99.0527,298.942 95.5,300C 91.513,309.714 93.513,318.048 101.5,325C 104.923,326.904 108.59,327.737 112.5,327.5C 111.271,321.744 109.938,315.91 108.5,310C 109.415,302.533 109.748,295.033 109.5,287.5C 110.235,281.089 111.402,274.756 113,268.5C 116.068,256.586 121.401,245.919 129,236.5C 142.116,248.486 157.616,254.486 175.5,254.5C 175.174,250.116 175.508,245.783 176.5,241.5C 195.388,249.325 215.054,252.158 235.5,250C 243.714,248.917 251.714,247.251 259.5,245C 261.734,248.636 263.568,252.469 265,256.5C 270.211,273.098 273.044,290.098 273.5,307.5 Z"/></g>
<g><path style="opacity:1" fill="#d38764" d="M 166.5,347.5 C 170.478,346.966 173.478,348.466 175.5,352C 182.805,355.356 190.471,356.356 198.5,355C 202.939,352.738 207.272,350.238 211.5,347.5C 213.739,347.574 214.739,348.741 214.5,351C 214.333,351.833 214.167,352.667 214,353.5C 201.695,363.293 188.195,365.127 173.5,359C 170.705,357.207 168.205,355.04 166,352.5C 165.36,350.735 165.527,349.068 166.5,347.5 Z"/></g>
<g><path style="opacity:1" fill="#d38663" d="M 186.5,317.5 C 189.518,317.335 192.518,317.502 195.5,318C 196.38,319.356 196.714,320.856 196.5,322.5C 186.154,321.85 182.487,326.517 185.5,336.5C 184.178,336.67 183.011,336.337 182,335.5C 180.466,331.289 180.133,326.956 181,322.5C 182.812,320.7 184.645,319.033 186.5,317.5 Z"/></g>
<g><path style="opacity:1" fill="#f0ac86" d="M 109.5,287.5 C 109.748,295.033 109.415,302.533 108.5,310C 109.938,315.91 111.271,321.744 112.5,327.5C 108.59,327.737 104.923,326.904 101.5,325C 93.513,318.048 91.513,309.714 95.5,300C 99.0527,298.942 101.386,296.775 102.5,293.5C 104.601,297.61 106.434,301.944 108,306.5C 108.172,299.987 108.672,293.653 109.5,287.5 Z"/></g>
<g><path style="opacity:1" fill="#6a3613" d="M 229.5,295.5 C 235.59,294.137 240.09,296.137 243,301.5C 244.091,307.097 243.424,312.43 241,317.5C 233.673,323.664 228.006,322.331 224,313.5C 222.021,306.216 223.855,300.216 229.5,295.5 Z"/></g>
<g><path style="opacity:1" fill="#6b3712" d="M 143.5,295.5 C 155.613,295.327 160.447,301.327 158,313.5C 150.696,324.502 144.029,324.168 138,312.5C 136.414,305.683 138.247,300.017 143.5,295.5 Z"/></g>
<g><path style="opacity:1" fill="#6b3612" d="M 224.5,277.5 C 233.946,275.939 242.446,277.939 250,283.5C 251.072,286.553 250.072,288.553 247,289.5C 244.224,288.195 241.39,287.029 238.5,286C 231.409,285.509 224.409,285.843 217.5,287C 216.446,285.612 216.28,284.112 217,282.5C 219.479,280.686 221.979,279.019 224.5,277.5 Z"/></g>
<g><path style="opacity:1" fill="#6c3612" d="M 140.5,277.5 C 146.909,277.183 153.243,277.683 159.5,279C 163.95,279.776 165.45,282.276 164,286.5C 163.261,287.574 162.261,288.241 161,288.5C 156.849,286.671 152.516,285.671 148,285.5C 142.762,286.37 137.596,287.203 132.5,288C 131.446,286.612 131.28,285.112 132,283.5C 134.637,281.109 137.47,279.109 140.5,277.5 Z"/></g>
<g><path style="opacity:1" fill="#eda07b" d="M 535.5,440.5 C 536.825,444.445 537.492,448.778 537.5,453.5C 537.333,457.833 537.167,462.167 537,466.5C 534.251,472.593 529.751,476.426 523.5,478C 529.743,473.663 533.576,467.83 535,460.5C 535.5,453.842 535.666,447.175 535.5,440.5 Z"/></g>
<g><path style="opacity:1" fill="#ed9e7b" d="M 224.5,460.5 C 229.907,459.18 232.574,461.18 232.5,466.5C 229.474,467.577 226.474,467.577 223.5,466.5C 222.229,464.194 222.562,462.194 224.5,460.5 Z"/></g>
<g><path style="opacity:1" fill="#efa27d" d="M 556.5,441.5 C 557.995,449.977 559.162,458.644 560,467.5C 562.667,471.5 566,474.833 570,477.5C 570.667,478.167 570.667,478.833 570,479.5C 564.116,476.352 559.449,472.019 556,466.5C 555.378,458.148 555.545,449.814 556.5,441.5 Z"/></g>
<g><path style="opacity:1" fill="#ed9e7b" d="M 150.5,460.5 C 153.32,460.248 155.986,460.748 158.5,462C 159.747,463.458 159.747,464.958 158.5,466.5C 155.894,467.652 153.227,467.818 150.5,467C 149.232,464.837 149.232,462.67 150.5,460.5 Z"/></g>
<g><path style="opacity:1" fill="#fdece1" d="M 602.5,463.5 C 601.833,495.5 601.167,527.5 600.5,559.5C 600.333,526.832 600.5,494.165 601,461.5C 601.717,462.044 602.217,462.711 602.5,463.5 Z"/></g>
<g><path style="opacity:1" fill="#e3d7ca" d="M 246.5,463.5 C 245.502,495.662 245.168,527.996 245.5,560.5C 209.5,560.5 173.5,560.5 137.5,560.5C 137.5,560.167 137.5,559.833 137.5,559.5C 173.167,559.5 208.833,559.5 244.5,559.5C 244.167,526.827 244.5,494.16 245.5,461.5C 246.298,461.957 246.631,462.624 246.5,463.5 Z"/></g>
<g><path style="opacity:1" fill="#ef9f7a" d="M 187.5,538.5 C 189.527,538.338 191.527,538.505 193.5,539C 196.167,541 196.167,543 193.5,545C 187.086,546.755 185.086,544.589 187.5,538.5 Z"/></g>
<g><path style="opacity:1" fill="#69bce0" d="M 137.5,560.5 C 173.5,560.5 209.5,560.5 245.5,560.5C 245.402,575.842 245.736,591.176 246.5,606.5C 246.491,610.893 245.824,614.893 244.5,618.5C 229.167,618.5 213.833,618.5 198.5,618.5C 197.833,618.5 197.5,618.167 197.5,617.5C 198.134,609.097 197.467,601.097 195.5,593.5C 191.894,593.211 188.394,593.544 185,594.5C 185.14,602.896 184.307,610.896 182.5,618.5C 167.5,618.5 152.5,618.5 137.5,618.5C 136.172,613.881 135.506,608.881 135.5,603.5C 135.814,588.991 136.481,574.658 137.5,560.5 Z"/></g>
<g><path style="opacity:1" fill="#69bce1" d="M 600.5,560.5 C 601.081,579.495 601.414,598.495 601.5,617.5C 601.5,618.167 601.167,618.5 600.5,618.5C 585.5,618.5 570.5,618.5 555.5,618.5C 554.504,618.586 553.671,618.252 553,617.5C 552.83,611.804 552.33,606.138 551.5,600.5C 548.167,599.167 544.833,599.167 541.5,600.5C 541.139,606.889 540.139,612.889 538.5,618.5C 523.167,618.5 507.833,618.5 492.5,618.5C 491.392,599.329 491.392,579.996 492.5,560.5C 528.5,560.5 564.5,560.5 600.5,560.5 Z"/></g>
<g><path style="opacity:1" fill="#cfe9f5" d="M 600.5,560.5 C 602.473,579.48 602.806,598.48 601.5,617.5C 601.414,598.495 601.081,579.495 600.5,560.5 Z"/></g>
<g><path style="opacity:1" fill="#afdbee" d="M 195.5,593.5 C 197.467,601.097 198.134,609.097 197.5,617.5C 196.805,609.599 196.138,601.599 195.5,593.5 Z"/></g>
<g><path style="opacity:1" fill="#fac49d" d="M 199.5,619.5 C 214.167,619.5 228.833,619.5 243.5,619.5C 243.5,643.167 243.5,666.833 243.5,690.5C 243.333,720.502 243.5,750.502 244,780.5C 251.446,787.881 259.446,794.548 268,800.5C 268.667,802.833 268.667,805.167 268,807.5C 267.25,808.126 266.416,808.626 265.5,809C 244.833,809.667 224.167,809.667 203.5,809C 202.333,807.833 201.167,806.667 200,805.5C 199.5,743.501 199.333,681.501 199.5,619.5 Z"/></g>
<g><path style="opacity:1" fill="#f9c49d" d="M 137.5,619.5 C 152.167,619.5 166.833,619.5 181.5,619.5C 181.5,681.5 181.5,743.5 181.5,805.5C 180.71,806.794 179.71,807.961 178.5,809C 157.5,809.667 136.5,809.667 115.5,809C 112.793,807.136 111.959,804.636 113,801.5C 121,794.833 129,788.167 137,781.5C 137.5,727.501 137.667,673.501 137.5,619.5 Z"/></g>
<g><path style="opacity:1" fill="#f9c49d" d="M 555.5,619.5 C 570.167,619.5 584.833,619.5 599.5,619.5C 599.5,660.167 599.5,700.833 599.5,741.5C 599.333,754.504 599.5,767.504 600,780.5C 607.704,787.873 615.704,794.873 624,801.5C 624.944,804.347 624.444,806.847 622.5,809C 601.159,809.833 579.826,809.666 558.5,808.5C 557.855,807.354 557.022,806.354 556,805.5C 555.5,743.501 555.333,681.501 555.5,619.5 Z"/></g>
<g><path style="opacity:1" fill="#edd1b8" d="M 198.5,618.5 C 213.833,618.5 229.167,618.5 244.5,618.5C 244.831,642.672 244.498,666.672 243.5,690.5C 243.5,666.833 243.5,643.167 243.5,619.5C 228.833,619.5 214.167,619.5 199.5,619.5C 198.833,619.5 198.5,619.167 198.5,618.5 Z"/></g>
<g><path style="opacity:1" fill="#f9c39d" d="M 493.5,619.5 C 508.167,619.5 522.833,619.5 537.5,619.5C 537.5,655.833 537.5,692.167 537.5,728.5C 537.982,754.922 537.482,781.256 536,807.5C 535.25,808.126 534.416,808.626 533.5,809C 512.5,809.667 491.5,809.667 470.5,809C 468.718,806.757 468.218,804.257 469,801.5C 476.393,794.271 484.226,787.604 492.5,781.5C 493.5,727.504 493.833,673.504 493.5,619.5 Z"/></g>
<g><path style="opacity:1" fill="#f1dac6" d="M 492.5,618.5 C 507.833,618.5 523.167,618.5 538.5,618.5C 538.832,655.337 538.498,692.004 537.5,728.5C 537.5,692.167 537.5,655.833 537.5,619.5C 522.833,619.5 508.167,619.5 493.5,619.5C 492.833,619.5 492.5,619.167 492.5,618.5 Z"/></g>
<g><path style="opacity:1" fill="#f3e1d2" d="M 555.5,619.5 C 555.5,619.167 555.5,618.833 555.5,618.5C 570.5,618.5 585.5,618.5 600.5,618.5C 600.832,659.67 600.499,700.67 599.5,741.5C 599.5,700.833 599.5,660.167 599.5,619.5C 584.833,619.5 570.167,619.5 555.5,619.5 Z"/></g>
<g><path style="opacity:1" fill="#f4dac7" d="M 137.5,619.5 C 137.5,619.167 137.5,618.833 137.5,618.5C 152.5,618.5 167.5,618.5 182.5,618.5C 182.832,681.002 182.499,743.336 181.5,805.5C 181.5,743.5 181.5,681.5 181.5,619.5C 166.833,619.5 152.167,619.5 137.5,619.5 Z"/></g>
</svg>
