<?xml version="1.0" encoding="UTF-8"?>
<!DOCTYPE svg PUBLIC "-//W3C//DTD SVG 1.1//EN" "http://www.w3.org/Graphics/SVG/1.1/DTD/svg11.dtd">
<svg xmlns="http://www.w3.org/2000/svg" version="1.1" width="792px" height="896px" style="shape-rendering:geometricPrecision; text-rendering:geometricPrecision; image-rendering:optimizeQuality; fill-rule:evenodd; clip-rule:evenodd" xmlns:xlink="http://www.w3.org/1999/xlink">
<g><path style="opacity:1" fill="#5a3414" d="M 248.5,49.5 C 248.41,52.1522 249.076,54.4855 250.5,56.5C 250.5,57.1667 250.5,57.8333 250.5,58.5C 250.832,69.8529 250.499,81.1862 249.5,92.5C 248.617,83.383 247.117,74.383 245,65.5C 242.675,58.4906 238.008,54.4906 231,53.5C 222.721,54.8255 214.387,55.4922 206,55.5C 197.163,54.9277 188.33,54.7611 179.5,55C 174.426,58.9791 171.259,64.1457 170,70.5C 169.829,77.6787 169.329,84.6787 168.5,91.5C 166.744,90.4479 166.077,88.7812 166.5,86.5C 166.5,84.8333 166.5,83.1667 166.5,81.5C 163.405,66.1472 165.905,51.8138 174,38.5C 186.251,24.971 201.418,20.1377 219.5,24C 234.366,26.7048 244.032,35.2048 248.5,49.5 Z"/></g>
<g><path style="opacity:1" fill="#573011" d="M 600.5,28.5 C 601.848,29.1859 603.015,30.1859 604,31.5C 605.011,30.6634 606.178,30.33 607.5,30.5C 621.514,36.5018 629.18,47.1684 630.5,62.5C 630.667,75.5043 630.5,88.5043 630,101.5C 629.004,105.816 628.17,110.149 627.5,114.5C 627.737,115.791 627.404,116.791 626.5,117.5C 617.794,131.517 605.128,137.517 588.5,135.5C 571.922,137.547 559.922,131.214 552.5,116.5C 551.191,112.596 550.191,108.596 549.5,104.5C 548.638,90.8531 548.305,77.1864 548.5,63.5C 548.5,62.8333 548.5,62.1667 548.5,61.5C 549.924,59.4855 550.59,57.1522 550.5,54.5C 551.546,49.404 553.879,45.0707 557.5,41.5C 559.5,40.1667 561.167,38.5 562.5,36.5C 565.061,33.2833 568.395,31.2833 572.5,30.5C 575.152,30.5905 577.485,29.9238 579.5,28.5C 586.5,27.1667 593.5,27.1667 600.5,28.5 Z"/></g>
<g><path style="opacity:1" fill="#846751" d="M 579.5,28.5 C 577.485,29.9238 575.152,30.5905 572.5,30.5C 574.515,29.0762 576.848,28.4095 579.5,28.5 Z"/></g>
<g><path style="opacity:1" fill="#8d705b" d="M 600.5,28.5 C 603.152,28.4095 605.485,29.0762 607.5,30.5C 606.178,30.33 605.011,30.6634 604,31.5C 603.015,30.1859 601.848,29.1859 600.5,28.5 Z"/></g>
<g><path style="opacity:1" fill="#99816c" d="M 562.5,36.5 C 561.167,38.5 559.5,40.1667 557.5,41.5C 558.167,38.8333 559.833,37.1667 562.5,36.5 Z"/></g>
<g><path style="opacity:1" fill="#a38a76" d="M 248.5,49.5 C 249.924,51.5145 250.59,53.8478 250.5,56.5C 249.076,54.4855 248.41,52.1522 248.5,49.5 Z"/></g>
<g><path style="opacity:1" fill="#a18b79" d="M 550.5,54.5 C 550.59,57.1522 549.924,59.4855 548.5,61.5C 548.41,58.8478 549.076,56.5145 550.5,54.5 Z"/></g>
<g><path style="opacity:1" fill="#ecb183" d="M 547.5,84.5 C 547.133,91.4146 547.799,98.0812 549.5,104.5C 550.191,108.596 551.191,112.596 552.5,116.5C 542.446,108.208 539.613,97.8747 544,85.5C 545.011,84.6634 546.178,84.33 547.5,84.5 Z"/></g>
<g><path style="opacity:1" fill="#aa7f5e" d="M 548.5,63.5 C 548.305,77.1864 548.638,90.8531 549.5,104.5C 547.799,98.0812 547.133,91.4146 547.5,84.5C 547.175,77.3134 547.509,70.3134 548.5,63.5 Z"/></g>
<g><path style="opacity:1" fill="#dea578" d="M 630.5,62.5 C 631.492,69.6476 631.825,76.9809 631.5,84.5C 633.39,84.2965 634.89,84.9632 636,86.5C 638.955,96.3494 637.288,105.349 631,113.5C 629.989,114.337 628.822,114.67 627.5,114.5C 628.17,110.149 629.004,105.816 630,101.5C 630.5,88.5043 630.667,75.5043 630.5,62.5 Z"/></g>
<g><path style="opacity:1" fill="#f9c794" d="M 552.5,116.5 C 559.922,131.214 571.922,137.547 588.5,135.5C 605.128,137.517 617.794,131.517 626.5,117.5C 624.774,124.288 621.941,130.622 618,136.5C 617.333,144.833 617.333,153.167 618,161.5C 631.949,167.267 645.782,173.433 659.5,180C 670.338,182.291 680.671,185.958 690.5,191C 703.196,200.055 710.196,212.389 711.5,228C 710.511,235.15 710.344,242.317 711,249.5C 715.799,275.611 717.799,301.944 717,328.5C 717.388,332.219 718.055,335.886 719,339.5C 722.574,347.979 725.574,356.645 728,365.5C 730.615,385.77 732.615,406.104 734,426.5C 734.892,432.186 735.892,437.853 737,443.5C 739.625,448.245 743.459,451.745 748.5,454C 751,456.5 753.5,459 756,461.5C 760.79,470.71 765.29,480.043 769.5,489.5C 768.622,491.939 766.955,492.772 764.5,492C 760,490.167 756.833,487 755,482.5C 754.346,481.304 753.846,481.304 753.5,482.5C 757.602,494.171 759.435,506.171 759,518.5C 758.34,520.324 757.173,521.657 755.5,522.5C 752.63,511.221 749.963,499.887 747.5,488.5C 746.5,488.5 745.5,488.5 744.5,488.5C 746.929,500.881 749.929,512.881 753.5,524.5C 752.504,525.665 751.171,526.332 749.5,526.5C 742.455,526.492 736.455,524.158 731.5,519.5C 732.376,519.631 733.043,519.298 733.5,518.5C 731.355,510.587 729.522,502.587 728,494.5C 727.29,493.027 726.124,492.36 724.5,492.5C 726.976,501.403 728.976,510.403 730.5,519.5C 725.178,517.676 721.678,514.009 720,508.5C 715.93,496.956 712.263,485.289 709,473.5C 708.225,462.751 706.891,452.084 705,441.5C 697.715,421.931 690.715,402.264 684,382.5C 682.744,377.552 681.744,372.552 681,367.5C 680.227,353.113 678.893,338.78 677,324.5C 674.246,310.725 671.246,297.058 668,283.5C 664.205,300.048 659.705,316.381 654.5,332.5C 653.686,334.631 653.186,336.964 653,339.5C 652.172,356.005 652.338,372.339 653.5,388.5C 654.576,396.212 655.909,403.879 657.5,411.5C 635.419,416.075 613.085,418.075 590.5,417.5C 567.554,418.197 544.887,416.197 522.5,411.5C 526.936,384.994 527.769,358.328 525,331.5C 519.439,315.486 515.106,299.152 512,282.5C 504.53,309.657 500.196,337.324 499,365.5C 498.385,370.906 497.385,376.239 496,381.5C 489.201,401.564 482.201,421.564 475,441.5C 473.32,466.877 467.32,491.21 457,514.5C 454.872,516.808 452.372,518.474 449.5,519.5C 450.536,510.287 452.536,501.287 455.5,492.5C 454.167,492.5 452.833,492.5 451.5,492.5C 450.787,501.352 449.12,510.019 446.5,518.5C 446.957,519.298 447.624,519.631 448.5,519.5C 443.678,524.545 437.678,526.879 430.5,526.5C 428.829,526.332 427.496,525.665 426.5,524.5C 429.321,512.887 432.321,501.22 435.5,489.5C 434.5,489.5 433.5,489.5 432.5,489.5C 429.418,500.411 426.751,511.411 424.5,522.5C 421.056,519.753 419.722,516.086 420.5,511.5C 421.838,501.015 423.671,490.682 426,480.5C 424.033,486.301 420.199,490.301 414.5,492.5C 413.264,491.754 411.93,491.421 410.5,491.5C 414.014,476.427 421.348,463.594 432.5,453C 437.394,451.314 440.894,448.147 443,443.5C 446.373,418.915 449.039,394.248 451,369.5C 451.842,365.131 452.842,360.797 454,356.5C 457.457,349.462 460.124,342.128 462,334.5C 461.896,305.621 464.229,276.954 469,248.5C 469.417,241.996 469.25,235.496 468.5,229C 469.103,212.12 476.437,199.12 490.5,190C 500.09,185.47 510.09,182.137 520.5,180C 534.288,173.355 548.122,166.855 562,160.5C 562.667,152.833 562.667,145.167 562,137.5C 559.333,132.833 556.667,128.167 554,123.5C 553.023,121.26 552.523,118.927 552.5,116.5 Z"/></g>
<g><path style="opacity:1" fill="#e8a573" d="M 181.5,137.5 C 181.5,137.167 181.5,136.833 181.5,136.5C 186.763,140.808 192.43,144.642 198.5,148C 206.631,150.241 214.631,149.908 222.5,147C 226.759,143.619 230.926,140.119 235,136.5C 235.167,137 235.333,137.5 235.5,138C 231.991,143.009 227.657,147.176 222.5,150.5C 218.357,152.955 213.857,153.955 209,153.5C 205.38,153.584 201.88,153.084 198.5,152C 192.322,147.647 186.656,142.814 181.5,137.5 Z"/></g>
<g><path style="opacity:1" fill="#f9c694" d="M 250.5,58.5 C 251.492,66.3159 251.826,74.3159 251.5,82.5C 254.292,82.4521 256.125,83.7854 257,86.5C 258.913,97.9256 255.747,107.592 247.5,115.5C 246.102,122.961 242.602,129.294 237,134.5C 236.333,142.5 236.333,150.5 237,158.5C 237.833,159.333 238.667,160.167 239.5,161C 253.231,165.689 266.564,171.356 279.5,178C 291.537,180.567 302.87,184.9 313.5,191C 320.673,197.851 325.84,206.018 329,215.5C 329.333,226.5 329.667,237.5 330,248.5C 334.94,274.556 336.773,300.722 335.5,327C 336.578,331.814 337.745,336.647 339,341.5C 342.793,348.42 345.46,355.754 347,363.5C 349.446,388.19 352.113,412.857 355,437.5C 355.36,439.608 356.027,441.608 357,443.5C 363.564,448.129 369.564,453.462 375,459.5C 379.981,468.287 384.481,477.287 388.5,486.5C 388.426,488.739 387.259,489.739 385,489.5C 379.078,488.043 375.078,484.377 373,478.5C 375.211,489.2 377.045,500.034 378.5,511C 378.551,515.395 376.884,518.895 373.5,521.5C 370.245,524.552 366.912,524.886 363.5,522.5C 362.34,513.949 360.173,505.283 357,496.5C 356.505,494.527 356.338,492.527 356.5,490.5C 355.167,490.5 353.833,490.5 352.5,490.5C 356.174,500.866 358.841,511.533 360.5,522.5C 355.816,521.804 351.816,519.804 348.5,516.5C 343.51,515.008 340.343,511.674 339,506.5C 335.046,494.925 331.38,483.259 328,471.5C 326.961,462.175 325.961,452.841 325,443.5C 317.469,422.575 310.136,401.575 303,380.5C 301.842,376.203 300.842,371.869 300,367.5C 299.331,355.138 298.331,342.804 297,330.5C 293.291,312.818 290.457,295.151 288.5,277.5C 291.451,271.794 292.451,265.794 291.5,259.5C 290.914,259.709 290.414,260.043 290,260.5C 289.951,267.802 287.784,274.302 283.5,280C 274.346,284.881 264.512,287.047 254,286.5C 247.477,286.298 240.977,285.798 234.5,285C 232.385,284.443 230.385,283.609 228.5,282.5C 228.167,282.833 227.833,283.167 227.5,283.5C 232.003,286.406 237.003,288.24 242.5,289C 255.458,290.517 268.124,289.35 280.5,285.5C 282.649,283.591 284.982,281.924 287.5,280.5C 284.459,295.128 280.292,309.462 275,323.5C 273.939,328.104 273.273,332.771 273,337.5C 272.333,355.5 272.333,373.5 273,391.5C 274.364,398.485 275.531,405.485 276.5,412.5C 276.389,413.117 276.056,413.617 275.5,414C 230.757,421.419 186.09,421.253 141.5,413.5C 141.5,411.833 141.5,410.167 141.5,408.5C 144.064,396.985 145.398,385.318 145.5,373.5C 144.938,358.502 144.438,343.502 144,328.5C 138.29,313.211 134.124,297.544 131.5,281.5C 140.201,288.087 150.034,290.753 161,289.5C 171.467,290.509 181.3,288.509 190.5,283.5C 190,283.167 189.5,282.833 189,282.5C 172.999,287.277 156.832,287.777 140.5,284C 137.217,282.439 134.383,280.273 132,277.5C 129.427,271.733 127.594,265.733 126.5,259.5C 124.859,265.835 125.526,271.835 128.5,277.5C 127.727,285.356 126.894,293.356 126,301.5C 121.183,321.552 118.516,341.885 118,362.5C 117.18,369.269 115.846,375.935 114,382.5C 107.34,401.157 100.673,419.823 94,438.5C 91.098,448.614 89.7647,458.948 90,469.5C 86.1275,483.784 81.4608,497.784 76,511.5C 73.7025,514.98 70.5358,516.98 66.5,517.5C 64.0174,520.741 60.6841,522.408 56.5,522.5C 59.171,511.816 61.8377,501.149 64.5,490.5C 63.5,490.5 62.5,490.5 61.5,490.5C 58.8323,501.179 56.1656,511.845 53.5,522.5C 50.8333,523.833 48.1667,523.833 45.5,522.5C 48.4821,510.618 51.4821,498.618 54.5,486.5C 53.1779,486.33 52.0113,486.663 51,487.5C 48.9701,498.619 46.4701,509.619 43.5,520.5C 41.8267,519.657 40.66,518.324 40,516.5C 39.1747,503.789 41.0081,491.455 45.5,479.5C 45.3333,479.167 45.1667,478.833 45,478.5C 42.8665,482.933 39.6999,486.433 35.5,489C 33.5,489.667 31.5,489.667 29.5,489C 28.9781,488.439 28.6448,487.772 28.5,487C 32.5149,478.47 36.6815,469.97 41,461.5C 46.4977,454.915 52.831,449.248 60,444.5C 61.3989,441.637 62.3989,438.637 63,435.5C 65.5877,412.194 67.921,388.86 70,365.5C 73.9567,353.921 77.6233,342.254 81,330.5C 80.5405,301.932 82.8739,273.598 88,245.5C 82.6353,206.397 99.4686,183.897 138.5,178C 151.815,171.175 165.482,165.175 179.5,160C 180.167,159 180.833,158 181.5,157C 181.421,150.711 181.421,144.211 181.5,137.5C 186.656,142.814 192.322,147.647 198.5,152C 201.88,153.084 205.38,153.584 209,153.5C 213.857,153.955 218.357,152.955 222.5,150.5C 227.657,147.176 231.991,143.009 235.5,138C 235.333,137.5 235.167,137 235,136.5C 230.926,140.119 226.759,143.619 222.5,147C 214.631,149.908 206.631,150.241 198.5,148C 192.43,144.642 186.763,140.808 181.5,136.5C 179.485,133.162 176.985,130.162 174,127.5C 171.462,123.148 169.796,118.481 169,113.5C 162.78,108.211 159.613,101.378 159.5,93C 158.734,87.0311 161.068,83.1978 166.5,81.5C 166.5,83.1667 166.5,84.8333 166.5,86.5C 164.106,88.3318 163.106,90.8318 163.5,94C 163.637,96.898 164.137,99.7314 165,102.5C 165.368,103.91 166.201,104.91 167.5,105.5C 168.493,100.88 168.827,96.2137 168.5,91.5C 169.329,84.6787 169.829,77.6787 170,70.5C 171.259,64.1457 174.426,58.9791 179.5,55C 188.33,54.7611 197.163,54.9277 206,55.5C 214.387,55.4922 222.721,54.8255 231,53.5C 238.008,54.4906 242.675,58.4906 245,65.5C 247.117,74.383 248.617,83.383 249.5,92.5C 250.499,81.1862 250.832,69.8529 250.5,58.5 Z"/></g>
<g><path style="opacity:1" fill="#ce8a5d" d="M 194.5,125.5 C 203.833,125.5 213.167,125.5 222.5,125.5C 222.5,126.5 222.5,127.5 222.5,128.5C 213.167,128.5 203.833,128.5 194.5,128.5C 194.5,127.5 194.5,126.5 194.5,125.5 Z"/></g>
<g><path style="opacity:1" fill="#61360c" d="M 232.5,90.5 C 232.634,92.2915 232.301,93.9582 231.5,95.5C 228.917,96.9377 226.583,96.6044 224.5,94.5C 224.5,93.5 224.5,92.5 224.5,91.5C 226.024,92.1738 227.358,93.1738 228.5,94.5C 229.84,93.1335 231.173,91.8001 232.5,90.5 Z"/></g>
<g><path style="opacity:1" fill="#683f1b" d="M 184.5,90.5 C 185.827,91.8001 187.16,93.1335 188.5,94.5C 189.642,93.1738 190.976,92.1738 192.5,91.5C 192.371,93.2161 192.038,94.8828 191.5,96.5C 189.379,96.6747 187.379,96.3414 185.5,95.5C 184.699,93.9582 184.366,92.2915 184.5,90.5 Z"/></g>
<g><path style="opacity:1" fill="#f2ede5" d="M 232.5,90.5 C 234.38,90.2291 235.713,90.8958 236.5,92.5C 235.902,95.8211 234.235,96.8211 231.5,95.5C 232.301,93.9582 232.634,92.2915 232.5,90.5 Z"/></g>
<g><path style="opacity:1" fill="#f1ede3" d="M 224.5,91.5 C 224.5,92.5 224.5,93.5 224.5,94.5C 223.092,96.8597 221.759,96.5264 220.5,93.5C 221.375,91.1939 222.708,90.5272 224.5,91.5 Z"/></g>
<g><path style="opacity:1" fill="#ede6dd" d="M 196.5,93.5 C 195.599,95.7271 193.933,96.7271 191.5,96.5C 192.038,94.8828 192.371,93.2161 192.5,91.5C 194.292,90.5272 195.625,91.1939 196.5,93.5 Z"/></g>
<g><path style="opacity:1" fill="#f3f0e7" d="M 184.5,90.5 C 184.366,92.2915 184.699,93.9582 185.5,95.5C 183.257,96.8584 181.591,96.1917 180.5,93.5C 180.694,91.0882 182.027,90.0882 184.5,90.5 Z"/></g>
<g><path style="opacity:1" fill="#3a200a" d="M 236.5,92.5 C 235.713,90.8958 234.38,90.2291 232.5,90.5C 231.173,91.8001 229.84,93.1335 228.5,94.5C 227.358,93.1738 226.024,92.1738 224.5,91.5C 222.708,90.5272 221.375,91.1939 220.5,93.5C 219.624,93.6309 218.957,93.2975 218.5,92.5C 220.664,88.1291 224.164,86.4624 229,87.5C 234.602,86.1484 237.602,88.1484 238,93.5C 237.617,92.944 237.117,92.6107 236.5,92.5 Z"/></g>
<g><path style="opacity:1" fill="#ecae7b" d="M 166.5,86.5 C 166.077,88.7812 166.744,90.4479 168.5,91.5C 168.827,96.2137 168.493,100.88 167.5,105.5C 166.201,104.91 165.368,103.91 165,102.5C 164.137,99.7314 163.637,96.898 163.5,94C 163.106,90.8318 164.106,88.3318 166.5,86.5 Z"/></g>
<g><path style="opacity:1" fill="#412712" d="M 196.5,93.5 C 195.625,91.1939 194.292,90.5272 192.5,91.5C 190.976,92.1738 189.642,93.1738 188.5,94.5C 187.16,93.1335 185.827,91.8001 184.5,90.5C 182.027,90.0882 180.694,91.0882 180.5,93.5C 178.775,93.1575 178.275,92.1575 179,90.5C 183.515,86.2036 188.681,85.3703 194.5,88C 196.019,89.3513 197.352,90.8513 198.5,92.5C 198.043,93.2975 197.376,93.6309 196.5,93.5 Z"/></g>
<g><path style="opacity:1" fill="#49280e" d="M 219.5,78.5 C 224.844,78.334 230.177,78.5006 235.5,79C 237.641,80.3076 239.641,81.8076 241.5,83.5C 241,83.8333 240.5,84.1667 240,84.5C 236.85,83.0244 233.517,82.3578 230,82.5C 225.405,82.646 220.905,83.3126 216.5,84.5C 216.028,81.6421 217.028,79.6421 219.5,78.5 Z"/></g>
<g><path style="opacity:1" fill="#4c2c10" d="M 181.5,78.5 C 187.577,78.1959 193.577,78.6959 199.5,80C 200.38,81.3561 200.714,82.8561 200.5,84.5C 195.657,83.942 190.823,83.2754 186,82.5C 182.813,82.3939 179.813,83.0606 177,84.5C 176.5,84.1667 176,83.8333 175.5,83.5C 177.544,81.7806 179.544,80.1139 181.5,78.5 Z"/></g>
<g><path style="opacity:1" fill="#ecaf7c" d="M 149.5,180.5 C 162.109,179.416 174.775,180.25 187.5,183C 190.422,183.417 193.089,184.417 195.5,186C 192.167,186.667 188.833,186.667 185.5,186C 173.53,183.838 161.53,182.005 149.5,180.5 Z"/></g>
<g><path style="opacity:1" fill="#edb07d" d="M 248.5,179.5 C 254.842,179.334 261.175,179.5 267.5,180C 253.343,182.996 239.009,185.162 224.5,186.5C 223.833,186.167 223.167,185.833 222.5,185.5C 230.997,182.203 239.664,180.203 248.5,179.5 Z"/></g>
<g><path style="opacity:1" fill="#ecac7a" d="M 208.5,222.5 C 209.959,230.954 210.625,239.621 210.5,248.5C 210.603,254.911 210.103,261.244 209,267.5C 207.852,261.666 207.352,255.666 207.5,249.5C 207.696,240.491 208.03,231.491 208.5,222.5 Z"/></g>
<g><path style="opacity:1" fill="#e7a571" d="M 600.5,228.5 C 602.911,242.913 604.077,257.58 604,272.5C 605.513,276.681 607.846,280.348 611,283.5C 611.688,284.332 611.521,284.998 610.5,285.5C 605.221,282.069 601.721,277.403 600,271.5C 599.185,257.092 599.352,242.759 600.5,228.5 Z"/></g>
<g><path style="opacity:1" fill="#e7a672" d="M 578.5,227.5 C 579.816,230.087 580.483,233.087 580.5,236.5C 581.426,247.826 581.593,259.159 581,270.5C 579.335,277.34 575.502,282.674 569.5,286.5C 569.167,286.167 568.833,285.833 568.5,285.5C 571.734,282.196 574.067,278.363 575.5,274C 576.972,258.53 577.972,243.03 578.5,227.5 Z"/></g>
<g><path style="opacity:1" fill="#e8a473" d="M 149.5,268.5 C 151.924,268.192 154.257,268.526 156.5,269.5C 159.08,271.713 159.08,273.88 156.5,276C 148.093,278.438 145.759,275.938 149.5,268.5 Z"/></g>
<g><path style="opacity:1" fill="#e7a472" d="M 262.5,269.5 C 264.857,269.337 267.19,269.503 269.5,270C 272.167,272 272.167,274 269.5,276C 266.833,276.667 264.167,276.667 261.5,276C 260.091,273.536 260.424,271.369 262.5,269.5 Z"/></g>
<g><path style="opacity:1" fill="#edb17c" d="M 675.5,251.5 C 676.641,254.64 676.808,257.973 676,261.5C 673.739,269.071 671.905,276.738 670.5,284.5C 669.47,282.483 668.47,280.483 667.5,278.5C 670.469,269.569 673.136,260.569 675.5,251.5 Z"/></g>
<g><path style="opacity:1" fill="#e7a674" d="M 131.5,281.5 C 130.512,280.205 129.512,278.872 128.5,277.5C 125.526,271.835 124.859,265.835 126.5,259.5C 127.594,265.733 129.427,271.733 132,277.5C 134.383,280.273 137.217,282.439 140.5,284C 156.832,287.777 172.999,287.277 189,282.5C 189.5,282.833 190,283.167 190.5,283.5C 181.3,288.509 171.467,290.509 161,289.5C 150.034,290.753 140.201,288.087 131.5,281.5 Z"/></g>
<g><path style="opacity:1" fill="#e7a674" d="M 288.5,277.5 C 288.443,278.609 288.11,279.609 287.5,280.5C 284.982,281.924 282.649,283.591 280.5,285.5C 268.124,289.35 255.458,290.517 242.5,289C 237.003,288.24 232.003,286.406 227.5,283.5C 227.833,283.167 228.167,282.833 228.5,282.5C 230.385,283.609 232.385,284.443 234.5,285C 240.977,285.798 247.477,286.298 254,286.5C 264.512,287.047 274.346,284.881 283.5,280C 287.784,274.302 289.951,267.802 290,260.5C 290.414,260.043 290.914,259.709 291.5,259.5C 292.451,265.794 291.451,271.794 288.5,277.5 Z"/></g>
<g><path style="opacity:1" fill="#eeaf7c" d="M 191.5,298.5 C 192.552,298.351 193.552,298.517 194.5,299C 183.271,308.551 174.771,320.051 169,333.5C 169.112,328.574 170.445,323.908 173,319.5C 177.945,311.391 184.111,304.391 191.5,298.5 Z"/></g>
<g><path style="opacity:1" fill="#ecaf7b" d="M 223.5,297.5 C 235.542,305.061 243.708,315.727 248,329.5C 248.667,331.167 248.667,332.833 248,334.5C 241.811,320.77 233.645,308.436 223.5,297.5 Z"/></g>
<g><path style="opacity:0.729" fill="#fbd7b2" d="M 654.5,332.5 C 653.628,351.152 653.295,369.818 653.5,388.5C 652.338,372.339 652.172,356.005 653,339.5C 653.186,336.964 653.686,334.631 654.5,332.5 Z"/></g>
<g><path style="opacity:1" fill="#edb17c" d="M 207.5,305.5 C 208.832,315.812 209.499,326.478 209.5,337.5C 209.333,348.167 209.167,358.833 209,369.5C 208.586,369.957 208.086,370.291 207.5,370.5C 206.318,348.832 206.318,327.165 207.5,305.5 Z"/></g>
<g><path style="opacity:1" fill="#edb17c" d="M 589.5,310.5 C 590.268,311.263 590.768,312.263 591,313.5C 591.167,324.667 591.333,335.833 591.5,347C 591.647,358.926 591.147,370.759 590,382.5C 588.842,370.652 588.342,358.652 588.5,346.5C 588.51,334.426 588.843,322.426 589.5,310.5 Z"/></g>
<g><path style="opacity:1" fill="#b1a39d" d="M 522.5,411.5 C 544.887,416.197 567.554,418.197 590.5,417.5C 613.085,418.075 635.419,416.075 657.5,411.5C 658.887,413.877 659.721,416.543 660,419.5C 663.711,443.815 665.877,468.148 666.5,492.5C 645.759,505.677 623.426,508.844 599.5,502C 597.14,500.82 594.807,499.653 592.5,498.5C 590.314,496.24 588.314,496.573 586.5,499.5C 585.209,499.263 584.209,499.596 583.5,500.5C 578.888,502.316 574.221,503.816 569.5,505C 561.5,505.667 553.5,505.667 545.5,505C 537.702,503.067 530.035,500.734 522.5,498C 519.117,496.314 516.117,494.147 513.5,491.5C 513.992,466.889 516.159,442.222 520,417.5C 520.24,415.148 521.073,413.148 522.5,411.5 Z"/></g>
<g><path style="opacity:1" fill="#b1a39d" d="M 141.5,408.5 C 141.5,410.167 141.5,411.833 141.5,413.5C 186.09,421.253 230.757,421.419 275.5,414C 276.056,413.617 276.389,413.117 276.5,412.5C 277.117,412.611 277.617,412.944 278,413.5C 283.191,442.697 285.691,472.03 285.5,501.5C 285.167,501.5 284.833,501.5 284.5,501.5C 260.705,506.851 236.705,507.851 212.5,504.5C 211.67,495.342 211.17,486.009 211,476.5C 209.644,475.62 208.144,475.286 206.5,475.5C 206.827,485.348 206.494,495.014 205.5,504.5C 180.924,507.889 156.591,506.889 132.5,501.5C 131.394,489.318 131.561,476.984 133,464.5C 134.667,450.165 136.334,435.832 138,421.5C 138.496,416.867 139.663,412.533 141.5,408.5 Z"/></g>
<g><path style="opacity:1" fill="#e7a775" d="M 67.5,459.5 C 68.5983,460.601 68.765,461.934 68,463.5C 64.1089,468.859 58.9422,471.692 52.5,472C 59.1299,469.699 64.1299,465.532 67.5,459.5 Z"/></g>
<g><path style="opacity:1" fill="#e7a573" d="M 373.5,521.5 C 372.504,521.586 371.671,521.252 371,520.5C 368.563,509.479 366.063,498.479 363.5,487.5C 364.5,487.5 365.5,487.5 366.5,487.5C 368.832,498.83 371.165,510.163 373.5,521.5 Z"/></g>
<g><path style="opacity:1" fill="#e7a774" d="M 363.5,522.5 C 362.5,522.5 361.5,522.5 360.5,522.5C 358.841,511.533 356.174,500.866 352.5,490.5C 353.833,490.5 355.167,490.5 356.5,490.5C 356.338,492.527 356.505,494.527 357,496.5C 360.173,505.283 362.34,513.949 363.5,522.5 Z"/></g>
<g><path style="opacity:1" fill="#e9a775" d="M 348.5,516.5 C 347.468,507.707 345.801,499.04 343.5,490.5C 344.5,490.5 345.5,490.5 346.5,490.5C 348.167,499.168 349.833,507.834 351.5,516.5C 350.5,516.5 349.5,516.5 348.5,516.5 Z"/></g>
<g><path style="opacity:1" fill="#f9c794" d="M 666.5,492.5 C 667.18,523.369 665.013,554.036 660,584.5C 654.838,604.813 649.838,625.146 645,645.5C 644.333,651.833 644.333,658.167 645,664.5C 648.768,688.471 649.102,712.471 646,736.5C 640.969,764.626 635.302,792.626 629,820.5C 626.78,830.288 627.113,839.954 630,849.5C 636.08,853.79 642.247,857.957 648.5,862C 652.826,867.044 652.16,871.378 646.5,875C 635.56,878.536 624.56,881.869 613.5,885C 598.967,888.418 591.633,882.751 591.5,868C 596.12,842.731 598.453,817.231 598.5,791.5C 597.014,763.512 595.681,735.512 594.5,707.5C 595.082,687.266 596.416,667.1 598.5,647C 598.053,626.79 596.886,606.623 595,586.5C 594.085,557.134 593.251,527.801 592.5,498.5C 594.807,499.653 597.14,500.82 599.5,502C 623.426,508.844 645.759,505.677 666.5,492.5 Z"/></g>
<g><path style="opacity:1" fill="#e8a774" d="M 426.5,524.5 C 425.5,524.167 424.833,523.5 424.5,522.5C 426.751,511.411 429.418,500.411 432.5,489.5C 433.5,489.5 434.5,489.5 435.5,489.5C 432.321,501.22 429.321,512.887 426.5,524.5 Z"/></g>
<g><path style="opacity:1" fill="#e7a672" d="M 45.5,522.5 C 44.5,522.167 43.8333,521.5 43.5,520.5C 46.4701,509.619 48.9701,498.619 51,487.5C 52.0113,486.663 53.1779,486.33 54.5,486.5C 51.4821,498.618 48.4821,510.618 45.5,522.5 Z"/></g>
<g><path style="opacity:1" fill="#e8a775" d="M 66.5,517.5 C 65.8761,517.083 65.5427,516.416 65.5,515.5C 68.2801,507.713 70.1135,499.713 71,491.5C 72.0113,490.663 73.1779,490.33 74.5,490.5C 72.1603,498.36 70.327,506.36 69,514.5C 68.3021,515.691 67.4687,516.691 66.5,517.5 Z"/></g>
<g><path style="opacity:1" fill="#e7a472" d="M 449.5,519.5 C 449.167,519.5 448.833,519.5 448.5,519.5C 447.624,519.631 446.957,519.298 446.5,518.5C 449.12,510.019 450.787,501.352 451.5,492.5C 452.833,492.5 454.167,492.5 455.5,492.5C 452.536,501.287 450.536,510.287 449.5,519.5 Z"/></g>
<g><path style="opacity:1" fill="#f9c795" d="M 513.5,491.5 C 516.117,494.147 519.117,496.314 522.5,498C 530.035,500.734 537.702,503.067 545.5,505C 553.5,505.667 561.5,505.667 569.5,505C 574.221,503.816 578.888,502.316 583.5,500.5C 584.831,508.807 585.498,517.473 585.5,526.5C 585.059,545.499 584.726,564.499 584.5,583.5C 583.12,605.824 581.786,628.157 580.5,650.5C 583.361,669.892 585.028,689.392 585.5,709C 584.316,736.695 582.649,764.362 580.5,792C 580.831,816.152 583.665,839.985 589,863.5C 591.745,880.755 584.579,887.921 567.5,885C 556.429,881.865 545.429,878.532 534.5,875C 529.488,872.825 527.988,869.325 530,864.5C 536.142,859.095 542.809,854.428 550,850.5C 551.975,846.946 552.808,843.113 552.5,839C 552.119,831.781 551.285,824.615 550,817.5C 543.697,789.624 538.031,761.624 533,733.5C 532.056,724.359 531.556,715.192 531.5,706C 532.968,685.832 534.134,665.665 535,645.5C 532.268,631.238 528.601,617.238 524,603.5C 515.65,566.637 512.15,529.303 513.5,491.5 Z"/></g>
<g><path style="opacity:1" fill="#f9c794" d="M 132.5,501.5 C 156.591,506.889 180.924,507.889 205.5,504.5C 205.535,552.75 203.535,600.916 199.5,649C 202.025,667.585 203.692,686.252 204.5,705C 202.561,732.824 200.895,760.658 199.5,788.5C 200.134,807.173 200.967,825.839 202,844.5C 205.621,856.26 207.287,868.26 207,880.5C 206.535,881.931 205.701,883.097 204.5,884C 189.734,886.228 175.068,885.561 160.5,882C 152.178,880.52 149.012,875.687 151,867.5C 157.333,856.167 163.667,844.833 170,833.5C 170.837,824.723 170.17,816.057 168,807.5C 158.166,773.495 152.332,738.828 150.5,703.5C 151.736,684.146 152.903,664.812 154,645.5C 153.427,641.152 152.76,636.819 152,632.5C 137.609,589.926 131.109,546.26 132.5,501.5 Z"/></g>
<g><path style="opacity:1" fill="#f9c794" d="M 284.5,501.5 C 284.524,517.902 283.857,534.236 282.5,550.5C 282.081,564.018 280.247,577.352 277,590.5C 272.196,607.385 267.862,624.385 264,641.5C 264.559,661.826 265.392,682.16 266.5,702.5C 266.483,712.859 265.983,723.192 265,733.5C 259.859,764.892 253.693,796.059 246.5,827C 246.667,828.833 246.833,830.667 247,832.5C 252.748,842.997 258.748,853.33 265,863.5C 269.842,874.972 266.009,881.472 253.5,883C 240.165,885.668 226.831,886.001 213.5,884C 210.925,881.786 209.592,878.953 209.5,875.5C 211.189,863.744 213.356,852.077 216,840.5C 216.706,822.492 217.539,804.492 218.5,786.5C 216.369,759.032 214.702,731.532 213.5,704C 214.246,685.284 215.58,666.618 217.5,648C 216.723,621.459 215.223,594.959 213,568.5C 212.822,547.79 212.322,527.123 211.5,506.5C 211.863,505.817 212.196,505.15 212.5,504.5C 236.705,507.851 260.705,506.851 284.5,501.5 Z"/></g>
<g><path style="opacity:1" fill="#e9a875" d="M 56.5,522.5 C 55.5,522.5 54.5,522.5 53.5,522.5C 56.1656,511.845 58.8323,501.179 61.5,490.5C 62.5,490.5 63.5,490.5 64.5,490.5C 61.8377,501.149 59.171,511.816 56.5,522.5 Z"/></g>
<g><path style="opacity:1" fill="#e8a673" d="M 442.5,493.5 C 443.675,493.281 444.675,493.614 445.5,494.5C 441.981,504.286 439.315,514.286 437.5,524.5C 436.448,524.649 435.448,524.483 434.5,524C 437.274,513.847 439.941,503.68 442.5,493.5 Z"/></g>
<g><path style="opacity:1" fill="#eaa877" d="M 731.5,519.5 C 731.167,519.5 730.833,519.5 730.5,519.5C 728.976,510.403 726.976,501.403 724.5,492.5C 726.124,492.36 727.29,493.027 728,494.5C 729.522,502.587 731.355,510.587 733.5,518.5C 733.043,519.298 732.376,519.631 731.5,519.5 Z"/></g>
<g><path style="opacity:1" fill="#e8a775" d="M 755.5,522.5 C 755.167,523.5 754.5,524.167 753.5,524.5C 749.929,512.881 746.929,500.881 744.5,488.5C 745.5,488.5 746.5,488.5 747.5,488.5C 749.963,499.887 752.63,511.221 755.5,522.5 Z"/></g>
<g><path style="opacity:1" fill="#e9a874" d="M 734.5,492.5 C 735.5,492.5 736.5,492.5 737.5,492.5C 740.115,503.028 742.781,513.528 745.5,524C 744.552,524.483 743.552,524.649 742.5,524.5C 740.388,513.636 737.721,502.969 734.5,492.5 Z"/></g>
<g><path style="opacity:1" fill="#fad4ae" d="M 284.5,501.5 C 284.833,501.5 285.167,501.5 285.5,501.5C 285.905,518.07 284.905,534.404 282.5,550.5C 283.857,534.236 284.524,517.902 284.5,501.5 Z"/></g>
<g><path style="opacity:0.696" fill="#fad5b0" d="M 583.5,500.5 C 584.209,499.596 585.209,499.263 586.5,499.5C 586.866,527.686 586.199,555.686 584.5,583.5C 584.726,564.499 585.059,545.499 585.5,526.5C 585.498,517.473 584.831,508.807 583.5,500.5 Z"/></g>
<g><path style="opacity:1" fill="#ebad7a" d="M 613.5,645.5 C 617.182,645.335 620.848,645.501 624.5,646C 627.636,646.315 630.303,647.482 632.5,649.5C 631.667,649.833 630.833,650.167 630,650.5C 623.91,649.12 617.744,648.12 611.5,647.5C 612.243,646.818 612.909,646.151 613.5,645.5 Z"/></g>
<g><path style="opacity:1" fill="#ebaf7c" d="M 167.5,645.5 C 167.735,644.903 168.235,644.57 169,644.5C 174.552,646.756 180.385,648.09 186.5,648.5C 184.171,652.252 180.837,653.418 176.5,652C 173.062,650.389 170.062,648.223 167.5,645.5 Z"/></g>
<g><path style="opacity:1" fill="#edaf7c" d="M 247.5,644.5 C 248.552,644.351 249.552,644.517 250.5,645C 247.443,647.723 244.11,650.056 240.5,652C 235.475,653.606 231.808,652.106 229.5,647.5C 233.995,647.52 238.662,647.354 243.5,647C 244.858,646.066 246.192,645.232 247.5,644.5 Z"/></g>
<g><path style="opacity:1" fill="#eaaa77" d="M 190.5,872.5 C 191.833,872.5 193.167,872.5 194.5,872.5C 193.979,876.481 193.646,880.481 193.5,884.5C 191.833,884.5 190.167,884.5 188.5,884.5C 188.334,880.326 189,876.326 190.5,872.5 Z"/></g>
</svg>
