<?xml version="1.0" encoding="UTF-8"?>
<!DOCTYPE svg PUBLIC "-//W3C//DTD SVG 1.1//EN" "http://www.w3.org/Graphics/SVG/1.1/DTD/svg11.dtd">
<svg xmlns="http://www.w3.org/2000/svg" version="1.1" width="726px" height="689px" style="shape-rendering:geometricPrecision; text-rendering:geometricPrecision; image-rendering:optimizeQuality; fill-rule:evenodd; clip-rule:evenodd" xmlns:xlink="http://www.w3.org/1999/xlink">
<g><path style="opacity:1" fill="#683412" d="M 549.5,21.5 C 554.438,22.2313 559.105,23.5646 563.5,25.5C 565.87,28.7349 568.87,29.7349 572.5,28.5C 573.469,29.3094 574.302,30.3094 575,31.5C 576.011,30.6634 577.178,30.33 578.5,30.5C 584.072,32.2859 589.405,34.6193 594.5,37.5C 594.34,39.1992 594.506,40.8659 595,42.5C 595.333,41.8333 595.667,41.1667 596,40.5C 598.398,40.9582 600.064,42.2915 601,44.5C 601.986,43.8288 603.153,43.8288 604.5,44.5C 617.315,54.4388 626.482,67.1054 632,82.5C 637.733,101.493 639.566,120.826 637.5,140.5C 636.17,159.49 631.836,177.824 624.5,195.5C 623.32,198.54 621.653,201.206 619.5,203.5C 619.253,201.025 618.587,201.025 617.5,203.5C 615.955,204.452 614.288,204.785 612.5,204.5C 612.351,205.552 612.517,206.552 613,207.5C 613.718,206.549 614.551,206.383 615.5,207C 613.845,208.444 613.178,210.278 613.5,212.5C 609.369,216.13 605.369,219.963 601.5,224C 580.6,238.115 557.6,243.449 532.5,240C 505.247,235.889 485.247,221.723 472.5,197.5C 471.596,196.791 471.263,195.791 471.5,194.5C 465.466,177.854 461.466,160.854 459.5,143.5C 457.989,131.203 457.322,118.703 457.5,106C 457.553,96.1416 457.886,86.3083 458.5,76.5C 458.741,74.1016 458.074,72.1016 456.5,70.5C 456.5,69.8333 456.5,69.1667 456.5,68.5C 456.5,63.1667 456.5,57.8333 456.5,52.5C 463.012,51.8334 469.679,51.1667 476.5,50.5C 476.376,49.8933 476.043,49.56 475.5,49.5C 474.833,48.1667 474.167,46.8333 473.5,45.5C 473.33,44.1779 473.663,43.0113 474.5,42C 473.309,41.3021 472.309,40.4687 471.5,39.5C 471.279,36.7212 471.612,34.0545 472.5,31.5C 496.351,25.7021 520.017,26.3688 543.5,33.5C 544.302,34.8847 544.969,34.718 545.5,33C 545.43,32.2352 545.097,31.7352 544.5,31.5C 544.5,28.1667 544.5,24.8333 544.5,21.5C 546.167,21.5 547.833,21.5 549.5,21.5 Z"/></g>
<g><path style="opacity:1" fill="#693513" d="M 192.5,32.5 C 191.249,33.472 191.582,34.1386 193.5,34.5C 196.416,33.8657 199.082,32.8657 201.5,31.5C 203.265,30.5386 205.265,30.2053 207.5,30.5C 212.414,30.6382 217.081,29.9715 221.5,28.5C 230.352,27.2697 239.352,27.2697 248.5,28.5C 251.507,30.1745 254.84,30.8412 258.5,30.5C 261.206,30.5751 263.873,30.9084 266.5,31.5C 267.565,38.3994 265.898,44.3994 261.5,49.5C 260.957,49.56 260.624,49.8933 260.5,50.5C 267.468,51.497 274.468,51.8303 281.5,51.5C 282.797,56.2669 282.797,60.9335 281.5,65.5C 280.215,68.5885 279.549,71.9219 279.5,75.5C 279.724,79.1788 280.058,82.8455 280.5,86.5C 280.444,91.7312 281.111,96.7312 282.5,101.5C 283.997,114.685 283.664,127.685 281.5,140.5C 280.097,143.909 279.43,147.575 279.5,151.5C 277.5,156.5 275.5,161.5 273.5,166.5C 273.044,149.098 270.211,132.098 265,115.5C 263.568,111.469 261.734,107.636 259.5,104C 251.714,106.251 243.714,107.917 235.5,109C 215.054,111.158 195.388,108.325 176.5,100.5C 175.508,104.783 175.174,109.116 175.5,113.5C 157.616,113.486 142.116,107.486 129,95.5C 121.401,104.919 116.068,115.586 113,127.5C 111.402,133.756 110.235,140.089 109.5,146.5C 108.672,152.653 108.172,158.987 108,165.5C 106.434,160.944 104.601,156.61 102.5,152.5C 102.405,150.214 101.738,148.214 100.5,146.5C 87.3677,96.2571 103.701,58.7571 149.5,34C 156.317,30.922 163.317,28.422 170.5,26.5C 173.916,26.4725 176.916,25.4725 179.5,23.5C 184.006,21.706 188.673,20.8726 193.5,21C 194.928,25.0577 194.595,28.891 192.5,32.5 Z"/></g>
<g><path style="opacity:1" fill="#a07e66" d="M 179.5,23.5 C 176.916,25.4725 173.916,26.4725 170.5,26.5C 173.215,24.9281 176.215,23.9281 179.5,23.5 Z"/></g>
<g><path style="opacity:1" fill="#aa8976" d="M 549.5,21.5 C 547.833,21.5 546.167,21.5 544.5,21.5C 544.5,24.8333 544.5,28.1667 544.5,31.5C 542.408,28.0836 542.075,24.4169 543.5,20.5C 545.735,20.2053 547.735,20.5386 549.5,21.5 Z"/></g>
<g><path style="opacity:1" fill="#895f43" d="M 563.5,25.5 C 566.854,25.7475 569.854,26.7475 572.5,28.5C 568.87,29.7349 565.87,28.7349 563.5,25.5 Z"/></g>
<g><path style="opacity:1" fill="#8c624b" d="M 221.5,28.5 C 217.081,29.9715 212.414,30.6382 207.5,30.5C 211.919,29.0285 216.586,28.3618 221.5,28.5 Z"/></g>
<g><path style="opacity:1" fill="#a98875" d="M 248.5,28.5 C 252.04,28.7526 255.373,29.4192 258.5,30.5C 254.84,30.8412 251.507,30.1745 248.5,28.5 Z"/></g>
<g><path style="opacity:1" fill="#946d54" d="M 572.5,28.5 C 574.786,28.595 576.786,29.2616 578.5,30.5C 577.178,30.33 576.011,30.6634 575,31.5C 574.302,30.3094 573.469,29.3094 572.5,28.5 Z"/></g>
<g><path style="opacity:1" fill="#9f7c68" d="M 201.5,31.5 C 199.082,32.8657 196.416,33.8657 193.5,34.5C 191.582,34.1386 191.249,33.472 192.5,32.5C 192.56,33.0431 192.893,33.3764 193.5,33.5C 196.021,32.2147 198.687,31.5481 201.5,31.5 Z"/></g>
<g><path style="opacity:0.882" fill="#bba196" d="M 472.5,31.5 C 471.612,34.0545 471.279,36.7212 471.5,39.5C 470.844,38.3784 470.511,37.0451 470.5,35.5C 470.585,33.6672 471.252,32.3339 472.5,31.5 Z"/></g>
<g><path style="opacity:0.455" fill="#c2a99b" d="M 544.5,31.5 C 545.097,31.7352 545.43,32.2352 545.5,33C 544.969,34.718 544.302,34.8847 543.5,33.5C 544.338,33.1583 544.672,32.4916 544.5,31.5 Z"/></g>
<g><path style="opacity:1" fill="#946c53" d="M 471.5,39.5 C 472.309,40.4687 473.309,41.3021 474.5,42C 473.663,43.0113 473.33,44.1779 473.5,45.5C 472.262,43.7857 471.595,41.7857 471.5,39.5 Z"/></g>
<g><path style="opacity:1" fill="#885c43" d="M 594.5,37.5 C 598.221,39.3535 601.554,41.6869 604.5,44.5C 603.153,43.8288 601.986,43.8288 601,44.5C 600.064,42.2915 598.398,40.9582 596,40.5C 595.667,41.1667 595.333,41.8333 595,42.5C 594.506,40.8659 594.34,39.1992 594.5,37.5 Z"/></g>
<g><path style="opacity:0.277" fill="#ccb8ad" d="M 261.5,49.5 C 268.167,50.1667 274.833,50.8333 281.5,51.5C 274.468,51.8303 267.468,51.497 260.5,50.5C 260.624,49.8933 260.957,49.56 261.5,49.5 Z"/></g>
<g><path style="opacity:0.288" fill="#cbb6aa" d="M 475.5,49.5 C 476.043,49.56 476.376,49.8933 476.5,50.5C 469.679,51.1667 463.012,51.8334 456.5,52.5C 456.167,52.5 455.833,52.5 455.5,52.5C 461.938,50.8498 468.605,49.8498 475.5,49.5 Z"/></g>
<g><path style="opacity:1" fill="#9f7f68" d="M 455.5,52.5 C 455.833,52.5 456.167,52.5 456.5,52.5C 456.5,57.8333 456.5,63.1667 456.5,68.5C 455.105,63.2217 454.772,57.8883 455.5,52.5 Z"/></g>
<g><path style="opacity:0.725" fill="#b69a89" d="M 281.5,65.5 C 281.678,69.1224 281.011,72.4557 279.5,75.5C 279.549,71.9219 280.215,68.5885 281.5,65.5 Z"/></g>
<g><path style="opacity:1" fill="#a58271" d="M 456.5,70.5 C 458.074,72.1016 458.741,74.1016 458.5,76.5C 457.262,74.7857 456.595,72.7857 456.5,70.5 Z"/></g>
<g><path style="opacity:1" fill="#a98d7b" d="M 280.5,86.5 C 281.889,91.2688 282.556,96.2688 282.5,101.5C 281.111,96.7312 280.444,91.7312 280.5,86.5 Z"/></g>
<g><path style="opacity:1" fill="#f9c39c" d="M 273.5,166.5 C 271.336,172.97 270.003,179.637 269.5,186.5C 283.335,184.491 289.501,176.491 288,162.5C 286.06,159.605 283.56,157.272 280.5,155.5C 279.571,154.311 279.238,152.978 279.5,151.5C 279.43,147.575 280.097,143.909 281.5,140.5C 281.708,142.92 281.374,145.253 280.5,147.5C 293.624,151.413 298.79,160.079 296,173.5C 291.38,187.735 281.547,195.068 266.5,195.5C 256.881,222.781 237.881,239.448 209.5,245.5C 209.083,244.876 208.416,244.543 207.5,244.5C 196.139,247.109 184.805,247.109 173.5,244.5C 172.52,247.086 172.187,249.753 172.5,252.5C 171.527,250.052 171.194,247.385 171.5,244.5C 143.513,238.848 124.847,222.515 115.5,195.5C 95.5749,194.076 85.4082,183.409 85,163.5C 85.521,160.126 86.8543,157.126 89,154.5C 92.8885,151.662 96.7218,148.995 100.5,146.5C 101.738,148.214 102.405,150.214 102.5,152.5C 101.386,155.775 99.0527,157.942 95.5,159C 91.513,168.714 93.513,177.048 101.5,184C 104.923,185.904 108.59,186.737 112.5,186.5C 111.271,180.744 109.938,174.91 108.5,169C 109.415,161.533 109.748,154.033 109.5,146.5C 110.235,140.089 111.402,133.756 113,127.5C 116.068,115.586 121.401,104.919 129,95.5C 142.116,107.486 157.616,113.486 175.5,113.5C 175.174,109.116 175.508,104.783 176.5,100.5C 195.388,108.325 215.054,111.158 235.5,109C 243.714,107.917 251.714,106.251 259.5,104C 261.734,107.636 263.568,111.469 265,115.5C 270.211,132.098 273.044,149.098 273.5,166.5 Z"/></g>
<g><path style="opacity:1" fill="#6c3612" d="M 140.5,136.5 C 146.909,136.183 153.243,136.683 159.5,138C 163.95,138.776 165.45,141.276 164,145.5C 163.261,146.574 162.261,147.241 161,147.5C 156.849,145.671 152.516,144.671 148,144.5C 142.762,145.37 137.596,146.203 132.5,147C 131.446,145.612 131.28,144.112 132,142.5C 134.637,140.109 137.47,138.109 140.5,136.5 Z"/></g>
<g><path style="opacity:1" fill="#6b3612" d="M 224.5,136.5 C 233.946,134.939 242.446,136.939 250,142.5C 251.072,145.553 250.072,147.553 247,148.5C 244.224,147.195 241.39,146.029 238.5,145C 231.409,144.509 224.409,144.843 217.5,146C 216.446,144.612 216.28,143.112 217,141.5C 219.479,139.686 221.979,138.019 224.5,136.5 Z"/></g>
<g><path style="opacity:1" fill="#6b3712" d="M 143.5,154.5 C 155.613,154.327 160.447,160.327 158,172.5C 150.696,183.502 144.029,183.168 138,171.5C 136.414,164.683 138.247,159.017 143.5,154.5 Z"/></g>
<g><path style="opacity:1" fill="#6a3613" d="M 229.5,154.5 C 235.59,153.137 240.09,155.137 243,160.5C 244.091,166.097 243.424,171.43 241,176.5C 233.673,182.664 228.006,181.331 224,172.5C 222.021,165.216 223.855,159.216 229.5,154.5 Z"/></g>
<g><path style="opacity:1" fill="#f0ac86" d="M 109.5,146.5 C 109.748,154.033 109.415,161.533 108.5,169C 109.938,174.91 111.271,180.744 112.5,186.5C 108.59,186.737 104.923,185.904 101.5,184C 93.513,177.048 91.513,168.714 95.5,159C 99.0527,157.942 101.386,155.775 102.5,152.5C 104.601,156.61 106.434,160.944 108,165.5C 108.172,158.987 108.672,152.653 109.5,146.5 Z"/></g>
<g><path style="opacity:1" fill="#f1ad87" d="M 279.5,151.5 C 279.238,152.978 279.571,154.311 280.5,155.5C 283.56,157.272 286.06,159.605 288,162.5C 289.501,176.491 283.335,184.491 269.5,186.5C 270.003,179.637 271.336,172.97 273.5,166.5C 275.5,161.5 277.5,156.5 279.5,151.5 Z"/></g>
<g><path style="opacity:0.997" fill="#f9c49d" d="M 459.5,143.5 C 461.466,160.854 465.466,177.854 471.5,194.5C 455.379,195.261 445.213,187.595 441,171.5C 439.332,157.349 445.499,149.682 459.5,148.5C 459.5,146.833 459.5,145.167 459.5,143.5 Z"/></g>
<g><path style="opacity:0.997" fill="#f7c39e" d="M 637.5,140.5 C 637.187,143.247 637.52,145.914 638.5,148.5C 649.997,152.489 654.497,160.489 652,172.5C 647.81,186.195 638.643,193.862 624.5,195.5C 631.836,177.824 636.17,159.49 637.5,140.5 Z"/></g>
<g><path style="opacity:1" fill="#d38663" d="M 186.5,176.5 C 189.518,176.335 192.518,176.502 195.5,177C 196.38,178.356 196.714,179.856 196.5,181.5C 186.154,180.85 182.487,185.517 185.5,195.5C 184.178,195.67 183.011,195.337 182,194.5C 180.466,190.289 180.133,185.956 181,181.5C 182.812,179.7 184.645,178.033 186.5,176.5 Z"/></g>
<g><path style="opacity:1" fill="#804e31" d="M 619.5,203.5 C 618.241,207.025 616.241,210.025 613.5,212.5C 613.178,210.278 613.845,208.444 615.5,207C 614.551,206.383 613.718,206.549 613,207.5C 612.517,206.552 612.351,205.552 612.5,204.5C 614.288,204.785 615.955,204.452 617.5,203.5C 618.587,201.025 619.253,201.025 619.5,203.5 Z"/></g>
<g><path style="opacity:1" fill="#d38764" d="M 166.5,206.5 C 170.478,205.966 173.478,207.466 175.5,211C 182.805,214.356 190.471,215.356 198.5,214C 202.939,211.738 207.272,209.238 211.5,206.5C 213.739,206.574 214.739,207.741 214.5,210C 214.333,210.833 214.167,211.667 214,212.5C 201.695,222.293 188.195,224.127 173.5,218C 170.705,216.207 168.205,214.04 166,211.5C 165.36,209.735 165.527,208.068 166.5,206.5 Z"/></g>
<g><path style="opacity:1" fill="#f9c49d" d="M 472.5,197.5 C 485.247,221.723 505.247,235.889 532.5,240C 557.6,243.449 580.6,238.115 601.5,224C 605.369,219.963 609.369,216.13 613.5,212.5C 602.396,230.082 586.396,240.749 565.5,244.5C 565.5,250.5 565.5,256.5 565.5,262.5C 577.224,265.017 588.891,267.851 600.5,271C 612.187,275.352 620.687,283.186 626,294.5C 642.245,325.991 658.745,357.325 675.5,388.5C 685.11,391.486 694.777,394.32 704.5,397C 708.213,398.691 709.379,401.525 708,405.5C 706.559,406.87 704.892,407.87 703,408.5C 699.571,407.1 696.071,406.267 692.5,406C 698.667,415.5 704.833,425 711,434.5C 711.578,440.592 709.078,442.426 703.5,440C 699.994,435.001 696.327,430.167 692.5,425.5C 692.167,425.833 691.833,426.167 691.5,426.5C 694.667,432.167 697.833,437.833 701,443.5C 702.244,449.709 699.91,451.709 694,449.5C 690.333,443.167 686.667,436.833 683,430.5C 682.5,431 682,431.5 681.5,432C 683.856,437.212 686.356,442.379 689,447.5C 691.675,451.973 690.508,454.973 685.5,456.5C 684.252,455.96 683.085,455.293 682,454.5C 678.818,448.136 675.651,441.802 672.5,435.5C 672.167,436 671.833,436.5 671.5,437C 673.696,441.92 675.696,446.92 677.5,452C 676.496,455.668 674.163,457.002 670.5,456C 647.664,411.493 624.997,366.993 602.5,322.5C 602.217,321.711 601.717,321.044 601,320.5C 600.5,330.828 600.334,341.161 600.5,351.5C 600.5,373.833 600.5,396.167 600.5,418.5C 564.5,418.5 528.5,418.5 492.5,418.5C 492.913,386.477 492.413,354.477 491,322.5C 468.55,367.235 445.716,411.735 422.5,456C 419.006,456.861 416.673,455.528 415.5,452C 418.163,446.679 419.996,441.179 421,435.5C 417.815,441.377 414.815,447.377 412,453.5C 409.718,457.041 407.051,457.374 404,454.5C 403.333,452.5 403.333,450.5 404,448.5C 406.607,443.62 408.94,438.62 411,433.5C 411.749,432.365 411.583,431.365 410.5,430.5C 406.625,437.084 402.625,443.584 398.5,450C 393,451.167 390.833,449 392,443.5C 405.001,420.833 403.835,420 388.5,441C 381.309,440.771 379.809,437.604 384,431.5C 389.5,423.167 395,414.833 400.5,406.5C 400,406.167 399.5,405.833 399,405.5C 394.978,407.274 390.812,407.774 386.5,407C 383.34,402.8 384.006,399.467 388.5,397C 397.833,394.333 407.167,391.667 416.5,389C 434.382,356.739 451.882,324.239 469,291.5C 474.437,282.015 482.27,275.182 492.5,271C 504.067,267.692 515.734,264.858 527.5,262.5C 527.5,256.5 527.5,250.5 527.5,244.5C 500.202,239.193 481.868,223.527 472.5,197.5 Z"/></g>
<g><path style="opacity:1" fill="#ed9f7c" d="M 209.5,245.5 C 209.5,247.833 209.5,250.167 209.5,252.5C 197.161,253.743 184.828,253.743 172.5,252.5C 172.187,249.753 172.52,247.086 173.5,244.5C 184.805,247.109 196.139,247.109 207.5,244.5C 208.416,244.543 209.083,244.876 209.5,245.5 Z"/></g>
<g><path style="opacity:1" fill="#f9c49d" d="M 172.5,252.5 C 184.828,253.743 197.161,253.743 209.5,252.5C 209.216,255.777 209.549,258.943 210.5,262C 222.882,265.179 235.215,268.512 247.5,272C 254.135,274.63 259.635,278.797 264,284.5C 282.573,318.643 300.906,352.976 319,387.5C 328.885,391.461 339.052,394.628 349.5,397C 354.07,400.069 354.404,403.402 350.5,407C 345.741,407.302 341.074,406.969 336.5,406C 342.458,414.748 348.291,423.581 354,432.5C 357.01,439.817 354.844,442.317 347.5,440C 344.367,434.901 340.867,430.068 337,425.5C 336.333,426.5 336.333,427.5 337,428.5C 340.436,434.373 343.603,440.373 346.5,446.5C 344.817,450.485 341.984,451.485 338,449.5C 334.586,443.003 330.919,436.67 327,430.5C 326.5,431 326,431.5 325.5,432C 328.189,437.879 331.023,443.712 334,449.5C 334.096,455.749 331.429,457.416 326,454.5C 322.818,448.136 319.651,441.802 316.5,435.5C 316.167,435.833 315.833,436.167 315.5,436.5C 317.502,441.506 319.502,446.506 321.5,451.5C 321.105,456.013 318.771,457.513 314.5,456C 291.693,411.551 269.026,367.051 246.5,322.5C 246.631,321.624 246.298,320.957 245.5,320.5C 244.5,352.16 244.167,383.826 244.5,415.5C 244.5,415.833 244.5,416.167 244.5,416.5C 208.849,418.494 172.849,419.16 136.5,418.5C 136.667,386.165 136.5,353.832 136,321.5C 112.991,366.349 89.8246,411.182 66.5,456C 62.6629,457 60.6629,455.5 60.5,451.5C 62.1023,446.364 64.1023,441.364 66.5,436.5C 66.1667,436.167 65.8333,435.833 65.5,435.5C 62.1098,441.276 58.9431,447.276 56,453.5C 53.2157,457.255 50.5491,457.255 48,453.5C 47.3333,451.833 47.3333,450.167 48,448.5C 50.9111,443.178 53.4111,437.678 55.5,432C 55.1667,431.5 54.8333,431 54.5,430.5C 50.6254,437.084 46.6254,443.584 42.5,450C 38.5584,451.418 36.2251,450.084 35.5,446C 38.7377,439.456 42.071,432.956 45.5,426.5C 45.1667,426.167 44.8333,425.833 44.5,425.5C 41.0736,431.095 37.0736,436.262 32.5,441C 27.0081,441.486 25.1747,438.986 27,433.5C 33.3315,424.841 39.1648,415.841 44.5,406.5C 41.2957,406.085 38.1291,406.752 35,408.5C 29.59,407.679 27.7566,404.679 29.5,399.5C 30.6651,398.416 31.9984,397.583 33.5,397C 43.0868,394.359 52.5868,391.526 62,388.5C 80.0148,354.469 98.0148,320.469 116,286.5C 121.416,279.412 128.249,274.246 136.5,271C 148.124,267.844 159.791,264.844 171.5,262C 172.451,258.943 172.784,255.777 172.5,252.5 Z"/></g>
<g><path style="opacity:1" fill="#eda07b" d="M 535.5,299.5 C 536.825,303.445 537.492,307.778 537.5,312.5C 537.333,316.833 537.167,321.167 537,325.5C 534.251,331.593 529.751,335.426 523.5,337C 529.743,332.663 533.576,326.83 535,319.5C 535.5,312.842 535.666,306.175 535.5,299.5 Z"/></g>
<g><path style="opacity:1" fill="#ed9e7b" d="M 224.5,319.5 C 229.907,318.18 232.574,320.18 232.5,325.5C 229.474,326.577 226.474,326.577 223.5,325.5C 222.229,323.194 222.562,321.194 224.5,319.5 Z"/></g>
<g><path style="opacity:1" fill="#efa27d" d="M 556.5,300.5 C 557.995,308.977 559.162,317.644 560,326.5C 562.667,330.5 566,333.833 570,336.5C 570.667,337.167 570.667,337.833 570,338.5C 564.116,335.352 559.449,331.019 556,325.5C 555.378,317.148 555.545,308.814 556.5,300.5 Z"/></g>
<g><path style="opacity:1" fill="#ed9e7b" d="M 150.5,319.5 C 153.32,319.248 155.986,319.748 158.5,321C 159.747,322.458 159.747,323.958 158.5,325.5C 155.894,326.652 153.227,326.818 150.5,326C 149.232,323.837 149.232,321.67 150.5,319.5 Z"/></g>
<g><path style="opacity:0.09" fill="#fde3d3" d="M 602.5,322.5 C 601.833,332.167 601.167,341.833 600.5,351.5C 600.334,341.161 600.5,330.828 601,320.5C 601.717,321.044 602.217,321.711 602.5,322.5 Z"/></g>
<g><path style="opacity:0.18" fill="#fce0cb" d="M 246.5,322.5 C 245.833,353.5 245.167,384.5 244.5,415.5C 244.167,383.826 244.5,352.16 245.5,320.5C 246.298,320.957 246.631,321.624 246.5,322.5 Z"/></g>
<g><path style="opacity:1" fill="#ef9f7a" d="M 187.5,397.5 C 189.527,397.338 191.527,397.505 193.5,398C 196.167,400 196.167,402 193.5,404C 187.086,405.755 185.086,403.589 187.5,397.5 Z"/></g>
<g><path style="opacity:1" fill="#6bbcdf" d="M 244.5,416.5 C 245.485,431.66 246.152,446.993 246.5,462.5C 246.499,467.678 246.166,472.678 245.5,477.5C 229.833,477.5 214.167,477.5 198.5,477.5C 197.833,477.5 197.5,477.167 197.5,476.5C 198.134,468.097 197.467,460.097 195.5,452.5C 192.223,452.216 189.057,452.549 186,453.5C 185.987,461.741 185.153,469.741 183.5,477.5C 167.833,477.5 152.167,477.5 136.5,477.5C 135.833,477.5 135.5,477.167 135.5,476.5C 136.446,462.87 136.78,449.203 136.5,435.5C 136.5,429.833 136.5,424.167 136.5,418.5C 172.849,419.16 208.849,418.494 244.5,416.5 Z"/></g>
<g><path style="opacity:1" fill="#6cbce0" d="M 492.5,418.5 C 528.5,418.5 564.5,418.5 600.5,418.5C 601.351,434.43 602.017,450.43 602.5,466.5C 602.489,470.565 601.822,474.232 600.5,477.5C 585.167,477.5 569.833,477.5 554.5,477.5C 553.235,476.486 552.569,474.986 552.5,473C 552,468.5 551.5,464 551,459.5C 548,458.167 545,458.167 542,459.5C 541.62,464.347 541.12,469.18 540.5,474C 540.392,475.681 539.725,476.848 538.5,477.5C 523.167,477.5 507.833,477.5 492.5,477.5C 491.186,475.085 490.519,472.252 490.5,469C 491.198,452.164 491.865,435.331 492.5,418.5 Z"/></g>
<g><path style="opacity:1" fill="#97cfe9" d="M 136.5,435.5 C 136.78,449.203 136.446,462.87 135.5,476.5C 134.876,476.083 134.543,475.416 134.5,474.5C 135.131,461.353 135.798,448.353 136.5,435.5 Z"/></g>
<g><path style="opacity:0.38" fill="#afdbee" d="M 195.5,452.5 C 197.467,460.097 198.134,468.097 197.5,476.5C 196.805,468.599 196.138,460.599 195.5,452.5 Z"/></g>
<g><path style="opacity:1" fill="#e7d5c3" d="M 492.5,477.5 C 507.833,477.5 523.167,477.5 538.5,477.5C 538.832,526.336 538.499,575.003 537.5,623.5C 537.5,575.167 537.5,526.833 537.5,478.5C 522.833,478.5 508.167,478.5 493.5,478.5C 493.5,486.833 493.5,495.167 493.5,503.5C 492.507,495.016 492.174,486.349 492.5,477.5 Z"/></g>
<g><path style="opacity:0.999" fill="#fac49d" d="M 199.5,478.5 C 214.167,478.5 228.833,478.5 243.5,478.5C 243.5,519.167 243.5,559.833 243.5,600.5C 243.333,613.504 243.5,626.504 244,639.5C 252,646.167 260,652.833 268,659.5C 270.278,662.879 269.778,665.712 266.5,668C 245.5,668.667 224.5,668.667 203.5,668C 202.333,666.833 201.167,665.667 200,664.5C 199.5,602.501 199.333,540.501 199.5,478.5 Z"/></g>
<g><path style="opacity:1" fill="#f9c49d" d="M 137.5,478.5 C 152.167,478.5 166.833,478.5 181.5,478.5C 181.5,537.833 181.5,597.167 181.5,656.5C 181.665,659.518 181.498,662.518 181,665.5C 180.167,666.333 179.333,667.167 178.5,668C 157.167,668.667 135.833,668.667 114.5,668C 112.718,665.757 112.218,663.257 113,660.5C 120.74,653.715 128.574,647.048 136.5,640.5C 137.5,586.504 137.833,532.504 137.5,478.5 Z"/></g>
<g><path style="opacity:0.999" fill="#f9c49d" d="M 599.5,562.5 C 599.333,588.169 599.5,613.835 600,639.5C 607.593,645.715 615.093,652.048 622.5,658.5C 626.378,661.723 626.378,664.89 622.5,668C 601.167,668.667 579.833,668.667 558.5,668C 557.299,667.097 556.465,665.931 556,664.5C 555.5,617.501 555.333,570.501 555.5,523.5C 555.5,508.5 555.5,493.5 555.5,478.5C 570.167,478.5 584.833,478.5 599.5,478.5C 599.5,506.5 599.5,534.5 599.5,562.5 Z"/></g>
<g><path style="opacity:0.337" fill="#f1d6bf" d="M 198.5,477.5 C 214.167,477.5 229.833,477.5 245.5,477.5C 244.839,518.598 244.172,559.598 243.5,600.5C 243.5,559.833 243.5,519.167 243.5,478.5C 228.833,478.5 214.167,478.5 199.5,478.5C 198.833,478.5 198.5,478.167 198.5,477.5 Z"/></g>
<g><path style="opacity:0.998" fill="#f9c49d" d="M 537.5,623.5 C 537.667,637.504 537.5,651.504 537,665.5C 536.167,666.333 535.333,667.167 534.5,668C 513.167,668.667 491.833,668.667 470.5,668C 466.549,664.698 466.549,661.364 470.5,658C 478.46,652.431 485.96,646.264 493,639.5C 493.5,594.168 493.667,548.835 493.5,503.5C 493.5,495.167 493.5,486.833 493.5,478.5C 508.167,478.5 522.833,478.5 537.5,478.5C 537.5,526.833 537.5,575.167 537.5,623.5 Z"/></g>
<g><path style="opacity:0.137" fill="#f3ddcc" d="M 554.5,477.5 C 569.833,477.5 585.167,477.5 600.5,477.5C 600.831,506.005 600.498,534.338 599.5,562.5C 599.5,534.5 599.5,506.5 599.5,478.5C 584.833,478.5 570.167,478.5 555.5,478.5C 555.5,493.5 555.5,508.5 555.5,523.5C 554.504,508.342 554.17,493.009 554.5,477.5 Z"/></g>
<g><path style="opacity:0.294" fill="#f3d6c0" d="M 136.5,477.5 C 152.167,477.5 167.833,477.5 183.5,477.5C 182.837,537.264 182.17,596.931 181.5,656.5C 181.5,597.167 181.5,537.833 181.5,478.5C 166.833,478.5 152.167,478.5 137.5,478.5C 136.833,478.5 136.5,478.167 136.5,477.5 Z"/></g>
</svg>
