<?xml version="1.0" encoding="UTF-8"?>
<!DOCTYPE svg PUBLIC "-//W3C//DTD SVG 1.1//EN" "http://www.w3.org/Graphics/SVG/1.1/DTD/svg11.dtd">
<svg xmlns="http://www.w3.org/2000/svg" version="1.1" width="632px" height="861px" style="shape-rendering:geometricPrecision; text-rendering:geometricPrecision; image-rendering:optimizeQuality; fill-rule:evenodd; clip-rule:evenodd" xmlns:xlink="http://www.w3.org/1999/xlink">
<g><path style="opacity:1" fill="#8c7767" d="M 163.5,1.5 C 155.713,1.13179 148.046,1.79845 140.5,3.5C 142.277,2.39953 144.277,1.56619 146.5,1C 152.349,0.181634 158.015,0.348301 163.5,1.5 Z"/></g>
<g><path style="opacity:1" fill="#877160" d="M 464.5,-0.5 C 470.5,-0.5 476.5,-0.5 482.5,-0.5C 482.5,-0.166667 482.5,0.166667 482.5,0.5C 474.381,0.1141 466.381,0.780766 458.5,2.5C 460.5,1.5 462.5,0.5 464.5,-0.5 Z"/></g>
<g><path style="opacity:1" fill="#46260a" d="M 482.5,0.5 C 488.016,1.25803 492.683,3.59136 496.5,7.5C 496.427,9.02694 497.094,10.0269 498.5,10.5C 501.46,13.0997 502.794,16.433 502.5,20.5C 502.666,24.8461 502.499,29.1794 502,33.5C 499.332,36.3348 497.665,39.6682 497,43.5C 492.965,45.9116 488.799,48.0783 484.5,50C 475.447,50.846 466.447,50.5127 457.5,49C 448.631,42.673 443.965,34.173 443.5,23.5C 445.163,21.5615 445.829,19.2282 445.5,16.5C 448.626,14.8404 450.293,12.1737 450.5,8.5C 451.585,6.41311 453.251,5.07978 455.5,4.5C 457.027,4.57298 458.027,3.90632 458.5,2.5C 466.381,0.780766 474.381,0.1141 482.5,0.5 Z"/></g>
<g><path style="opacity:1" fill="#46250a" d="M 163.5,1.5 C 165.099,1.23219 166.432,1.56552 167.5,2.5C 170.38,5.66386 174.047,7.66386 178.5,8.5C 179.174,11.6218 180.007,14.6218 181,17.5C 169.552,11.7921 157.385,9.95879 144.5,12C 140.698,12.3784 137.198,13.5451 134,15.5C 132.605,15.2196 131.438,14.5529 130.5,13.5C 132.509,10.8036 134.509,8.13692 136.5,5.5C 137.514,4.32627 138.847,3.6596 140.5,3.5C 148.046,1.79845 155.713,1.13179 163.5,1.5 Z"/></g>
<g><path style="opacity:1" fill="#917a6a" d="M 458.5,2.5 C 458.027,3.90632 457.027,4.57298 455.5,4.5C 455.973,3.09368 456.973,2.42702 458.5,2.5 Z"/></g>
<g><path style="opacity:1" fill="#745743" d="M 167.5,2.5 C 171.933,3.21446 175.6,5.21446 178.5,8.5C 174.047,7.66386 170.38,5.66386 167.5,2.5 Z"/></g>
<g><path style="opacity:1" fill="#947e6c" d="M 496.5,7.5 C 497.906,7.97306 498.573,8.97306 498.5,10.5C 497.094,10.0269 496.427,9.02694 496.5,7.5 Z"/></g>
<g><path style="opacity:1" fill="#5a3314" d="M 136.5,5.5 C 134.509,8.13692 132.509,10.8036 130.5,13.5C 131.438,14.5529 132.605,15.2196 134,15.5C 137.198,13.5451 140.698,12.3784 144.5,12C 157.385,9.95879 169.552,11.7921 181,17.5C 180.007,14.6218 179.174,11.6218 178.5,8.5C 182.398,14.6081 186.564,20.6081 191,26.5C 192.454,29.0711 193.62,31.7378 194.5,34.5C 194.41,37.1522 195.076,39.4855 196.5,41.5C 198.721,50.967 199.055,60.6337 197.5,70.5C 196.835,72.6979 196.168,75.0312 195.5,77.5C 194.833,71.6805 194.167,66.0139 193.5,60.5C 192.5,45.6677 184.667,37.6677 170,36.5C 157.505,37.3518 145.005,37.5185 132.5,37C 122.514,41.1128 117.014,48.6128 116,59.5C 115.5,65.8246 115.334,72.1579 115.5,78.5C 113.902,76.1433 112.902,73.4766 112.5,70.5C 112.802,67.9407 112.468,65.6074 111.5,63.5C 110.186,51.7481 112.186,40.7481 117.5,30.5C 118.906,30.0269 119.573,29.0269 119.5,27.5C 123.159,23.0863 125.992,18.0863 128,12.5C 130.436,9.5532 133.269,7.21987 136.5,5.5 Z"/></g>
<g><path style="opacity:1" fill="#694d37" d="M 450.5,8.5 C 450.293,12.1737 448.626,14.8404 445.5,16.5C 446.169,13.1511 447.836,10.4844 450.5,8.5 Z"/></g>
<g><path style="opacity:1" fill="#988474" d="M 445.5,16.5 C 445.829,19.2282 445.163,21.5615 443.5,23.5C 443.167,23.5 442.833,23.5 442.5,23.5C 443.659,21.1454 444.659,18.8121 445.5,16.5 Z"/></g>
<g><path style="opacity:1" fill="#a18c78" d="M 442.5,23.5 C 442.262,25.4044 441.262,26.7377 439.5,27.5C 439.738,25.5956 440.738,24.2623 442.5,23.5 Z"/></g>
<g><path style="opacity:1" fill="#563011" d="M 502.5,20.5 C 506.662,24.0013 509.662,28.3346 511.5,33.5C 511.69,36.855 512.69,39.855 514.5,42.5C 515.341,44.3792 515.675,46.3792 515.5,48.5C 515.5,55.8333 515.5,63.1667 515.5,70.5C 513.847,81.4517 511.18,92.1184 507.5,102.5C 503.737,108.098 499.07,112.932 493.5,117C 486.801,117.162 480.134,116.662 473.5,115.5C 468.28,115.464 463.28,116.464 458.5,118.5C 449.609,115.277 443.275,109.277 439.5,100.5C 437.957,95.7427 436.124,91.0761 434,86.5C 433.222,79.2927 432.055,72.2927 430.5,65.5C 430.209,59.077 430.542,52.7436 431.5,46.5C 433.277,43.4954 434.277,40.1621 434.5,36.5C 435.41,33.0078 437.076,30.0078 439.5,27.5C 441.262,26.7377 442.262,25.4044 442.5,23.5C 442.833,23.5 443.167,23.5 443.5,23.5C 443.965,34.173 448.631,42.673 457.5,49C 466.447,50.5127 475.447,50.846 484.5,50C 488.799,48.0783 492.965,45.9116 497,43.5C 497.665,39.6682 499.332,36.3348 502,33.5C 502.499,29.1794 502.666,24.8461 502.5,20.5 Z"/></g>
<g><path style="opacity:1" fill="#a48a7a" d="M 119.5,27.5 C 119.573,29.0269 118.906,30.0269 117.5,30.5C 117.427,28.9731 118.094,27.9731 119.5,27.5 Z"/></g>
<g><path style="opacity:1" fill="#927763" d="M 511.5,33.5 C 513.472,36.0836 514.472,39.0836 514.5,42.5C 512.69,39.855 511.69,36.855 511.5,33.5 Z"/></g>
<g><path style="opacity:1" fill="#9b8370" d="M 194.5,34.5 C 195.924,36.5145 196.59,38.8478 196.5,41.5C 195.076,39.4855 194.41,37.1522 194.5,34.5 Z"/></g>
<g><path style="opacity:1" fill="#917661" d="M 434.5,36.5 C 434.277,40.1621 433.277,43.4954 431.5,46.5C 431.723,42.8379 432.723,39.5046 434.5,36.5 Z"/></g>
<g><path style="opacity:0.858" fill="#c3ae9c" d="M 515.5,48.5 C 516.198,55.7336 516.864,63.067 517.5,70.5C 516.833,70.5 516.167,70.5 515.5,70.5C 515.5,63.1667 515.5,55.8333 515.5,48.5 Z"/></g>
<g><path style="opacity:0.999" fill="#f8c593" d="M 193.5,60.5 C 193.812,67.4222 193.479,74.2555 192.5,81C 193.516,81.5194 194.182,82.3527 194.5,83.5C 193.528,86.4642 193.362,89.4642 194,92.5C 196.928,90.582 198.594,87.9153 199,84.5C 199.64,79.6327 199.14,74.9661 197.5,70.5C 200.112,71.2775 201.945,72.9441 203,75.5C 204.897,86.8666 200.897,95.1999 191,100.5C 187.941,109.963 182.441,117.63 174.5,123.5C 168.474,127.515 161.807,130.181 154.5,131.5C 147.515,131.006 141.515,128.34 136.5,123.5C 135.614,124.325 135.281,125.325 135.5,126.5C 133.067,121.54 129.567,117.207 125,113.5C 122.412,109.326 120.079,104.993 118,100.5C 108.359,94.5339 104.692,85.8672 107,74.5C 110.756,71.8533 112.256,68.1866 111.5,63.5C 112.468,65.6074 112.802,67.9407 112.5,70.5C 108.987,78.5736 109.987,85.9069 115.5,92.5C 115.472,87.792 115.472,83.1253 115.5,78.5C 115.334,72.1579 115.5,65.8246 116,59.5C 117.014,48.6128 122.514,41.1128 132.5,37C 145.005,37.5185 157.505,37.3518 170,36.5C 184.667,37.6677 192.5,45.6677 193.5,60.5 Z"/></g>
<g><path style="opacity:1" fill="#5c3514" d="M 166.5,64.5 C 171.179,64.3342 175.845,64.5008 180.5,65C 183.29,65.5609 185.623,66.8942 187.5,69C 183.822,68.0962 179.988,67.5962 176,67.5C 172.173,67.4076 168.507,68.0742 165,69.5C 164.167,69.1667 163.333,68.8333 162.5,68.5C 163.549,66.7844 164.882,65.4511 166.5,64.5 Z"/></g>
<g><path style="opacity:1" fill="#5c3416" d="M 127.5,64.5 C 131.846,64.3343 136.179,64.501 140.5,65C 143.251,65.516 145.584,66.6827 147.5,68.5C 146.667,68.8333 145.833,69.1667 145,69.5C 137.782,66.9539 130.615,66.9539 123.5,69.5C 123.167,69.1667 122.833,68.8333 122.5,68.5C 124.21,67.1128 125.877,65.7794 127.5,64.5 Z"/></g>
<g><path style="opacity:1" fill="#41250f" d="M 182.5,78.5 C 180.041,74.3801 178.374,74.7134 177.5,79.5C 177.649,78.448 177.483,77.448 177,76.5C 176.599,78.5212 175.432,79.8545 173.5,80.5C 171.459,79.293 170.126,77.6263 169.5,75.5C 168.508,75.3284 167.842,75.6618 167.5,76.5C 166.5,76.8333 165.833,77.5 165.5,78.5C 164.601,77.0057 164.935,75.5057 166.5,74C 173.456,70.0862 179.456,71.0862 184.5,77C 184.164,78.0299 183.497,78.5299 182.5,78.5 Z"/></g>
<g><path style="opacity:1" fill="#e7ad7f" d="M 430.5,65.5 C 432.055,72.2927 433.222,79.2927 434,86.5C 436.124,91.0761 437.957,95.7427 439.5,100.5C 439.167,100.5 438.833,100.5 438.5,100.5C 428.02,95.2156 423.52,86.549 425,74.5C 425.875,71.7854 427.708,70.4521 430.5,70.5C 430.5,68.8333 430.5,67.1667 430.5,65.5 Z"/></g>
<g><path style="opacity:1" fill="#e9ae80" d="M 515.5,70.5 C 516.167,70.5 516.833,70.5 517.5,70.5C 519.017,70.5106 520.184,71.1772 521,72.5C 523.453,80.487 522.12,87.8203 517,94.5C 514.815,96.5402 512.315,97.8736 509.5,98.5C 509.771,100.38 509.104,101.713 507.5,102.5C 511.18,92.1184 513.847,81.4517 515.5,70.5 Z"/></g>
<g><path style="opacity:1" fill="#3d220f" d="M 143.5,78.5 C 142.833,77.1667 141.833,76.1667 140.5,75.5C 139.163,76.3149 138.163,77.4815 137.5,79C 136.207,79.49 134.873,79.6567 133.5,79.5C 133.5,77.8333 133.5,76.1667 133.5,74.5C 132.209,74.2627 131.209,74.596 130.5,75.5C 129.167,76.5 127.833,77.5 126.5,78.5C 125.197,76.2431 125.864,74.4098 128.5,73C 135.291,70.3202 140.958,71.8202 145.5,77.5C 145.043,78.2975 144.376,78.6309 143.5,78.5 Z"/></g>
<g><path style="opacity:1" fill="#e3a779" d="M 112.5,70.5 C 112.902,73.4766 113.902,76.1433 115.5,78.5C 115.472,83.1253 115.472,87.792 115.5,92.5C 109.987,85.9069 108.987,78.5736 112.5,70.5 Z"/></g>
<g><path style="opacity:1" fill="#a88e7a" d="M 167.5,76.5 C 167.842,75.6618 168.508,75.3284 169.5,75.5C 169.5,76.8333 169.5,78.1667 169.5,79.5C 168.833,78.5 168.167,77.5 167.5,76.5 Z"/></g>
<g><path style="opacity:1" fill="#ece6dd" d="M 182.5,78.5 C 181.089,80.539 179.089,81.539 176.5,81.5C 176.833,80.8333 177.167,80.1667 177.5,79.5C 178.374,74.7134 180.041,74.3801 182.5,78.5 Z"/></g>
<g><path style="opacity:1" fill="#e7ad7a" d="M 193.5,60.5 C 194.167,66.0139 194.833,71.6805 195.5,77.5C 196.168,75.0312 196.835,72.6979 197.5,70.5C 199.14,74.9661 199.64,79.6327 199,84.5C 198.594,87.9153 196.928,90.582 194,92.5C 193.362,89.4642 193.528,86.4642 194.5,83.5C 194.182,82.3527 193.516,81.5194 192.5,81C 193.479,74.2555 193.812,67.4222 193.5,60.5 Z"/></g>
<g><path style="opacity:1" fill="#f1ede6" d="M 140.5,75.5 C 141.833,76.1667 142.833,77.1667 143.5,78.5C 142.625,80.8061 141.292,81.4728 139.5,80.5C 140.301,78.9582 140.634,77.2915 140.5,75.5 Z"/></g>
<g><path style="opacity:1" fill="#f4ede0" d="M 167.5,76.5 C 168.167,77.5 168.833,78.5 169.5,79.5C 169.833,80.5 170.5,81.1667 171.5,81.5C 168.953,82.231 166.953,81.231 165.5,78.5C 165.833,77.5 166.5,76.8333 167.5,76.5 Z"/></g>
<g><path style="opacity:1" fill="#5b3210" d="M 130.5,75.5 C 131.209,74.596 132.209,74.2627 133.5,74.5C 133.5,76.1667 133.5,77.8333 133.5,79.5C 134.873,79.6567 136.207,79.49 137.5,79C 138.163,77.4815 139.163,76.3149 140.5,75.5C 140.634,77.2915 140.301,78.9582 139.5,80.5C 137.621,81.3414 135.621,81.6747 133.5,81.5C 132.015,79.7512 131.015,77.7512 130.5,75.5 Z"/></g>
<g><path style="opacity:1" fill="#ebdfd2" d="M 130.5,75.5 C 131.015,77.7512 132.015,79.7512 133.5,81.5C 132.749,82.5735 131.749,82.7401 130.5,82C 128.456,81.5017 127.122,80.335 126.5,78.5C 127.833,77.5 129.167,76.5 130.5,75.5 Z"/></g>
<g><path style="opacity:1" fill="#63370e" d="M 169.5,75.5 C 170.126,77.6263 171.459,79.293 173.5,80.5C 175.432,79.8545 176.599,78.5212 177,76.5C 177.483,77.448 177.649,78.448 177.5,79.5C 177.167,80.1667 176.833,80.8333 176.5,81.5C 174.833,81.5 173.167,81.5 171.5,81.5C 170.5,81.1667 169.833,80.5 169.5,79.5C 169.5,78.1667 169.5,76.8333 169.5,75.5 Z"/></g>
<g><path style="opacity:1" fill="#c78457" d="M 141.5,107.5 C 149.948,110.111 158.448,110.111 167,107.5C 168.826,108.01 168.993,108.844 167.5,110C 158.854,111.749 150.188,111.916 141.5,110.5C 141.5,109.5 141.5,108.5 141.5,107.5 Z"/></g>
<g><path style="opacity:1" fill="#f9c795" d="M 438.5,100.5 C 438.833,100.5 439.167,100.5 439.5,100.5C 443.275,109.277 449.609,115.277 458.5,118.5C 463.28,116.464 468.28,115.464 473.5,115.5C 480.134,116.662 486.801,117.162 493.5,117C 499.07,112.932 503.737,108.098 507.5,102.5C 504.722,109.692 500.222,115.692 494,120.5C 493.333,128.167 493.333,135.833 494,143.5C 495.049,145.384 496.549,146.718 498.5,147.5C 498.662,149.527 498.495,151.527 498,153.5C 493.903,160.594 488.736,166.761 482.5,172C 477.012,176.12 471.345,176.454 465.5,173C 457.17,166.491 451.17,158.325 447.5,148.5C 450.146,147.35 451.979,145.35 453,142.5C 454.059,135.52 454.393,128.52 454,121.5C 447.404,115.426 442.238,108.426 438.5,100.5 Z"/></g>
<g><path style="opacity:0.999" fill="#f9c694" d="M 135.5,126.5 C 148.441,137.009 161.441,137.009 174.5,126.5C 174.959,133.243 175.792,139.909 177,146.5C 182.048,150.107 187.548,152.774 193.5,154.5C 195.388,170.441 191.888,185.107 183,198.5C 171.691,210.762 157.858,214.596 141.5,210C 129.226,203.299 121.393,193.132 118,179.5C 116.251,171.263 115.418,162.929 115.5,154.5C 121.894,153.053 127.728,150.386 133,146.5C 134.164,139.893 134.997,133.227 135.5,126.5 Z"/></g>
<g><path style="opacity:1" fill="#e9a977" d="M 174.5,123.5 C 174.5,124.5 174.5,125.5 174.5,126.5C 161.441,137.009 148.441,137.009 135.5,126.5C 135.281,125.325 135.614,124.325 136.5,123.5C 141.515,128.34 147.515,131.006 154.5,131.5C 161.807,130.181 168.474,127.515 174.5,123.5 Z"/></g>
<g><path style="opacity:1" fill="#b1a39d" d="M 498.5,147.5 C 504.319,149.656 509.985,151.99 515.5,154.5C 505.717,171.922 501.217,190.589 502,210.5C 503.298,217.418 506.298,223.418 511,228.5C 515.542,233.188 521.042,235.855 527.5,236.5C 526.354,245.72 524.688,254.72 522.5,263.5C 506.675,262.504 490.675,262.17 474.5,262.5C 473.5,262.5 472.5,262.5 471.5,262.5C 455.833,262.5 440.167,262.5 424.5,262.5C 422.957,254.266 421.29,245.933 419.5,237.5C 439.754,230.348 448.254,216.014 445,194.5C 443.572,184.782 440.905,175.449 437,166.5C 435.258,163.6 433.758,160.6 432.5,157.5C 431.735,156.388 430.735,155.721 429.5,155.5C 435.121,152.4 441.121,150.067 447.5,148.5C 451.17,158.325 457.17,166.491 465.5,173C 471.345,176.454 477.012,176.12 482.5,172C 488.736,166.761 493.903,160.594 498,153.5C 498.495,151.527 498.662,149.527 498.5,147.5 Z"/></g>
<g><path style="opacity:1" fill="#b1a29c" d="M 115.5,154.5 C 115.418,162.929 116.251,171.263 118,179.5C 121.393,193.132 129.226,203.299 141.5,210C 157.858,214.596 171.691,210.762 183,198.5C 191.888,185.107 195.388,170.441 193.5,154.5C 201.085,155.473 208.085,157.806 214.5,161.5C 213.5,161.5 212.5,161.5 211.5,161.5C 211.048,183.403 212.048,205.236 214.5,227C 214.333,230.167 214.167,233.333 214,236.5C 212.293,238.909 211.46,241.575 211.5,244.5C 209.863,246.316 208.363,248.316 207,250.5C 206.427,254.848 205.76,259.181 205,263.5C 204.722,264.416 204.222,265.082 203.5,265.5C 171.337,263.368 139.003,263.035 106.5,264.5C 105.023,260.767 104.189,256.767 104,252.5C 102.694,249.379 100.86,246.713 98.5,244.5C 93.8904,234.398 93.3904,224.064 97,213.5C 98.0264,195.847 98.5264,178.181 98.5,160.5C 98.6107,159.883 98.944,159.383 99.5,159C 104.763,157.185 110.097,155.685 115.5,154.5 Z"/></g>
<g><path style="opacity:1" fill="#edb07f" d="M 120.5,162.5 C 126.653,161.347 132.986,161.18 139.5,162C 141.5,162.833 143.5,163.667 145.5,164.5C 136.963,165.587 128.63,164.92 120.5,162.5 Z"/></g>
<g><path style="opacity:1" fill="#ecae7c" d="M 170.5,161.5 C 176.509,161.334 182.509,161.501 188.5,162C 179.912,164.206 171.245,165.039 162.5,164.5C 165.092,163.083 167.759,162.083 170.5,161.5 Z"/></g>
<g><path style="opacity:1" fill="#f9c795" d="M 98.5,160.5 C 98.5264,178.181 98.0264,195.847 97,213.5C 93.3904,224.064 93.8904,234.398 98.5,244.5C 94.5713,278.502 88.738,312.168 81,345.5C 76.5349,359.895 71.8682,374.229 67,388.5C 65.2345,410.563 59.5678,431.563 50,451.5C 48.2419,453.765 46.0752,455.432 43.5,456.5C 44.161,448.339 46.161,440.505 49.5,433C 47.8359,431.233 46.6692,431.733 46,434.5C 44.7497,442.181 42.583,449.514 39.5,456.5C 39.6236,457.107 39.9569,457.44 40.5,457.5C 38.7608,459.382 36.5942,460.715 34,461.5C 30.9243,461.244 27.7576,461.077 24.5,461C 23.5842,460.722 22.9175,460.222 22.5,459.5C 23.5862,459.38 24.2528,458.713 24.5,457.5C 27.0441,447.647 30.0441,437.98 33.5,428.5C 31.9928,427.261 30.8261,427.595 30,429.5C 27.4692,438.926 24.6359,448.259 21.5,457.5C 19.3199,455.969 18.3199,453.802 18.5,451C 19.5763,441.028 21.9096,431.362 25.5,422C 25.3333,421.5 25.1667,421 25,420.5C 22.6005,426.079 18.4338,428.413 12.5,427.5C 12.3398,425.801 12.5065,424.134 13,422.5C 16.8563,415.924 20.523,409.258 24,402.5C 30.031,396.134 36.3643,390.134 43,384.5C 45.6574,369.555 47.9908,354.555 50,339.5C 54.0211,320.084 58.3544,300.75 63,281.5C 65.7402,250.431 69.0735,219.431 73,188.5C 75.9022,178.513 81.4022,170.346 89.5,164C 92.3093,162.259 95.3093,161.092 98.5,160.5 Z"/></g>
<g><path style="opacity:0.999" fill="#f9c795" d="M 214.5,161.5 C 223.031,164.529 229.198,170.195 233,178.5C 234.618,182.068 235.951,185.735 237,189.5C 240.861,220.105 244.194,250.771 247,281.5C 250.999,299.497 254.999,317.497 259,335.5C 261.574,351.854 264.241,368.187 267,384.5C 273.636,390.134 279.969,396.134 286,402.5C 289.159,409.488 292.826,416.154 297,422.5C 297.494,424.134 297.66,425.801 297.5,427.5C 291.566,428.413 287.4,426.079 285,420.5C 287.459,430.349 289.626,440.349 291.5,450.5C 291.445,453.36 290.445,455.693 288.5,457.5C 285.23,448.665 282.397,439.665 280,430.5C 279.331,427.733 278.164,427.233 276.5,429C 279.742,439.577 283.408,449.743 287.5,459.5C 287.389,460.117 287.056,460.617 286.5,461C 283.633,461.801 280.966,461.634 278.5,460.5C 279.598,459.399 279.765,458.066 279,456.5C 276.135,448.239 273.469,439.906 271,431.5C 270.586,431.043 270.086,430.709 269.5,430.5C 268.386,431.723 268.219,433.056 269,434.5C 272.345,443.036 275.179,451.702 277.5,460.5C 273.693,460.949 270.359,459.616 267.5,456.5C 268.376,456.631 269.043,456.298 269.5,455.5C 267.12,447.602 265.12,439.602 263.5,431.5C 262.5,431.5 261.5,431.5 260.5,431.5C 263.262,439.64 265.262,447.973 266.5,456.5C 261.133,453.814 257.633,449.481 256,443.5C 248.99,425.793 244.656,407.46 243,388.5C 233.972,364.75 226.972,340.417 222,315.5C 218.09,291.88 214.59,268.214 211.5,244.5C 211.46,241.575 212.293,238.909 214,236.5C 214.167,233.333 214.333,230.167 214.5,227C 212.048,205.236 211.048,183.403 211.5,161.5C 212.5,161.5 213.5,161.5 214.5,161.5 Z"/></g>
<g><path style="opacity:1" fill="#f9c694" d="M 424.5,262.5 C 440.167,262.5 455.833,262.5 471.5,262.5C 471.011,285.983 471.511,309.317 473,332.5C 474.489,309.317 474.989,285.983 474.5,262.5C 490.675,262.17 506.675,262.504 522.5,263.5C 519.917,281.079 518.75,298.745 519,316.5C 526.124,333.743 532.957,351.077 539.5,368.5C 496.003,369.499 452.337,369.832 408.5,369.5C 408.5,367.833 408.5,366.167 408.5,364.5C 415.556,348.389 422.056,332.055 428,315.5C 428.403,297.716 427.237,280.049 424.5,262.5 Z"/></g>
<g><path style="opacity:1" fill="#f9c793" d="M 203.5,265.5 C 201.735,282.143 200.569,298.809 200,315.5C 201.131,319.894 202.465,324.227 204,328.5C 209.326,339.653 214.16,350.986 218.5,362.5C 216.123,363.887 213.457,364.721 210.5,365C 171.958,371.148 133.458,370.982 95,364.5C 93.3189,364.392 92.1522,363.725 91.5,362.5C 95.4944,350.841 100.328,339.507 106,328.5C 107.741,323.946 109.074,319.279 110,314.5C 109.523,297.802 108.357,281.135 106.5,264.5C 139.003,263.035 171.337,263.368 203.5,265.5 Z"/></g>
<g><path style="opacity:1" fill="#f9c795" d="M 515.5,154.5 C 525.236,156.134 534.236,159.634 542.5,165C 548.587,171.002 552.754,178.168 555,186.5C 559.385,218.736 563.052,251.069 566,283.5C 574.513,315.733 580.847,348.4 585,381.5C 585.333,382.5 585.667,383.5 586,384.5C 590.229,388.362 594.729,391.862 599.5,395C 606.182,404.025 611.849,413.692 616.5,424C 615.038,426.201 613.038,426.867 610.5,426C 607.333,424.167 604.833,421.667 603,418.5C 604.976,426.403 606.976,434.403 609,442.5C 609.667,446.5 609.667,450.5 609,454.5C 608.292,455.381 607.458,456.047 606.5,456.5C 603.397,446.613 600.564,436.613 598,426.5C 596.989,425.663 595.822,425.33 594.5,425.5C 598.147,435.278 601.314,445.278 604,455.5C 604.417,456.756 605.25,457.423 606.5,457.5C 605.359,459.243 603.692,460.243 601.5,460.5C 598.194,459.837 594.861,459.337 591.5,459C 589.676,458.34 588.343,457.173 587.5,455.5C 588.043,455.44 588.376,455.107 588.5,454.5C 585.541,446.389 583.208,438.056 581.5,429.5C 580.5,429.5 579.5,429.5 578.5,429.5C 580.608,438.371 583.275,447.038 586.5,455.5C 582.298,454.137 579.131,451.47 577,447.5C 568.848,430.047 564.182,411.714 563,392.5C 555.524,370.74 548.858,348.74 543,326.5C 537.467,296.636 532.8,266.636 529,236.5C 528.221,233.903 527.721,233.903 527.5,236.5C 521.042,235.855 515.542,233.188 511,228.5C 506.298,223.418 503.298,217.418 502,210.5C 501.217,190.589 505.717,171.922 515.5,154.5 Z"/></g>
<g><path style="opacity:1" fill="#f0b582" d="M 471.5,262.5 C 472.5,262.5 473.5,262.5 474.5,262.5C 474.989,285.983 474.489,309.317 473,332.5C 471.511,309.317 471.011,285.983 471.5,262.5 Z"/></g>
<g><path style="opacity:1" fill="#e5a16f" d="M 152.5,333.5 C 153.833,333.5 155.167,333.5 156.5,333.5C 156.662,335.527 156.495,337.527 156,339.5C 153.522,340.804 152.022,339.97 151.5,337C 151.989,335.862 152.322,334.695 152.5,333.5 Z"/></g>
<g><path style="opacity:1" fill="#f9c794" d="M 429.5,155.5 C 430.735,155.721 431.735,156.388 432.5,157.5C 433.758,160.6 435.258,163.6 437,166.5C 440.905,175.449 443.572,184.782 445,194.5C 448.254,216.014 439.754,230.348 419.5,237.5C 419.649,236.448 419.483,235.448 419,234.5C 418.08,237.101 417.413,239.768 417,242.5C 412.993,271.894 408.659,301.227 404,330.5C 397.663,350.178 391.33,369.844 385,389.5C 383.221,410.951 377.555,431.284 368,450.5C 366.242,452.765 364.075,454.432 361.5,455.5C 363.026,446.593 365.359,437.926 368.5,429.5C 367.5,429.5 366.5,429.5 365.5,429.5C 363.971,437.751 361.638,445.751 358.5,453.5C 358.543,454.416 358.876,455.083 359.5,455.5C 358.657,457.173 357.324,458.34 355.5,459C 352.139,459.337 348.806,459.837 345.5,460.5C 343.308,460.243 341.641,459.243 340.5,457.5C 341.497,457.53 342.164,457.03 342.5,456C 345.301,446.596 348.301,437.263 351.5,428C 351.167,427.167 350.833,426.333 350.5,425.5C 346.665,435.684 343.331,446.017 340.5,456.5C 339.542,456.047 338.708,455.381 338,454.5C 337.523,442.23 339.69,430.396 344.5,419C 342.76,420.74 340.427,423.073 337.5,426C 334.407,427.026 332.073,426.193 330.5,423.5C 334.913,415.005 339.58,406.672 344.5,398.5C 348.044,394.793 352.044,391.626 356.5,389C 359.135,387.039 360.969,384.539 362,381.5C 366.154,348.398 372.487,315.731 381,283.5C 384.008,250.747 387.675,218.081 392,185.5C 398.097,167.576 410.597,157.576 429.5,155.5 Z"/></g>
<g><path style="opacity:1" fill="#edb07d" d="M 412.5,206.5 C 413.586,206.62 414.253,207.287 414.5,208.5C 417.079,217.684 417.912,227.017 417,236.5C 413.778,226.777 412.278,216.777 412.5,206.5 Z"/></g>
<g><path style="opacity:1" fill="#e3bb98" d="M 408.5,364.5 C 408.5,366.167 408.5,367.833 408.5,369.5C 452.337,369.832 496.003,369.499 539.5,368.5C 540.338,368.842 540.672,369.508 540.5,370.5C 495.833,370.5 451.167,370.5 406.5,370.5C 406.875,368.302 407.542,366.302 408.5,364.5 Z"/></g>
<g><path style="opacity:1" fill="#b1a39d" d="M 91.5,362.5 C 92.1522,363.725 93.3189,364.392 95,364.5C 133.458,370.982 171.958,371.148 210.5,365C 213.457,364.721 216.123,363.887 218.5,362.5C 223.65,372.417 226.65,383.084 227.5,394.5C 217.909,393.778 208.575,394.945 199.5,398C 184.984,404.081 171.651,411.915 159.5,421.5C 156.5,421.5 153.5,421.5 150.5,421.5C 140.83,414.007 130.497,407.507 119.5,402C 107.78,396.487 95.4467,393.987 82.5,394.5C 83.5563,384.606 85.723,374.939 89,365.5C 89.3768,364.058 90.2101,363.058 91.5,362.5 Z"/></g>
<g><path style="opacity:1" fill="#b1a39d" d="M 406.5,370.5 C 451.167,370.5 495.833,370.5 540.5,370.5C 542.328,373.135 543.495,376.135 544,379.5C 545.601,386.438 546.767,393.438 547.5,400.5C 528.005,419.245 504.672,430.578 477.5,434.5C 474.833,434.5 472.167,434.5 469.5,434.5C 442.331,431.003 418.998,419.669 399.5,400.5C 400.017,393.4 401.183,386.4 403,379.5C 403.505,376.135 404.672,373.135 406.5,370.5 Z"/></g>
<g><path style="opacity:1" fill="#fac795" d="M 82.5,394.5 C 95.4467,393.987 107.78,396.487 119.5,402C 130.497,407.507 140.83,414.007 150.5,421.5C 154.855,493.574 153.855,565.574 147.5,637.5C 147.108,647.06 147.775,656.393 149.5,665.5C 153.073,703.933 153.406,742.433 150.5,781C 151.52,796.16 152.52,811.327 153.5,826.5C 153.247,831.524 152.747,836.524 152,841.5C 150.681,843.487 148.848,844.654 146.5,845C 135.631,845.495 124.964,844.161 114.5,841C 106.506,838.018 104.673,832.851 109,825.5C 114.835,817.168 120.168,808.501 125,799.5C 125.48,788.442 124.813,777.442 123,766.5C 119.138,748.053 114.805,729.719 110,711.5C 105.564,691.744 103.064,671.744 102.5,651.5C 104.176,631.86 104.676,612.193 104,592.5C 97.3666,546.665 89.6999,500.999 81,455.5C 78.683,435.081 79.183,414.748 82.5,394.5 Z"/></g>
<g><path style="opacity:1" fill="#f9c795" d="M 227.5,394.5 C 231.158,416.804 231.325,439.137 228,461.5C 219.585,504.655 212.252,547.988 206,591.5C 205.329,611.86 205.829,632.194 207.5,652.5C 206.848,670.684 204.682,688.684 201,706.5C 196.176,726.13 191.509,745.797 187,765.5C 185.126,776.772 184.46,788.106 185,799.5C 191.229,810.371 197.395,821.205 203.5,832C 203.031,835.804 201.031,838.471 197.5,840C 189.427,842.939 181.094,844.439 172.5,844.5C 168.146,845.967 163.812,845.634 159.5,843.5C 157.208,837.804 156.208,831.804 156.5,825.5C 157.406,810.823 158.406,796.156 159.5,781.5C 157.795,752.185 157.295,722.852 158,693.5C 159.55,675.189 160.716,656.856 161.5,638.5C 158.909,592.703 157.242,546.869 156.5,501C 156.608,474.46 157.608,447.96 159.5,421.5C 171.651,411.915 184.984,404.081 199.5,398C 208.575,394.945 217.909,393.778 227.5,394.5 Z"/></g>
<g><path style="opacity:1" fill="#f9c794" d="M 547.5,400.5 C 549,419.517 548.833,438.517 547,457.5C 537.603,503.884 529.936,550.551 524,597.5C 524.283,615.993 524.783,634.493 525.5,653C 525.338,677.143 522.504,700.976 517,724.5C 512.686,741.089 508.686,757.755 505,774.5C 503.926,783.645 503.093,792.812 502.5,802C 502.236,806.406 503.069,810.573 505,814.5C 511.172,818.252 517.172,822.252 523,826.5C 524.538,831.169 523.038,834.336 518.5,836C 509.228,839.202 499.895,842.202 490.5,845C 483.126,846.766 477.292,844.6 473,838.5C 470.516,842.994 466.683,845.328 461.5,845.5C 449.126,843.042 437.126,839.375 425.5,834.5C 424.218,832.821 423.218,830.987 422.5,829C 424.468,825.194 427.468,822.694 431.5,821.5C 430.028,824.255 430.695,826.422 433.5,828C 432.167,829 432.167,830 433.5,831C 432.833,831.333 432.167,831.667 431.5,832C 433.797,832.018 436.131,831.851 438.5,831.5C 438.286,829.856 438.62,828.356 439.5,827C 438.833,826.667 438.167,826.333 437.5,826C 439.568,825.313 441.568,825.48 443.5,826.5C 444.5,825.833 445.5,825.167 446.5,824.5C 454.125,825.34 461.792,825.34 469.5,824.5C 469.663,822.143 469.497,819.81 469,817.5C 467.837,821.213 466.337,821.213 464.5,817.5C 466.645,816.318 466.645,814.818 464.5,813C 466.107,813.019 467.774,813.185 469.5,813.5C 469.5,811.167 469.5,808.833 469.5,806.5C 470.578,811.713 471.745,817.046 473,822.5C 474.381,820.365 475.381,818.032 476,815.5C 476.333,811.167 476.667,806.833 477,802.5C 476.615,763.171 476.615,723.837 477,684.5C 479.156,669.573 480.323,654.573 480.5,639.5C 479.29,616.176 478.29,592.842 477.5,569.5C 476.632,529.174 476.299,488.84 476.5,448.5C 476.5,448.167 476.5,447.833 476.5,447.5C 477.485,443.366 477.818,439.032 477.5,434.5C 504.672,430.578 528.005,419.245 547.5,400.5 Z"/></g>
<g><path style="opacity:1" fill="#f9c794" d="M 399.5,400.5 C 418.998,419.669 442.331,431.003 469.5,434.5C 469.182,439.032 469.515,443.366 470.5,447.5C 472.089,510.883 470.755,574.216 466.5,637.5C 467.733,657.495 468.899,677.495 470,697.5C 470.225,733.833 470.059,770.167 469.5,806.5C 469.5,808.833 469.5,811.167 469.5,813.5C 467.774,813.185 466.107,813.019 464.5,813C 466.645,814.818 466.645,816.318 464.5,817.5C 466.337,821.213 467.837,821.213 469,817.5C 469.497,819.81 469.663,822.143 469.5,824.5C 461.792,825.34 454.125,825.34 446.5,824.5C 445.5,825.167 444.5,825.833 443.5,826.5C 441.568,825.48 439.568,825.313 437.5,826C 438.167,826.333 438.833,826.667 439.5,827C 438.62,828.356 438.286,829.856 438.5,831.5C 436.131,831.851 433.797,832.018 431.5,832C 432.167,831.667 432.833,831.333 433.5,831C 432.167,830 432.167,829 433.5,828C 430.695,826.422 430.028,824.255 431.5,821.5C 435.756,819.112 439.59,816.112 443,812.5C 444.421,794.952 443.088,777.618 439,760.5C 431.765,735.231 426.598,709.564 423.5,683.5C 422.304,660.648 422.304,637.314 423.5,613.5C 423.15,594.698 421.317,576.031 418,557.5C 412.258,524.124 406.258,490.791 400,457.5C 398.167,438.516 398,419.516 399.5,400.5 Z"/></g>
<g><path style="opacity:1" fill="#e9ac79" d="M 587.5,430.5 C 588.5,430.5 589.5,430.5 590.5,430.5C 592.756,439.605 595.423,448.605 598.5,457.5C 597.675,458.386 596.675,458.719 595.5,458.5C 593.458,449.033 590.791,439.7 587.5,430.5 Z"/></g>
<g><path style="opacity:1" fill="#eaab79" d="M 267.5,456.5 C 267.167,456.5 266.833,456.5 266.5,456.5C 265.262,447.973 263.262,439.64 260.5,431.5C 261.5,431.5 262.5,431.5 263.5,431.5C 265.12,439.602 267.12,447.602 269.5,455.5C 269.043,456.298 268.376,456.631 267.5,456.5 Z"/></g>
<g><path style="opacity:1" fill="#fefcfa" d="M 476.5,447.5 C 476.5,447.833 476.5,448.167 476.5,448.5C 475.833,465.33 475.5,482.33 475.5,499.5C 475.29,523.021 475.956,546.354 477.5,569.5C 478.29,592.842 479.29,616.176 480.5,639.5C 480.323,654.573 479.156,669.573 477,684.5C 476.615,723.837 476.615,763.171 477,802.5C 476.667,806.833 476.333,811.167 476,815.5C 475.381,818.032 474.381,820.365 473,822.5C 471.745,817.046 470.578,811.713 469.5,806.5C 470.059,770.167 470.225,733.833 470,697.5C 468.899,677.495 467.733,657.495 466.5,637.5C 470.755,574.216 472.089,510.883 470.5,447.5C 470.5,443.5 470.5,439.5 470.5,435.5C 472.5,435.5 474.5,435.5 476.5,435.5C 476.5,439.5 476.5,443.5 476.5,447.5 Z"/></g>
<g><path style="opacity:1" fill="#ebac7b" d="M 22.5,459.5 C 22.1667,458.833 21.8333,458.167 21.5,457.5C 24.6359,448.259 27.4692,438.926 30,429.5C 30.8261,427.595 31.9928,427.261 33.5,428.5C 30.0441,437.98 27.0441,447.647 24.5,457.5C 24.2528,458.713 23.5862,459.38 22.5,459.5 Z"/></g>
<g><path style="opacity:1" fill="#eaac7a" d="M 361.5,455.5 C 360.833,455.5 360.167,455.5 359.5,455.5C 358.876,455.083 358.543,454.416 358.5,453.5C 361.638,445.751 363.971,437.751 365.5,429.5C 366.5,429.5 367.5,429.5 368.5,429.5C 365.359,437.926 363.026,446.593 361.5,455.5 Z"/></g>
<g><path style="opacity:1" fill="#ebac7a" d="M 606.5,456.5 C 606.5,456.833 606.5,457.167 606.5,457.5C 605.25,457.423 604.417,456.756 604,455.5C 601.314,445.278 598.147,435.278 594.5,425.5C 595.822,425.33 596.989,425.663 598,426.5C 600.564,436.613 603.397,446.613 606.5,456.5 Z"/></g>
<g><path style="opacity:1" fill="#ebac7a" d="M 38.5,430.5 C 39.5,430.5 40.5,430.5 41.5,430.5C 39.5122,438.297 37.0122,445.964 34,453.5C 33.5045,455.473 33.3379,457.473 33.5,459.5C 32.5,459.5 31.5,459.5 30.5,459.5C 33.1643,449.839 35.8309,440.173 38.5,430.5 Z"/></g>
<g><path style="opacity:1" fill="#eaaa7a" d="M 43.5,456.5 C 42.609,457.11 41.609,457.443 40.5,457.5C 39.9569,457.44 39.6236,457.107 39.5,456.5C 42.583,449.514 44.7497,442.181 46,434.5C 46.6692,431.733 47.8359,431.233 49.5,433C 46.161,440.505 44.161,448.339 43.5,456.5 Z"/></g>
<g><path style="opacity:1" fill="#f4dac2" d="M 469.5,434.5 C 472.167,434.5 474.833,434.5 477.5,434.5C 477.818,439.032 477.485,443.366 476.5,447.5C 476.5,443.5 476.5,439.5 476.5,435.5C 474.5,435.5 472.5,435.5 470.5,435.5C 470.5,439.5 470.5,443.5 470.5,447.5C 469.515,443.366 469.182,439.032 469.5,434.5 Z"/></g>
<g><path style="opacity:1" fill="#ecac7a" d="M 288.5,457.5 C 288.167,458.167 287.833,458.833 287.5,459.5C 283.408,449.743 279.742,439.577 276.5,429C 278.164,427.233 279.331,427.733 280,430.5C 282.397,439.665 285.23,448.665 288.5,457.5 Z"/></g>
<g><path style="opacity:1" fill="#eaaa78" d="M 340.5,457.5 C 340.5,457.167 340.5,456.833 340.5,456.5C 343.331,446.017 346.665,435.684 350.5,425.5C 350.833,426.333 351.167,427.167 351.5,428C 348.301,437.263 345.301,446.596 342.5,456C 342.164,457.03 341.497,457.53 340.5,457.5 Z"/></g>
<g><path style="opacity:1" fill="#ecad7c" d="M 587.5,455.5 C 587.167,455.5 586.833,455.5 586.5,455.5C 583.275,447.038 580.608,438.371 578.5,429.5C 579.5,429.5 580.5,429.5 581.5,429.5C 583.208,438.056 585.541,446.389 588.5,454.5C 588.376,455.107 588.043,455.44 587.5,455.5 Z"/></g>
<g><path style="opacity:1" fill="#ebaa79" d="M 357.5,430.5 C 358.497,430.47 359.164,430.97 359.5,432C 356.646,440.877 353.646,449.71 350.5,458.5C 350.167,457.833 349.833,457.167 349.5,456.5C 351.992,447.696 354.659,439.029 357.5,430.5 Z"/></g>
<g><path style="opacity:1" fill="#ebab7a" d="M 278.5,460.5 C 278.167,460.5 277.833,460.5 277.5,460.5C 275.179,451.702 272.345,443.036 269,434.5C 268.219,433.056 268.386,431.723 269.5,430.5C 270.086,430.709 270.586,431.043 271,431.5C 273.469,439.906 276.135,448.239 279,456.5C 279.765,458.066 279.598,459.399 278.5,460.5 Z"/></g>
<g><path style="opacity:1" fill="#fad5af" d="M 476.5,448.5 C 476.299,488.84 476.632,529.174 477.5,569.5C 475.956,546.354 475.29,523.021 475.5,499.5C 475.5,482.33 475.833,465.33 476.5,448.5 Z"/></g>
<g><path style="opacity:1" fill="#edae7c" d="M 439.5,608.5 C 445.283,607.553 450.283,608.887 454.5,612.5C 448.128,611.904 441.794,612.571 435.5,614.5C 434.833,614.167 434.167,613.833 433.5,613.5C 435.571,611.815 437.571,610.148 439.5,608.5 Z"/></g>
<g><path style="opacity:1" fill="#ebad7b" d="M 495.5,608.5 C 501.666,607.779 506.999,609.445 511.5,613.5C 505.325,612.559 498.992,612.559 492.5,613.5C 492.167,613.167 491.833,612.833 491.5,612.5C 493.188,611.479 494.521,610.145 495.5,608.5 Z"/></g>
<g><path style="opacity:1" fill="#ecaf7b" d="M 116.5,610.5 C 116.735,609.903 117.235,609.57 118,609.5C 124.249,612.371 130.749,613.204 137.5,612C 133.765,617.604 128.765,618.938 122.5,616C 120.955,613.62 118.955,611.786 116.5,610.5 Z"/></g>
<g><path style="opacity:1" fill="#edaf7c" d="M 190.5,609.5 C 191.376,609.369 192.043,609.702 192.5,610.5C 188.403,615.775 183.07,617.942 176.5,617C 174.649,615.316 172.982,613.483 171.5,611.5C 172.576,610.344 173.576,610.511 174.5,612C 178.5,612.667 182.5,612.667 186.5,612C 188.066,611.392 189.4,610.558 190.5,609.5 Z"/></g>
<g><path style="opacity:0.548" fill="#fad2ad" d="M 423.5,613.5 C 422.304,637.314 422.304,660.648 423.5,683.5C 422.021,673.541 421.354,663.374 421.5,653C 421.526,639.644 422.193,626.478 423.5,613.5 Z"/></g>
<g><path style="opacity:0.857" fill="#fcd8b4" d="M 147.5,637.5 C 148.53,646.657 149.196,655.99 149.5,665.5C 147.775,656.393 147.108,647.06 147.5,637.5 Z"/></g>
<g><path style="opacity:1" fill="#eaa975" d="M 172.5,844.5 C 171.167,844.5 169.833,844.5 168.5,844.5C 168.261,840.158 167.927,835.824 167.5,831.5C 168.822,831.33 169.989,831.663 171,832.5C 172.015,836.44 172.515,840.44 172.5,844.5 Z"/></g>
<g><path style="opacity:1" fill="#eaab77" d="M 139.5,831.5 C 141.484,831.484 142.484,832.484 142.5,834.5C 141.673,837.783 141.34,841.116 141.5,844.5C 139.833,844.5 138.167,844.5 136.5,844.5C 136.867,839.992 137.867,835.659 139.5,831.5 Z"/></g>
</svg>
