<?xml version="1.0" encoding="UTF-8"?>
<!DOCTYPE svg PUBLIC "-//W3C//DTD SVG 1.1//EN" "http://www.w3.org/Graphics/SVG/1.1/DTD/svg11.dtd">
<svg xmlns="http://www.w3.org/2000/svg" version="1.1" width="693px" height="659px" style="shape-rendering:geometricPrecision; text-rendering:geometricPrecision; image-rendering:optimizeQuality; fill-rule:evenodd; clip-rule:evenodd" xmlns:xlink="http://www.w3.org/1999/xlink">
<g><path style="opacity:1" fill="#b99f90" d="M 512.5,4.5 C 520.545,3.23579 528.545,3.56912 536.5,5.5C 528.51,4.97694 520.51,4.6436 512.5,4.5 Z"/></g>
<g><path style="opacity:1" fill="#9d7762" d="M 179.5,4.5 C 179.5,4.83333 179.5,5.16667 179.5,5.5C 167.815,5.36492 156.148,5.69825 144.5,6.5C 155.914,3.62908 167.581,2.96241 179.5,4.5 Z"/></g>
<g><path style="opacity:1" fill="#a98976" d="M 179.5,5.5 C 179.5,5.16667 179.5,4.83333 179.5,4.5C 183.36,4.80838 187.026,5.47505 190.5,6.5C 186.766,6.67726 183.099,6.34392 179.5,5.5 Z"/></g>
<g><path style="opacity:1" fill="#693513" d="M 179.5,5.5 C 183.099,6.34392 186.766,6.67726 190.5,6.5C 208.231,9.35248 224.231,16.1858 238.5,27C 243.079,31.0738 247.079,35.5738 250.5,40.5C 250.427,42.0269 251.094,43.0269 252.5,43.5C 252.045,46.9308 253.379,49.2642 256.5,50.5C 258.794,53.3695 260.128,56.7029 260.5,60.5C 260.723,64.1621 261.723,67.4954 263.5,70.5C 268.681,89.1565 268.681,107.823 263.5,126.5C 262.215,129.589 261.549,132.922 261.5,136.5C 258.312,145.724 253.979,154.39 248.5,162.5C 248.004,150.457 247.004,138.457 245.5,126.5C 244.406,115.383 241.573,104.716 237,94.5C 236.255,93.0096 235.088,92.0096 233.5,91.5C 206.147,100.273 179.147,99.2731 152.5,88.5C 151.614,89.325 151.281,90.325 151.5,91.5C 151.5,94.8333 151.5,98.1667 151.5,101.5C 147.19,100.92 142.857,100.586 138.5,100.5C 126.357,97.9282 115.691,92.4282 106.5,84C 105.365,83.2506 104.365,83.4173 103.5,84.5C 89.2426,105.633 83.5759,128.966 86.5,154.5C 86.7845,156.415 86.4511,158.081 85.5,159.5C 81.0672,153.073 77.0672,146.406 73.5,139.5C 72.7333,135.851 71.3999,132.518 69.5,129.5C 68.7659,128.292 68.4326,126.959 68.5,125.5C 68.7406,123.102 68.0739,121.102 66.5,119.5C 64.3443,108.579 64.011,97.5792 65.5,86.5C 66.9238,84.4855 67.5905,82.1522 67.5,79.5C 67.5,79.1667 67.5,78.8333 67.5,78.5C 69.8337,76.8243 70.8337,74.491 70.5,71.5C 71.3045,68.5578 72.6378,65.8911 74.5,63.5C 75.9063,63.0269 76.573,62.0269 76.5,60.5C 76.427,58.9731 77.0937,57.9731 78.5,57.5C 79.9063,57.0269 80.573,56.0269 80.5,54.5C 81.1667,53.1667 82.1667,52.1667 83.5,51.5C 84.9063,51.0269 85.573,50.0269 85.5,48.5C 88.8456,43.7957 92.1789,39.129 95.5,34.5C 97.2624,33.7377 98.2624,32.4044 98.5,30.5C 99.5,28.8333 100.833,27.5 102.5,26.5C 105.089,25.5806 107.089,23.914 108.5,21.5C 112.708,17.3151 117.708,14.3151 123.5,12.5C 125.698,12.8799 127.365,12.2132 128.5,10.5C 133.58,8.23011 138.913,6.89678 144.5,6.5C 156.148,5.69825 167.815,5.36492 179.5,5.5 Z"/></g>
<g><path style="opacity:1" fill="#683412" d="M 512.5,4.5 C 520.51,4.6436 528.51,4.97694 536.5,5.5C 549.035,6.568 560.701,10.2347 571.5,16.5C 572.486,19.7604 574.819,21.4271 578.5,21.5C 581.784,23.117 584.451,25.4503 586.5,28.5C 586.738,30.4044 587.738,31.7377 589.5,32.5C 591.262,33.2623 592.262,34.5956 592.5,36.5C 592.427,38.0269 593.094,39.0269 594.5,39.5C 595.674,40.5137 596.34,41.847 596.5,43.5C 597.419,46.0892 599.086,48.0892 601.5,49.5C 603.914,50.9108 605.581,52.9108 606.5,55.5C 606.427,57.0269 607.094,58.0269 608.5,58.5C 609.906,58.9731 610.573,59.9731 610.5,61.5C 610.427,63.0269 611.094,64.0269 612.5,64.5C 614.008,66.1815 615.008,68.1815 615.5,70.5C 615.12,72.698 615.787,74.3646 617.5,75.5C 617.5,75.8333 617.5,76.1667 617.5,76.5C 617.41,79.1522 618.076,81.4855 619.5,83.5C 622.127,97.0378 622.127,110.704 619.5,124.5C 617.837,126.438 617.171,128.772 617.5,131.5C 617.5,131.833 617.5,132.167 617.5,132.5C 612.199,148.102 605.532,163.102 597.5,177.5C 603.679,180.01 608.679,184.01 612.5,189.5C 612.427,191.027 613.094,192.027 614.5,192.5C 616.293,194.426 617.293,196.759 617.5,199.5C 617.41,202.152 618.076,204.485 619.5,206.5C 620.859,213.218 623.859,219.218 628.5,224.5C 627.675,225.386 626.675,225.719 625.5,225.5C 622.753,225.187 620.086,225.52 617.5,226.5C 617.624,227.107 617.957,227.44 618.5,227.5C 621.293,230.403 624.626,232.569 628.5,234C 624.605,237.8 619.938,239.966 614.5,240.5C 605.716,240.916 597.049,240.249 588.5,238.5C 583.321,237.083 578.988,234.417 575.5,230.5C 574.738,228.738 573.404,227.738 571.5,227.5C 570.5,227.167 569.833,226.5 569.5,225.5C 569.203,222.946 569.203,220.446 569.5,218C 567.68,216.311 565.68,216.145 563.5,217.5C 563.372,215.91 562.705,214.577 561.5,213.5C 533.751,225.398 506.084,225.398 478.5,213.5C 478.371,215.216 478.038,216.883 477.5,218.5C 465.544,236.816 448.878,244.15 427.5,240.5C 425.485,239.076 423.152,238.41 420.5,238.5C 418.326,238.25 416.659,237.25 415.5,235.5C 415.5,234.833 415.5,234.167 415.5,233.5C 418.128,231.512 420.795,229.512 423.5,227.5C 424.043,227.44 424.376,227.107 424.5,226.5C 421.572,225.516 418.572,225.183 415.5,225.5C 415.167,224.833 414.833,224.167 414.5,223.5C 416.754,219.993 418.754,216.327 420.5,212.5C 422.163,210.562 422.829,208.228 422.5,205.5C 423.924,203.485 424.59,201.152 424.5,198.5C 424.5,198.167 424.5,197.833 424.5,197.5C 427.093,195.992 428.426,193.659 428.5,190.5C 430.262,189.738 431.262,188.404 431.5,186.5C 433.749,185.92 435.415,184.587 436.5,182.5C 438.612,180.229 441.279,178.896 444.5,178.5C 445.573,177.749 445.74,176.749 445,175.5C 435.345,160.531 428.178,144.531 423.5,127.5C 422.659,125.621 422.325,123.621 422.5,121.5C 422.461,117.267 421.795,113.267 420.5,109.5C 419.189,98.784 419.522,88.1173 421.5,77.5C 423.04,75.1617 423.706,72.4951 423.5,69.5C 423.232,67.901 423.566,66.5676 424.5,65.5C 426.31,62.855 427.31,59.855 427.5,56.5C 428.465,51.9024 430.465,47.9024 433.5,44.5C 434.906,44.0269 435.573,43.0269 435.5,41.5C 436.419,38.9108 438.086,36.9108 440.5,35.5C 442.833,33.8333 444.833,31.8333 446.5,29.5C 449.601,26.0669 453.268,23.4002 457.5,21.5C 459.027,21.573 460.027,20.9063 460.5,19.5C 466.878,15.1469 473.878,12.1469 481.5,10.5C 485.162,10.2766 488.495,9.2766 491.5,7.5C 498.224,5.49172 505.224,4.49172 512.5,4.5 Z"/></g>
<g><path style="opacity:1" fill="#966f57" d="M 491.5,7.5 C 488.495,9.2766 485.162,10.2766 481.5,10.5C 484.505,8.7234 487.838,7.7234 491.5,7.5 Z"/></g>
<g><path style="opacity:1" fill="#a37e6b" d="M 128.5,10.5 C 127.365,12.2132 125.698,12.8799 123.5,12.5C 124.93,11.4625 126.597,10.7959 128.5,10.5 Z"/></g>
<g><path style="opacity:1" fill="#8f6349" d="M 571.5,16.5 C 574.135,17.8109 576.469,19.4776 578.5,21.5C 574.819,21.4271 572.486,19.7604 571.5,16.5 Z"/></g>
<g><path style="opacity:1" fill="#9d7f6a" d="M 460.5,19.5 C 460.027,20.9063 459.027,21.573 457.5,21.5C 457.973,20.0937 458.973,19.427 460.5,19.5 Z"/></g>
<g><path style="opacity:1" fill="#946b52" d="M 108.5,21.5 C 107.089,23.914 105.089,25.5806 102.5,26.5C 103.911,24.086 105.911,22.4194 108.5,21.5 Z"/></g>
<g><path style="opacity:1" fill="#ad8d7b" d="M 586.5,28.5 C 588.262,29.2623 589.262,30.5956 589.5,32.5C 587.738,31.7377 586.738,30.4044 586.5,28.5 Z"/></g>
<g><path style="opacity:1" fill="#a68a74" d="M 98.5,30.5 C 98.2624,32.4044 97.2624,33.7377 95.5,34.5C 95.7376,32.5956 96.7376,31.2623 98.5,30.5 Z"/></g>
<g><path style="opacity:1" fill="#ae8c7a" d="M 446.5,29.5 C 444.833,31.8333 442.833,33.8333 440.5,35.5C 441.5,32.5 443.5,30.5 446.5,29.5 Z"/></g>
<g><path style="opacity:0.863" fill="#ae9683" d="M 592.5,36.5 C 593.906,36.9731 594.573,37.9731 594.5,39.5C 593.094,39.0269 592.427,38.0269 592.5,36.5 Z"/></g>
<g><path style="opacity:1" fill="#a78773" d="M 250.5,40.5 C 251.906,40.9731 252.573,41.9731 252.5,43.5C 251.094,43.0269 250.427,42.0269 250.5,40.5 Z"/></g>
<g><path style="opacity:1" fill="#a78c78" d="M 435.5,41.5 C 435.573,43.0269 434.906,44.0269 433.5,44.5C 433.427,42.9731 434.094,41.9731 435.5,41.5 Z"/></g>
<g><path style="opacity:1" fill="#b99e8d" d="M 596.5,43.5 C 598.914,44.9108 600.581,46.9108 601.5,49.5C 599.086,48.0892 597.419,46.0892 596.5,43.5 Z"/></g>
<g><path style="opacity:1" fill="#8c5d42" d="M 252.5,43.5 C 254.588,45.3356 255.921,47.6689 256.5,50.5C 253.379,49.2642 252.045,46.9308 252.5,43.5 Z"/></g>
<g><path style="opacity:1" fill="#a78674" d="M 85.5,48.5 C 85.573,50.0269 84.9063,51.0269 83.5,51.5C 83.427,49.9731 84.0937,48.9731 85.5,48.5 Z"/></g>
<g><path style="opacity:1" fill="#ab8c7a" d="M 80.5,54.5 C 80.573,56.0269 79.9063,57.0269 78.5,57.5C 78.427,55.9731 79.0937,54.9731 80.5,54.5 Z"/></g>
<g><path style="opacity:1" fill="#9f7c68" d="M 606.5,55.5 C 607.906,55.9731 608.573,56.9731 608.5,58.5C 607.094,58.0269 606.427,57.0269 606.5,55.5 Z"/></g>
<g><path style="opacity:1" fill="#a4836e" d="M 427.5,56.5 C 427.31,59.855 426.31,62.855 424.5,65.5C 424.528,62.0836 425.528,59.0836 427.5,56.5 Z"/></g>
<g><path style="opacity:1" fill="#a3856f" d="M 76.5,60.5 C 76.573,62.0269 75.9063,63.0269 74.5,63.5C 74.427,61.9731 75.0937,60.9731 76.5,60.5 Z"/></g>
<g><path style="opacity:1" fill="#98755d" d="M 260.5,60.5 C 262.277,63.5046 263.277,66.8379 263.5,70.5C 261.723,67.4954 260.723,64.1621 260.5,60.5 Z"/></g>
<g><path style="opacity:0.863" fill="#b19783" d="M 610.5,61.5 C 611.906,61.9731 612.573,62.9731 612.5,64.5C 611.094,64.0269 610.427,63.0269 610.5,61.5 Z"/></g>
<g><path style="opacity:1" fill="#a98976" d="M 615.5,70.5 C 616.537,71.9303 617.204,73.597 617.5,75.5C 615.787,74.3646 615.12,72.698 615.5,70.5 Z"/></g>
<g><path style="opacity:1" fill="#8f6a54" d="M 70.5,71.5 C 70.8337,74.491 69.8337,76.8243 67.5,78.5C 67.9348,75.8427 68.9348,73.5093 70.5,71.5 Z"/></g>
<g><path style="opacity:0.678" fill="#b69d8e" d="M 423.5,69.5 C 423.706,72.4951 423.04,75.1617 421.5,77.5C 421.565,74.5718 422.232,71.9052 423.5,69.5 Z"/></g>
<g><path style="opacity:1" fill="#aa8b74" d="M 617.5,76.5 C 618.924,78.5145 619.59,80.8478 619.5,83.5C 618.076,81.4855 617.41,79.1522 617.5,76.5 Z"/></g>
<g><path style="opacity:0.898" fill="#b09685" d="M 67.5,79.5 C 67.5905,82.1522 66.9238,84.4855 65.5,86.5C 65.4095,83.8478 66.0762,81.5145 67.5,79.5 Z"/></g>
<g><path style="opacity:1" fill="#f9c39c" d="M 138.5,100.5 C 142.9,102.104 147.566,102.771 152.5,102.5C 152.815,98.6286 152.482,94.9619 151.5,91.5C 151.281,90.325 151.614,89.325 152.5,88.5C 179.147,99.2731 206.147,100.273 233.5,91.5C 235.088,92.0096 236.255,93.0096 237,94.5C 241.573,104.716 244.406,115.383 245.5,126.5C 246.294,137.815 246.627,149.148 246.5,160.5C 245.717,162.343 245.05,164.343 244.5,166.5C 247.844,167.757 251.177,167.757 254.5,166.5C 264.099,158.107 266.433,148.107 261.5,136.5C 261.549,132.922 262.215,129.589 263.5,126.5C 263.338,128.527 263.505,130.527 264,132.5C 271.688,137.896 274.354,145.23 272,154.5C 267.252,169.296 257.085,176.963 241.5,177.5C 242.602,178.176 243.602,178.842 244.5,179.5C 242.61,179.297 241.11,179.963 240,181.5C 237.232,189.253 233.232,196.253 228,202.5C 221.891,208.124 215.725,213.457 209.5,218.5C 201.762,221.247 193.928,223.913 186,226.5C 185.501,232.157 185.334,237.824 185.5,243.5C 189.874,244.344 194.207,245.344 198.5,246.5C 197.299,262.736 189.299,274.236 174.5,281C 158.301,283.151 146.468,276.984 139,262.5C 136.996,257.988 135.496,253.322 134.5,248.5C 133.675,247.614 132.675,247.281 131.5,247.5C 135.681,246.34 140.015,245.34 144.5,244.5C 145.833,244.5 147.167,244.5 148.5,244.5C 148.5,240.833 148.5,237.167 148.5,233.5C 160.478,236.095 172.478,236.095 184.5,233.5C 184.5,231.167 184.5,228.833 184.5,226.5C 172.471,227.712 160.471,227.712 148.5,226.5C 148.158,225.662 147.492,225.328 146.5,225.5C 138.775,223.974 131.442,221.307 124.5,217.5C 123.817,217.863 123.15,218.196 122.5,218.5C 116.012,212.516 109.512,206.183 103,199.5C 98.7639,192.332 94.5973,185.332 90.5,178.5C 90.6107,177.883 90.944,177.383 91.5,177C 71.0506,175.882 60.8839,165.049 61,144.5C 62.0602,139.438 64.7268,135.438 69,132.5C 69.4828,131.552 69.6495,130.552 69.5,129.5C 71.3999,132.518 72.7333,135.851 73.5,139.5C 72.8953,141.026 71.7286,142.026 70,142.5C 68.5385,152.418 71.7052,160.584 79.5,167C 82.5541,167.821 85.5541,167.655 88.5,166.5C 87.8736,164.343 87.5403,162.343 87.5,160.5C 87.7947,158.265 87.4614,156.265 86.5,154.5C 83.5759,128.966 89.2426,105.633 103.5,84.5C 104.365,83.4173 105.365,83.2506 106.5,84C 115.691,92.4282 126.357,97.9282 138.5,100.5 Z"/></g>
<g><path style="opacity:1" fill="#cf9974" d="M 151.5,91.5 C 152.482,94.9619 152.815,98.6286 152.5,102.5C 147.566,102.771 142.9,102.104 138.5,100.5C 142.857,100.586 147.19,100.92 151.5,101.5C 151.5,98.1667 151.5,94.8333 151.5,91.5 Z"/></g>
<g><path style="opacity:0.714" fill="#b59d8d" d="M 420.5,109.5 C 421.795,113.267 422.461,117.267 422.5,121.5C 421.011,117.764 420.344,113.764 420.5,109.5 Z"/></g>
<g><path style="opacity:1" fill="#6c3612" d="M 117.5,117.5 C 125.432,116.682 132.932,118.016 140,121.5C 141.141,124.857 139.975,126.857 136.5,127.5C 132.449,125.982 128.282,124.982 124,124.5C 118.66,125.516 113.494,126.683 108.5,128C 107.424,126.274 107.257,124.441 108,122.5C 111.181,120.662 114.347,118.995 117.5,117.5 Z"/></g>
<g><path style="opacity:1" fill="#6e3815" d="M 201.5,117.5 C 209.669,116.549 217.335,118.049 224.5,122C 227.388,125.172 226.722,127.339 222.5,128.5C 217.983,126.549 213.317,125.216 208.5,124.5C 203.855,125.665 199.188,126.499 194.5,127C 192.675,125.534 192.175,123.701 193,121.5C 195.738,119.711 198.572,118.378 201.5,117.5 Z"/></g>
<g><path style="opacity:1" fill="#b19584" d="M 66.5,119.5 C 68.0739,121.102 68.7406,123.102 68.5,125.5C 67.2616,123.786 66.595,121.786 66.5,119.5 Z"/></g>
<g><path style="opacity:1" fill="#a88d77" d="M 619.5,124.5 C 619.279,127.067 618.612,129.401 617.5,131.5C 617.171,128.772 617.837,126.438 619.5,124.5 Z"/></g>
<g><path style="opacity:1" fill="#6a3613" d="M 120.5,135.5 C 132.4,136.588 136.567,142.921 133,154.5C 129.865,160.989 125.032,162.823 118.5,160C 111.237,150.983 111.903,142.816 120.5,135.5 Z"/></g>
<g><path style="opacity:0.99" fill="#f7c29c" d="M 423.5,127.5 C 428.178,144.531 435.345,160.531 445,175.5C 445.74,176.749 445.573,177.749 444.5,178.5C 426.888,176.057 416.554,165.89 413.5,148C 414.152,140.359 417.818,134.693 424.5,131C 423.663,129.989 423.33,128.822 423.5,127.5 Z"/></g>
<g><path style="opacity:1" fill="#6a3513" d="M 205.5,135.5 C 217.77,135.987 222.27,142.321 219,154.5C 214.327,162.223 208.66,163.223 202,157.5C 197.728,149.156 198.894,141.822 205.5,135.5 Z"/></g>
<g><path style="opacity:1" fill="#f6c29c" d="M 617.5,132.5 C 622.945,136.219 625.945,141.386 626.5,148C 624.041,164.959 614.374,174.792 597.5,177.5C 605.532,163.102 612.199,148.102 617.5,132.5 Z"/></g>
<g><path style="opacity:1" fill="#f0ac87" d="M 73.5,139.5 C 77.0672,146.406 81.0672,153.073 85.5,159.5C 86.0059,161.105 86.6726,161.439 87.5,160.5C 87.5403,162.343 87.8736,164.343 88.5,166.5C 85.5541,167.655 82.5541,167.821 79.5,167C 71.7052,160.584 68.5385,152.418 70,142.5C 71.7286,142.026 72.8953,141.026 73.5,139.5 Z"/></g>
<g><path style="opacity:1" fill="#eeab87" d="M 261.5,136.5 C 266.433,148.107 264.099,158.107 254.5,166.5C 251.177,167.757 247.844,167.757 244.5,166.5C 245.05,164.343 245.717,162.343 246.5,160.5C 246.343,161.873 246.51,163.207 247,164.5C 247.717,163.956 248.217,163.289 248.5,162.5C 253.979,154.39 258.312,145.724 261.5,136.5 Z"/></g>
<g><path style="opacity:1" fill="#a7714d" d="M 245.5,126.5 C 247.004,138.457 248.004,150.457 248.5,162.5C 248.217,163.289 247.717,163.956 247,164.5C 246.51,163.207 246.343,161.873 246.5,160.5C 246.627,149.148 246.294,137.815 245.5,126.5 Z"/></g>
<g><path style="opacity:1" fill="#a46c48" d="M 86.5,154.5 C 87.4614,156.265 87.7947,158.265 87.5,160.5C 86.6726,161.439 86.0059,161.105 85.5,159.5C 86.4511,158.081 86.7845,156.415 86.5,154.5 Z"/></g>
<g><path style="opacity:1" fill="#d48866" d="M 163.5,157.5 C 166.93,157.107 170.096,157.773 173,159.5C 173.483,160.448 173.649,161.448 173.5,162.5C 162.591,161.402 158.591,166.069 161.5,176.5C 157.13,175.959 155.13,173.459 155.5,169C 155.494,166.7 155.994,164.534 157,162.5C 159.326,160.934 161.492,159.268 163.5,157.5 Z"/></g>
<g><path style="opacity:1" fill="#f7ab8c" d="M 111.5,165.5 C 117.198,165.003 122.364,166.336 127,169.5C 130.134,176.286 128.634,181.619 122.5,185.5C 109.678,189.151 103.512,184.485 104,171.5C 106.134,168.847 108.634,166.847 111.5,165.5 Z"/></g>
<g><path style="opacity:1" fill="#f7ab8c" d="M 213.5,166.5 C 219.024,165.708 223.857,167.041 228,170.5C 231.043,176.994 229.543,182.161 223.5,186C 215.968,188.144 209.801,186.311 205,180.5C 202.757,172.603 205.59,167.936 213.5,166.5 Z"/></g>
<g><path style="opacity:1" fill="#f18faf" d="M 563.5,173.5 C 567.846,173.334 572.179,173.501 576.5,174C 578.779,174.473 580.779,175.473 582.5,177C 566.63,179.366 558.963,188.533 559.5,204.5C 553.45,199.182 551.283,192.515 553,184.5C 555.762,180.055 559.262,176.389 563.5,173.5 Z"/></g>
<g><path style="opacity:1" fill="#f18eaf" d="M 466.5,172.5 C 476.826,172.002 484.326,176.335 489,185.5C 490.619,193.31 488.286,199.644 482,204.5C 483.672,193.795 479.839,185.962 470.5,181C 466.465,179.932 462.465,178.766 458.5,177.5C 461.011,175.457 463.678,173.791 466.5,172.5 Z"/></g>
<g><path style="opacity:1" fill="#a6836e" d="M 86.5,179.5 C 86.0269,180.906 85.0269,181.573 83.5,181.5C 83.9731,180.094 84.9731,179.427 86.5,179.5 Z"/></g>
<g><path style="opacity:1" fill="#6a3614" d="M 90.5,178.5 C 94.5973,185.332 98.7639,192.332 103,199.5C 109.512,206.183 116.012,212.516 122.5,218.5C 110.607,236.782 93.9403,244.115 72.5,240.5C 69.855,238.69 66.855,237.69 63.5,237.5C 62.8967,235.548 63.23,233.548 64.5,231.5C 65.5,229.833 66.8333,228.5 68.5,227.5C 69.0431,227.44 69.3764,227.107 69.5,226.5C 66.9135,225.52 64.2469,225.187 61.5,225.5C 61.1667,225.5 60.8333,225.5 60.5,225.5C 60.1667,224.833 59.8333,224.167 59.5,223.5C 59.8333,222.5 60.5,221.833 61.5,221.5C 62.9063,221.027 63.573,220.027 63.5,218.5C 63.5569,217.391 63.8902,216.391 64.5,215.5C 66.2132,214.365 66.8799,212.698 66.5,210.5C 66.5,210.167 66.5,209.833 66.5,209.5C 68.6059,205.509 69.9392,201.176 70.5,196.5C 72.7591,189.614 77.0925,184.614 83.5,181.5C 85.0269,181.573 86.0269,180.906 86.5,179.5C 87.7079,178.766 89.0413,178.433 90.5,178.5 Z"/></g>
<g><path style="opacity:1" fill="#6b3715" d="M 244.5,179.5 C 253.712,183.246 259.712,189.912 262.5,199.5C 262.41,202.152 263.076,204.485 264.5,206.5C 265.9,213.3 268.9,219.3 273.5,224.5C 272.675,225.386 271.675,225.719 270.5,225.5C 267.753,225.187 265.086,225.52 262.5,226.5C 262.624,227.107 262.957,227.44 263.5,227.5C 266.293,230.403 269.626,232.569 273.5,234C 269.541,237.659 264.874,239.992 259.5,241C 252.986,241.82 246.653,241.653 240.5,240.5C 238.485,239.076 236.152,238.41 233.5,238.5C 228.835,237.172 224.835,234.839 221.5,231.5C 221.027,230.094 220.027,229.427 218.5,229.5C 217.42,227.955 217.42,226.455 218.5,225C 218.167,224.5 217.833,224 217.5,223.5C 216.28,224.711 215.113,224.711 214,223.5C 214,222.167 214,220.833 214,219.5C 212.989,220.337 211.822,220.67 210.5,220.5C 209.662,220.158 209.328,219.492 209.5,218.5C 215.725,213.457 221.891,208.124 228,202.5C 233.232,196.253 237.232,189.253 240,181.5C 241.11,179.963 242.61,179.297 244.5,179.5 Z"/></g>
<g><path style="opacity:1" fill="#9b7c67" d="M 436.5,182.5 C 435.415,184.587 433.749,185.92 431.5,186.5C 432.585,184.413 434.251,183.08 436.5,182.5 Z"/></g>
<g><path style="opacity:1" fill="#ae8b77" d="M 431.5,186.5 C 431.262,188.404 430.262,189.738 428.5,190.5C 428.738,188.596 429.738,187.262 431.5,186.5 Z"/></g>
<g><path style="opacity:0.847" fill="#ae9582" d="M 612.5,189.5 C 613.906,189.973 614.573,190.973 614.5,192.5C 613.094,192.027 612.427,191.027 612.5,189.5 Z"/></g>
<g><path style="opacity:1" fill="#d38764" d="M 141.5,188.5 C 143.527,188.338 145.527,188.505 147.5,189C 152.225,194.111 158.059,196.278 165,195.5C 172.017,195.898 178.184,193.898 183.5,189.5C 185.743,188.526 188.076,188.192 190.5,188.5C 190.785,190.288 190.452,191.955 189.5,193.5C 180,201.715 169,204.548 156.5,202C 150.204,200.943 145.371,197.777 142,192.5C 141.51,191.207 141.343,189.873 141.5,188.5 Z"/></g>
<g><path style="opacity:1" fill="#99715b" d="M 428.5,190.5 C 428.426,193.659 427.093,195.992 424.5,197.5C 425.079,194.669 426.412,192.336 428.5,190.5 Z"/></g>
<g><path style="opacity:1" fill="#9c7860" d="M 424.5,198.5 C 424.59,201.152 423.924,203.485 422.5,205.5C 422.41,202.848 423.076,200.515 424.5,198.5 Z"/></g>
<g><path style="opacity:1" fill="#9a7762" d="M 70.5,196.5 C 69.9392,201.176 68.6059,205.509 66.5,209.5C 67.0777,204.835 68.4111,200.501 70.5,196.5 Z"/></g>
<g><path style="opacity:1" fill="#a38570" d="M 262.5,199.5 C 263.924,201.515 264.59,203.848 264.5,206.5C 263.076,204.485 262.41,202.152 262.5,199.5 Z"/></g>
<g><path style="opacity:1" fill="#a58773" d="M 617.5,199.5 C 618.924,201.515 619.59,203.848 619.5,206.5C 618.076,204.485 617.41,202.152 617.5,199.5 Z"/></g>
<g><path style="opacity:1" fill="#ad917e" d="M 422.5,205.5 C 422.829,208.228 422.163,210.562 420.5,212.5C 420.721,209.933 421.388,207.599 422.5,205.5 Z"/></g>
<g><path style="opacity:1" fill="#ac8975" d="M 66.5,210.5 C 66.8799,212.698 66.2132,214.365 64.5,215.5C 64.7959,213.597 65.4625,211.93 66.5,210.5 Z"/></g>
<g><path style="opacity:1" fill="#7c4b30" d="M 569.5,225.5 C 567.147,223.14 565.147,220.473 563.5,217.5C 565.68,216.145 567.68,216.311 569.5,218C 569.203,220.446 569.203,222.946 569.5,225.5 Z"/></g>
<g><path style="opacity:0.965" fill="#b08f7d" d="M 63.5,218.5 C 63.573,220.027 62.9063,221.027 61.5,221.5C 61.427,219.973 62.0937,218.973 63.5,218.5 Z"/></g>
<g><path style="opacity:1" fill="#83573c" d="M 218.5,229.5 C 215.119,227.12 212.453,224.12 210.5,220.5C 211.822,220.67 212.989,220.337 214,219.5C 214,220.833 214,222.167 214,223.5C 215.113,224.711 216.28,224.711 217.5,223.5C 217.833,224 218.167,224.5 218.5,225C 217.42,226.455 217.42,227.955 218.5,229.5 Z"/></g>
<g><path style="opacity:0.255" fill="#bead9f" d="M 59.5,223.5 C 59.8333,224.167 60.1667,224.833 60.5,225.5C 58.5759,225.289 58.2426,224.623 59.5,223.5 Z"/></g>
<g><path style="opacity:0.439" fill="#ad998a" d="M 414.5,223.5 C 414.833,224.167 415.167,224.833 415.5,225.5C 413.576,225.289 413.243,224.623 414.5,223.5 Z"/></g>
<g><path style="opacity:1" fill="#ad9180" d="M 61.5,225.5 C 64.2469,225.187 66.9135,225.52 69.5,226.5C 69.3764,227.107 69.0431,227.44 68.5,227.5C 66.1667,226.833 63.8333,226.167 61.5,225.5 Z"/></g>
<g><path style="opacity:1" fill="#b19784" d="M 270.5,225.5 C 268.167,226.167 265.833,226.833 263.5,227.5C 262.957,227.44 262.624,227.107 262.5,226.5C 265.086,225.52 267.753,225.187 270.5,225.5 Z"/></g>
<g><path style="opacity:1" fill="#b39987" d="M 415.5,225.5 C 418.572,225.183 421.572,225.516 424.5,226.5C 424.376,227.107 424.043,227.44 423.5,227.5C 420.833,226.833 418.167,226.167 415.5,225.5 Z"/></g>
<g><path style="opacity:0.984" fill="#b39a89" d="M 625.5,225.5 C 623.167,226.167 620.833,226.833 618.5,227.5C 617.957,227.44 617.624,227.107 617.5,226.5C 620.086,225.52 622.753,225.187 625.5,225.5 Z"/></g>
<g><path style="opacity:1" fill="#eea17b" d="M 148.5,226.5 C 160.471,227.712 172.471,227.712 184.5,226.5C 184.5,228.833 184.5,231.167 184.5,233.5C 172.478,236.095 160.478,236.095 148.5,233.5C 148.5,231.167 148.5,228.833 148.5,226.5 Z"/></g>
<g><path style="opacity:1" fill="#b0927f" d="M 571.5,227.5 C 573.404,227.738 574.738,228.738 575.5,230.5C 573.596,230.262 572.262,229.262 571.5,227.5 Z"/></g>
<g><path style="opacity:1" fill="#b99a8a" d="M 218.5,229.5 C 220.027,229.427 221.027,230.094 221.5,231.5C 219.973,231.573 218.973,230.906 218.5,229.5 Z"/></g>
<g><path style="opacity:1" fill="#f9c39d" d="M 563.5,217.5 C 555.521,220.993 547.355,223.993 539,226.5C 538.501,232.157 538.334,237.824 538.5,243.5C 542.894,244.349 547.228,245.349 551.5,246.5C 550.657,248.173 549.324,249.34 547.5,250C 542.034,252.397 536.367,254.23 530.5,255.5C 522.142,255.621 513.809,255.288 505.5,254.5C 500.324,253.72 495.324,252.22 490.5,250C 489.177,249.184 488.511,248.017 488.5,246.5C 492.772,245.349 497.106,244.349 501.5,243.5C 501.666,237.824 501.499,232.157 501,226.5C 493.012,224.254 485.178,221.588 477.5,218.5C 478.038,216.883 478.371,215.216 478.5,213.5C 506.084,225.398 533.751,225.398 561.5,213.5C 562.705,214.577 563.372,215.91 563.5,217.5 Z"/></g>
<g><path style="opacity:1" fill="#83573b" d="M 64.5,231.5 C 63.23,233.548 62.8967,235.548 63.5,237.5C 56.6445,234.711 56.9779,232.711 64.5,231.5 Z"/></g>
<g><path style="opacity:1" fill="#a38572" d="M 415.5,233.5 C 415.5,234.167 415.5,234.833 415.5,235.5C 412.833,234.833 412.833,234.167 415.5,233.5 Z"/></g>
<g><path style="opacity:0.102" fill="#fbdccb" d="M 146.5,225.5 C 147.492,225.328 148.158,225.662 148.5,226.5C 148.5,228.833 148.5,231.167 148.5,233.5C 148.5,237.167 148.5,240.833 148.5,244.5C 147.167,244.5 145.833,244.5 144.5,244.5C 145.209,243.596 146.209,243.263 147.5,243.5C 147.789,237.409 147.455,231.409 146.5,225.5 Z"/></g>
<g><path style="opacity:1" fill="#997159" d="M 63.5,237.5 C 66.855,237.69 69.855,238.69 72.5,240.5C 69.0836,240.472 66.0836,239.472 63.5,237.5 Z"/></g>
<g><path style="opacity:1" fill="#a07c65" d="M 420.5,238.5 C 423.152,238.41 425.485,239.076 427.5,240.5C 424.848,240.59 422.515,239.924 420.5,238.5 Z"/></g>
<g><path style="opacity:1" fill="#a27e67" d="M 233.5,238.5 C 236.152,238.41 238.485,239.076 240.5,240.5C 237.848,240.59 235.515,239.924 233.5,238.5 Z"/></g>
<g><path style="opacity:1" fill="#a1816b" d="M 588.5,238.5 C 597.049,240.249 605.716,240.916 614.5,240.5C 608.013,241.654 601.346,241.821 594.5,241C 592.277,240.434 590.277,239.6 588.5,238.5 Z"/></g>
<g><path style="opacity:1" fill="#f691b3" d="M 198.5,246.5 C 203.917,247.521 209.25,248.854 214.5,250.5C 213.898,268.145 215.732,285.479 220,302.5C 220.5,335.832 220.667,369.165 220.5,402.5C 184.831,405.156 149.164,405.156 113.5,402.5C 112.985,407.48 113.652,412.146 115.5,416.5C 114.5,416.5 113.5,416.5 112.5,416.5C 112.5,378.833 112.5,341.167 112.5,303.5C 118.058,286.41 120.058,268.744 118.5,250.5C 122.787,249.293 127.12,248.293 131.5,247.5C 132.675,247.281 133.675,247.614 134.5,248.5C 135.496,253.322 136.996,257.988 139,262.5C 146.468,276.984 158.301,283.151 174.5,281C 189.299,274.236 197.299,262.736 198.5,246.5 Z"/></g>
<g><path style="opacity:1" fill="#f691b3" d="M 488.5,246.5 C 488.511,248.017 489.177,249.184 490.5,250C 495.324,252.22 500.324,253.72 505.5,254.5C 510.065,256.04 514.898,256.707 520,256.5C 523.683,256.499 527.183,256.165 530.5,255.5C 536.367,254.23 542.034,252.397 547.5,250C 549.324,249.34 550.657,248.173 551.5,246.5C 556.917,247.521 562.25,248.854 567.5,250.5C 567.184,267.743 568.851,284.743 572.5,301.5C 573.472,335.142 573.806,368.809 573.5,402.5C 537.827,405.135 502.16,405.135 466.5,402.5C 466.5,407.167 466.5,411.833 466.5,416.5C 466.167,416.5 465.833,416.5 465.5,416.5C 465.5,379.167 465.5,341.833 465.5,304.5C 466.23,301.422 467.397,298.422 469,295.5C 471.157,280.57 472.324,265.57 472.5,250.5C 477.733,248.858 483.067,247.525 488.5,246.5 Z"/></g>
<g><path style="opacity:1" fill="#f8a2ac" d="M 505.5,254.5 C 513.809,255.288 522.142,255.621 530.5,255.5C 527.183,256.165 523.683,256.499 520,256.5C 514.898,256.707 510.065,256.04 505.5,254.5 Z"/></g>
<g><path style="opacity:0.998" fill="#f9c49d" d="M 118.5,250.5 C 120.058,268.744 118.058,286.41 112.5,303.5C 111.938,301.335 111.271,301.668 110.5,304.5C 89.5472,350.236 68.2139,395.736 46.5,441C 42.9939,441.844 40.6605,440.51 39.5,437C 42.1066,431.652 43.9399,426.152 45,420.5C 41.2934,427.414 37.46,434.248 33.5,441C 29.9266,441.541 27.5932,440.041 26.5,436.5C 29.227,430.046 32.227,423.712 35.5,417.5C 35.1924,416.692 34.6924,416.025 34,415.5C 30.6667,421.5 27.3333,427.5 24,433.5C 18,437.167 15.3333,435.5 16,428.5C 29.0014,405.833 27.8347,405 12.5,426C 5.32947,425.824 3.82947,422.657 8,416.5C 13.5,408.167 19,399.833 24.5,391.5C 24.1667,391.167 23.8333,390.833 23.5,390.5C 20.2379,391.752 16.9046,392.752 13.5,393.5C 8.92276,392.079 7.42276,389.079 9,384.5C 10.4194,383.54 11.9194,382.707 13.5,382C 23.3338,379.611 32.8338,376.444 42,372.5C 58.0443,338.076 74.3776,303.743 91,269.5C 97.8584,259.806 107.025,253.472 118.5,250.5 Z"/></g>
<g><path style="opacity:0.486" fill="#f8a4b4" d="M 572.5,301.5 C 573.167,302.5 573.833,303.5 574.5,304.5C 574.5,341.833 574.5,379.167 574.5,416.5C 574.167,416.5 573.833,416.5 573.5,416.5C 573.5,411.833 573.5,407.167 573.5,402.5C 573.806,368.809 573.472,335.142 572.5,301.5 Z"/></g>
<g><path style="opacity:0.153" fill="#fcdad3" d="M 112.5,303.5 C 112.5,341.167 112.5,378.833 112.5,416.5C 112.5,448.5 112.5,480.5 112.5,512.5C 111.833,443.167 111.167,373.833 110.5,304.5C 111.271,301.668 111.938,301.335 112.5,303.5 Z"/></g>
<g><path style="opacity:0.999" fill="#f9c49d" d="M 472.5,250.5 C 472.324,265.57 471.157,280.57 469,295.5C 467.397,298.422 466.23,301.422 465.5,304.5C 445.844,343.17 427.011,382.837 409,423.5C 406.229,429.541 403.062,435.375 399.5,441C 395.663,442 393.663,440.5 393.5,436.5C 395.211,431.408 397.211,426.408 399.5,421.5C 399.167,421.167 398.833,420.833 398.5,420.5C 394.822,426.523 391.655,432.857 389,439.5C 383,443.167 380.333,441.5 381,434.5C 383.333,429.167 385.667,423.833 388,418.5C 388.667,417.5 388.667,416.5 388,415.5C 383.709,421.915 379.542,428.415 375.5,435C 370.502,436.33 368.336,434.496 369,429.5C 371.912,423.342 375.079,417.342 378.5,411.5C 378.167,411.167 377.833,410.833 377.5,410.5C 374.074,416.095 370.074,421.262 365.5,426C 359.755,426.263 357.922,423.763 360,418.5C 365.833,409.5 371.667,400.5 377.5,391.5C 377.167,391.167 376.833,390.833 376.5,390.5C 372.305,392.233 367.971,392.733 363.5,392C 360.833,389 360.833,386 363.5,383C 373.5,380 383.5,377 393.5,374C 394.333,373.167 395.167,372.333 396,371.5C 412.077,337.015 428.41,302.681 445,268.5C 451.749,258.871 460.916,252.871 472.5,250.5 Z"/></g>
<g><path style="opacity:1" fill="#f9c59f" d="M 214.5,250.5 C 226.059,252.862 235.225,258.862 242,268.5C 258.195,303.226 274.695,337.893 291.5,372.5C 300.888,376.351 310.555,379.518 320.5,382C 327.036,386.429 326.703,390.262 319.5,393.5C 315.884,392.121 312.217,391.287 308.5,391C 315.687,400.844 322.02,411.177 327.5,422C 326.774,426.271 324.441,427.437 320.5,425.5C 316.667,420.5 312.833,415.5 309,410.5C 308.333,411.5 308.333,412.5 309,413.5C 312,418.833 315,424.167 318,429.5C 318.541,433.073 317.041,435.407 313.5,436.5C 312.252,435.96 311.085,435.293 310,434.5C 306.586,428.003 302.919,421.67 299,415.5C 298.5,416 298,416.5 297.5,417C 300.189,422.879 303.023,428.712 306,434.5C 307.025,438.45 305.525,440.783 301.5,441.5C 299.971,441.471 298.804,440.804 298,439.5C 295.291,433.165 292.125,427.165 288.5,421.5C 288.167,421.833 287.833,422.167 287.5,422.5C 290.187,427.064 292.187,431.897 293.5,437C 292.556,441.332 290.056,442.499 286,440.5C 264.659,395.132 243.326,349.799 222,304.5C 221.833,394.001 221.333,483.334 220.5,572.5C 220.5,520.5 220.5,468.5 220.5,416.5C 220.5,411.833 220.5,407.167 220.5,402.5C 220.667,369.165 220.5,335.832 220,302.5C 215.732,285.479 213.898,268.145 214.5,250.5 Z"/></g>
<g><path style="opacity:0.999" fill="#f9c59e" d="M 567.5,250.5 C 579.085,252.871 588.252,258.871 595,268.5C 611.956,303.409 628.622,338.409 645,373.5C 655.139,376.657 665.306,379.824 675.5,383C 679.802,387.629 678.969,391.129 673,393.5C 669.757,392.731 666.59,391.731 663.5,390.5C 663.167,390.833 662.833,391.167 662.5,391.5C 668.333,400.5 674.167,409.5 680,418.5C 681.825,423.986 679.992,426.486 674.5,426C 670.379,420.924 666.379,415.757 662.5,410.5C 662.167,410.833 661.833,411.167 661.5,411.5C 664.465,417.625 667.632,423.625 671,429.5C 671.664,434.496 669.498,436.33 664.5,435C 659.959,428.755 655.792,422.255 652,415.5C 653.155,421.834 655.489,427.834 659,433.5C 660.244,440.448 657.744,442.448 651.5,439.5C 648.318,433.136 645.151,426.802 642,420.5C 641.5,421 641,421.5 640.5,422C 643.38,426.476 645.38,431.309 646.5,436.5C 646.337,440.5 644.337,442 640.5,441C 619.82,399.628 599.986,357.794 581,315.5C 579.311,311.44 577.144,307.773 574.5,304.5C 573.833,303.5 573.167,302.5 572.5,301.5C 568.851,284.743 567.184,267.743 567.5,250.5 Z"/></g>
<g><path style="opacity:1" fill="#f56ba0" d="M 220.5,402.5 C 220.5,407.167 220.5,411.833 220.5,416.5C 212.005,418.242 204.005,421.408 196.5,426C 188.715,430.634 181.381,435.8 174.5,441.5C 168.824,441.666 163.157,441.499 157.5,441C 145.476,429.487 131.476,421.32 115.5,416.5C 113.652,412.146 112.985,407.48 113.5,402.5C 149.164,405.156 184.831,405.156 220.5,402.5 Z"/></g>
<g><path style="opacity:1" fill="#f56ba1" d="M 573.5,402.5 C 573.5,407.167 573.5,411.833 573.5,416.5C 556.147,433.181 535.48,441.514 511.5,441.5C 494.033,437.6 479.033,429.267 466.5,416.5C 466.5,411.833 466.5,407.167 466.5,402.5C 502.16,405.135 537.827,405.135 573.5,402.5 Z"/></g>
<g><path style="opacity:0.998" fill="#fac49d" d="M 112.5,416.5 C 113.5,416.5 114.5,416.5 115.5,416.5C 131.476,421.32 145.476,429.487 157.5,441C 163.157,441.499 168.824,441.666 174.5,441.5C 174.5,441.833 174.5,442.167 174.5,442.5C 169.167,442.5 163.833,442.5 158.5,442.5C 158.029,495.5 157.529,548.5 157,601.5C 156.964,614.928 156.297,628.261 155,641.5C 154.5,642 154,642.5 153.5,643C 132.167,643.667 110.833,643.667 89.5,643C 85.4701,639.043 85.8035,635.377 90.5,632C 97.6667,626.167 104.833,620.333 112,614.5C 112.5,580.502 112.667,546.502 112.5,512.5C 112.5,480.5 112.5,448.5 112.5,416.5 Z"/></g>
<g><path style="opacity:1" fill="#f9c49d" d="M 220.5,416.5 C 220.5,468.5 220.5,520.5 220.5,572.5C 220.333,586.504 220.5,600.504 221,614.5C 229.333,621.5 237.667,628.5 246,635.5C 247.041,638.636 246.207,641.136 243.5,643C 222.5,643.667 201.5,643.667 180.5,643C 178.741,641.992 177.574,640.492 177,638.5C 176.189,573.164 175.356,507.83 174.5,442.5C 174.5,442.167 174.5,441.833 174.5,441.5C 181.381,435.8 188.715,430.634 196.5,426C 204.005,421.408 212.005,418.242 220.5,416.5 Z"/></g>
<g><path style="opacity:1" fill="#f9c49d" d="M 465.5,416.5 C 465.833,416.5 466.167,416.5 466.5,416.5C 479.033,429.267 494.033,437.6 511.5,441.5C 511.5,441.833 511.5,442.167 511.5,442.5C 511.337,506.738 510.671,570.905 509.5,635C 510.328,638.171 509.328,640.838 506.5,643C 485.123,643.822 463.79,643.655 442.5,642.5C 440.605,640.133 440.105,637.466 441,634.5C 448.689,627.977 456.522,621.644 464.5,615.5C 465.5,549.17 465.833,482.837 465.5,416.5 Z"/></g>
<g><path style="opacity:1" fill="#fac49d" d="M 573.5,416.5 C 573.833,416.5 574.167,416.5 574.5,416.5C 574.538,444.001 574.538,471.667 574.5,499.5C 573.833,518.664 573.5,537.997 573.5,557.5C 573.5,577.178 574.167,596.512 575.5,615.5C 583.439,621.433 591.105,627.766 598.5,634.5C 599.788,637.034 599.788,639.534 598.5,642C 577.256,643.644 555.922,643.977 534.5,643C 533.069,642.535 531.903,641.701 531,640.5C 529.35,574.538 528.517,508.538 528.5,442.5C 522.833,442.5 517.167,442.5 511.5,442.5C 511.5,442.167 511.5,441.833 511.5,441.5C 535.48,441.514 556.147,433.181 573.5,416.5 Z"/></g>
<g><path style="opacity:0.251" fill="#fcdac0" d="M 574.5,499.5 C 574.173,538.239 574.506,576.906 575.5,615.5C 574.167,596.512 573.5,577.178 573.5,557.5C 573.5,537.997 573.833,518.664 574.5,499.5 Z"/></g>
</svg>
