<?xml version="1.0" encoding="UTF-8"?>
<!DOCTYPE svg PUBLIC "-//W3C//DTD SVG 1.1//EN" "http://www.w3.org/Graphics/SVG/1.1/DTD/svg11.dtd">
<svg xmlns="http://www.w3.org/2000/svg" version="1.1" width="726px" height="971px" style="shape-rendering:geometricPrecision; text-rendering:geometricPrecision; image-rendering:optimizeQuality; fill-rule:evenodd; clip-rule:evenodd" xmlns:xlink="http://www.w3.org/1999/xlink">
<g><path style="opacity:1" fill="#fefefe" d="M -0.5,-0.5 C 241.5,-0.5 483.5,-0.5 725.5,-0.5C 725.5,323.167 725.5,646.833 725.5,970.5C 483.5,970.5 241.5,970.5 -0.5,970.5C -0.5,646.833 -0.5,323.167 -0.5,-0.5 Z"/></g>
<g><path style="opacity:1" fill="#83583e" d="M 551.5,170.5 C 539.815,170.365 528.148,170.698 516.5,171.5C 523.097,169.97 529.93,169.303 537,169.5C 542.012,169.501 546.845,169.834 551.5,170.5 Z"/></g>
<g><path style="opacity:1" fill="#8a5f46" d="M 197.5,170.5 C 185.815,170.365 174.148,170.698 162.5,171.5C 169.097,169.97 175.93,169.303 183,169.5C 188.012,169.501 192.845,169.834 197.5,170.5 Z"/></g>
<g><path style="opacity:1" fill="#683412" d="M 197.5,170.5 C 218.355,172.284 237.355,179.118 254.5,191C 265.842,200.175 273.842,211.675 278.5,225.5C 278.41,228.152 279.076,230.485 280.5,232.5C 285.459,252.022 285.793,271.689 281.5,291.5C 280.215,294.589 279.549,297.922 279.5,301.5C 276.312,310.724 271.979,319.39 266.5,327.5C 266.004,315.457 265.004,303.457 263.5,291.5C 262.406,280.383 259.573,269.716 255,259.5C 254.255,258.01 253.088,257.01 251.5,256.5C 224.147,265.273 197.147,264.273 170.5,253.5C 169.508,257.783 169.174,262.116 169.5,266.5C 152.07,266.78 137.07,260.947 124.5,249C 123.365,248.251 122.365,248.417 121.5,249.5C 107.243,270.633 101.576,293.966 104.5,319.5C 104.784,321.415 104.451,323.081 103.5,324.5C 99.0672,318.073 95.0672,311.406 91.5,304.5C 90.871,301.603 89.871,298.936 88.5,296.5C 75.9504,263.094 82.4504,234.094 108,209.5C 116.833,191.512 131,179.846 150.5,174.5C 153.152,174.59 155.485,173.924 157.5,172.5C 159.042,171.699 160.708,171.366 162.5,171.5C 174.148,170.698 185.815,170.365 197.5,170.5 Z"/></g>
<g><path style="opacity:1" fill="#683412" d="M 551.5,170.5 C 573.926,172.131 592.759,181.131 608,197.5C 613.174,207.008 619.507,215.675 627,223.5C 637.143,239.743 641.143,257.409 639,276.5C 638.153,283.567 636.986,290.567 635.5,297.5C 630.468,312.898 623.801,327.565 615.5,341.5C 615.511,343.017 616.177,344.184 617.5,345C 624.519,347.351 629.686,351.851 633,358.5C 635.971,366.376 638.637,374.376 641,382.5C 641.883,385.102 643.383,387.269 645.5,389C 644.833,389.667 644.167,390.333 643.5,391C 640.568,391.311 637.902,391.478 635.5,391.5C 638.074,395.12 641.408,397.787 645.5,399.5C 618.846,412.393 597.512,406.393 581.5,381.5C 581.092,380.357 580.425,379.357 579.5,378.5C 551.751,390.398 524.084,390.398 496.5,378.5C 496.371,380.216 496.038,381.883 495.5,383.5C 483.313,400.523 466.647,408.023 445.5,406C 441.281,404.891 437.281,403.225 433.5,401C 432.549,400.282 432.383,399.449 433,398.5C 436.305,397.104 439.138,395.104 441.5,392.5C 442.043,392.44 442.376,392.107 442.5,391.5C 439.914,390.52 437.247,390.187 434.5,390.5C 433.522,390.189 432.855,389.522 432.5,388.5C 437.835,382.158 440.669,374.825 441,366.5C 444.468,355.367 451.634,347.867 462.5,344C 463.791,342.708 463.791,341.542 462.5,340.5C 453.302,325.439 446.302,309.439 441.5,292.5C 440.624,287.868 439.957,283.201 439.5,278.5C 438.642,270.868 438.309,263.201 438.5,255.5C 440.589,213.129 461.923,185.962 502.5,174C 507.144,172.971 511.81,172.138 516.5,171.5C 528.148,170.698 539.815,170.365 551.5,170.5 Z"/></g>
<g><path style="opacity:1" fill="#94694f" d="M 157.5,172.5 C 155.485,173.924 153.152,174.59 150.5,174.5C 152.515,173.076 154.848,172.41 157.5,172.5 Z"/></g>
<g><path style="opacity:1" fill="#926b52" d="M 278.5,225.5 C 279.924,227.515 280.59,229.848 280.5,232.5C 279.076,230.485 278.41,228.152 278.5,225.5 Z"/></g>
<g><path style="opacity:1" fill="#f8c29c" d="M 263.5,291.5 C 264.294,302.815 264.627,314.148 264.5,325.5C 263.717,327.343 263.05,329.343 262.5,331.5C 265.844,332.757 269.177,332.757 272.5,331.5C 282.099,323.107 284.433,313.107 279.5,301.5C 279.549,297.922 280.215,294.589 281.5,291.5C 280.539,296.372 282.372,299.705 287,301.5C 292.722,315.348 289.555,327.182 277.5,337C 271.563,340.1 265.563,342.267 259.5,343.5C 256.322,352.183 251.822,360.183 246,367.5C 239.891,373.124 233.725,378.457 227.5,383.5C 219.64,386.134 211.64,388.467 203.5,390.5C 203.5,396.833 203.5,403.167 203.5,409.5C 208.192,409.425 212.526,410.425 216.5,412.5C 215.002,428.33 207.002,439.496 192.5,446C 176.301,448.151 164.468,441.984 157,427.5C 154.583,422.416 153.083,417.082 152.5,411.5C 156.787,410.293 161.12,409.293 165.5,408.5C 165.5,402.5 165.5,396.5 165.5,390.5C 163.801,390.66 162.134,390.494 160.5,390C 153.759,387.588 147.092,385.088 140.5,382.5C 133.642,377.152 127.142,371.152 121,364.5C 116.764,357.332 112.597,350.332 108.5,343.5C 108.804,342.85 109.137,342.183 109.5,341.5C 87.9347,339.765 78.1014,328.099 80,306.5C 81.9779,302.362 84.8112,299.029 88.5,296.5C 89.871,298.936 90.871,301.603 91.5,304.5C 90.8953,306.026 89.7286,307.026 88,307.5C 86.5385,317.418 89.7052,325.584 97.5,332C 100.554,332.821 103.554,332.655 106.5,331.5C 105.874,329.343 105.54,327.343 105.5,325.5C 105.795,323.265 105.461,321.265 104.5,319.5C 101.576,293.966 107.243,270.633 121.5,249.5C 122.365,248.417 123.365,248.251 124.5,249C 137.07,260.947 152.07,266.78 169.5,266.5C 169.174,262.116 169.508,257.783 170.5,253.5C 197.147,264.273 224.147,265.273 251.5,256.5C 253.088,257.01 254.255,258.01 255,259.5C 259.573,269.716 262.406,280.383 263.5,291.5 Z"/></g>
<g><path style="opacity:1" fill="#d6c5bc" d="M 438.5,255.5 C 438.309,263.201 438.642,270.868 439.5,278.5C 438.778,278.082 438.278,277.416 438,276.5C 437.179,269.321 437.345,262.321 438.5,255.5 Z"/></g>
<g><path style="opacity:1" fill="#6c3612" d="M 135.5,282.5 C 143.432,281.682 150.932,283.016 158,286.5C 159.141,289.857 157.975,291.857 154.5,292.5C 150.449,290.982 146.282,289.982 142,289.5C 136.66,290.516 131.494,291.683 126.5,293C 125.424,291.274 125.257,289.441 126,287.5C 129.181,285.662 132.347,283.995 135.5,282.5 Z"/></g>
<g><path style="opacity:1" fill="#6e3815" d="M 219.5,282.5 C 227.669,281.549 235.335,283.049 242.5,287C 245.388,290.172 244.722,292.339 240.5,293.5C 235.983,291.549 231.317,290.216 226.5,289.5C 221.855,290.665 217.188,291.499 212.5,292C 210.675,290.534 210.175,288.701 211,286.5C 213.738,284.711 216.572,283.378 219.5,282.5 Z"/></g>
<g><path style="opacity:1" fill="#6a3613" d="M 138.5,300.5 C 150.4,301.588 154.567,307.921 151,319.5C 147.865,325.989 143.032,327.823 136.5,325C 129.237,315.983 129.903,307.816 138.5,300.5 Z"/></g>
<g><path style="opacity:1" fill="#f7c29c" d="M 441.5,292.5 C 446.302,309.439 453.302,325.439 462.5,340.5C 447.086,341.529 437.253,334.529 433,319.5C 430.317,309.923 432.983,302.256 441,296.5C 441.49,295.207 441.657,293.873 441.5,292.5 Z"/></g>
<g><path style="opacity:1" fill="#6a3513" d="M 223.5,300.5 C 235.77,300.987 240.27,307.321 237,319.5C 232.327,327.223 226.66,328.223 220,322.5C 215.728,314.156 216.894,306.822 223.5,300.5 Z"/></g>
<g><path style="opacity:1" fill="#f6c29b" d="M 635.5,297.5 C 643.146,303.254 645.646,310.921 643,320.5C 639.812,329.377 633.979,335.877 625.5,340C 622.12,340.339 618.787,340.839 615.5,341.5C 623.801,327.565 630.468,312.898 635.5,297.5 Z"/></g>
<g><path style="opacity:1" fill="#f0ac87" d="M 91.5,304.5 C 95.0672,311.406 99.0672,318.073 103.5,324.5C 104.006,326.105 104.673,326.439 105.5,325.5C 105.54,327.343 105.874,329.343 106.5,331.5C 103.554,332.655 100.554,332.821 97.5,332C 89.7052,325.584 86.5385,317.418 88,307.5C 89.7286,307.026 90.8953,306.026 91.5,304.5 Z"/></g>
<g><path style="opacity:1" fill="#eeab87" d="M 279.5,301.5 C 284.433,313.107 282.099,323.107 272.5,331.5C 269.177,332.757 265.844,332.757 262.5,331.5C 263.05,329.343 263.717,327.343 264.5,325.5C 264.343,326.873 264.51,328.207 265,329.5C 265.717,328.956 266.217,328.289 266.5,327.5C 271.979,319.39 276.312,310.724 279.5,301.5 Z"/></g>
<g><path style="opacity:1" fill="#a7714d" d="M 263.5,291.5 C 265.004,303.457 266.004,315.457 266.5,327.5C 266.217,328.289 265.717,328.956 265,329.5C 264.51,328.207 264.343,326.873 264.5,325.5C 264.627,314.148 264.294,302.815 263.5,291.5 Z"/></g>
<g><path style="opacity:1" fill="#a46c48" d="M 104.5,319.5 C 105.461,321.265 105.795,323.265 105.5,325.5C 104.673,326.439 104.006,326.105 103.5,324.5C 104.451,323.081 104.784,321.415 104.5,319.5 Z"/></g>
<g><path style="opacity:1" fill="#d48866" d="M 181.5,322.5 C 184.93,322.107 188.096,322.773 191,324.5C 191.483,325.448 191.649,326.448 191.5,327.5C 180.591,326.402 176.591,331.069 179.5,341.5C 175.13,340.959 173.13,338.459 173.5,334C 173.494,331.7 173.994,329.534 175,327.5C 177.326,325.934 179.492,324.268 181.5,322.5 Z"/></g>
<g><path style="opacity:1" fill="#f7ab8c" d="M 129.5,330.5 C 135.198,330.003 140.364,331.336 145,334.5C 148.134,341.286 146.634,346.619 140.5,350.5C 127.678,354.151 121.512,349.485 122,336.5C 124.134,333.847 126.634,331.847 129.5,330.5 Z"/></g>
<g><path style="opacity:1" fill="#f7ab8c" d="M 231.5,331.5 C 237.024,330.708 241.857,332.041 246,335.5C 249.043,341.994 247.543,347.161 241.5,351C 233.968,353.144 227.801,351.311 223,345.5C 220.757,337.603 223.59,332.936 231.5,331.5 Z"/></g>
<g><path style="opacity:1" fill="#f18faf" d="M 581.5,338.5 C 585.846,338.334 590.179,338.501 594.5,339C 596.779,339.473 598.779,340.473 600.5,342C 584.63,344.366 576.963,353.533 577.5,369.5C 571.45,364.182 569.283,357.515 571,349.5C 573.762,345.055 577.262,341.389 581.5,338.5 Z"/></g>
<g><path style="opacity:1" fill="#693513" d="M 108.5,343.5 C 112.597,350.332 116.764,357.332 121,364.5C 127.142,371.152 133.642,377.152 140.5,382.5C 128.885,400.774 112.218,408.608 90.5,406C 85.6191,404.893 81.2858,402.726 77.5,399.5C 81.2377,397.303 84.571,394.636 87.5,391.5C 84.9982,391.379 82.3315,391.212 79.5,391C 78.8333,390.333 78.1667,389.667 77.5,389C 81.268,384.864 83.6014,380.031 84.5,374.5C 86.4098,371.548 87.4098,368.214 87.5,364.5C 90.8458,353.821 97.8458,346.821 108.5,343.5 Z"/></g>
<g><path style="opacity:1" fill="#693513" d="M 259.5,343.5 C 269.353,346.518 276.187,352.851 280,362.5C 281.824,368.795 283.49,375.128 285,381.5C 286.833,384 288.667,386.5 290.5,389C 287.207,391.082 283.873,391.915 280.5,391.5C 283.064,395.117 286.397,397.784 290.5,399.5C 265.1,411.9 244.1,406.567 227.5,383.5C 233.725,378.457 239.891,373.124 246,367.5C 251.822,360.183 256.322,352.183 259.5,343.5 Z"/></g>
<g><path style="opacity:1" fill="#f08eae" d="M 484.5,337.5 C 494.826,337.002 502.326,341.335 507,350.5C 508.619,358.31 506.286,364.644 500,369.5C 501.672,358.795 497.839,350.962 488.5,346C 484.465,344.932 480.465,343.766 476.5,342.5C 479.011,340.457 481.678,338.791 484.5,337.5 Z"/></g>
<g><path style="opacity:1" fill="#d38664" d="M 159.5,353.5 C 161.527,353.338 163.527,353.505 165.5,354C 170.225,359.111 176.059,361.278 183,360.5C 190.017,360.898 196.184,358.898 201.5,354.5C 203.743,353.526 206.076,353.192 208.5,353.5C 208.785,355.288 208.452,356.955 207.5,358.5C 198,366.715 187,369.548 174.5,367C 168.204,365.943 163.371,362.777 160,357.5C 159.51,356.207 159.343,354.873 159.5,353.5 Z"/></g>
<g><path style="opacity:1" fill="#9d7a66" d="M 87.5,364.5 C 87.4098,368.214 86.4098,371.548 84.5,374.5C 84.8993,370.884 85.8993,367.55 87.5,364.5 Z"/></g>
<g><path style="opacity:1" fill="#ab8f7c" d="M 434.5,390.5 C 437.247,390.187 439.914,390.52 442.5,391.5C 442.376,392.107 442.043,392.44 441.5,392.5C 439.167,391.833 436.833,391.167 434.5,390.5 Z"/></g>
<g><path style="opacity:1" fill="#eea17b" d="M 166.5,391.5 C 178.471,392.712 190.471,392.712 202.5,391.5C 202.5,393.833 202.5,396.167 202.5,398.5C 190.478,401.095 178.478,401.095 166.5,398.5C 166.5,396.167 166.5,393.833 166.5,391.5 Z"/></g>
<g><path style="opacity:1" fill="#f9c39c" d="M 581.5,381.5 C 573.709,385.869 565.375,388.869 556.5,390.5C 556.5,396.833 556.5,403.167 556.5,409.5C 561.273,409.124 565.607,410.124 569.5,412.5C 560.676,418.473 550.843,421.139 540,420.5C 529.034,420.993 518.534,419.159 508.5,415C 507.177,414.184 506.511,413.017 506.5,411.5C 510.705,410.09 515.038,409.423 519.5,409.5C 519.5,403.167 519.5,396.833 519.5,390.5C 516.432,390.453 513.432,389.953 510.5,389C 505.503,387.058 500.503,385.224 495.5,383.5C 496.038,381.883 496.371,380.216 496.5,378.5C 524.084,390.398 551.751,390.398 579.5,378.5C 580.425,379.357 581.092,380.357 581.5,381.5 Z"/></g>
<g><path style="opacity:1" fill="#f691b3" d="M 152.5,411.5 C 153.083,417.082 154.583,422.416 157,427.5C 164.468,441.984 176.301,448.151 192.5,446C 207.002,439.496 215.002,428.33 216.5,412.5C 222.202,412.704 227.535,414.037 232.5,416.5C 231.937,433.812 233.771,450.812 238,467.5C 238.5,500.832 238.667,534.165 238.5,567.5C 202.831,570.156 167.164,570.156 131.5,567.5C 130.985,572.48 131.652,577.146 133.5,581.5C 132.5,581.5 131.5,581.5 130.5,581.5C 130.5,543.833 130.5,506.167 130.5,468.5C 136.044,451.747 138.044,434.413 136.5,416.5C 141.487,414.062 146.821,412.395 152.5,411.5 Z"/></g>
<g><path style="opacity:1" fill="#f691b3" d="M 506.5,411.5 C 506.511,413.017 507.177,414.184 508.5,415C 518.534,419.159 529.034,420.993 540,420.5C 550.843,421.139 560.676,418.473 569.5,412.5C 575.277,412.564 580.61,413.897 585.5,416.5C 585.235,433.408 586.902,450.075 590.5,466.5C 591.472,500.142 591.806,533.809 591.5,567.5C 555.827,570.135 520.16,570.135 484.5,567.5C 484.5,572.167 484.5,576.833 484.5,581.5C 484.167,581.5 483.833,581.5 483.5,581.5C 483.5,544.167 483.5,506.833 483.5,469.5C 484.23,466.422 485.397,463.422 487,460.5C 489.157,445.57 490.324,430.57 490.5,415.5C 495.782,414.043 501.116,412.709 506.5,411.5 Z"/></g>
<g><path style="opacity:1" fill="#f9c49d" d="M 585.5,416.5 C 599.151,418.982 609.317,426.315 616,438.5C 631.694,471.885 647.361,505.218 663,538.5C 672.72,542.115 682.553,545.282 692.5,548C 696.085,550.528 696.418,553.528 693.5,557C 688.774,557.051 684.107,556.717 679.5,556C 686.038,564.908 692.205,574.074 698,583.5C 699.825,588.986 697.992,591.486 692.5,591C 688.66,585.666 684.66,580.5 680.5,575.5C 679.417,576.365 679.251,577.365 680,578.5C 682.748,583.666 685.748,588.666 689,593.5C 690.143,598.859 687.976,601.026 682.5,600C 678.661,593.782 674.828,587.615 671,581.5C 670.5,581.833 670,582.167 669.5,582.5C 671.727,587.954 674.227,593.287 677,598.5C 678.016,604.486 675.683,606.486 670,604.5C 667.06,598.954 664.394,593.287 662,587.5C 661.035,585.74 659.868,585.406 658.5,586.5C 660.898,591.364 662.898,596.364 664.5,601.5C 664.167,605.17 662.167,606.67 658.5,606C 636.85,560.535 615.35,515.035 594,469.5C 593.31,468.262 592.81,468.262 592.5,469.5C 591.833,468.5 591.167,467.5 590.5,466.5C 586.902,450.075 585.235,433.408 585.5,416.5 Z"/></g>
<g><path style="opacity:1" fill="#f9c49d" d="M 490.5,415.5 C 490.324,430.57 489.157,445.57 487,460.5C 485.397,463.422 484.23,466.422 483.5,469.5C 483.631,468.761 483.464,468.094 483,467.5C 461.333,513.671 439.5,559.837 417.5,606C 413.663,607 411.663,605.5 411.5,601.5C 413.211,596.408 415.211,591.408 417.5,586.5C 417.167,586.167 416.833,585.833 416.5,585.5C 412.571,591.022 409.404,597.022 407,603.5C 404.633,606.932 401.966,607.265 399,604.5C 398.416,601.743 398.75,599.077 400,596.5C 402.812,591.188 405.312,585.855 407.5,580.5C 406.325,580.281 405.325,580.614 404.5,581.5C 401.211,587.914 397.544,594.081 393.5,600C 389.819,601.314 387.486,600.147 386.5,596.5C 388.885,590.062 392.052,584.062 396,578.5C 396.749,577.365 396.583,576.365 395.5,575.5C 391.34,580.5 387.34,585.666 383.5,591C 378.008,591.486 376.175,588.986 378,583.5C 384.332,574.841 390.165,565.841 395.5,556.5C 395,556.167 394.5,555.833 394,555.5C 389.978,557.274 385.812,557.774 381.5,557C 378.253,551.293 379.92,547.627 386.5,546C 395.477,543.895 404.31,541.395 413,538.5C 429.362,503.44 446.028,468.44 463,433.5C 470.112,424.361 479.279,418.361 490.5,415.5 Z"/></g>
<g><path style="opacity:1" fill="#f9c49d" d="M 136.5,416.5 C 138.044,434.413 136.044,451.747 130.5,468.5C 130.631,467.761 130.464,467.094 130,466.5C 108.161,512.844 86.3279,559.177 64.5,605.5C 61.0347,606.909 58.7014,605.742 57.5,602C 59.5243,596.96 61.5243,591.96 63.5,587C 63.1667,586.5 62.8333,586 62.5,585.5C 58.8388,591.489 55.6721,597.822 53,604.5C 50.3583,606.059 48.025,605.725 46,603.5C 45.4163,600.743 45.7496,598.077 47,595.5C 49.538,591.242 51.7046,586.742 53.5,582C 53.1667,581.5 52.8333,581 52.5,580.5C 48.2513,586.661 44.2513,592.995 40.5,599.5C 35.0387,601.208 32.872,599.208 34,593.5C 37.1667,587.833 40.3333,582.167 43.5,576.5C 43.1667,576.167 42.8333,575.833 42.5,575.5C 38.8444,580.128 35.1777,584.794 31.5,589.5C 29.3052,590.769 27.1385,590.769 25,589.5C 24.245,586.697 24.5783,584.03 26,581.5C 31.8333,573 37.6667,564.5 43.5,556C 38.8523,556.462 34.1856,556.795 29.5,557C 26.6212,555.334 25.7879,552.834 27,549.5C 27.7504,548.874 28.5838,548.374 29.5,548C 39.7321,544.963 49.8988,541.796 60,538.5C 75.892,503.613 92.2254,468.947 109,434.5C 115.704,424.61 124.871,418.61 136.5,416.5 Z"/></g>
<g><path style="opacity:1" fill="#f8a4b4" d="M 590.5,466.5 C 591.167,467.5 591.833,468.5 592.5,469.5C 592.5,506.833 592.5,544.167 592.5,581.5C 592.167,581.5 591.833,581.5 591.5,581.5C 591.5,576.833 591.5,572.167 591.5,567.5C 591.806,533.809 591.472,500.142 590.5,466.5 Z"/></g>
<g><path style="opacity:1" fill="#f9c49e" d="M 232.5,416.5 C 244.483,418.962 253.983,425.296 261,435.5C 276.984,469.469 292.984,503.469 309,537.5C 315.949,541.451 323.449,543.951 331.5,545C 335.298,545.928 338.798,547.428 342,549.5C 342.782,552.257 342.282,554.757 340.5,557C 335.774,557.051 331.107,556.717 326.5,556C 333.224,565.953 339.557,576.12 345.5,586.5C 344.726,590.718 342.392,592.051 338.5,590.5C 335.167,585.833 331.833,581.167 328.5,576.5C 327.5,575.167 326.5,575.167 325.5,576.5C 328.867,582.039 332.034,587.706 335,593.5C 336.424,598.662 334.59,600.829 329.5,600C 325.456,594.081 321.789,587.914 318.5,581.5C 317.675,580.614 316.675,580.281 315.5,580.5C 318.192,587.559 321.192,594.559 324.5,601.5C 323.399,605.591 320.733,607.258 316.5,606.5C 314.629,601.085 312.462,595.752 310,590.5C 309.313,588.445 308.146,586.779 306.5,585.5C 306.167,586 305.833,586.5 305.5,587C 307.599,591.799 309.599,596.632 311.5,601.5C 311.031,606.187 308.698,607.52 304.5,605.5C 282.984,559.803 261.484,514.136 240,468.5C 239.5,538.166 239.333,607.833 239.5,677.5C 239.167,677.5 238.833,677.5 238.5,677.5C 238.5,645.5 238.5,613.5 238.5,581.5C 238.5,576.833 238.5,572.167 238.5,567.5C 238.667,534.165 238.5,500.832 238,467.5C 233.771,450.812 231.937,433.812 232.5,416.5 Z"/></g>
<g><path style="opacity:1" fill="#f56ba0" d="M 238.5,567.5 C 238.5,572.167 238.5,576.833 238.5,581.5C 230.005,583.242 222.005,586.408 214.5,591C 206.715,595.634 199.381,600.8 192.5,606.5C 186.824,606.666 181.157,606.499 175.5,606C 163.476,594.487 149.476,586.32 133.5,581.5C 131.652,577.146 130.985,572.48 131.5,567.5C 167.164,570.156 202.831,570.156 238.5,567.5 Z"/></g>
<g><path style="opacity:1" fill="#f56ba1" d="M 591.5,567.5 C 591.5,572.167 591.5,576.833 591.5,581.5C 574.147,598.181 553.48,606.514 529.5,606.5C 512.033,602.6 497.033,594.267 484.5,581.5C 484.5,576.833 484.5,572.167 484.5,567.5C 520.16,570.135 555.827,570.135 591.5,567.5 Z"/></g>
<g><path style="opacity:1" fill="#fac49d" d="M 130.5,581.5 C 131.5,581.5 132.5,581.5 133.5,581.5C 149.476,586.32 163.476,594.487 175.5,606C 181.157,606.499 186.824,606.666 192.5,606.5C 192.5,606.833 192.5,607.167 192.5,607.5C 187.167,607.5 181.833,607.5 176.5,607.5C 175.559,672.831 174.726,738.164 174,803.5C 173.167,805.667 171.667,807.167 169.5,808C 148.825,808.833 128.159,808.666 107.5,807.5C 105.605,805.133 105.105,802.466 106,799.5C 113.689,792.977 121.522,786.644 129.5,780.5C 130.5,714.17 130.833,647.837 130.5,581.5 Z"/></g>
<g><path style="opacity:1" fill="#f9c49d" d="M 483.5,581.5 C 483.833,581.5 484.167,581.5 484.5,581.5C 497.033,594.267 512.033,602.6 529.5,606.5C 529.5,606.833 529.5,607.167 529.5,607.5C 528.947,672.832 528.447,738.166 528,803.5C 527.07,805.552 525.57,807.052 523.5,808C 502.457,808.822 481.457,808.655 460.5,807.5C 458.429,805.07 458.096,802.403 459.5,799.5C 466.982,792.928 474.649,786.595 482.5,780.5C 483.5,714.17 483.833,647.837 483.5,581.5 Z"/></g>
<g><path style="opacity:1" fill="#f9c49d" d="M 238.5,581.5 C 238.5,613.5 238.5,645.5 238.5,677.5C 237.84,712.183 238.507,746.516 240.5,780.5C 248.142,787.302 255.975,793.969 264,800.5C 264.944,803.347 264.444,805.847 262.5,808C 241.167,808.667 219.833,808.667 198.5,808C 196.951,806.786 195.785,805.286 195,803.5C 194.538,737.997 193.705,672.664 192.5,607.5C 192.5,607.167 192.5,606.833 192.5,606.5C 199.381,600.8 206.715,595.634 214.5,591C 222.005,586.408 230.005,583.242 238.5,581.5 Z"/></g>
<g><path style="opacity:1" fill="#fac49d" d="M 591.5,581.5 C 591.833,581.5 592.167,581.5 592.5,581.5C 592.5,622.5 592.5,663.5 592.5,704.5C 591.833,716.996 591.5,729.662 591.5,742.5C 591.501,755.518 592.168,768.185 593.5,780.5C 601.142,787.302 608.975,793.969 617,800.5C 617.896,803.025 617.396,805.192 615.5,807C 594.589,808.643 573.589,808.977 552.5,808C 551.069,807.535 549.903,806.701 549,805.5C 547.771,739.504 546.938,673.504 546.5,607.5C 540.833,607.5 535.167,607.5 529.5,607.5C 529.5,607.167 529.5,606.833 529.5,606.5C 553.48,606.514 574.147,598.181 591.5,581.5 Z"/></g>
<g><path style="opacity:1" fill="#fcdec8" d="M 592.5,704.5 C 592.177,729.908 592.51,755.241 593.5,780.5C 592.168,768.185 591.501,755.518 591.5,742.5C 591.5,729.662 591.833,716.996 592.5,704.5 Z"/></g>
<g><path style="opacity:1" fill="#fdeade" d="M 238.5,677.5 C 238.833,677.5 239.167,677.5 239.5,677.5C 239.174,711.906 239.507,746.24 240.5,780.5C 238.507,746.516 237.84,712.183 238.5,677.5 Z"/></g>
</svg>
