<?xml version="1.0" encoding="UTF-8"?>
<!DOCTYPE svg PUBLIC "-//W3C//DTD SVG 1.1//EN" "http://www.w3.org/Graphics/SVG/1.1/DTD/svg11.dtd">
<svg xmlns="http://www.w3.org/2000/svg" version="1.1" width="792px" height="971px" style="shape-rendering:geometricPrecision; text-rendering:geometricPrecision; image-rendering:optimizeQuality; fill-rule:evenodd; clip-rule:evenodd" xmlns:xlink="http://www.w3.org/1999/xlink">
<g><path style="opacity:1" fill="#fefefe" d="M -0.5,-0.5 C 263.5,-0.5 527.5,-0.5 791.5,-0.5C 791.5,323.167 791.5,646.833 791.5,970.5C 527.5,970.5 263.5,970.5 -0.5,970.5C -0.5,646.833 -0.5,323.167 -0.5,-0.5 Z"/></g>
<g><path style="opacity:1" fill="#583111" d="M 250.5,95.5 C 250.832,106.52 250.499,117.52 249.5,128.5C 248.617,119.383 247.117,110.383 245,101.5C 242.675,94.4906 238.008,90.4906 231,89.5C 222.721,90.8255 214.387,91.4922 206,91.5C 197.163,90.9277 188.33,90.7611 179.5,91C 174.426,94.9791 171.259,100.146 170,106.5C 169.829,113.679 169.329,120.679 168.5,127.5C 166.744,126.448 166.077,124.781 166.5,122.5C 166.5,121.167 166.5,119.833 166.5,118.5C 166.334,109.494 166.5,100.494 167,91.5C 174.368,67.0475 190.868,56.5475 216.5,60C 236.547,63.5456 247.88,75.3789 250.5,95.5 Z"/></g>
<g><path style="opacity:1" fill="#573011" d="M 630.5,98.5 C 630.667,111.504 630.5,124.504 630,137.5C 629.004,141.816 628.17,146.149 627.5,150.5C 626.655,151.671 625.989,153.005 625.5,154.5C 616.931,167.946 604.598,173.613 588.5,171.5C 571.922,173.547 559.922,167.214 552.5,152.5C 552.5,152.167 552.5,151.833 552.5,151.5C 551.035,147.976 550.035,144.309 549.5,140.5C 548.634,126.52 548.301,112.52 548.5,98.5C 550.706,83.3957 558.706,72.729 572.5,66.5C 575.152,66.5905 577.485,65.9238 579.5,64.5C 597.325,60.9295 612.159,65.9295 624,79.5C 627.554,85.3952 629.721,91.7286 630.5,98.5 Z"/></g>
<g><path style="opacity:1" fill="#846751" d="M 579.5,64.5 C 577.485,65.9238 575.152,66.5905 572.5,66.5C 574.515,65.0762 576.848,64.4095 579.5,64.5 Z"/></g>
<g><path style="opacity:1" fill="#ebad7e" d="M 547.5,120.5 C 547.133,127.415 547.799,134.081 549.5,140.5C 550.035,144.309 551.035,147.976 552.5,151.5C 547.074,147.669 543.907,142.336 543,135.5C 542.333,131.5 542.333,127.5 543,123.5C 543.908,121.561 545.408,120.561 547.5,120.5 Z"/></g>
<g><path style="opacity:1" fill="#ab8060" d="M 548.5,98.5 C 548.301,112.52 548.634,126.52 549.5,140.5C 547.799,134.081 547.133,127.415 547.5,120.5C 547.175,112.981 547.508,105.648 548.5,98.5 Z"/></g>
<g><path style="opacity:1" fill="#dea477" d="M 630.5,98.5 C 631.492,105.648 631.825,112.981 631.5,120.5C 637.213,122.881 639.046,127.214 637,133.5C 635.928,138.383 634.261,143.05 632,147.5C 630.871,149.141 629.371,150.141 627.5,150.5C 628.17,146.149 629.004,141.816 630,137.5C 630.5,124.504 630.667,111.504 630.5,98.5 Z"/></g>
<g><path style="opacity:1" fill="#f9c694" d="M 552.5,152.5 C 559.922,167.214 571.922,173.547 588.5,171.5C 604.598,173.613 616.931,167.946 625.5,154.5C 624.109,160.619 621.609,166.285 618,171.5C 617.333,180.167 617.333,188.833 618,197.5C 631.466,203.817 644.966,209.984 658.5,216C 669.503,218.668 680.169,222.334 690.5,227C 700.039,233.569 706.539,242.402 710,253.5C 710.333,265.833 710.667,278.167 711,290.5C 712.708,297.745 713.874,305.079 714.5,312.5C 714.99,323.662 715.657,334.662 716.5,345.5C 716.128,356.266 716.961,366.933 719,377.5C 722.778,384.828 725.778,392.495 728,400.5C 730.329,419.106 731.995,437.772 733,456.5C 733.737,464.616 735.07,472.616 737,480.5C 743.969,486.468 750.636,492.801 757,499.5C 761.983,508.466 766.15,517.8 769.5,527.5C 761.843,528.353 757.01,525.02 755,517.5C 754.189,516.04 753.355,515.707 752.5,516.5C 757.481,528.909 759.481,541.742 758.5,555C 757.629,556.364 756.629,557.53 755.5,558.5C 752.63,547.221 749.963,535.887 747.5,524.5C 746.5,524.5 745.5,524.5 744.5,524.5C 746.929,536.881 749.929,548.881 753.5,560.5C 750.539,563.017 747.539,563.017 744.5,560.5C 744.938,560.565 745.272,560.399 745.5,560C 742.781,549.528 740.115,539.028 737.5,528.5C 736.5,528.5 735.5,528.5 734.5,528.5C 737.721,538.969 740.388,549.636 742.5,560.5C 738.584,561.039 735.584,559.706 733.5,556.5C 731.672,547.852 729.839,539.186 728,530.5C 727.29,529.027 726.124,528.36 724.5,528.5C 726.682,537.562 729.015,546.562 731.5,555.5C 729.407,554.955 727.407,554.122 725.5,553C 723.542,550.252 721.709,547.418 720,544.5C 715.598,531.292 711.598,517.959 708,504.5C 707.667,497.5 707.333,490.5 707,483.5C 700.233,462.633 692.9,441.967 685,421.5C 681.776,411.098 680.276,400.431 680.5,389.5C 680.761,382.928 680.094,376.594 678.5,370.5C 676.27,353.685 673.27,337.019 669.5,320.5C 670.693,320.03 671.36,319.03 671.5,317.5C 673.012,309.121 674.679,300.787 676.5,292.5C 676.333,290.833 676.167,289.167 676,287.5C 673.546,295.862 670.88,304.195 668,312.5C 667.4,315.095 667.9,317.429 669.5,319.5C 668.351,319.791 667.684,320.624 667.5,322C 663.429,337.555 658.929,353.055 654,368.5C 653,387.161 652.667,405.827 653,424.5C 654.74,432.084 655.906,439.751 656.5,447.5C 634.773,452.139 612.773,454.139 590.5,453.5C 567.554,454.197 544.887,452.197 522.5,447.5C 523.989,441.249 525.156,434.916 526,428.5C 526.667,408.833 526.667,389.167 526,369.5C 520.508,352.363 515.842,335.03 512,317.5C 511.722,318.416 511.222,319.082 510.5,319.5C 511.329,316.531 511.495,313.531 511,310.5C 508.736,303.206 506.569,295.873 504.5,288.5C 504.167,290.333 503.833,292.167 503.5,294C 505.018,303.659 507.352,312.826 510.5,321.5C 503.585,349.074 499.418,377.074 498,405.5C 496.921,411.562 495.588,417.562 494,423.5C 486.268,444.031 478.934,464.698 472,485.5C 471.839,494.217 471.173,502.884 470,511.5C 465.864,524.241 461.531,536.908 457,549.5C 454.914,552.094 452.414,554.094 449.5,555.5C 450.536,546.287 452.536,537.287 455.5,528.5C 454.167,528.5 452.833,528.5 451.5,528.5C 450.787,537.352 449.12,546.019 446.5,554.5C 446.624,555.107 446.957,555.44 447.5,555.5C 445.065,558.93 441.731,560.596 437.5,560.5C 439.315,550.286 441.981,540.286 445.5,530.5C 442.682,529.119 441.182,530.119 441,533.5C 438.983,542.567 436.816,551.567 434.5,560.5C 431.833,561.833 429.167,561.833 426.5,560.5C 429.321,548.887 432.321,537.22 435.5,525.5C 434.5,525.5 433.5,525.5 432.5,525.5C 429.418,536.411 426.751,547.411 424.5,558.5C 422.978,557.809 421.978,556.642 421.5,555C 420.907,552.208 420.574,549.374 420.5,546.5C 422.055,535.627 424.222,524.96 427,514.5C 424.552,518.615 421.719,522.448 418.5,526C 415.986,527.252 413.32,527.752 410.5,527.5C 414.039,513.038 421.039,500.538 431.5,490C 436.427,488.125 440.26,484.958 443,480.5C 446.207,453.525 449.207,426.525 452,399.5C 454.27,392.025 456.936,384.691 460,377.5C 461.413,373.261 462.413,368.928 463,364.5C 463.333,348.5 463.667,332.5 464,316.5C 468.312,298.881 469.812,281.048 468.5,263C 470.16,246.351 478.16,233.684 492.5,225C 501.638,221.433 510.971,218.433 520.5,216C 533.938,209.28 547.605,203.113 561.5,197.5C 562.636,189.215 562.803,180.882 562,172.5C 558.477,167.453 555.477,162.12 553,156.5C 552.51,155.207 552.343,153.873 552.5,152.5 Z"/></g>
<g><path style="opacity:1" fill="#e8a573" d="M 181.5,173.5 C 181.5,173.167 181.5,172.833 181.5,172.5C 186.763,176.808 192.43,180.642 198.5,184C 206.631,186.241 214.631,185.908 222.5,183C 226.759,179.619 230.926,176.119 235,172.5C 235.167,173 235.333,173.5 235.5,174C 231.991,179.009 227.657,183.176 222.5,186.5C 218.357,188.955 213.857,189.955 209,189.5C 205.38,189.584 201.88,189.084 198.5,188C 192.322,183.647 186.656,178.814 181.5,173.5 Z"/></g>
<g><path style="opacity:1" fill="#f9c694" d="M 250.5,95.5 C 251.167,103.01 251.833,110.677 252.5,118.5C 256.817,120.489 258.484,123.823 257.5,128.5C 257.526,135.062 255.692,141.062 252,146.5C 250.89,148.037 249.39,148.703 247.5,148.5C 246.509,157.002 243.009,164.336 237,170.5C 236.333,178.5 236.333,186.5 237,194.5C 237.692,195.025 238.192,195.692 238.5,196.5C 251.912,202.028 265.246,207.862 278.5,214C 319.726,221.275 336.893,245.775 330,287.5C 334.855,312.908 336.855,338.575 336,364.5C 336.333,366.833 336.667,369.167 337,371.5C 340.906,380.643 344.24,389.976 347,399.5C 349.597,422.799 351.93,446.132 354,469.5C 354.934,473.637 356.268,477.637 358,481.5C 365.546,485.779 371.879,491.446 377,498.5C 380.745,506.584 384.579,514.584 388.5,522.5C 388.392,523.442 388.059,524.275 387.5,525C 385.5,525.667 383.5,525.667 381.5,525C 377.241,521.642 374.074,517.475 372,512.5C 375.034,523.187 376.867,534.187 377.5,545.5C 377.333,548.167 377.167,550.833 377,553.5C 376.292,554.381 375.458,555.047 374.5,555.5C 373.199,554.118 372.366,552.452 372,550.5C 369.76,541.574 367.927,532.574 366.5,523.5C 365.5,523.5 364.5,523.5 363.5,523.5C 366.189,535.297 368.856,546.964 371.5,558.5C 362.82,560.293 355.153,558.293 348.5,552.5C 344.178,551.009 341.345,548.009 340,543.5C 336.201,531.77 332.201,520.103 328,508.5C 326.891,499.204 326.224,489.87 326,480.5C 318.042,458.921 310.375,437.254 303,415.5C 302.183,411.101 301.183,406.768 300,402.5C 299.661,389.781 298.661,377.114 297,364.5C 294.068,347.365 291.235,330.365 288.5,313.5C 291.451,307.794 292.451,301.794 291.5,295.5C 290.914,295.709 290.414,296.043 290,296.5C 289.951,303.802 287.784,310.302 283.5,316C 274.346,320.881 264.512,323.047 254,322.5C 247.477,322.298 240.977,321.798 234.5,321C 232.385,320.443 230.385,319.609 228.5,318.5C 228.167,318.833 227.833,319.167 227.5,319.5C 232.003,322.406 237.003,324.24 242.5,325C 255.458,326.517 268.124,325.35 280.5,321.5C 283.091,319.719 285.425,317.719 287.5,315.5C 286.336,321.147 285.169,326.814 284,332.5C 279.753,342.905 276.087,353.571 273,364.5C 272.146,383.498 271.812,402.498 272,421.5C 273.507,430.854 275.007,440.188 276.5,449.5C 237.725,455.982 198.725,457.149 159.5,453C 153.222,452.097 147.222,450.597 141.5,448.5C 141.695,441.666 142.861,435 145,428.5C 145.667,408.5 145.667,388.5 145,368.5C 141.64,356.392 137.974,344.392 134,332.5C 133.322,327.46 132.489,322.46 131.5,317.5C 140.201,324.087 150.034,326.753 161,325.5C 171.467,326.509 181.3,324.509 190.5,319.5C 190,319.167 189.5,318.833 189,318.5C 172.999,323.277 156.832,323.777 140.5,320C 137.217,318.439 134.383,316.273 132,313.5C 129.427,307.733 127.594,301.733 126.5,295.5C 124.859,301.835 125.526,307.835 128.5,313.5C 126.049,333.48 122.882,353.48 119,373.5C 119.037,385.605 118.037,397.605 116,409.5C 108.913,431.765 101.246,453.765 93,475.5C 91.005,485.386 90.005,495.386 90,505.5C 85.3651,519.484 80.6985,533.484 76,547.5C 74.1433,550.2 71.6433,551.866 68.5,552.5C 65.0382,555.564 61.0382,557.564 56.5,558.5C 59.171,547.816 61.8377,537.149 64.5,526.5C 63.5,526.5 62.5,526.5 61.5,526.5C 58.8323,537.179 56.1656,547.845 53.5,558.5C 50.728,559.767 48.0613,559.767 45.5,558.5C 48.4821,546.618 51.4821,534.618 54.5,522.5C 53.1779,522.33 52.0113,522.663 51,523.5C 48.9701,534.619 46.4701,545.619 43.5,556.5C 40.0809,553.138 38.7476,548.971 39.5,544C 40.708,533.635 42.5414,523.468 45,513.5C 42.888,517.278 40.388,520.778 37.5,524C 35.3046,525.373 32.9712,525.706 30.5,525C 29.9415,524.275 29.6082,523.442 29.5,522.5C 33.5696,511.112 39.2363,500.612 46.5,491C 51.2714,487.862 55.7714,484.362 60,480.5C 63.1757,471.788 65.1757,462.788 66,453.5C 66.6711,436.442 68.0044,419.442 70,402.5C 74.0025,389.826 78.0025,377.159 82,364.5C 81.1527,337.265 83.1527,310.265 88,283.5C 82.1326,243.715 98.966,220.549 138.5,214C 152.55,207.101 166.716,200.601 181,194.5C 181.5,187.508 181.666,180.508 181.5,173.5C 186.656,178.814 192.322,183.647 198.5,188C 201.88,189.084 205.38,189.584 209,189.5C 213.857,189.955 218.357,188.955 222.5,186.5C 227.657,183.176 231.991,179.009 235.5,174C 235.333,173.5 235.167,173 235,172.5C 230.926,176.119 226.759,179.619 222.5,183C 214.631,185.908 206.631,186.241 198.5,184C 192.43,180.642 186.763,176.808 181.5,172.5C 178.189,168.344 175.023,164.01 172,159.5C 171.005,156.23 170.172,152.897 169.5,149.5C 168.252,148.96 167.085,148.293 166,147.5C 160.981,139.649 159.148,131.149 160.5,122C 161.763,119.536 163.763,118.37 166.5,118.5C 166.5,119.833 166.5,121.167 166.5,122.5C 164.106,124.332 163.106,126.832 163.5,130C 163.637,132.898 164.137,135.731 165,138.5C 165.368,139.91 166.201,140.91 167.5,141.5C 168.493,136.88 168.827,132.214 168.5,127.5C 169.329,120.679 169.829,113.679 170,106.5C 171.259,100.146 174.426,94.9791 179.5,91C 188.33,90.7611 197.163,90.9277 206,91.5C 214.387,91.4922 222.721,90.8255 231,89.5C 238.008,90.4906 242.675,94.4906 245,101.5C 247.117,110.383 248.617,119.383 249.5,128.5C 250.499,117.52 250.832,106.52 250.5,95.5 Z"/></g>
<g><path style="opacity:1" fill="#ce8a5d" d="M 194.5,161.5 C 203.833,161.5 213.167,161.5 222.5,161.5C 222.5,162.5 222.5,163.5 222.5,164.5C 213.167,164.5 203.833,164.5 194.5,164.5C 194.5,163.5 194.5,162.5 194.5,161.5 Z"/></g>
<g><path style="opacity:1" fill="#61360c" d="M 232.5,126.5 C 232.634,128.292 232.301,129.958 231.5,131.5C 228.917,132.938 226.583,132.604 224.5,130.5C 224.5,129.5 224.5,128.5 224.5,127.5C 226.024,128.174 227.358,129.174 228.5,130.5C 229.84,129.133 231.173,127.8 232.5,126.5 Z"/></g>
<g><path style="opacity:1" fill="#613710" d="M 184.5,126.5 C 185.827,127.8 187.16,129.133 188.5,130.5C 189.642,129.174 190.976,128.174 192.5,127.5C 192.371,129.216 192.038,130.883 191.5,132.5C 189.379,132.675 187.379,132.341 185.5,131.5C 184.699,129.958 184.366,128.292 184.5,126.5 Z"/></g>
<g><path style="opacity:1" fill="#f2ede5" d="M 232.5,126.5 C 234.38,126.229 235.713,126.896 236.5,128.5C 235.902,131.821 234.235,132.821 231.5,131.5C 232.301,129.958 232.634,128.292 232.5,126.5 Z"/></g>
<g><path style="opacity:1" fill="#f1ede3" d="M 224.5,127.5 C 224.5,128.5 224.5,129.5 224.5,130.5C 223.092,132.86 221.759,132.526 220.5,129.5C 221.375,127.194 222.708,126.527 224.5,127.5 Z"/></g>
<g><path style="opacity:1" fill="#ede6dd" d="M 196.5,129.5 C 195.599,131.727 193.933,132.727 191.5,132.5C 192.038,130.883 192.371,129.216 192.5,127.5C 194.292,126.527 195.625,127.194 196.5,129.5 Z"/></g>
<g><path style="opacity:1" fill="#f3f0e7" d="M 184.5,126.5 C 184.366,128.292 184.699,129.958 185.5,131.5C 183.257,132.858 181.591,132.192 180.5,129.5C 180.694,127.088 182.027,126.088 184.5,126.5 Z"/></g>
<g><path style="opacity:1" fill="#3a200a" d="M 236.5,128.5 C 235.713,126.896 234.38,126.229 232.5,126.5C 231.173,127.8 229.84,129.133 228.5,130.5C 227.358,129.174 226.024,128.174 224.5,127.5C 222.708,126.527 221.375,127.194 220.5,129.5C 219.624,129.631 218.957,129.298 218.5,128.5C 220.664,124.129 224.164,122.462 229,123.5C 234.602,122.148 237.602,124.148 238,129.5C 237.617,128.944 237.117,128.611 236.5,128.5 Z"/></g>
<g><path style="opacity:1" fill="#ecae7b" d="M 166.5,122.5 C 166.077,124.781 166.744,126.448 168.5,127.5C 168.827,132.214 168.493,136.88 167.5,141.5C 166.201,140.91 165.368,139.91 165,138.5C 164.137,135.731 163.637,132.898 163.5,130C 163.106,126.832 164.106,124.332 166.5,122.5 Z"/></g>
<g><path style="opacity:1" fill="#412712" d="M 196.5,129.5 C 195.625,127.194 194.292,126.527 192.5,127.5C 190.976,128.174 189.642,129.174 188.5,130.5C 187.16,129.133 185.827,127.8 184.5,126.5C 182.027,126.088 180.694,127.088 180.5,129.5C 178.775,129.157 178.275,128.157 179,126.5C 183.515,122.204 188.681,121.37 194.5,124C 196.019,125.351 197.352,126.851 198.5,128.5C 198.043,129.298 197.376,129.631 196.5,129.5 Z"/></g>
<g><path style="opacity:1" fill="#502f13" d="M 219.5,114.5 C 224.844,114.334 230.177,114.501 235.5,115C 237.641,116.308 239.641,117.808 241.5,119.5C 241,119.833 240.5,120.167 240,120.5C 236.85,119.024 233.517,118.358 230,118.5C 225.405,118.646 220.905,119.313 216.5,120.5C 216.028,117.642 217.028,115.642 219.5,114.5 Z"/></g>
<g><path style="opacity:1" fill="#4c2c10" d="M 181.5,114.5 C 187.577,114.196 193.577,114.696 199.5,116C 200.38,117.356 200.714,118.856 200.5,120.5C 195.657,119.942 190.823,119.275 186,118.5C 182.813,118.394 179.813,119.061 177,120.5C 176.5,120.167 176,119.833 175.5,119.5C 177.544,117.781 179.544,116.114 181.5,114.5 Z"/></g>
<g><path style="opacity:1" fill="#edb07d" d="M 248.5,215.5 C 254.842,215.334 261.175,215.5 267.5,216C 253.343,218.996 239.009,221.162 224.5,222.5C 223.833,222.167 223.167,221.833 222.5,221.5C 230.997,218.203 239.664,216.203 248.5,215.5 Z"/></g>
<g><path style="opacity:1" fill="#ecac7a" d="M 208.5,258.5 C 209.959,266.954 210.625,275.621 210.5,284.5C 210.603,290.911 210.103,297.244 209,303.5C 207.852,297.666 207.352,291.666 207.5,285.5C 207.696,276.491 208.03,267.491 208.5,258.5 Z"/></g>
<g><path style="opacity:1" fill="#e7a571" d="M 600.5,264.5 C 602.911,278.913 604.077,293.58 604,308.5C 605.513,312.681 607.846,316.348 611,319.5C 611.688,320.332 611.521,320.998 610.5,321.5C 605.221,318.069 601.721,313.403 600,307.5C 599.185,293.092 599.352,278.759 600.5,264.5 Z"/></g>
<g><path style="opacity:1" fill="#e8a673" d="M 578.5,263.5 C 579.816,266.087 580.483,269.087 580.5,272.5C 581.426,283.826 581.593,295.159 581,306.5C 579.335,313.34 575.502,318.674 569.5,322.5C 569.167,322.167 568.833,321.833 568.5,321.5C 571.734,318.196 574.067,314.363 575.5,310C 576.972,294.53 577.972,279.03 578.5,263.5 Z"/></g>
<g><path style="opacity:1" fill="#edb07d" d="M 510.5,319.5 C 510.5,320.167 510.5,320.833 510.5,321.5C 507.352,312.826 505.018,303.659 503.5,294C 503.833,292.167 504.167,290.333 504.5,288.5C 506.569,295.873 508.736,303.206 511,310.5C 511.495,313.531 511.329,316.531 510.5,319.5 Z"/></g>
<g><path style="opacity:1" fill="#e8a575" d="M 149.5,304.5 C 151.924,304.192 154.257,304.526 156.5,305.5C 159.08,307.713 159.08,309.88 156.5,312C 148.093,314.438 145.759,311.938 149.5,304.5 Z"/></g>
<g><path style="opacity:1" fill="#e7a472" d="M 262.5,305.5 C 264.857,305.337 267.19,305.503 269.5,306C 272.167,308 272.167,310 269.5,312C 266.833,312.667 264.167,312.667 261.5,312C 260.091,309.536 260.424,307.369 262.5,305.5 Z"/></g>
<g><path style="opacity:1" fill="#e7a674" d="M 288.5,313.5 C 288.167,314.167 287.833,314.833 287.5,315.5C 285.425,317.719 283.091,319.719 280.5,321.5C 268.124,325.35 255.458,326.517 242.5,325C 237.003,324.24 232.003,322.406 227.5,319.5C 227.833,319.167 228.167,318.833 228.5,318.5C 230.385,319.609 232.385,320.443 234.5,321C 240.977,321.798 247.477,322.298 254,322.5C 264.512,323.047 274.346,320.881 283.5,316C 287.784,310.302 289.951,303.802 290,296.5C 290.414,296.043 290.914,295.709 291.5,295.5C 292.451,301.794 291.451,307.794 288.5,313.5 Z"/></g>
<g><path style="opacity:1" fill="#edb17c" d="M 669.5,320.5 C 669.5,320.167 669.5,319.833 669.5,319.5C 667.9,317.429 667.4,315.095 668,312.5C 670.88,304.195 673.546,295.862 676,287.5C 676.167,289.167 676.333,290.833 676.5,292.5C 674.679,300.787 673.012,309.121 671.5,317.5C 671.36,319.03 670.693,320.03 669.5,320.5 Z"/></g>
<g><path style="opacity:1" fill="#e7a673" d="M 131.5,317.5 C 130.488,316.128 129.488,314.795 128.5,313.5C 125.526,307.835 124.859,301.835 126.5,295.5C 127.594,301.733 129.427,307.733 132,313.5C 134.383,316.273 137.217,318.439 140.5,320C 156.832,323.777 172.999,323.277 189,318.5C 189.5,318.833 190,319.167 190.5,319.5C 181.3,324.509 171.467,326.509 161,325.5C 150.034,326.753 140.201,324.087 131.5,317.5 Z"/></g>
<g><path style="opacity:1" fill="#fbd8b7" d="M 714.5,312.5 C 715.309,314.292 715.809,316.292 716,318.5C 716.5,327.494 716.666,336.494 716.5,345.5C 715.657,334.662 714.99,323.662 714.5,312.5 Z"/></g>
<g><path style="opacity:1" fill="#eeaf7c" d="M 191.5,334.5 C 192.552,334.351 193.552,334.517 194.5,335C 183.271,344.551 174.771,356.051 169,369.5C 169.112,364.574 170.445,359.908 173,355.5C 177.945,347.391 184.111,340.391 191.5,334.5 Z"/></g>
<g><path style="opacity:1" fill="#ecae7a" d="M 223.5,333.5 C 235.542,341.061 243.708,351.727 248,365.5C 248.667,367.167 248.667,368.833 248,370.5C 241.811,356.77 233.645,344.436 223.5,333.5 Z"/></g>
<g><path style="opacity:1" fill="#edb17c" d="M 207.5,341.5 C 208.832,351.812 209.499,362.478 209.5,373.5C 209.333,384.167 209.167,394.833 209,405.5C 208.586,405.957 208.086,406.291 207.5,406.5C 206.318,384.832 206.318,363.165 207.5,341.5 Z"/></g>
<g><path style="opacity:1" fill="#fbe3c9" d="M 678.5,370.5 C 680.094,376.594 680.761,382.928 680.5,389.5C 679.253,383.37 678.586,377.037 678.5,370.5 Z"/></g>
<g><path style="opacity:1" fill="#edb17c" d="M 589.5,346.5 C 590.268,347.263 590.768,348.263 591,349.5C 591.167,360.667 591.333,371.833 591.5,383C 591.647,394.926 591.147,406.759 590,418.5C 588.842,406.652 588.342,394.652 588.5,382.5C 588.51,370.426 588.843,358.426 589.5,346.5 Z"/></g>
<g><path style="opacity:1" fill="#b1a39d" d="M 522.5,447.5 C 544.887,452.197 567.554,454.197 590.5,453.5C 612.773,454.139 634.773,452.139 656.5,447.5C 657.75,447.577 658.583,448.244 659,449.5C 663.429,475.648 665.929,501.981 666.5,528.5C 643.444,542.946 619.111,545.279 593.5,535.5C 591.044,531.745 588.71,531.745 586.5,535.5C 580.9,537.645 575.233,539.478 569.5,541C 561.5,541.667 553.5,541.667 545.5,541C 537.702,539.067 530.035,536.734 522.5,534C 519.117,532.314 516.117,530.147 513.5,527.5C 514.477,502.4 516.643,477.4 520,452.5C 520.374,450.509 521.207,448.842 522.5,447.5 Z"/></g>
<g><path style="opacity:1" fill="#b1a39d" d="M 141.5,448.5 C 147.222,450.597 153.222,452.097 159.5,453C 198.725,457.149 237.725,455.982 276.5,449.5C 278.045,450.23 278.878,451.563 279,453.5C 280.23,467.55 281.897,481.55 284,495.5C 284.949,509.486 285.449,523.486 285.5,537.5C 261.363,542.826 237.03,543.826 212.5,540.5C 211.506,531.014 211.173,521.348 211.5,511.5C 209.833,511.5 208.167,511.5 206.5,511.5C 206.827,521.348 206.494,531.014 205.5,540.5C 180.924,543.889 156.591,542.889 132.5,537.5C 131.861,533.08 131.528,528.58 131.5,524C 132.651,501.062 134.818,478.229 138,455.5C 138.522,452.719 139.689,450.385 141.5,448.5 Z"/></g>
<g><path style="opacity:1" fill="#e7a775" d="M 67.5,495.5 C 68.5983,496.601 68.765,497.934 68,499.5C 64.1089,504.859 58.9422,507.692 52.5,508C 59.1299,505.699 64.1299,501.532 67.5,495.5 Z"/></g>
<g><path style="opacity:1" fill="#e7a673" d="M 374.5,555.5 C 373.833,556.833 372.833,557.833 371.5,558.5C 368.856,546.964 366.189,535.297 363.5,523.5C 364.5,523.5 365.5,523.5 366.5,523.5C 367.927,532.574 369.76,541.574 372,550.5C 372.366,552.452 373.199,554.118 374.5,555.5 Z"/></g>
<g><path style="opacity:1" fill="#f9c794" d="M 666.5,528.5 C 666.761,554.943 665.261,581.276 662,607.5C 656.372,633.024 650.372,658.357 644,683.5C 645.566,701.105 646.732,718.772 647.5,736.5C 647.373,755.277 645.873,773.944 643,792.5C 637.82,814.047 632.82,835.713 628,857.5C 627.058,866.602 627.391,875.602 629,884.5C 633.714,889.442 639.214,893.275 645.5,896C 648.129,898.115 650.129,900.615 651.5,903.5C 651.526,907.612 649.526,910.112 645.5,911C 632.644,914.964 619.644,918.464 606.5,921.5C 604.167,921.333 601.833,921.167 599.5,921C 597.759,919.38 595.925,917.88 594,916.5C 590.5,906.458 590.834,896.458 595,886.5C 598.175,858.246 599.175,829.912 598,801.5C 594.583,772.228 593.916,742.895 596,713.5C 598.097,704.821 599.263,695.988 599.5,687C 597.065,656.548 595.232,626.048 594,595.5C 593.5,575.503 593.333,555.503 593.5,535.5C 619.111,545.279 643.444,542.946 666.5,528.5 Z"/></g>
<g><path style="opacity:1" fill="#e8a674" d="M 348.5,552.5 C 347.468,543.707 345.801,535.04 343.5,526.5C 344.5,526.5 345.5,526.5 346.5,526.5C 348.167,535.168 349.833,543.834 351.5,552.5C 350.5,552.5 349.5,552.5 348.5,552.5 Z"/></g>
<g><path style="opacity:1" fill="#e7a673" d="M 352.5,526.5 C 353.833,526.5 355.167,526.5 356.5,526.5C 358.823,536.46 361.156,546.46 363.5,556.5C 362.675,557.386 361.675,557.719 360.5,557.5C 358.633,546.909 355.966,536.575 352.5,526.5 Z"/></g>
<g><path style="opacity:1" fill="#e8a774" d="M 426.5,560.5 C 425.5,560.167 424.833,559.5 424.5,558.5C 426.751,547.411 429.418,536.411 432.5,525.5C 433.5,525.5 434.5,525.5 435.5,525.5C 432.321,537.22 429.321,548.887 426.5,560.5 Z"/></g>
<g><path style="opacity:1" fill="#e7a672" d="M 45.5,558.5 C 45.1667,557.5 44.5,556.833 43.5,556.5C 46.4701,545.619 48.9701,534.619 51,523.5C 52.0113,522.663 53.1779,522.33 54.5,522.5C 51.4821,534.618 48.4821,546.618 45.5,558.5 Z"/></g>
<g><path style="opacity:1" fill="#e7a774" d="M 68.5,552.5 C 67.3065,552.03 66.6399,551.03 66.5,549.5C 68.4874,542.268 69.9874,534.935 71,527.5C 72.0113,526.663 73.1779,526.33 74.5,526.5C 71.884,535.017 69.884,543.683 68.5,552.5 Z"/></g>
<g><path style="opacity:1" fill="#e7a472" d="M 449.5,555.5 C 448.833,555.5 448.167,555.5 447.5,555.5C 446.957,555.44 446.624,555.107 446.5,554.5C 449.12,546.019 450.787,537.352 451.5,528.5C 452.833,528.5 454.167,528.5 455.5,528.5C 452.536,537.287 450.536,546.287 449.5,555.5 Z"/></g>
<g><path style="opacity:1" fill="#f9c794" d="M 513.5,527.5 C 516.117,530.147 519.117,532.314 522.5,534C 530.035,536.734 537.702,539.067 545.5,541C 553.5,541.667 561.5,541.667 569.5,541C 575.233,539.478 580.9,537.645 586.5,535.5C 586.685,561.513 586.185,587.513 585,613.5C 582.875,637.127 581.375,660.794 580.5,684.5C 580.684,695.27 581.85,705.937 584,716.5C 584.167,725 584.333,733.5 584.5,742C 584.179,769.899 582.846,797.732 580.5,825.5C 580.963,850.796 583.796,875.796 589,900.5C 591.302,908.584 589.135,915.084 582.5,920C 577.905,921.393 573.239,921.726 568.5,921C 557.061,918.175 545.727,914.842 534.5,911C 530.139,908.774 528.639,905.274 530,900.5C 537,895.5 544,890.5 551,885.5C 552.839,875.891 552.839,866.224 551,856.5C 546.75,833.333 541.75,810.333 536,787.5C 534.931,780.854 534.098,774.188 533.5,767.5C 532.667,752.516 532.334,737.516 532.5,722.5C 532.808,716.087 533.641,709.754 535,703.5C 536.365,681.323 532.698,659.989 524,639.5C 516.582,602.566 513.082,565.232 513.5,527.5 Z"/></g>
<g><path style="opacity:1" fill="#f9c694" d="M 132.5,537.5 C 156.591,542.889 180.924,543.889 205.5,540.5C 205.667,556.17 205.5,571.837 205,587.5C 202.909,619.15 201.076,650.817 199.5,682.5C 201.203,701.153 202.536,719.819 203.5,738.5C 201.933,767.335 200.267,796.168 198.5,825C 199.855,842.136 200.688,859.303 201,876.5C 204.293,887.421 206.46,898.588 207.5,910C 208.105,915.125 206.105,918.792 201.5,921C 186.564,922.381 171.897,921.047 157.5,917C 150.502,913.77 148.668,908.603 152,901.5C 157,892.833 162,884.167 167,875.5C 169.358,871.79 170.858,867.79 171.5,863.5C 169.912,848.482 166.745,833.816 162,819.5C 155.773,792.812 151.94,765.812 150.5,738.5C 151.335,724.47 152.502,710.47 154,696.5C 154.667,690.167 154.667,683.833 154,677.5C 148.412,656.227 143.079,634.894 138,613.5C 134.508,588.293 132.675,562.96 132.5,537.5 Z"/></g>
<g><path style="opacity:1" fill="#f9c794" d="M 285.5,537.5 C 284.888,563.287 282.721,588.954 279,614.5C 273.649,636.522 268.316,658.522 263,680.5C 264.745,699.761 265.912,719.094 266.5,738.5C 265.091,774.62 259.258,809.953 249,844.5C 246.956,852.735 246.29,861.068 247,869.5C 254.628,881.757 261.461,894.424 267.5,907.5C 266.813,912.352 264.146,915.519 259.5,917C 244.315,921.32 228.982,922.32 213.5,920C 211.022,916.999 210.022,913.499 210.5,909.5C 210.983,899.252 212.816,889.252 216,879.5C 216.446,860.295 217.279,841.128 218.5,822C 216.999,794.327 215.333,766.66 213.5,739C 214.832,720.006 216.165,701.006 217.5,682C 217.037,659.129 215.87,636.295 214,613.5C 213.05,589.175 212.55,564.842 212.5,540.5C 237.03,543.826 261.363,542.826 285.5,537.5 Z"/></g>
<g><path style="opacity:1" fill="#e9a875" d="M 56.5,558.5 C 55.5,558.5 54.5,558.5 53.5,558.5C 56.1656,547.845 58.8323,537.179 61.5,526.5C 62.5,526.5 63.5,526.5 64.5,526.5C 61.8377,537.149 59.171,547.816 56.5,558.5 Z"/></g>
<g><path style="opacity:1" fill="#e8a673" d="M 437.5,560.5 C 436.5,560.5 435.5,560.5 434.5,560.5C 436.816,551.567 438.983,542.567 441,533.5C 441.182,530.119 442.682,529.119 445.5,530.5C 441.981,540.286 439.315,550.286 437.5,560.5 Z"/></g>
<g><path style="opacity:1" fill="#e9a776" d="M 733.5,556.5 C 732.833,556.167 732.167,555.833 731.5,555.5C 729.015,546.562 726.682,537.562 724.5,528.5C 726.124,528.36 727.29,529.027 728,530.5C 729.839,539.186 731.672,547.852 733.5,556.5 Z"/></g>
<g><path style="opacity:1" fill="#e8a775" d="M 755.5,558.5 C 755.167,559.5 754.5,560.167 753.5,560.5C 749.929,548.881 746.929,536.881 744.5,524.5C 745.5,524.5 746.5,524.5 747.5,524.5C 749.963,535.887 752.63,547.221 755.5,558.5 Z"/></g>
<g><path style="opacity:1" fill="#e9a874" d="M 744.5,560.5 C 743.833,560.5 743.167,560.5 742.5,560.5C 740.388,549.636 737.721,538.969 734.5,528.5C 735.5,528.5 736.5,528.5 737.5,528.5C 740.115,539.028 742.781,549.528 745.5,560C 745.272,560.399 744.938,560.565 744.5,560.5 Z"/></g>
<g><path style="opacity:1" fill="#ecb07c" d="M 552.5,681.5 C 556.846,681.334 561.179,681.501 565.5,682C 567.002,682.583 568.335,683.416 569.5,684.5C 562.656,685.219 555.823,685.886 549,686.5C 548.5,686.167 548,685.833 547.5,685.5C 549.015,683.832 550.682,682.499 552.5,681.5 Z"/></g>
<g><path style="opacity:1" fill="#ebaf7c" d="M 167.5,681.5 C 167.735,680.903 168.235,680.57 169,680.5C 174.552,682.756 180.385,684.09 186.5,684.5C 184.171,688.252 180.837,689.418 176.5,688C 173.062,686.389 170.062,684.223 167.5,681.5 Z"/></g>
<g><path style="opacity:1" fill="#edaf7c" d="M 247.5,680.5 C 248.552,680.351 249.552,680.517 250.5,681C 247.443,683.723 244.11,686.056 240.5,688C 235.475,689.606 231.808,688.106 229.5,683.5C 233.995,683.52 238.662,683.354 243.5,683C 244.858,682.066 246.192,681.232 247.5,680.5 Z"/></g>
<g><path style="opacity:1" fill="#fbdec1" d="M 532.5,722.5 C 532.334,737.516 532.667,752.516 533.5,767.5C 531.976,758.886 531.309,750.053 531.5,741C 531.5,734.657 531.834,728.491 532.5,722.5 Z"/></g>
</svg>
