<?xml version="1.0" encoding="UTF-8"?>
<!DOCTYPE svg PUBLIC "-//W3C//DTD SVG 1.1//EN" "http://www.w3.org/Graphics/SVG/1.1/DTD/svg11.dtd">
<svg xmlns="http://www.w3.org/2000/svg" version="1.1" width="662px" height="971px" style="shape-rendering:geometricPrecision; text-rendering:geometricPrecision; image-rendering:optimizeQuality; fill-rule:evenodd; clip-rule:evenodd" xmlns:xlink="http://www.w3.org/1999/xlink">
<g><path style="opacity:1" fill="#fefefe" d="M -0.5,-0.5 C 220.167,-0.5 440.833,-0.5 661.5,-0.5C 661.5,323.167 661.5,646.833 661.5,970.5C 440.833,970.5 220.167,970.5 -0.5,970.5C -0.5,646.833 -0.5,323.167 -0.5,-0.5 Z"/></g>
<g><path style="opacity:1" fill="#46250a" d="M 502.5,104.5 C 502.666,108.514 502.499,112.514 502,116.5C 499.332,119.335 497.665,122.668 497,126.5C 489.874,131.377 482.041,133.71 473.5,133.5C 468.111,133.513 462.778,133.013 457.5,132C 452.615,127.782 448.448,122.948 445,117.5C 444.501,113.514 444.334,109.514 444.5,105.5C 447.688,90.8204 456.855,83.1538 472,82.5C 485.825,81.7381 495.825,87.4047 502,99.5C 502.494,101.134 502.66,102.801 502.5,104.5 Z"/></g>
<g><path style="opacity:1" fill="#48280d" d="M 183.5,99.5 C 183.181,103.3 182.181,103.466 180.5,100C 167.371,94.2917 153.705,92.9583 139.5,96C 135.581,97.6405 131.747,99.4738 128,101.5C 126.97,101.164 126.47,100.497 126.5,99.5C 132.73,89.0431 142.064,83.7098 154.5,83.5C 162.52,83.503 169.853,85.6697 176.5,90C 179.848,92.5014 182.182,95.6681 183.5,99.5 Z"/></g>
<g><path style="opacity:1" fill="#573110" d="M 183.5,99.5 C 186.342,104.214 189.509,108.88 193,113.5C 193.608,115.154 194.108,116.821 194.5,118.5C 195.509,123.283 196.509,127.95 197.5,132.5C 197.5,139.5 197.5,146.5 197.5,153.5C 196.835,155.698 196.168,158.031 195.5,160.5C 194.833,154.681 194.167,149.014 193.5,143.5C 192.5,128.668 184.667,120.668 170,119.5C 157.505,120.352 145.005,120.518 132.5,120C 122.514,124.113 117.014,131.613 116,142.5C 115.5,148.825 115.334,155.158 115.5,161.5C 113.902,159.143 112.902,156.477 112.5,153.5C 112.802,150.941 112.468,148.607 111.5,146.5C 111.425,140.471 111.759,134.471 112.5,128.5C 113.924,126.485 114.59,124.152 114.5,121.5C 116.187,114.824 119.521,109.158 124.5,104.5C 125.17,102.709 125.837,101.042 126.5,99.5C 126.47,100.497 126.97,101.164 128,101.5C 131.747,99.4738 135.581,97.6405 139.5,96C 153.705,92.9583 167.371,94.2917 180.5,100C 182.181,103.466 183.181,103.3 183.5,99.5 Z"/></g>
<g><path style="opacity:1" fill="#563011" d="M 502.5,104.5 C 510.877,112.262 515.211,121.928 515.5,133.5C 516.74,150.388 514.407,166.721 508.5,182.5C 507.5,184.5 506.5,186.5 505.5,188.5C 504.094,188.973 503.427,189.973 503.5,191.5C 500.333,194.498 497,197.331 493.5,200C 492,200.167 490.5,200.333 489,200.5C 478.681,197.509 468.515,197.842 458.5,201.5C 453.675,199.684 449.342,197.017 445.5,193.5C 443.178,189.528 440.845,185.528 438.5,181.5C 437.291,177.411 435.791,173.411 434,169.5C 433.222,162.293 432.055,155.293 430.5,148.5C 430.347,142.131 430.68,135.797 431.5,129.5C 432.924,127.485 433.59,125.152 433.5,122.5C 435.174,115.502 438.841,109.835 444.5,105.5C 444.334,109.514 444.501,113.514 445,117.5C 448.448,122.948 452.615,127.782 457.5,132C 462.778,133.013 468.111,133.513 473.5,133.5C 482.041,133.71 489.874,131.377 497,126.5C 497.665,122.668 499.332,119.335 502,116.5C 502.499,112.514 502.666,108.514 502.5,104.5 Z"/></g>
<g><path style="opacity:1" fill="#8a6e57" d="M 194.5,118.5 C 196.956,122.738 197.956,127.404 197.5,132.5C 196.509,127.95 195.509,123.283 194.5,118.5 Z"/></g>
<g><path style="opacity:1" fill="#9e8472" d="M 114.5,121.5 C 114.59,124.152 113.924,126.485 112.5,128.5C 112.41,125.848 113.076,123.515 114.5,121.5 Z"/></g>
<g><path style="opacity:1" fill="#a38a78" d="M 433.5,122.5 C 433.59,125.152 432.924,127.485 431.5,129.5C 431.41,126.848 432.076,124.515 433.5,122.5 Z"/></g>
<g><path style="opacity:1" fill="#f8c592" d="M 193.5,143.5 C 193.812,150.422 193.479,157.256 192.5,164C 193.516,164.519 194.182,165.353 194.5,166.5C 193.528,169.464 193.362,172.464 194,175.5C 196.928,173.582 198.594,170.915 199,167.5C 199.722,162.95 199.222,158.616 197.5,154.5C 200.292,154.452 202.125,155.785 203,158.5C 203.806,167.114 201.306,174.614 195.5,181C 193.975,182.009 192.308,182.509 190.5,182.5C 189.428,187.099 187.594,191.433 185,195.5C 181.803,199.502 178.303,203.169 174.5,206.5C 168.474,210.515 161.807,213.181 154.5,214.5C 151.774,214.318 149.107,213.818 146.5,213C 142.929,210.579 139.262,208.413 135.5,206.5C 135.5,205.833 135.167,205.5 134.5,205.5C 126.674,199.674 121.674,192.008 119.5,182.5C 112.448,180.606 108.282,175.939 107,168.5C 106.333,164.833 106.333,161.167 107,157.5C 110.756,154.853 112.256,151.187 111.5,146.5C 112.468,148.607 112.802,150.941 112.5,153.5C 108.987,161.574 109.987,168.907 115.5,175.5C 115.472,170.792 115.472,166.125 115.5,161.5C 115.334,155.158 115.5,148.825 116,142.5C 117.014,131.613 122.514,124.113 132.5,120C 145.005,120.518 157.505,120.352 170,119.5C 184.667,120.668 192.5,128.668 193.5,143.5 Z"/></g>
<g><path style="opacity:1" fill="#623918" d="M 166.5,147.5 C 171.179,147.334 175.845,147.501 180.5,148C 183.29,148.561 185.623,149.894 187.5,152C 183.822,151.096 179.988,150.596 176,150.5C 172.173,150.408 168.507,151.074 165,152.5C 164.167,152.167 163.333,151.833 162.5,151.5C 163.549,149.784 164.882,148.451 166.5,147.5 Z"/></g>
<g><path style="opacity:1" fill="#5c3416" d="M 127.5,147.5 C 131.846,147.334 136.179,147.501 140.5,148C 143.251,148.516 145.584,149.683 147.5,151.5C 146.667,151.833 145.833,152.167 145,152.5C 137.782,149.954 130.615,149.954 123.5,152.5C 123.167,152.167 122.833,151.833 122.5,151.5C 124.21,150.113 125.877,148.779 127.5,147.5 Z"/></g>
<g><path style="opacity:1" fill="#41250f" d="M 182.5,161.5 C 180.041,157.38 178.374,157.713 177.5,162.5C 177.649,161.448 177.483,160.448 177,159.5C 176.599,161.521 175.432,162.855 173.5,163.5C 171.459,162.293 170.126,160.626 169.5,158.5C 168.508,158.328 167.842,158.662 167.5,159.5C 166.5,159.833 165.833,160.5 165.5,161.5C 164.601,160.006 164.935,158.506 166.5,157C 173.456,153.086 179.456,154.086 184.5,160C 184.164,161.03 183.497,161.53 182.5,161.5 Z"/></g>
<g><path style="opacity:1" fill="#e8ad7e" d="M 430.5,148.5 C 432.055,155.293 433.222,162.293 434,169.5C 435.791,173.411 437.291,177.411 438.5,181.5C 438.167,181.5 437.833,181.5 437.5,181.5C 430.731,178.88 426.564,173.88 425,166.5C 423.807,161.848 424.64,157.681 427.5,154C 428.448,153.517 429.448,153.351 430.5,153.5C 430.5,151.833 430.5,150.167 430.5,148.5 Z"/></g>
<g><path style="opacity:1" fill="#e4aa7c" d="M 515.5,133.5 C 516.167,140.012 516.833,146.679 517.5,153.5C 518.814,154.313 519.981,155.313 521,156.5C 523.202,168.463 519.035,177.129 508.5,182.5C 514.407,166.721 516.74,150.388 515.5,133.5 Z"/></g>
<g><path style="opacity:1" fill="#3f2411" d="M 143.5,161.5 C 142.833,160.167 141.833,159.167 140.5,158.5C 139.163,159.315 138.163,160.482 137.5,162C 136.207,162.49 134.873,162.657 133.5,162.5C 133.5,160.833 133.5,159.167 133.5,157.5C 132.209,157.263 131.209,157.596 130.5,158.5C 129.167,159.5 127.833,160.5 126.5,161.5C 125.197,159.243 125.864,157.41 128.5,156C 135.291,153.32 140.958,154.82 145.5,160.5C 145.043,161.298 144.376,161.631 143.5,161.5 Z"/></g>
<g><path style="opacity:1" fill="#e3a779" d="M 112.5,153.5 C 112.902,156.477 113.902,159.143 115.5,161.5C 115.472,166.125 115.472,170.792 115.5,175.5C 109.987,168.907 108.987,161.574 112.5,153.5 Z"/></g>
<g><path style="opacity:1" fill="#a88e7a" d="M 167.5,159.5 C 167.842,158.662 168.508,158.328 169.5,158.5C 169.5,159.833 169.5,161.167 169.5,162.5C 168.833,161.5 168.167,160.5 167.5,159.5 Z"/></g>
<g><path style="opacity:1" fill="#ece6dd" d="M 182.5,161.5 C 181.089,163.539 179.089,164.539 176.5,164.5C 176.833,163.833 177.167,163.167 177.5,162.5C 178.374,157.713 180.041,157.38 182.5,161.5 Z"/></g>
<g><path style="opacity:1" fill="#e7ad7a" d="M 193.5,143.5 C 194.167,149.014 194.833,154.681 195.5,160.5C 196.168,158.031 196.835,155.698 197.5,153.5C 197.5,153.833 197.5,154.167 197.5,154.5C 199.222,158.616 199.722,162.95 199,167.5C 198.594,170.915 196.928,173.582 194,175.5C 193.362,172.464 193.528,169.464 194.5,166.5C 194.182,165.353 193.516,164.519 192.5,164C 193.479,157.256 193.812,150.422 193.5,143.5 Z"/></g>
<g><path style="opacity:1" fill="#f1ede6" d="M 140.5,158.5 C 141.833,159.167 142.833,160.167 143.5,161.5C 142.625,163.806 141.292,164.473 139.5,163.5C 140.301,161.958 140.634,160.292 140.5,158.5 Z"/></g>
<g><path style="opacity:1" fill="#f4ede0" d="M 167.5,159.5 C 168.167,160.5 168.833,161.5 169.5,162.5C 169.833,163.5 170.5,164.167 171.5,164.5C 168.953,165.231 166.953,164.231 165.5,161.5C 165.833,160.5 166.5,159.833 167.5,159.5 Z"/></g>
<g><path style="opacity:1" fill="#5b3210" d="M 130.5,158.5 C 131.209,157.596 132.209,157.263 133.5,157.5C 133.5,159.167 133.5,160.833 133.5,162.5C 134.873,162.657 136.207,162.49 137.5,162C 138.163,160.482 139.163,159.315 140.5,158.5C 140.634,160.292 140.301,161.958 139.5,163.5C 137.621,164.341 135.621,164.675 133.5,164.5C 132.015,162.751 131.015,160.751 130.5,158.5 Z"/></g>
<g><path style="opacity:1" fill="#ebdfd2" d="M 130.5,158.5 C 131.015,160.751 132.015,162.751 133.5,164.5C 132.749,165.573 131.749,165.74 130.5,165C 128.456,164.502 127.122,163.335 126.5,161.5C 127.833,160.5 129.167,159.5 130.5,158.5 Z"/></g>
<g><path style="opacity:1" fill="#63370e" d="M 169.5,158.5 C 170.126,160.626 171.459,162.293 173.5,163.5C 175.432,162.855 176.599,161.521 177,159.5C 177.483,160.448 177.649,161.448 177.5,162.5C 177.167,163.167 176.833,163.833 176.5,164.5C 174.833,164.5 173.167,164.5 171.5,164.5C 170.5,164.167 169.833,163.5 169.5,162.5C 169.5,161.167 169.5,159.833 169.5,158.5 Z"/></g>
<g><path style="opacity:1" fill="#eed3b5" d="M 437.5,181.5 C 437.833,181.5 438.167,181.5 438.5,181.5C 440.845,185.528 443.178,189.528 445.5,193.5C 444.185,192.524 442.852,191.524 441.5,190.5C 439.986,187.477 438.653,184.477 437.5,181.5 Z"/></g>
<g><path style="opacity:1" fill="#dbb08e" d="M 505.5,188.5 C 505.573,190.027 504.906,191.027 503.5,191.5C 503.427,189.973 504.094,188.973 505.5,188.5 Z"/></g>
<g><path style="opacity:1" fill="#c78457" d="M 141.5,190.5 C 149.948,193.111 158.448,193.111 167,190.5C 168.826,191.01 168.993,191.844 167.5,193C 158.854,194.749 150.188,194.916 141.5,193.5C 141.5,192.5 141.5,191.5 141.5,190.5 Z"/></g>
<g><path style="opacity:1" fill="#f9c693" d="M 503.5,191.5 C 500.575,195.93 497.075,199.93 493,203.5C 492.333,210.5 492.333,217.5 493,224.5C 493.989,227.987 496.155,230.32 499.5,231.5C 495.925,240.806 490.258,248.64 482.5,255C 477.012,259.12 471.345,259.454 465.5,256C 457.17,249.491 451.17,241.325 447.5,231.5C 450.872,230.295 453.038,227.961 454,224.5C 454.667,217.5 454.667,210.5 454,203.5C 449.984,201.113 447.151,197.779 445.5,193.5C 449.342,197.017 453.675,199.684 458.5,201.5C 468.515,197.842 478.681,197.509 489,200.5C 490.5,200.333 492,200.167 493.5,200C 497,197.331 500.333,194.498 503.5,191.5 Z"/></g>
<g><path style="opacity:1" fill="#eaa978" d="M 135.5,206.5 C 139.262,208.413 142.929,210.579 146.5,213C 149.107,213.818 151.774,214.318 154.5,214.5C 161.807,213.181 168.474,210.515 174.5,206.5C 174.5,207.5 174.5,208.5 174.5,209.5C 161.606,219.981 148.773,219.981 136,209.5C 135.517,208.552 135.351,207.552 135.5,206.5 Z"/></g>
<g><path style="opacity:1" fill="#b1a39d" d="M 447.5,231.5 C 451.17,241.325 457.17,249.491 465.5,256C 471.345,259.454 477.012,259.12 482.5,255C 490.258,248.64 495.925,240.806 499.5,231.5C 505.272,232.966 510.605,235.3 515.5,238.5C 505.606,255.458 501.106,273.791 502,293.5C 503.298,300.418 506.298,306.418 511,311.5C 515.542,316.188 521.042,318.855 527.5,319.5C 525.816,328.289 524.149,336.956 522.5,345.5C 506.5,345.5 490.5,345.5 474.5,345.5C 473.5,345.5 472.5,345.5 471.5,345.5C 455.833,345.5 440.167,345.5 424.5,345.5C 423.197,337.292 421.863,328.959 420.5,320.5C 433.592,316.572 441.759,307.905 445,294.5C 445.684,286.13 445.351,277.797 444,269.5C 440.655,258.483 436.489,247.816 431.5,237.5C 436.642,235.206 441.975,233.206 447.5,231.5 Z"/></g>
<g><path style="opacity:1" fill="#f8c694" d="M 134.5,205.5 C 135.167,205.5 135.5,205.833 135.5,206.5C 135.351,207.552 135.517,208.552 136,209.5C 148.773,219.981 161.606,219.981 174.5,209.5C 170.9,225.645 177.233,234.978 193.5,237.5C 195.388,253.441 191.888,268.107 183,281.5C 171.691,293.762 157.858,297.596 141.5,293C 129.226,286.299 121.393,276.132 118,262.5C 116.251,254.263 115.418,245.929 115.5,237.5C 121.867,236.067 127.701,233.401 133,229.5C 134.435,221.611 134.935,213.611 134.5,205.5 Z"/></g>
<g><path style="opacity:1" fill="#b1a29c" d="M 115.5,237.5 C 115.418,245.929 116.251,254.263 118,262.5C 121.393,276.132 129.226,286.299 141.5,293C 157.858,297.596 171.691,293.762 183,281.5C 191.888,268.107 195.388,253.441 193.5,237.5C 200.664,238.765 207.33,241.098 213.5,244.5C 212.171,250.128 211.504,256.128 211.5,262.5C 211.937,278.367 212.937,294.201 214.5,310C 214.333,313.167 214.167,316.333 214,319.5C 212.293,321.909 211.46,324.575 211.5,327.5C 209.871,328.625 208.371,329.959 207,331.5C 206.055,337.014 204.889,342.348 203.5,347.5C 171.489,346.375 139.489,346.375 107.5,347.5C 105.738,343.239 104.571,338.572 104,333.5C 101.817,331.093 99.6503,328.76 97.5,326.5C 93.8268,316.572 93.6601,306.572 97,296.5C 98.0264,278.847 98.5264,261.181 98.5,243.5C 98.6107,242.883 98.944,242.383 99.5,242C 104.95,240.793 110.283,239.293 115.5,237.5 Z"/></g>
<g><path style="opacity:1" fill="#edb07f" d="M 120.5,245.5 C 126.653,244.347 132.986,244.18 139.5,245C 141.5,245.833 143.5,246.667 145.5,247.5C 136.963,248.587 128.63,247.92 120.5,245.5 Z"/></g>
<g><path style="opacity:1" fill="#ecae7c" d="M 170.5,244.5 C 176.509,244.334 182.509,244.501 188.5,245C 179.912,247.206 171.245,248.039 162.5,247.5C 165.092,246.083 167.759,245.083 170.5,244.5 Z"/></g>
<g><path style="opacity:1" fill="#f9c794" d="M 98.5,243.5 C 98.5264,261.181 98.0264,278.847 97,296.5C 93.6601,306.572 93.8268,316.572 97.5,326.5C 94.285,356.693 89.785,386.693 84,416.5C 77.8592,436.588 71.5259,456.588 65,476.5C 63.5929,496.462 58.5929,515.462 50,533.5C 48.6155,536.386 46.4488,538.386 43.5,539.5C 44.161,531.339 46.161,523.505 49.5,516C 47.8359,514.233 46.6692,514.733 46,517.5C 44.7497,525.181 42.583,532.514 39.5,539.5C 39.6236,540.107 39.9569,540.44 40.5,540.5C 39.5707,541.315 38.5707,542.148 37.5,543C 33.1812,543.905 28.8479,544.238 24.5,544C 23.6195,543.292 22.9528,542.458 22.5,541.5C 20.1099,539.598 18.7766,537.098 18.5,534C 19.8356,523.153 22.5022,512.653 26.5,502.5C 24.0313,504.443 21.3646,506.943 18.5,510C 16.5273,510.495 14.5273,510.662 12.5,510.5C 15.798,501.566 19.9646,492.899 25,484.5C 30.8527,478.922 36.8527,473.589 43,468.5C 45.5463,453.22 47.8796,437.887 50,422.5C 53.7085,403.038 58.0419,383.704 63,364.5C 66.01,333.447 69.3433,302.447 73,271.5C 76.8634,257.809 85.3634,248.476 98.5,243.5 Z"/></g>
<g><path style="opacity:1" fill="#f9c694" d="M 213.5,244.5 C 221.952,247.776 228.452,253.443 233,261.5C 235.435,266.236 237.101,271.236 238,276.5C 240.899,306.19 243.899,335.857 247,365.5C 255.417,398.758 261.75,432.425 266,466.5C 267.5,468.667 269,470.833 270.5,473C 276.197,475.691 281.03,479.525 285,484.5C 290.01,492.85 294.176,501.517 297.5,510.5C 290.763,510.94 286.263,507.94 284,501.5C 283.833,502 283.667,502.5 283.5,503C 287.862,514.474 290.029,526.307 290,538.5C 289.617,539.056 289.117,539.389 288.5,539.5C 285.112,531.127 282.279,522.46 280,513.5C 279.331,510.733 278.164,510.233 276.5,512C 279.98,522.272 283.314,532.439 286.5,542.5C 284.458,544.591 282.125,544.924 279.5,543.5C 277.484,535.281 275.151,527.114 272.5,519C 272.146,516.736 271.146,514.902 269.5,513.5C 268.386,514.723 268.219,516.056 269,517.5C 272.345,526.036 275.179,534.702 277.5,543.5C 273.584,544.039 270.584,542.706 268.5,539.5C 269.043,539.44 269.376,539.107 269.5,538.5C 267.12,530.602 265.12,522.602 263.5,514.5C 262.5,514.5 261.5,514.5 260.5,514.5C 263.262,522.64 265.262,530.973 266.5,539.5C 264.284,538.797 262.451,537.464 261,535.5C 251.788,516.868 246.455,497.201 245,476.5C 238.456,456.535 232.122,436.535 226,416.5C 220.452,386.809 215.618,357.142 211.5,327.5C 211.46,324.575 212.293,321.909 214,319.5C 214.167,316.333 214.333,313.167 214.5,310C 212.937,294.201 211.937,278.367 211.5,262.5C 211.504,256.128 212.171,250.128 213.5,244.5 Z"/></g>
<g><path style="opacity:1" fill="#f9c694" d="M 424.5,345.5 C 440.167,345.5 455.833,345.5 471.5,345.5C 471.011,368.983 471.511,392.317 473,415.5C 474.489,392.317 474.989,368.983 474.5,345.5C 490.5,345.5 506.5,345.5 522.5,345.5C 519.417,362.335 517.917,379.335 518,396.5C 523.813,413.133 530.48,429.467 538,445.5C 538.977,447.74 539.477,450.073 539.5,452.5C 495.833,452.5 452.167,452.5 408.5,452.5C 408.5,450.833 408.5,449.167 408.5,447.5C 413.197,434.444 418.697,421.777 425,409.5C 426.292,405.916 427.292,402.249 428,398.5C 429.232,380.621 428.065,362.955 424.5,345.5 Z"/></g>
<g><path style="opacity:1" fill="#f9c693" d="M 203.5,347.5 C 200.895,364.738 199.729,382.072 200,399.5C 206.088,415.276 212.254,430.942 218.5,446.5C 176.019,454.427 133.685,454.427 91.5,446.5C 95.5619,433.709 100.729,421.375 107,409.5C 108.586,405.656 109.586,401.656 110,397.5C 110.274,380.783 109.44,364.116 107.5,347.5C 139.489,346.375 171.489,346.375 203.5,347.5 Z"/></g>
<g><path style="opacity:1" fill="#f9c694" d="M 515.5,238.5 C 537.104,240.277 550.604,251.61 556,272.5C 559.407,302.124 562.407,331.791 565,361.5C 569.794,382.468 574.46,403.468 579,424.5C 580.558,437.515 582.225,450.515 584,463.5C 584.901,466.071 586.234,468.404 588,470.5C 593.329,474.009 598.329,478.009 603,482.5C 607.934,490.033 612.101,498.033 615.5,506.5C 613.084,510.249 610.251,510.249 607,506.5C 604.938,504.099 603.271,501.433 602,498.5C 601.833,499 601.667,499.5 601.5,500C 604.14,508.116 606.64,516.283 609,524.5C 609.828,528.871 609.661,533.205 608.5,537.5C 607.818,538.243 607.151,538.909 606.5,539.5C 603.404,529.623 600.571,519.623 598,509.5C 596.989,508.663 595.822,508.33 594.5,508.5C 598.171,519.227 601.837,529.894 605.5,540.5C 604.751,542.246 603.417,543.246 601.5,543.5C 598.525,542.861 595.525,542.361 592.5,542C 590.416,541.303 588.749,540.136 587.5,538.5C 588.043,538.44 588.376,538.107 588.5,537.5C 585.541,529.389 583.208,521.056 581.5,512.5C 580.5,512.5 579.5,512.5 578.5,512.5C 580.608,521.371 583.275,530.038 586.5,538.5C 582.638,537.476 579.805,535.143 578,531.5C 569.859,514.072 565.192,495.739 564,476.5C 557.128,455.552 550.462,434.552 544,413.5C 538.622,382.234 533.789,350.9 529.5,319.5C 528.778,319.082 528.278,318.416 528,317.5C 527.536,318.094 527.369,318.761 527.5,319.5C 521.042,318.855 515.542,316.188 511,311.5C 506.298,306.418 503.298,300.418 502,293.5C 501.106,273.791 505.606,255.458 515.5,238.5 Z"/></g>
<g><path style="opacity:1" fill="#edaf7e" d="M 529.5,319.5 C 529.316,309.275 530.649,299.275 533.5,289.5C 534.892,299.945 533.559,309.945 529.5,319.5 Z"/></g>
<g><path style="opacity:1" fill="#f0b682" d="M 471.5,345.5 C 472.5,345.5 473.5,345.5 474.5,345.5C 474.989,368.983 474.489,392.317 473,415.5C 471.511,392.317 471.011,368.983 471.5,345.5 Z"/></g>
<g><path style="opacity:1" fill="#f9c693" d="M 431.5,237.5 C 436.489,247.816 440.655,258.483 444,269.5C 445.351,277.797 445.684,286.13 445,294.5C 441.759,307.905 433.592,316.572 420.5,320.5C 419.978,318.781 418.978,317.448 417.5,316.5C 417.717,307.254 416.383,298.254 413.5,289.5C 412.139,299.968 413.472,309.968 417.5,319.5C 413.145,351.834 408.312,384.168 403,416.5C 396.302,435.26 389.969,454.26 384,473.5C 382.725,487.489 380.059,501.155 376,514.5C 373.429,522.142 369.929,529.309 365.5,536C 364.255,536.791 362.922,537.291 361.5,537.5C 363.233,528.971 365.566,520.638 368.5,512.5C 367.5,512.5 366.5,512.5 365.5,512.5C 363.971,520.751 361.638,528.751 358.5,536.5C 358.543,537.416 358.876,538.083 359.5,538.5C 358.013,539.804 356.346,540.97 354.5,542C 350.311,542.812 346.311,542.645 342.5,541.5C 344.417,531.915 347.25,522.581 351,513.5C 351.798,511.741 351.631,510.074 350.5,508.5C 346.665,518.684 343.331,529.017 340.5,539.5C 339.849,538.909 339.182,538.243 338.5,537.5C 337.339,533.205 337.172,528.871 338,524.5C 339.968,516.119 342.468,507.953 345.5,500C 345.333,499.5 345.167,499 345,498.5C 343.114,502.44 340.614,505.94 337.5,509C 335.527,509.495 333.527,509.662 331.5,509.5C 334.022,499.786 338.189,490.786 344,482.5C 347.97,477.525 352.803,473.691 358.5,471C 360.317,469.2 361.484,467.034 362,464.5C 366.041,432.045 372.374,400.045 381,368.5C 384.128,335.095 387.794,301.762 392,268.5C 398.542,249.798 411.708,239.464 431.5,237.5 Z"/></g>
<g><path style="opacity:1" fill="#edb07d" d="M 417.5,316.5 C 417.5,317.5 417.5,318.5 417.5,319.5C 413.472,309.968 412.139,299.968 413.5,289.5C 416.383,298.254 417.717,307.254 417.5,316.5 Z"/></g>
<g><path style="opacity:1" fill="#e3bb98" d="M 408.5,447.5 C 408.5,449.167 408.5,450.833 408.5,452.5C 452.167,452.5 495.833,452.5 539.5,452.5C 540.167,452.5 540.5,452.833 540.5,453.5C 496.167,453.5 451.833,453.5 407.5,453.5C 407.205,451.265 407.539,449.265 408.5,447.5 Z"/></g>
<g><path style="opacity:1" fill="#b1a39d" d="M 91.5,446.5 C 133.685,454.427 176.019,454.427 218.5,446.5C 219.79,447.058 220.623,448.058 221,449.5C 224.378,458.555 226.544,467.889 227.5,477.5C 211.305,476.573 196.305,480.407 182.5,489C 174.777,493.855 167.11,498.688 159.5,503.5C 156.391,503.264 153.391,503.597 150.5,504.5C 140.83,497.007 130.497,490.507 119.5,485C 107.78,479.487 95.4467,476.987 82.5,477.5C 83.5737,467.205 85.907,457.205 89.5,447.5C 89.9569,446.702 90.6236,446.369 91.5,446.5 Z"/></g>
<g><path style="opacity:1" fill="#b1a39d" d="M 407.5,453.5 C 451.833,453.5 496.167,453.5 540.5,453.5C 542.328,456.135 543.495,459.135 544,462.5C 545.586,469.438 546.753,476.438 547.5,483.5C 528.005,502.245 504.672,513.578 477.5,517.5C 474.833,517.5 472.167,517.5 469.5,517.5C 442.331,514.003 418.998,502.669 399.5,483.5C 400.476,473.619 402.476,463.953 405.5,454.5C 405.957,453.702 406.624,453.369 407.5,453.5 Z"/></g>
<g><path style="opacity:1" fill="#fac694" d="M 82.5,477.5 C 95.4467,476.987 107.78,479.487 119.5,485C 130.497,490.507 140.83,497.007 150.5,504.5C 153.864,576.077 152.864,647.577 147.5,719C 149.939,746.121 151.606,773.288 152.5,800.5C 151.746,819.664 151.079,838.83 150.5,858C 150.968,874.009 151.634,890.009 152.5,906C 152.333,911.833 152.167,917.667 152,923.5C 150.978,924.354 150.145,925.354 149.5,926.5C 136.867,928.419 124.534,927.252 112.5,923C 107.017,920.217 105.517,916.05 108,910.5C 114.169,901.5 119.836,892.166 125,882.5C 126.081,868.023 125.081,853.69 122,839.5C 115.77,816.679 110.437,793.679 106,770.5C 104.116,758.913 103.283,747.247 103.5,735.5C 104.385,714.17 104.552,692.837 104,671.5C 99.2122,634.895 92.8789,598.561 85,562.5C 82.5181,549.944 81.0181,537.277 80.5,524.5C 80.2161,509.779 80.8828,495.113 82.5,480.5C 82.5,479.5 82.5,478.5 82.5,477.5 Z"/></g>
<g><path style="opacity:1" fill="#f9c694" d="M 227.5,477.5 C 228.051,480.807 228.384,484.14 228.5,487.5C 229.299,500.484 229.633,513.484 229.5,526.5C 228.712,532.085 228.212,537.752 228,543.5C 220.043,582.663 213.043,621.996 207,661.5C 205.27,685.48 205.103,709.48 206.5,733.5C 206.48,745.888 205.647,758.221 204,770.5C 197.942,799.596 191.609,828.596 185,857.5C 184.333,865.833 184.333,874.167 185,882.5C 191.183,893.537 197.35,904.537 203.5,915.5C 202.802,919.033 200.802,921.533 197.5,923C 185.463,927.02 173.13,928.353 160.5,927C 159.299,926.097 158.465,924.931 158,923.5C 157.253,902.298 157.753,881.131 159.5,860C 157.844,831.185 157.344,802.351 158,773.5C 159.692,755.845 161.192,738.178 162.5,720.5C 157.156,648.217 156.156,575.884 159.5,503.5C 167.11,498.688 174.777,493.855 182.5,489C 196.305,480.407 211.305,476.573 227.5,477.5 Z"/></g>
<g><path style="opacity:1" fill="#f9c794" d="M 399.5,483.5 C 418.998,502.669 442.331,514.003 469.5,517.5C 469.182,522.032 469.515,526.366 470.5,530.5C 472.089,593.883 470.755,657.216 466.5,720.5C 467.733,740.495 468.899,760.495 470,780.5C 470.058,816.834 470.058,853.167 470,889.5C 470.615,894.906 471.615,900.239 473,905.5C 474.381,903.365 475.381,901.032 476,898.5C 476.333,894.167 476.667,889.833 477,885.5C 476.615,846.171 476.615,806.837 477,767.5C 479.156,752.573 480.323,737.573 480.5,722.5C 479.29,699.176 478.29,675.842 477.5,652.5C 476.632,612.174 476.299,571.84 476.5,531.5C 476.5,531.167 476.5,530.833 476.5,530.5C 477.485,526.366 477.818,522.032 477.5,517.5C 504.672,513.578 528.005,502.245 547.5,483.5C 548.896,501.842 548.729,520.176 547,538.5C 542.933,559.616 538.933,580.616 535,601.5C 531.172,624.127 527.672,646.793 524.5,669.5C 523.834,676.158 523.5,682.992 523.5,690C 523.377,701.369 524.044,712.535 525.5,723.5C 525.923,740.235 525.089,756.902 523,773.5C 517.769,802.757 511.435,831.757 504,860.5C 502.779,872.147 502.445,883.814 503,895.5C 507.714,900.442 513.214,904.275 519.5,907C 525.285,912.075 524.618,916.075 517.5,919C 506.75,922.184 496.083,925.35 485.5,928.5C 479.67,928.515 475.504,925.849 473,920.5C 471.043,925.224 467.543,927.557 462.5,927.5C 449.218,926.349 436.718,922.682 425,916.5C 423.627,914.305 423.294,911.971 424,909.5C 429.077,905.376 434.577,901.876 440.5,899C 441.211,897.745 442.044,896.579 443,895.5C 444.563,887.913 444.896,880.246 444,872.5C 442.992,863.102 441.659,853.769 440,844.5C 431.039,815.115 425.039,785.115 422,754.5C 421.72,728.816 422.053,703.149 423,677.5C 417.614,632.79 410.281,588.457 401,544.5C 398.297,524.221 397.797,503.887 399.5,483.5 Z"/></g>
<g><path style="opacity:1" fill="#fce7d1" d="M 228.5,487.5 C 229.995,495.111 230.662,502.944 230.5,511C 230.499,516.344 230.166,521.511 229.5,526.5C 229.633,513.484 229.299,500.484 228.5,487.5 Z"/></g>
<g><path style="opacity:1" fill="#ebaa7a" d="M 22.5,541.5 C 24.1465,532.723 26.3132,524.056 29,515.5C 29.2649,513.349 30.2649,511.682 32,510.5C 32.5,510.833 33,511.167 33.5,511.5C 30.1217,520.836 27.1217,530.336 24.5,540C 24.1639,541.03 23.4972,541.53 22.5,541.5 Z"/></g>
<g><path style="opacity:1" fill="#fbdec1" d="M 82.5,480.5 C 80.8828,495.113 80.2161,509.779 80.5,524.5C 78.8482,509.739 79.5149,495.073 82.5,480.5 Z"/></g>
<g><path style="opacity:1" fill="#e9ac79" d="M 587.5,513.5 C 588.5,513.5 589.5,513.5 590.5,513.5C 592.756,522.605 595.423,531.605 598.5,540.5C 597.675,541.386 596.675,541.719 595.5,541.5C 593.458,532.033 590.791,522.7 587.5,513.5 Z"/></g>
<g><path style="opacity:1" fill="#eaaa78" d="M 342.5,541.5 C 341.5,541.167 340.833,540.5 340.5,539.5C 343.331,529.017 346.665,518.684 350.5,508.5C 351.631,510.074 351.798,511.741 351,513.5C 347.25,522.581 344.417,531.915 342.5,541.5 Z"/></g>
<g><path style="opacity:1" fill="#eaac7a" d="M 361.5,537.5 C 361.158,538.338 360.492,538.672 359.5,538.5C 358.876,538.083 358.543,537.416 358.5,536.5C 361.638,528.751 363.971,520.751 365.5,512.5C 366.5,512.5 367.5,512.5 368.5,512.5C 365.566,520.638 363.233,528.971 361.5,537.5 Z"/></g>
<g><path style="opacity:1" fill="#ecae7c" d="M 587.5,538.5 C 587.167,538.5 586.833,538.5 586.5,538.5C 583.275,530.038 580.608,521.371 578.5,512.5C 579.5,512.5 580.5,512.5 581.5,512.5C 583.208,521.056 585.541,529.389 588.5,537.5C 588.376,538.107 588.043,538.44 587.5,538.5 Z"/></g>
<g><path style="opacity:1" fill="#eaab79" d="M 268.5,539.5 C 267.833,539.5 267.167,539.5 266.5,539.5C 265.262,530.973 263.262,522.64 260.5,514.5C 261.5,514.5 262.5,514.5 263.5,514.5C 265.12,522.602 267.12,530.602 269.5,538.5C 269.376,539.107 269.043,539.44 268.5,539.5 Z"/></g>
<g><path style="opacity:1" fill="#fefcfa" d="M 476.5,530.5 C 476.5,530.833 476.5,531.167 476.5,531.5C 475.833,548.33 475.5,565.33 475.5,582.5C 475.29,606.021 475.956,629.354 477.5,652.5C 478.29,675.842 479.29,699.176 480.5,722.5C 480.323,737.573 479.156,752.573 477,767.5C 476.615,806.837 476.615,846.171 477,885.5C 476.667,889.833 476.333,894.167 476,898.5C 475.381,901.032 474.381,903.365 473,905.5C 471.615,900.239 470.615,894.906 470,889.5C 470.058,853.167 470.058,816.834 470,780.5C 468.899,760.495 467.733,740.495 466.5,720.5C 470.755,657.216 472.089,593.883 470.5,530.5C 470.5,526.5 470.5,522.5 470.5,518.5C 472.5,518.5 474.5,518.5 476.5,518.5C 476.5,522.5 476.5,526.5 476.5,530.5 Z"/></g>
<g><path style="opacity:1" fill="#ebaa79" d="M 357.5,513.5 C 358.497,513.47 359.164,513.97 359.5,515C 356.646,523.877 353.646,532.71 350.5,541.5C 350.167,540.833 349.833,540.167 349.5,539.5C 351.992,530.696 354.659,522.029 357.5,513.5 Z"/></g>
<g><path style="opacity:1" fill="#ebac7a" d="M 606.5,539.5 C 606.5,540.167 606.167,540.5 605.5,540.5C 601.837,529.894 598.171,519.227 594.5,508.5C 595.822,508.33 596.989,508.663 598,509.5C 600.571,519.623 603.404,529.623 606.5,539.5 Z"/></g>
<g><path style="opacity:1" fill="#ebac7a" d="M 38.5,513.5 C 39.5,513.5 40.5,513.5 41.5,513.5C 39.5122,521.297 37.0122,528.964 34,536.5C 33.5045,538.473 33.3379,540.473 33.5,542.5C 32.5,542.5 31.5,542.5 30.5,542.5C 33.1643,532.839 35.8309,523.173 38.5,513.5 Z"/></g>
<g><path style="opacity:1" fill="#eaaa78" d="M 43.5,539.5 C 42.209,539.263 41.209,539.596 40.5,540.5C 39.9569,540.44 39.6236,540.107 39.5,539.5C 42.583,532.514 44.7497,525.181 46,517.5C 46.6692,514.733 47.8359,514.233 49.5,516C 46.161,523.505 44.161,531.339 43.5,539.5 Z"/></g>
<g><path style="opacity:1" fill="#f4dac2" d="M 469.5,517.5 C 472.167,517.5 474.833,517.5 477.5,517.5C 477.818,522.032 477.485,526.366 476.5,530.5C 476.5,526.5 476.5,522.5 476.5,518.5C 474.5,518.5 472.5,518.5 470.5,518.5C 470.5,522.5 470.5,526.5 470.5,530.5C 469.515,526.366 469.182,522.032 469.5,517.5 Z"/></g>
<g><path style="opacity:1" fill="#ebac7a" d="M 288.5,539.5 C 288.573,541.027 287.906,542.027 286.5,542.5C 283.314,532.439 279.98,522.272 276.5,512C 278.164,510.233 279.331,510.733 280,513.5C 282.279,522.46 285.112,531.127 288.5,539.5 Z"/></g>
<g><path style="opacity:1" fill="#ebab7a" d="M 279.5,543.5 C 278.833,543.5 278.167,543.5 277.5,543.5C 275.179,534.702 272.345,526.036 269,517.5C 268.219,516.056 268.386,514.723 269.5,513.5C 271.146,514.902 272.146,516.736 272.5,519C 275.151,527.114 277.484,535.281 279.5,543.5 Z"/></g>
<g><path style="opacity:1" fill="#fad5af" d="M 476.5,531.5 C 476.299,571.84 476.632,612.174 477.5,652.5C 475.956,629.354 475.29,606.021 475.5,582.5C 475.5,565.33 475.833,548.33 476.5,531.5 Z"/></g>
<g><path style="opacity:1" fill="#fdead8" d="M 524.5,669.5 C 524.423,687.51 524.757,705.51 525.5,723.5C 524.044,712.535 523.377,701.369 523.5,690C 523.5,682.992 523.834,676.158 524.5,669.5 Z"/></g>
<g><path style="opacity:1" fill="#edae7c" d="M 439.5,691.5 C 445.283,690.553 450.283,691.887 454.5,695.5C 448.128,694.904 441.794,695.571 435.5,697.5C 434.833,697.167 434.167,696.833 433.5,696.5C 435.571,694.815 437.571,693.148 439.5,691.5 Z"/></g>
<g><path style="opacity:1" fill="#ebad7b" d="M 495.5,691.5 C 501.666,690.779 506.999,692.445 511.5,696.5C 505.325,695.559 498.992,695.559 492.5,696.5C 492.167,696.167 491.833,695.833 491.5,695.5C 493.188,694.479 494.521,693.145 495.5,691.5 Z"/></g>
<g><path style="opacity:1" fill="#ecaf7b" d="M 116.5,693.5 C 116.735,692.903 117.235,692.57 118,692.5C 124.249,695.371 130.749,696.204 137.5,695C 133.765,700.604 128.765,701.938 122.5,699C 120.955,696.62 118.955,694.786 116.5,693.5 Z"/></g>
<g><path style="opacity:1" fill="#edaf7b" d="M 190.5,692.5 C 191.376,692.369 192.043,692.702 192.5,693.5C 188.403,698.775 183.07,700.942 176.5,700C 174.649,698.316 172.982,696.483 171.5,694.5C 172.576,693.344 173.576,693.511 174.5,695C 178.5,695.667 182.5,695.667 186.5,695C 188.066,694.392 189.4,693.558 190.5,692.5 Z"/></g>
</svg>
