<?xml version="1.0" encoding="UTF-8"?>
<!DOCTYPE svg PUBLIC "-//W3C//DTD SVG 1.1//EN" "http://www.w3.org/Graphics/SVG/1.1/DTD/svg11.dtd">
<svg xmlns="http://www.w3.org/2000/svg" version="1.1" width="547px" height="485px" style="shape-rendering:geometricPrecision; text-rendering:geometricPrecision; image-rendering:optimizeQuality; fill-rule:evenodd; clip-rule:evenodd" xmlns:xlink="http://www.w3.org/1999/xlink">
<g><path style="opacity:0.983" fill="#5a9ab9" d="M 263.5,40.5 C 335.822,35.6447 395.322,60.6447 442,115.5C 484.469,171.857 496.136,234.19 477,302.5C 454.167,368 410,412.167 344.5,435C 257.748,457.616 184.915,435.449 126,368.5C 83.531,312.143 71.8643,249.81 91,181.5C 120.511,100.147 178.011,53.1472 263.5,40.5 Z"/></g>
<g><path style="opacity:1" fill="#b9d5e3" d="M 266.5,53.5 C 344.68,50.3353 404.846,81.3353 447,146.5C 474.026,195.011 479.693,246.011 464,299.5C 454.829,326.863 440.329,350.863 420.5,371.5C 384.197,322.856 335.53,300.356 274.5,304C 222.855,311.028 183.355,336.528 156,380.5C 101.777,326.462 84.1102,262.128 103,187.5C 130.665,109.994 185.165,65.3273 266.5,53.5 Z"/></g>
<g><path style="opacity:1" fill="#5a9ab9" d="M 271.5,120.5 C 322.427,118.021 355.261,141.021 370,189.5C 376.439,234.123 359.939,266.956 320.5,288C 277.061,304.178 240.894,294.345 212,258.5C 194.473,230.922 191.807,201.922 204,171.5C 218.333,143.665 240.833,126.665 271.5,120.5 Z"/></g>
</svg>
