<?xml version="1.0" encoding="UTF-8"?>
<!DOCTYPE svg PUBLIC "-//W3C//DTD SVG 1.1//EN" "http://www.w3.org/Graphics/SVG/1.1/DTD/svg11.dtd">
<svg xmlns="http://www.w3.org/2000/svg" version="1.1" width="1193px" height="674px" style="shape-rendering:geometricPrecision; text-rendering:geometricPrecision; image-rendering:optimizeQuality; fill-rule:evenodd; clip-rule:evenodd" xmlns:xlink="http://www.w3.org/1999/xlink">
<g><path style="opacity:0.994" fill="#575858" d="M 821.5,13.5 C 838.154,10.2959 848.988,16.6293 854,32.5C 855.513,41.4469 855.846,50.4469 855,59.5C 853.591,69.211 851.924,78.8776 850,88.5C 848.3,139.823 846.967,191.156 846,242.5C 845.824,245.882 845.324,249.215 844.5,252.5C 834.945,249.694 825.278,247.361 815.5,245.5C 813.97,192.85 812.47,140.183 811,87.5C 807.477,73.1954 805.31,58.6954 804.5,44C 802.841,29.463 808.508,19.2963 821.5,13.5 Z"/></g>
<g><path style="opacity:0.984" fill="#425be5" d="M 752.5,186.5 C 742.09,179.45 731.423,172.617 720.5,166C 719.748,165.329 719.414,164.496 719.5,163.5C 734.073,144.529 753.073,132.029 776.5,126C 785.363,123.634 794.363,122.134 803.5,121.5C 803.328,133.52 803.662,145.52 804.5,157.5C 787.513,158.326 772.679,164.326 760,175.5C 756.982,178.886 754.482,182.553 752.5,186.5 Z"/></g>
<g><path style="opacity:0.973" fill="#425ce6" d="M 977.5,236.5 C 977.5,237.167 977.5,237.833 977.5,238.5C 974.455,238.658 971.621,237.991 969,236.5C 969.365,239.794 969.865,243.127 970.5,246.5C 970.167,246.5 969.833,246.5 969.5,246.5C 965.195,238.347 959.862,230.847 953.5,224C 947.226,223.909 941.226,222.575 935.5,220C 920.156,211.665 905.49,202.332 891.5,192C 885.866,185.364 879.866,179.031 873.5,173C 868.358,169.096 862.691,166.262 856.5,164.5C 856.733,151.812 857.399,139.145 858.5,126.5C 867.857,129.454 876.857,133.287 885.5,138C 904.09,141.044 919.923,149.21 933,162.5C 937.333,168.167 941.667,173.833 946,179.5C 949.694,190.269 953.694,200.935 958,211.5C 958.348,224.676 964.848,233.01 977.5,236.5 Z M 917.5,171.5 C 918.822,171.33 919.989,171.663 921,172.5C 923.374,176.75 925.874,180.916 928.5,185C 926.447,185.325 924.447,184.991 922.5,184C 918.833,180.333 915.167,176.667 911.5,173C 913.708,172.809 915.708,172.309 917.5,171.5 Z"/></g>
<g><path style="opacity:0.991" fill="#425bdd" d="M 719.5,163.5 C 719.414,164.496 719.748,165.329 720.5,166C 731.423,172.617 742.09,179.45 752.5,186.5C 751.188,190.416 750.188,194.416 749.5,198.5C 748.681,201.305 748.181,204.305 748,207.5C 742.402,203.56 736.568,200.06 730.5,197C 726.63,192.929 722.297,190.262 717.5,189C 715.86,187.605 714.36,186.105 713,184.5C 712.667,184.833 712.333,185.167 712,185.5C 711.209,184.255 710.709,182.922 710.5,181.5C 712.46,174.914 715.46,168.914 719.5,163.5 Z"/></g>
<g><path style="opacity:0.996" fill="#445ad2" d="M 710.5,181.5 C 710.709,182.922 711.209,184.255 712,185.5C 712.333,185.167 712.667,184.833 713,184.5C 714.36,186.105 715.86,187.605 717.5,189C 722.297,190.262 726.63,192.929 730.5,197C 736.568,200.06 742.402,203.56 748,207.5C 748.181,204.305 748.681,201.305 749.5,198.5C 748.028,212.256 752.361,223.756 762.5,233C 767.896,237.027 773.562,240.527 779.5,243.5C 777.451,243.706 777.117,244.539 778.5,246C 782.682,247.952 786.515,250.452 790,253.5C 790.333,253.167 790.667,252.833 791,252.5C 792.448,254.894 794.614,256.394 797.5,257C 803.417,261.518 809.417,265.185 815.5,268C 816.035,270.109 817.035,270.609 818.5,269.5C 828.601,277.03 838.434,283.363 848,288.5C 853.146,291.113 857.812,294.446 862,298.5C 862.333,298.167 862.667,297.833 863,297.5C 864.066,300.563 866.233,302.063 869.5,302C 869.167,302.333 868.833,302.667 868.5,303C 875.948,306.541 882.115,310.374 887,314.5C 887.333,314.167 887.667,313.833 888,313.5C 896.836,320.172 906.336,326.005 916.5,331C 915.346,331.914 915.513,332.747 917,333.5C 917.667,332.167 918.333,332.167 919,333.5C 919.495,331.527 919.662,329.527 919.5,327.5C 920.644,334.346 920.644,341.346 919.5,348.5C 918.21,349.058 917.377,350.058 917,351.5C 911.615,348.71 906.615,345.377 902,341.5C 901.667,341.833 901.333,342.167 901,342.5C 900.228,341.151 899.061,340.318 897.5,340C 892.829,335.965 886.829,332.299 879.5,329C 879.833,328.667 880.167,328.333 880.5,328C 879.207,327.51 877.873,327.343 876.5,327.5C 870.759,315.608 861.425,307.774 848.5,304C 841.751,301.694 835.084,299.527 828.5,297.5C 828.719,296.325 828.386,295.325 827.5,294.5C 825.566,294.099 824.066,293.099 823,291.5C 822.667,291.833 822.333,292.167 822,292.5C 819.791,291.08 817.791,289.413 816,287.5C 815.667,287.833 815.333,288.167 815,288.5C 808.68,283.088 802.347,278.421 796,274.5C 795,274.5 794,274.5 793,274.5C 788.891,271.26 784.724,268.094 780.5,265C 779.24,263.887 778.073,263.72 777,264.5C 776.085,263.672 775.419,262.672 775,261.5C 774.667,261.833 774.333,262.167 774,262.5C 772.667,261.167 771.333,259.833 770,258.5C 769.667,258.833 769.333,259.167 769,259.5C 763.199,254.912 757.199,250.578 751,246.5C 750.667,246.833 750.333,247.167 750,247.5C 748.333,245.833 746.667,244.167 745,242.5C 744.667,242.833 744.333,243.167 744,243.5C 738.458,238.638 732.291,234.805 725.5,232C 722.639,230.168 720.139,228.001 718,225.5C 717.667,225.833 717.333,226.167 717,226.5C 714.494,224.137 711.661,222.47 708.5,221.5C 706.573,212.634 706.073,203.634 707,194.5C 707.412,189.843 708.579,185.509 710.5,181.5 Z"/></g>
<g><path style="opacity:0.991" fill="#465aca" d="M 708.5,221.5 C 711.661,222.47 714.494,224.137 717,226.5C 717.333,226.167 717.667,225.833 718,225.5C 720.139,228.001 722.639,230.168 725.5,232C 732.291,234.805 738.458,238.638 744,243.5C 744.333,243.167 744.667,242.833 745,242.5C 746.667,244.167 748.333,245.833 750,247.5C 750.333,247.167 750.667,246.833 751,246.5C 757.199,250.578 763.199,254.912 769,259.5C 769.333,259.167 769.667,258.833 770,258.5C 771.333,259.833 772.667,261.167 774,262.5C 774.333,262.167 774.667,261.833 775,261.5C 775.419,262.672 776.085,263.672 777,264.5C 778.073,263.72 779.24,263.887 780.5,265C 784.724,268.094 788.891,271.26 793,274.5C 794,274.5 795,274.5 796,274.5C 802.347,278.421 808.68,283.088 815,288.5C 815.333,288.167 815.667,287.833 816,287.5C 817.791,289.413 819.791,291.08 822,292.5C 822.333,292.167 822.667,291.833 823,291.5C 824.066,293.099 825.566,294.099 827.5,294.5C 828.386,295.325 828.719,296.325 828.5,297.5C 803.893,292.798 779.893,285.964 756.5,277C 738.076,269.223 723.91,256.723 714,239.5C 711.285,233.746 709.452,227.746 708.5,221.5 Z"/></g>
<g><path style="opacity:0.224" fill="#64a7d0" d="M 977.5,236.5 C 986.635,236.703 986.635,237.37 977.5,238.5C 977.5,237.833 977.5,237.167 977.5,236.5 Z"/></g>
<g><path style="opacity:0.993" fill="#435bd8" d="M 779.5,243.5 C 802.454,251.239 825.787,257.739 849.5,263C 866.417,267.301 882.083,274.301 896.5,284C 901.744,288.739 906.41,293.905 910.5,299.5C 916.269,307.898 919.269,317.231 919.5,327.5C 919.662,329.527 919.495,331.527 919,333.5C 918.333,332.167 917.667,332.167 917,333.5C 915.513,332.747 915.346,331.914 916.5,331C 906.336,326.005 896.836,320.172 888,313.5C 887.667,313.833 887.333,314.167 887,314.5C 882.115,310.374 875.948,306.541 868.5,303C 868.833,302.667 869.167,302.333 869.5,302C 866.233,302.063 864.066,300.563 863,297.5C 862.667,297.833 862.333,298.167 862,298.5C 857.812,294.446 853.146,291.113 848,288.5C 838.434,283.363 828.601,277.03 818.5,269.5C 817.035,270.609 816.035,270.109 815.5,268C 809.417,265.185 803.417,261.518 797.5,257C 794.614,256.394 792.448,254.894 791,252.5C 790.667,252.833 790.333,253.167 790,253.5C 786.515,250.452 782.682,247.952 778.5,246C 777.117,244.539 777.451,243.706 779.5,243.5 Z"/></g>
<g><path style="opacity:0.133" fill="#8ab8da" d="M 969.5,246.5 C 969.833,246.5 970.167,246.5 970.5,246.5C 971.573,247.251 971.74,248.251 971,249.5C 969.961,248.756 969.461,247.756 969.5,246.5 Z"/></g>
<g><path style="opacity:0.137" fill="#878787" d="M 258.5,279.5 C 258.56,278.957 258.893,278.624 259.5,278.5C 260.666,302.16 260.833,325.826 260,349.5C 259.283,348.956 258.783,348.289 258.5,347.5C 259.833,324.833 259.833,302.167 258.5,279.5 Z"/></g>
<g><path style="opacity:0.137" fill="#878787" d="M 1161.5,279.5 C 1161.56,278.957 1161.89,278.624 1162.5,278.5C 1163.67,302.16 1163.83,325.826 1163,349.5C 1162.28,348.956 1161.78,348.289 1161.5,347.5C 1162.83,324.833 1162.83,302.167 1161.5,279.5 Z"/></g>
<g><path style="opacity:0.984" fill="#585858" d="M 258.5,279.5 C 259.833,302.167 259.833,324.833 258.5,347.5C 249.576,332.531 236.909,322.031 220.5,316C 210.622,313.108 201.789,314.942 194,321.5C 189.344,328.915 190.178,335.748 196.5,342C 210.943,347.592 225.61,352.592 240.5,357C 252.968,361.146 262.801,368.646 270,379.5C 270.5,346.835 270.667,314.168 270.5,281.5C 290.503,281.333 310.503,281.5 330.5,282C 324.28,291.615 317.947,301.115 311.5,310.5C 310.173,326.672 310.173,343.005 311.5,359.5C 312.107,359.376 312.44,359.043 312.5,358.5C 325.449,339.202 338.449,319.869 351.5,300.5C 347.375,294.419 343.375,288.252 339.5,282C 385.17,281.167 430.837,281.333 476.5,282.5C 469.859,291.642 463.025,300.642 456,309.5C 455.5,351.832 455.333,394.165 455.5,436.5C 464.525,436.832 473.525,436.498 482.5,435.5C 493.769,413.963 504.769,392.296 515.5,370.5C 516.498,403.662 516.832,436.996 516.5,470.5C 480.832,470.333 445.165,470.5 409.5,471C 429.418,502.736 449.085,534.569 468.5,566.5C 416.157,508.156 364.157,449.489 312.5,390.5C 312.44,389.957 312.107,389.624 311.5,389.5C 310.173,406.662 310.173,423.662 311.5,440.5C 317.934,449.849 324.267,459.349 330.5,469C 310.503,469.5 290.503,469.667 270.5,469.5C 270.666,461.16 270.5,452.827 270,444.5C 252.901,467.323 230.068,476.49 201.5,472C 188.098,469.464 176.098,463.964 165.5,455.5C 163.5,456.833 161.833,458.5 160.5,460.5C 162.167,463.167 163.833,465.833 165.5,468.5C 160.482,469.214 155.482,469.881 150.5,470.5C 129.21,469.678 107.876,469.178 86.5,469C 93.0383,460.092 99.205,450.926 105,441.5C 103.832,427.991 101.499,414.657 98,401.5C 85,408.833 72,416.167 59,423.5C 57.4988,428.839 55.9988,434.172 54.5,439.5C 60.5846,449.338 66.918,459.004 73.5,468.5C 48.8423,469.5 24.1757,469.833 -0.5,469.5C -0.5,468.833 -0.5,468.167 -0.5,467.5C 5.89149,458.403 12.0582,449.07 18,439.5C 28.7559,396.976 39.5892,354.476 50.5,312C 44.6275,302.422 38.6275,292.922 32.5,283.5C 56.3275,282.502 80.3275,282.169 104.5,282.5C 118.397,336.425 133.064,390.092 148.5,443.5C 148.783,444.289 149.283,444.956 150,445.5C 150.5,427.17 150.667,408.836 150.5,390.5C 157.508,400.688 165.508,410.188 174.5,419C 186.138,429.546 199.805,434.546 215.5,434C 231.393,430.381 237.893,420.548 235,404.5C 233.939,401.438 232.106,398.938 229.5,397C 225.112,394.139 220.446,391.806 215.5,390C 199.711,386.294 184.711,380.628 170.5,373C 152.957,359.715 146.457,342.215 151,320.5C 155.519,302.956 166.019,290.456 182.5,283C 203.69,275.694 223.857,277.861 243,289.5C 248.122,286.027 253.288,282.694 258.5,279.5 Z M 401.5,290.5 C 405.978,296.767 410.478,303.1 415,309.5C 415.667,353.167 415.667,396.833 415,440.5C 410.75,446.665 406.75,452.998 403,459.5C 385.333,431.5 367.667,403.5 350,375.5C 349.163,371.705 349.496,368.039 351,364.5C 368.091,339.978 384.924,315.311 401.5,290.5 Z M 79.5,340.5 C 84.1193,356.301 88.4526,372.301 92.5,388.5C 83.8525,389.665 75.1858,389.832 66.5,389C 71.0648,372.909 75.3981,356.742 79.5,340.5 Z"/></g>
<g><path style="opacity:0.989" fill="#585858" d="M 1161.5,279.5 C 1162.83,302.167 1162.83,324.833 1161.5,347.5C 1152.58,332.531 1139.91,322.031 1123.5,316C 1113.62,313.108 1104.79,314.942 1097,321.5C 1092.34,328.915 1093.18,335.748 1099.5,342C 1116.54,347.844 1133.54,353.844 1150.5,360C 1164.55,366.381 1174.05,376.881 1179,391.5C 1188.13,426.49 1176.63,451.99 1144.5,468C 1116.82,477.523 1091.49,473.356 1068.5,455.5C 1064.17,460.494 1059.51,465.161 1054.5,469.5C 1053.85,455.597 1053.18,442.263 1052.5,429.5C 1022,469.47 982.662,481.636 934.5,466C 903.669,452.343 884.336,429.177 876.5,396.5C 877.167,395.833 877.833,395.167 878.5,394.5C 887.866,391.12 895.866,385.787 902.5,378.5C 906.628,375.71 909.628,372.043 911.5,367.5C 913.167,364.833 914.833,362.167 916.5,359.5C 910.439,391.203 921.439,414.703 949.5,430C 982.51,440.072 1007.01,429.906 1023,399.5C 1033.81,367.606 1025.31,342.44 997.5,324C 962.39,310.645 936.057,320.478 918.5,353.5C 918.629,351.784 918.962,350.117 919.5,348.5C 920.644,341.346 920.644,334.346 919.5,327.5C 919.269,317.231 916.269,307.898 910.5,299.5C 941.841,277.619 975.508,273.453 1011.5,287C 1028.75,295.246 1042.58,307.412 1053,323.5C 1061.69,291.884 1082.52,277.051 1115.5,279C 1126.45,280.315 1136.61,283.815 1146,289.5C 1151.12,286.027 1156.29,282.694 1161.5,279.5 Z M 1069.5,369.5 C 1074.43,373.977 1080.1,377.477 1086.5,380C 1097.07,383.643 1107.74,386.976 1118.5,390C 1123.45,391.806 1128.11,394.139 1132.5,397C 1135.11,398.938 1136.94,401.438 1138,404.5C 1140.35,422.993 1132.18,432.993 1113.5,434.5C 1093.12,431.893 1076.95,422.227 1065,405.5C 1066.27,398.951 1067.11,392.284 1067.5,385.5C 1068.17,380.167 1068.83,374.833 1069.5,369.5 Z"/></g>
<g><path style="opacity:0.078" fill="#9e9e9e" d="M 104.5,282.5 C 80.3275,282.169 56.3275,282.502 32.5,283.5C 31.9569,283.44 31.6236,283.107 31.5,282.5C 55.9967,281.171 80.33,281.171 104.5,282.5 Z"/></g>
<g><path style="opacity:0.974" fill="#575757" d="M 642.5,281.5 C 642.831,307.672 642.498,333.672 641.5,359.5C 632.553,344.442 623.219,329.609 613.5,315C 601.171,314.5 588.838,314.333 576.5,314.5C 576.333,330.17 576.5,345.837 577,361.5C 588,353.833 599,346.167 610,338.5C 610.667,358.833 610.667,379.167 610,399.5C 599,391.167 588,382.833 577,374.5C 576.5,395.497 576.333,416.497 576.5,437.5C 588.838,437.667 601.171,437.5 613.5,437C 624.793,418.249 635.959,399.416 647,380.5C 647.5,410.498 647.667,440.498 647.5,470.5C 604.167,470.5 560.833,470.5 517.5,470.5C 517.833,469.833 518.167,469.167 518.5,468.5C 524.061,459.055 529.895,449.721 536,440.5C 536.667,396.833 536.667,353.167 536,309.5C 529.638,300.637 523.471,291.637 517.5,282.5C 559.161,281.5 600.828,281.167 642.5,281.5 Z"/></g>
<g><path style="opacity:0.027" fill="#bababa" d="M 642.5,281.5 C 643.829,307.67 643.829,334.003 642.5,360.5C 641.893,360.376 641.56,360.043 641.5,359.5C 642.498,333.672 642.831,307.672 642.5,281.5 Z"/></g>
<g><path style="opacity:0.979" fill="#575757" d="M 653.5,281.5 C 686.532,281.051 719.532,281.551 752.5,283C 777.346,287.846 792.18,302.68 797,327.5C 800.111,367.059 781.945,389.226 742.5,394C 732.506,394.5 722.506,394.666 712.5,394.5C 712.333,409.837 712.5,425.17 713,440.5C 719.833,450.167 726.667,459.833 733.5,469.5C 706.833,470.833 680.167,470.833 653.5,469.5C 659.667,459.833 665.833,450.167 672,440.5C 672.667,396.833 672.667,353.167 672,309.5C 665.192,300.538 659.026,291.205 653.5,281.5 Z M 712.5,314.5 C 724.109,314.094 735.442,315.594 746.5,319C 758.13,327.813 760.296,338.647 753,351.5C 749.138,356.036 744.305,358.869 738.5,360C 729.849,360.832 721.183,361.332 712.5,361.5C 712.5,345.833 712.5,330.167 712.5,314.5 Z"/></g>
<g><path style="opacity:0.992" fill="#585959" d="M 819.5,305.5 C 827.991,306.719 836.158,309.053 844,312.5C 843.704,358.171 842.871,403.838 841.5,449.5C 841.167,452.167 840.833,454.833 840.5,457.5C 833.845,455.168 827.178,452.835 820.5,450.5C 818.341,412.541 817.341,374.541 817.5,336.5C 816.858,325.779 817.525,315.446 819.5,305.5 Z"/></g>
<g><path style="opacity:0.137" fill="#868686" d="M 311.5,310.5 C 311.17,326.675 311.504,342.675 312.5,358.5C 312.44,359.043 312.107,359.376 311.5,359.5C 310.173,343.005 310.173,326.672 311.5,310.5 Z"/></g>
<g><path style="opacity:0.188" fill="#73808a" d="M 819.5,305.5 C 817.525,315.446 816.858,325.779 817.5,336.5C 816.506,326.013 816.172,315.346 816.5,304.5C 817.791,304.263 818.791,304.596 819.5,305.5 Z"/></g>
<g><path style="opacity:0.998" fill="#455acb" d="M 876.5,327.5 C 877.873,327.343 879.207,327.51 880.5,328C 880.167,328.333 879.833,328.667 879.5,329C 886.829,332.299 892.829,335.965 897.5,340C 899.061,340.318 900.228,341.151 901,342.5C 901.333,342.167 901.667,341.833 902,341.5C 906.615,345.377 911.615,348.71 917,351.5C 917.377,350.058 918.21,349.058 919.5,348.5C 918.962,350.117 918.629,351.784 918.5,353.5C 916.926,355.102 916.259,357.102 916.5,359.5C 914.833,362.167 913.167,364.833 911.5,367.5C 900.758,360.1 889.424,353.1 877.5,346.5C 877.5,344.833 877.5,343.167 877.5,341.5C 877.647,336.786 877.314,332.119 876.5,327.5 Z"/></g>
<g><path style="opacity:0.989" fill="#465ac4" d="M 877.5,341.5 C 877.5,343.167 877.5,344.833 877.5,346.5C 889.424,353.1 900.758,360.1 911.5,367.5C 909.628,372.043 906.628,375.71 902.5,378.5C 893.862,372.509 884.862,367.009 875.5,362C 873.304,360.301 871.304,358.467 869.5,356.5C 873.505,352.153 876.172,347.153 877.5,341.5 Z"/></g>
<g><path style="opacity:0.639" fill="#6d6f9c" d="M 918.5,353.5 C 918.405,355.786 917.738,357.786 916.5,359.5C 916.259,357.102 916.926,355.102 918.5,353.5 Z"/></g>
<g><path style="opacity:0.988" fill="#475abc" d="M 869.5,356.5 C 871.304,358.467 873.304,360.301 875.5,362C 884.862,367.009 893.862,372.509 902.5,378.5C 895.866,385.787 887.866,391.12 878.5,394.5C 870.716,388.993 862.716,383.66 854.5,378.5C 853.509,374.555 853.176,370.555 853.5,366.5C 859.17,363.667 864.503,360.334 869.5,356.5 Z"/></g>
<g><path style="opacity:0.11" fill="#919191" d="M 518.5,468.5 C 518.167,469.167 517.833,469.833 517.5,470.5C 517.167,470.5 516.833,470.5 516.5,470.5C 516.832,436.996 516.498,403.662 515.5,370.5C 515.783,369.711 516.283,369.044 517,368.5C 517.168,402.003 517.668,435.336 518.5,468.5 Z"/></g>
<g><path style="opacity:0.331" fill="#a2a2a2" d="M 1069.5,369.5 C 1068.83,374.833 1068.17,380.167 1067.5,385.5C 1067.17,379.794 1067.5,374.128 1068.5,368.5C 1069.11,368.624 1069.44,368.957 1069.5,369.5 Z"/></g>
<g><path style="opacity:0.963" fill="#4a5bb2" d="M 853.5,366.5 C 853.176,370.555 853.509,374.555 854.5,378.5C 862.716,383.66 870.716,388.993 878.5,394.5C 877.833,395.167 877.167,395.833 876.5,396.5C 868.283,399.572 859.95,402.239 851.5,404.5C 851.932,391.667 852.599,379 853.5,366.5 Z"/></g>
<g><path style="opacity:0.137" fill="#868686" d="M 312.5,390.5 C 311.503,406.992 311.17,423.658 311.5,440.5C 310.173,423.662 310.173,406.662 311.5,389.5C 312.107,389.624 312.44,389.957 312.5,390.5 Z"/></g>
<g><path style="opacity:0.078" fill="#9e9e9e" d="M 150.5,390.5 C 150.667,408.836 150.5,427.17 150,445.5C 149.283,444.956 148.783,444.289 148.5,443.5C 149.154,425.264 149.821,407.597 150.5,390.5 Z"/></g>
<g><path style="opacity:0.981" fill="#4d599c" d="M 798.5,422.5 C 798.063,420.926 797.063,419.759 795.5,419C 786.828,413.715 778.162,408.548 769.5,403.5C 773.025,399.817 777.025,396.65 781.5,394C 789.876,389.487 798.542,385.653 807.5,382.5C 808.314,384.766 808.814,387.1 809,389.5C 809.5,399.161 809.666,408.828 809.5,418.5C 805.736,419.548 802.069,420.881 798.5,422.5 Z"/></g>
<g><path style="opacity:0.983" fill="#4e598f" d="M 769.5,403.5 C 778.162,408.548 786.828,413.715 795.5,419C 797.063,419.759 798.063,420.926 798.5,422.5C 789.887,428.951 788.221,436.951 793.5,446.5C 781.469,439.44 769.636,432.107 758,424.5C 757.617,425.056 757.117,425.389 756.5,425.5C 758.265,416.636 762.598,409.302 769.5,403.5 Z"/></g>
<g><path style="opacity:0.995" fill="#4f5886" d="M 793.5,446.5 C 798.497,450.334 803.83,453.667 809.5,456.5C 828.878,469.668 848.545,482.001 868.5,493.5C 871.132,495.291 873.465,497.291 875.5,499.5C 875.665,503.182 875.499,506.848 875,510.5C 874.626,512.491 873.793,514.158 872.5,515.5C 872.762,514.022 872.429,512.689 871.5,511.5C 836.181,489.034 801.348,467.367 767,446.5C 763.747,444.457 760.58,442.29 757.5,440C 756.563,439.308 755.897,439.475 755.5,440.5C 754.284,435.434 754.617,430.434 756.5,425.5C 757.117,425.389 757.617,425.056 758,424.5C 769.636,432.107 781.469,439.44 793.5,446.5 Z"/></g>
<g><path style="opacity:0.078" fill="#9d9d9d" d="M 1054.5,469.5 C 1054.44,470.043 1054.11,470.376 1053.5,470.5C 1052.5,456.85 1052.17,443.183 1052.5,429.5C 1053.18,442.263 1053.85,455.597 1054.5,469.5 Z"/></g>
<g><path style="opacity:0.976" fill="#515881" d="M 872.5,515.5 C 867.818,525.18 860.484,532.18 850.5,536.5C 849.96,524.752 849.126,513.085 848,501.5C 844.919,498.707 841.419,496.54 837.5,495C 822.317,489.272 806.984,483.939 791.5,479C 776.949,474.324 765.783,465.491 758,452.5C 756.228,448.687 755.395,444.687 755.5,440.5C 755.897,439.475 756.563,439.308 757.5,440C 760.58,442.29 763.747,444.457 767,446.5C 801.348,467.367 836.181,489.034 871.5,511.5C 872.429,512.689 872.762,514.022 872.5,515.5 Z"/></g>
<g><path style="opacity:0.95" fill="#4f598d" d="M 809.5,456.5 C 826.925,461.14 843.592,467.64 859.5,476C 868.651,481.304 873.984,489.137 875.5,499.5C 873.465,497.291 871.132,495.291 868.5,493.5C 848.545,482.001 828.878,469.668 809.5,456.5 Z"/></g>
<g><path style="opacity:0.991" fill="#595a5b" d="M 820.5,498.5 C 827.324,499.941 833.824,502.275 840,505.5C 840.011,553.172 839.344,600.838 838,648.5C 837.995,653.681 836.495,658.348 833.5,662.5C 828.933,664.141 826.1,662.474 825,657.5C 823.894,652.231 823.227,646.897 823,641.5C 822.06,593.834 821.227,546.167 820.5,498.5 Z"/></g>
<g><path style="opacity:0.932" fill="#555865" d="M 809.5,533.5 C 810.552,533.351 811.552,533.517 812.5,534C 812.719,540.714 812.386,547.547 811.5,554.5C 793.947,562.386 781.947,575.386 775.5,593.5C 772.85,572.968 779.516,556.135 795.5,543C 800.071,539.579 804.737,536.412 809.5,533.5 Z"/></g>
<g><path style="opacity:0.11" fill="#919291" d="M 468.5,566.5 C 469.833,567.167 469.833,567.167 468.5,566.5 Z"/></g>
</svg>
