<?xml version="1.0" encoding="UTF-8"?>
<!DOCTYPE svg PUBLIC "-//W3C//DTD SVG 1.1//EN" "http://www.w3.org/Graphics/SVG/1.1/DTD/svg11.dtd">
<svg xmlns="http://www.w3.org/2000/svg" version="1.1" width="1212px" height="672px" style="shape-rendering:geometricPrecision; text-rendering:geometricPrecision; image-rendering:optimizeQuality; fill-rule:evenodd; clip-rule:evenodd" xmlns:xlink="http://www.w3.org/1999/xlink">
<g><path style="opacity:1" fill="#656566" d="M 855.5,12.5 C 858.493,15.5012 861.159,18.8346 863.5,22.5C 850.787,23.5264 836.787,23.5264 821.5,22.5C 823.81,18.8591 826.477,15.5257 829.5,12.5C 830.842,11.207 832.509,10.3736 834.5,10C 839.833,9.33333 845.167,9.33333 850.5,10C 852.315,10.7568 853.981,11.5902 855.5,12.5 Z"/></g>
<g><path style="opacity:1" fill="#717272" d="M 829.5,12.5 C 826.477,15.5257 823.81,18.8591 821.5,22.5C 836.787,23.5264 850.787,23.5264 863.5,22.5C 864.492,25.1381 865.492,27.8048 866.5,30.5C 850.514,31.4994 834.514,31.8328 818.5,31.5C 819.634,28.6296 820.3,25.6296 820.5,22.5C 822.105,17.8955 825.105,14.5622 829.5,12.5 Z"/></g>
<g><path style="opacity:1" fill="#7e7e7e" d="M 855.5,12.5 C 863.346,17.1804 867.346,24.1804 867.5,33.5C 867.5,35.5 867.5,37.5 867.5,39.5C 850.797,39.6899 834.464,39.6899 818.5,39.5C 818.5,36.8333 818.5,34.1667 818.5,31.5C 834.514,31.8328 850.514,31.4994 866.5,30.5C 865.492,27.8048 864.492,25.1381 863.5,22.5C 861.159,18.8346 858.493,15.5012 855.5,12.5 Z"/></g>
<g><path style="opacity:1" fill="#8a8a8a" d="M 818.5,39.5 C 834.464,39.6899 850.797,39.6899 867.5,39.5C 867.5,42.1667 867.5,44.8333 867.5,47.5C 852.037,46.9375 835.704,46.9375 818.5,47.5C 818.5,44.8333 818.5,42.1667 818.5,39.5 Z"/></g>
<g><path style="opacity:1" fill="#979797" d="M 820.5,22.5 C 820.3,25.6296 819.634,28.6296 818.5,31.5C 818.5,34.1667 818.5,36.8333 818.5,39.5C 818.5,42.1667 818.5,44.8333 818.5,47.5C 835.704,46.9375 852.037,46.9375 867.5,47.5C 867.802,50.0593 867.468,52.3926 866.5,54.5C 850.756,54.1829 835.089,54.5162 819.5,55.5C 819.662,53.4727 819.495,51.4727 819,49.5C 818.617,48.944 818.117,48.6107 817.5,48.5C 817.334,42.1579 817.5,35.8246 818,29.5C 818.39,26.8958 819.224,24.5625 820.5,22.5 Z"/></g>
<g><path style="opacity:1" fill="#a5a5a5" d="M 866.5,54.5 C 867.201,58.8722 866.034,62.5389 863,65.5C 850.371,64.8579 836.538,64.8579 821.5,65.5C 821.044,62.0945 820.378,58.7611 819.5,55.5C 835.089,54.5162 850.756,54.1829 866.5,54.5 Z"/></g>
<g><path style="opacity:1" fill="#b5b5b5" d="M 867.5,33.5 C 868.84,44.3983 868.507,55.3983 866.5,66.5C 864.887,68.4605 863.887,70.7939 863.5,73.5C 850.163,73.6666 836.829,73.4999 823.5,73C 822.645,70.5644 821.979,68.0644 821.5,65.5C 836.538,64.8579 850.371,64.8579 863,65.5C 866.034,62.5389 867.201,58.8722 866.5,54.5C 867.468,52.3926 867.802,50.0593 867.5,47.5C 867.5,44.8333 867.5,42.1667 867.5,39.5C 867.5,37.5 867.5,35.5 867.5,33.5 Z"/></g>
<g><path style="opacity:1" fill="#c4c4c4" d="M 817.5,48.5 C 818.117,48.6107 818.617,48.944 819,49.5C 819.495,51.4727 819.662,53.4727 819.5,55.5C 820.378,58.7611 821.044,62.0945 821.5,65.5C 821.979,68.0644 822.645,70.5644 823.5,73C 836.829,73.4999 850.163,73.6666 863.5,73.5C 863.425,76.2062 863.092,78.8728 862.5,81.5C 849.833,81.5 837.167,81.5 824.5,81.5C 824.167,81.5 823.833,81.5 823.5,81.5C 821.241,70.5402 819.241,59.5402 817.5,48.5 Z"/></g>
<g><path style="opacity:0.992" fill="#dadada" d="M 866.5,66.5 C 865.228,72.4597 864.062,78.4597 863,84.5C 862.213,106.663 861.379,128.663 860.5,150.5C 860.5,150.167 860.5,149.833 860.5,149.5C 860.5,148.833 860.5,148.167 860.5,147.5C 860.5,143.833 860.5,140.167 860.5,136.5C 860.83,130.132 860.496,123.798 859.5,117.5C 848.972,116.972 837.972,116.972 826.5,117.5C 826.5,124.167 826.5,130.833 826.5,137.5C 826.5,141.167 826.5,144.833 826.5,148.5C 826.5,149.5 826.5,150.5 826.5,151.5C 826.5,151.833 826.5,152.167 826.5,152.5C 825.804,128.949 824.804,105.282 823.5,81.5C 823.833,81.5 824.167,81.5 824.5,81.5C 825.414,84.728 825.747,88.0613 825.5,91.5C 837.644,91.8894 849.644,91.8894 861.5,91.5C 861.342,88.0977 861.676,84.7644 862.5,81.5C 863.092,78.8728 863.425,76.2062 863.5,73.5C 863.887,70.7939 864.887,68.4605 866.5,66.5 Z"/></g>
<g><path style="opacity:1" fill="#cfcfcf" d="M 824.5,81.5 C 837.167,81.5 849.833,81.5 862.5,81.5C 861.676,84.7644 861.342,88.0977 861.5,91.5C 849.644,91.8894 837.644,91.8894 825.5,91.5C 825.747,88.0613 825.414,84.728 824.5,81.5 Z"/></g>
<g><path style="opacity:0.984" fill="#425be5" d="M 765.5,182.5 C 755.09,175.45 744.423,168.617 733.5,162C 732.748,161.329 732.414,160.496 732.5,159.5C 747.073,140.529 766.073,128.029 789.5,122C 798.363,119.634 807.363,118.134 816.5,117.5C 816.328,129.52 816.662,141.52 817.5,153.5C 800.513,154.326 785.679,160.326 773,171.5C 769.982,174.886 767.482,178.553 765.5,182.5 Z"/></g>
<g><path style="opacity:1" fill="#c9c9c9" d="M 860.5,136.5 C 849.652,136.495 838.319,136.828 826.5,137.5C 826.5,130.833 826.5,124.167 826.5,117.5C 837.972,116.972 848.972,116.972 859.5,117.5C 860.496,123.798 860.83,130.132 860.5,136.5 Z"/></g>
<g><path style="opacity:0.973" fill="#425ce6" d="M 990.5,232.5 C 990.5,233.167 990.5,233.833 990.5,234.5C 987.455,234.658 984.621,233.991 982,232.5C 982.365,235.794 982.865,239.127 983.5,242.5C 983.167,242.5 982.833,242.5 982.5,242.5C 978.195,234.347 972.862,226.847 966.5,220C 960.226,219.909 954.226,218.575 948.5,216C 933.156,207.665 918.49,198.332 904.5,188C 898.866,181.364 892.866,175.031 886.5,169C 881.358,165.096 875.691,162.262 869.5,160.5C 869.733,147.812 870.399,135.145 871.5,122.5C 880.857,125.454 889.857,129.287 898.5,134C 917.09,137.044 932.923,145.21 946,158.5C 950.333,164.167 954.667,169.833 959,175.5C 962.694,186.269 966.694,196.935 971,207.5C 971.348,220.676 977.848,229.01 990.5,232.5 Z M 930.5,167.5 C 931.822,167.33 932.989,167.663 934,168.5C 936.374,172.75 938.874,176.916 941.5,181C 939.447,181.325 937.447,180.991 935.5,180C 931.833,176.333 928.167,172.667 924.5,169C 926.708,168.809 928.708,168.309 930.5,167.5 Z"/></g>
<g><path style="opacity:1" fill="#b3b3b3" d="M 860.5,136.5 C 860.5,140.167 860.5,143.833 860.5,147.5C 856.497,146.546 852.664,146.213 849,146.5C 841.353,147.347 833.853,148.014 826.5,148.5C 826.5,144.833 826.5,141.167 826.5,137.5C 838.319,136.828 849.652,136.495 860.5,136.5 Z"/></g>
<g><path style="opacity:0.991" fill="#425bdd" d="M 732.5,159.5 C 732.414,160.496 732.748,161.329 733.5,162C 744.423,168.617 755.09,175.45 765.5,182.5C 764.188,186.416 763.188,190.416 762.5,194.5C 761.681,197.305 761.181,200.305 761,203.5C 755.402,199.56 749.568,196.06 743.5,193C 739.63,188.929 735.297,186.262 730.5,185C 728.86,183.605 727.36,182.105 726,180.5C 725.667,180.833 725.333,181.167 725,181.5C 724.209,180.255 723.709,178.922 723.5,177.5C 725.46,170.914 728.46,164.914 732.5,159.5 Z"/></g>
<g><path style="opacity:1" fill="#9e9e9e" d="M 860.5,147.5 C 860.5,148.167 860.5,148.833 860.5,149.5C 859.51,155.645 859.177,161.978 859.5,168.5C 849.324,167.691 838.657,168.025 827.5,169.5C 827.823,163.31 827.49,157.31 826.5,151.5C 826.5,150.5 826.5,149.5 826.5,148.5C 833.853,148.014 841.353,147.347 849,146.5C 852.664,146.213 856.497,146.546 860.5,147.5 Z"/></g>
<g><path style="opacity:0.996" fill="#445ad2" d="M 723.5,177.5 C 723.709,178.922 724.209,180.255 725,181.5C 725.333,181.167 725.667,180.833 726,180.5C 727.36,182.105 728.86,183.605 730.5,185C 735.297,186.262 739.63,188.929 743.5,193C 749.568,196.06 755.402,199.56 761,203.5C 761.181,200.305 761.681,197.305 762.5,194.5C 761.028,208.256 765.361,219.756 775.5,229C 780.896,233.027 786.562,236.527 792.5,239.5C 790.451,239.706 790.117,240.539 791.5,242C 795.682,243.952 799.515,246.452 803,249.5C 803.333,249.167 803.667,248.833 804,248.5C 805.448,250.894 807.614,252.394 810.5,253C 815.612,256.112 820.445,259.612 825,263.5C 827.33,262.844 828.997,263.844 830,266.5C 830.414,266.043 830.914,265.709 831.5,265.5C 841.601,273.03 851.434,279.363 861,284.5C 866.146,287.113 870.812,290.446 875,294.5C 875.333,294.167 875.667,293.833 876,293.5C 877.066,296.563 879.233,298.063 882.5,298C 882.167,298.333 881.833,298.667 881.5,299C 888.948,302.541 895.115,306.374 900,310.5C 900.333,310.167 900.667,309.833 901,309.5C 909.836,316.172 919.336,322.005 929.5,327C 928.346,327.914 928.513,328.747 930,329.5C 930.77,328.402 931.603,328.402 932.5,329.5C 932.313,334.845 931.98,340.178 931.5,345.5C 930.778,345.918 930.278,346.584 930,347.5C 924.615,344.71 919.615,341.377 915,337.5C 914.667,337.833 914.333,338.167 914,338.5C 913.228,337.151 912.061,336.318 910.5,336C 905.829,331.965 899.829,328.299 892.5,325C 892.833,324.667 893.167,324.333 893.5,324C 892.207,323.51 890.873,323.343 889.5,323.5C 883.759,311.608 874.425,303.774 861.5,300C 854.751,297.694 848.084,295.527 841.5,293.5C 841.719,292.325 841.386,291.325 840.5,290.5C 838.566,290.099 837.066,289.099 836,287.5C 835.667,287.833 835.333,288.167 835,288.5C 832.791,287.08 830.791,285.413 829,283.5C 828.667,283.833 828.333,284.167 828,284.5C 821.68,279.088 815.347,274.421 809,270.5C 808,270.5 807,270.5 806,270.5C 801.891,267.26 797.724,264.094 793.5,261C 792.24,259.887 791.073,259.72 790,260.5C 789.085,259.672 788.419,258.672 788,257.5C 787.667,257.833 787.333,258.167 787,258.5C 785.667,257.167 784.333,255.833 783,254.5C 782.667,254.833 782.333,255.167 782,255.5C 776.199,250.912 770.199,246.578 764,242.5C 763.667,242.833 763.333,243.167 763,243.5C 761.333,241.833 759.667,240.167 758,238.5C 757.667,238.833 757.333,239.167 757,239.5C 751.458,234.638 745.291,230.805 738.5,228C 735.639,226.168 733.139,224.001 731,221.5C 730.667,221.833 730.333,222.167 730,222.5C 727.494,220.137 724.661,218.47 721.5,217.5C 719.573,208.634 719.073,199.634 720,190.5C 720.412,185.843 721.579,181.509 723.5,177.5 Z"/></g>
<g><path style="opacity:0.991" fill="#455acb" d="M 721.5,217.5 C 724.661,218.47 727.494,220.137 730,222.5C 730.333,222.167 730.667,221.833 731,221.5C 733.139,224.001 735.639,226.168 738.5,228C 745.291,230.805 751.458,234.638 757,239.5C 757.333,239.167 757.667,238.833 758,238.5C 759.667,240.167 761.333,241.833 763,243.5C 763.333,243.167 763.667,242.833 764,242.5C 770.199,246.578 776.199,250.912 782,255.5C 782.333,255.167 782.667,254.833 783,254.5C 784.333,255.833 785.667,257.167 787,258.5C 787.333,258.167 787.667,257.833 788,257.5C 788.419,258.672 789.085,259.672 790,260.5C 791.073,259.72 792.24,259.887 793.5,261C 797.724,264.094 801.891,267.26 806,270.5C 807,270.5 808,270.5 809,270.5C 815.347,274.421 821.68,279.088 828,284.5C 828.333,284.167 828.667,283.833 829,283.5C 830.791,285.413 832.791,287.08 835,288.5C 835.333,288.167 835.667,287.833 836,287.5C 837.066,289.099 838.566,290.099 840.5,290.5C 841.386,291.325 841.719,292.325 841.5,293.5C 824.281,289.945 807.281,285.612 790.5,280.5C 785.712,276.168 780.545,272.168 775,268.5C 774.667,268.833 774.333,269.167 774,269.5C 772.225,267.606 770.225,265.939 768,264.5C 767.667,264.833 767.333,265.167 767,265.5C 764.302,262.365 761.302,260.365 758,259.5C 749.355,253.434 740.522,247.768 731.5,242.5C 726.267,235.018 722.933,226.685 721.5,217.5 Z"/></g>
<g><path style="opacity:0.224" fill="#64a7d0" d="M 990.5,232.5 C 999.635,232.703 999.635,233.37 990.5,234.5C 990.5,233.833 990.5,233.167 990.5,232.5 Z"/></g>
<g><path style="opacity:0.993" fill="#435bd8" d="M 792.5,239.5 C 815.454,247.239 838.787,253.739 862.5,259C 879.417,263.301 895.083,270.301 909.5,280C 914.744,284.739 919.41,289.905 923.5,295.5C 923.5,295.833 923.5,296.167 923.5,296.5C 928.834,306.833 931.834,317.833 932.5,329.5C 931.603,328.402 930.77,328.402 930,329.5C 928.513,328.747 928.346,327.914 929.5,327C 919.336,322.005 909.836,316.172 901,309.5C 900.667,309.833 900.333,310.167 900,310.5C 895.115,306.374 888.948,302.541 881.5,299C 881.833,298.667 882.167,298.333 882.5,298C 879.233,298.063 877.066,296.563 876,293.5C 875.667,293.833 875.333,294.167 875,294.5C 870.812,290.446 866.146,287.113 861,284.5C 851.434,279.363 841.601,273.03 831.5,265.5C 830.914,265.709 830.414,266.043 830,266.5C 828.997,263.844 827.33,262.844 825,263.5C 820.445,259.612 815.612,256.112 810.5,253C 807.614,252.394 805.448,250.894 804,248.5C 803.667,248.833 803.333,249.167 803,249.5C 799.515,246.452 795.682,243.952 791.5,242C 790.117,240.539 790.451,239.706 792.5,239.5 Z"/></g>
<g><path style="opacity:0.655" fill="#bcbfc1" d="M 860.5,149.5 C 860.5,149.833 860.5,150.167 860.5,150.5C 860.222,179.836 859.722,209.169 859,238.5C 858.824,241.882 858.324,245.215 857.5,248.5C 847.945,245.694 838.278,243.361 828.5,241.5C 827.184,211.863 826.517,182.197 826.5,152.5C 826.5,152.167 826.5,151.833 826.5,151.5C 827.49,157.31 827.823,163.31 827.5,169.5C 827.902,187.832 828.236,206.165 828.5,224.5C 828.392,229.87 828.725,235.203 829.5,240.5C 838.843,242.503 848.177,244.503 857.5,246.5C 857.9,240.171 858.233,233.838 858.5,227.5C 858.535,207.827 858.869,188.16 859.5,168.5C 859.177,161.978 859.51,155.645 860.5,149.5 Z"/></g>
<g><path style="opacity:1" fill="#959595" d="M 828.5,224.5 C 838.547,225.061 848.547,226.061 858.5,227.5C 858.233,233.838 857.9,240.171 857.5,246.5C 848.177,244.503 838.843,242.503 829.5,240.5C 828.725,235.203 828.392,229.87 828.5,224.5 Z"/></g>
<g><path style="opacity:1" fill="#888888" d="M 859.5,168.5 C 858.869,188.16 858.535,207.827 858.5,227.5C 848.547,226.061 838.547,225.061 828.5,224.5C 828.236,206.165 827.902,187.832 827.5,169.5C 838.657,168.025 849.324,167.691 859.5,168.5 Z"/></g>
<g><path style="opacity:0.133" fill="#8ab8da" d="M 982.5,242.5 C 982.833,242.5 983.167,242.5 983.5,242.5C 984.573,243.251 984.74,244.251 984,245.5C 982.961,244.756 982.461,243.756 982.5,242.5 Z"/></g>
<g><path style="opacity:0.929" fill="#485cc7" d="M 731.5,242.5 C 740.522,247.768 749.355,253.434 758,259.5C 761.302,260.365 764.302,262.365 767,265.5C 767.333,265.167 767.667,264.833 768,264.5C 770.225,265.939 772.225,267.606 774,269.5C 774.333,269.167 774.667,268.833 775,268.5C 780.545,272.168 785.712,276.168 790.5,280.5C 773.182,275.841 757.515,268.008 743.5,257C 738.656,252.781 734.656,247.947 731.5,242.5 Z"/></g>
<g><path style="opacity:0.99" fill="#dddddd" d="M 257.5,355.5 C 250.471,352.99 243.304,350.99 236,349.5C 233.779,349.706 231.612,350.039 229.5,350.5C 226.559,348.961 223.726,347.961 221,347.5C 214.326,348.674 207.493,348.007 200.5,345.5C 198.264,346.218 196.098,346.552 194,346.5C 193,345.833 192,345.167 191,344.5C 186.639,344.587 182.306,344.587 178,344.5C 177.667,343.833 177.333,343.167 177,342.5C 174.667,342.833 172.333,343.167 170,343.5C 168.667,342.833 167.333,342.167 166,341.5C 166.359,344.112 166.859,346.779 167.5,349.5C 159.936,331.532 161.436,314.199 172,297.5C 173.039,296.29 174.206,295.29 175.5,294.5C 175.141,296.371 174.141,297.871 172.5,299C 173.126,299.75 173.626,300.584 174,301.5C 178.023,301.345 182.023,301.345 186,301.5C 190.181,303.343 194.014,303.676 197.5,302.5C 200.089,304.157 202.756,304.491 205.5,303.5C 208.304,304.398 211.137,305.398 214,306.5C 214.667,305.167 215.333,305.167 216,306.5C 216.974,304.122 217.641,304.456 218,307.5C 218.308,306.692 218.808,306.025 219.5,305.5C 220.425,306.641 221.259,306.641 222,305.5C 222.333,306.167 222.667,306.833 223,307.5C 227.403,307.661 231.903,307.661 236.5,307.5C 238.815,309.588 241.315,309.922 244,308.5C 253.672,310.971 262.838,312.305 271.5,312.5C 272.833,300.5 272.833,288.5 271.5,276.5C 270.378,277.63 269.044,278.297 267.5,278.5C 268.548,276.466 270.214,275.133 272.5,274.5C 273.666,298.16 273.833,321.826 273,345.5C 266.206,334.741 257.706,325.574 247.5,318C 237.587,311.682 226.921,309.682 215.5,312C 204.965,316.554 201.798,324.054 206,334.5C 207.167,335.667 208.333,336.833 209.5,338C 225.71,343.542 241.71,349.375 257.5,355.5 Z"/></g>
<g><path style="opacity:0.988" fill="#dcdcdc" d="M 327.5,300.5 C 326.928,302.255 326.094,303.922 325,305.5C 324.333,321.833 324.333,338.167 325,354.5C 336.363,337.084 348.196,320.084 360.5,303.5C 357.084,309.432 353.418,315.265 349.5,321C 350.993,322.368 352.493,322.535 354,321.5C 355.482,323.781 357.149,323.781 359,321.5C 363.462,322.551 367.962,323.551 372.5,324.5C 373.906,323.332 375.072,323.665 376,325.5C 378.456,324.705 381.123,324.705 384,325.5C 384.833,325.333 385.667,325.167 386.5,325C 389.037,322.094 391.204,318.927 393,315.5C 393.671,314.748 394.504,314.414 395.5,314.5C 384.497,330.345 373.663,346.345 363,362.5C 362.333,365.5 362.333,368.5 363,371.5C 364.511,373.862 366.011,376.195 367.5,378.5C 366.504,378.586 365.671,378.252 365,377.5C 362.35,373.952 360.85,369.952 360.5,365.5C 359.726,364.289 358.893,364.289 358,365.5C 357.333,364.833 356.667,364.167 356,363.5C 353.451,364.042 350.951,364.376 348.5,364.5C 346.399,363.408 344.232,362.408 342,361.5C 341.333,364.167 340.667,364.167 340,361.5C 338.434,360.939 337.101,361.606 336,363.5C 335.692,362.692 335.192,362.025 334.5,361.5C 333.284,362.002 332.117,362.335 331,362.5C 330.667,361.833 330.333,361.167 330,360.5C 326.856,360.55 324.022,360.884 321.5,361.5C 319.184,360.068 316.684,359.068 314,358.5C 310.333,358.833 306.667,359.167 303,359.5C 302.692,358.692 302.192,358.025 301.5,357.5C 298.813,358.525 295.813,358.191 292.5,356.5C 289.987,356.961 287.32,356.961 284.5,356.5C 284.5,362.167 284.5,367.833 284.5,373.5C 284.5,374.5 284.5,375.5 284.5,376.5C 282.336,376.279 280.67,375.279 279.5,373.5C 277.42,369.914 274.754,366.747 271.5,364C 266.936,360.89 262.269,358.056 257.5,355.5C 268.677,358.681 277.177,365.348 283,375.5C 283.5,342.835 283.667,310.168 283.5,277.5C 303.503,277.333 323.503,277.5 343.5,278C 338.692,285.959 333.358,293.459 327.5,300.5 Z"/></g>
<g><path style="opacity:1" fill="#cbcbcb" d="M 470.5,302.5 C 469.833,302.833 469.167,303.167 468.5,303.5C 465.447,303.089 462.447,302.423 459.5,301.5C 458.284,302.002 457.117,302.335 456,302.5C 455.309,300.109 454.309,300.109 453,302.5C 450.32,301.33 447.653,300.33 445,299.5C 443.417,299.493 441.751,299.826 440,300.5C 439.333,299.833 438.667,299.167 438,298.5C 433.567,299.396 429.401,299.396 425.5,298.5C 422.002,294.174 418.502,289.841 415,285.5C 412.008,288 409.508,291 407.5,294.5C 404.525,295.288 401.692,295.621 399,295.5C 396.858,293.663 394.691,293.329 392.5,294.5C 390.291,293.894 388.124,293.227 386,292.5C 382.215,293.108 378.215,293.108 374,292.5C 370.661,290.988 367.661,290.654 365,291.5C 364.147,289.875 363.147,289.542 362,290.5C 360.723,288.253 359.223,286.253 357.5,284.5C 355.697,282.519 354.03,280.352 352.5,278C 398.17,277.167 443.837,277.333 489.5,278.5C 483.629,286.933 477.295,294.933 470.5,302.5 Z"/></g>
<g><path style="opacity:1" fill="#b8b8b8" d="M 769.5,280.5 C 781.791,282.492 791.458,288.492 798.5,298.5C 799.087,299.767 799.087,300.767 798.5,301.5C 794.813,301.182 790.98,300.515 787,299.5C 784.339,300.346 781.339,300.012 778,298.5C 774.062,298.432 770.062,298.432 766,298.5C 761.257,297.359 756.59,296.359 752,295.5C 749.658,296.178 747.324,295.845 745,294.5C 740.667,294.5 736.333,294.5 732,294.5C 729.753,292.845 727.42,292.512 725,293.5C 715.155,292.321 705.155,290.654 695,288.5C 693.333,288.833 691.667,289.167 690,289.5C 689,288.833 688,288.167 687,287.5C 683.309,287.715 679.309,287.715 675,287.5C 672.479,284.968 670.312,282.134 668.5,279C 698.167,278.333 727.833,278.333 757.5,279C 761.491,279.642 765.491,280.142 769.5,280.5 Z"/></g>
<g><path style="opacity:1" fill="#9e9e9e" d="M 1170.5,278.5 C 1172.04,278.297 1173.38,277.63 1174.5,276.5C 1175.5,284.138 1175.83,291.804 1175.5,299.5C 1168.15,298.534 1160.65,297.201 1153,295.5C 1152.67,295.833 1152.33,296.167 1152,296.5C 1129.79,293.256 1107.95,290.59 1086.5,288.5C 1094.95,280.951 1104.95,276.784 1116.5,276C 1131.75,275.195 1145.92,278.695 1159,286.5C 1163.52,284.806 1167.36,282.139 1170.5,278.5 Z"/></g>
<g><path style="opacity:1" fill="#d0d0d0" d="M 327.5,300.5 C 318.71,300.78 309.71,299.78 300.5,297.5C 297.081,297.329 293.581,297.663 290,298.5C 288.488,297.743 287.154,296.743 286,295.5C 285.667,295.833 285.333,296.167 285,296.5C 284.501,290.509 284.334,284.509 284.5,278.5C 303.503,278.333 322.503,278.5 341.5,279C 336.191,285.797 331.524,292.964 327.5,300.5 Z"/></g>
<g><path style="opacity:0.639" fill="#c7c8c7" d="M 1170.5,278.5 C 1167.36,282.139 1163.52,284.806 1159,286.5C 1145.92,278.695 1131.75,275.195 1116.5,276C 1104.95,276.784 1094.95,280.951 1086.5,288.5C 1083.55,290.115 1080.88,292.115 1078.5,294.5C 1085.96,284.584 1095.96,278.418 1108.5,276C 1126.57,272.676 1143.41,275.843 1159,285.5C 1162.73,282.93 1166.56,280.597 1170.5,278.5 Z"/></g>
<g><path style="opacity:1" fill="#c4c4c4" d="M 655.5,296.5 C 655.5,300.833 655.5,305.167 655.5,309.5C 652.991,308.887 650.491,308.22 648,307.5C 643.133,307.1 638.466,307.1 634,307.5C 631.379,306 628.712,305.666 626,306.5C 621.316,305.593 616.65,304.593 612,303.5C 611.667,303.833 611.333,304.167 611,304.5C 607.392,302.839 603.725,302.505 600,303.5C 598.676,302.12 597.343,301.786 596,302.5C 593.667,301.833 591.333,301.167 589,300.5C 584.69,300.602 580.023,300.602 575,300.5C 571.691,299.749 568.357,298.749 565,297.5C 563.256,298.036 561.423,298.37 559.5,298.5C 555.423,297.169 551.423,296.169 547.5,295.5C 546.583,296.127 545.583,296.461 544.5,296.5C 544.167,296.5 543.833,296.5 543.5,296.5C 541.095,292.027 538.429,287.694 535.5,283.5C 537.405,283.407 539.238,283.074 541,282.5C 546.104,283.702 551.271,284.702 556.5,285.5C 560.302,285.539 564.136,285.539 568,285.5C 569,286.167 570,286.833 571,287.5C 576.58,287.693 581.913,287.693 587,287.5C 590.742,288.827 594.409,289.827 598,290.5C 600.42,289.512 602.753,289.845 605,291.5C 607.957,290.186 610.79,290.52 613.5,292.5C 614.086,292.291 614.586,291.957 615,291.5C 620.716,292.076 626.549,293.076 632.5,294.5C 633.716,293.998 634.883,293.665 636,293.5C 639.249,295.289 642.582,295.622 646,294.5C 646.333,295.167 646.667,295.833 647,296.5C 649.587,295.304 652.42,295.304 655.5,296.5 Z"/></g>
<g><path style="opacity:1" fill="#ababab" d="M 998.5,276.5 C 1011.9,278.97 1024.57,283.637 1036.5,290.5C 1042.44,294.767 1047.77,299.767 1052.5,305.5C 1049.94,305.345 1047.27,305.345 1044.5,305.5C 1042.94,304.926 1041.44,304.26 1040,303.5C 1037.57,304.293 1035.23,304.626 1033,304.5C 1031.68,303.12 1030.34,302.786 1029,303.5C 1022.86,302.538 1016.69,301.538 1010.5,300.5C 1008.4,300.479 1006.23,300.813 1004,301.5C 1001.14,300.079 998.139,299.079 995,298.5C 994,298.833 993,299.167 992,299.5C 987.475,298.785 982.975,297.785 978.5,296.5C 973.569,297.279 968.402,296.612 963,294.5C 961.434,293.939 960.101,294.606 959,296.5C 956.667,295.123 954.167,294.123 951.5,293.5C 947.636,293.534 943.803,293.534 940,293.5C 937.328,292.718 934.828,291.718 932.5,290.5C 948.223,279.856 965.723,274.856 985,275.5C 989.68,275.501 994.18,275.834 998.5,276.5 Z"/></g>
<g><path style="opacity:0.706" fill="#cdcdcd" d="M 998.5,276.5 C 1012.66,277.438 1025.33,282.105 1036.5,290.5C 1024.57,283.637 1011.9,278.97 998.5,276.5 Z"/></g>
<g><path style="opacity:0.997" fill="#dcdcdc" d="M 136.5,352.5 C 134.771,347.782 133.104,342.949 131.5,338C 125.747,337.764 119.913,336.931 114,335.5C 113.667,335.833 113.333,336.167 113,336.5C 112.311,335.643 111.478,334.977 110.5,334.5C 108.902,334.61 107.235,334.943 105.5,335.5C 104.808,334.975 104.308,334.308 104,333.5C 102.127,332.911 100.46,333.578 99,335.5C 98.6667,334.833 98.3333,334.167 98,333.5C 96.4173,333.493 94.7506,333.826 93,334.5C 87.1587,333.58 81.1587,332.247 75,330.5C 71.916,331.518 68.916,331.185 66,329.5C 63.5465,330.112 61.0465,330.446 58.5,330.5C 60.4929,322.208 61.9929,313.875 63,305.5C 56.638,296.637 50.4713,287.637 44.5,278.5C 68.8242,277.5 93.1575,277.167 117.5,277.5C 123.991,302.464 130.324,327.464 136.5,352.5 Z"/></g>
<g><path style="opacity:1" fill="#d6d6d6" d="M 267.5,278.5 C 269.044,278.297 270.378,277.63 271.5,276.5C 272.833,288.5 272.833,300.5 271.5,312.5C 262.838,312.305 253.672,310.971 244,308.5C 241.315,309.922 238.815,309.588 236.5,307.5C 231.903,307.661 227.403,307.661 223,307.5C 222.667,306.833 222.333,306.167 222,305.5C 221.259,306.641 220.425,306.641 219.5,305.5C 218.808,306.025 218.308,306.692 218,307.5C 217.641,304.456 216.974,304.122 216,306.5C 215.333,305.167 214.667,305.167 214,306.5C 211.137,305.398 208.304,304.398 205.5,303.5C 202.756,304.491 200.089,304.157 197.5,302.5C 194.014,303.676 190.181,303.343 186,301.5C 182.023,301.345 178.023,301.345 174,301.5C 173.626,300.584 173.126,299.75 172.5,299C 174.141,297.871 175.141,296.371 175.5,294.5C 182.962,284.584 192.962,278.418 205.5,276C 223.573,272.676 240.407,275.843 256,285.5C 259.726,282.93 263.56,280.597 267.5,278.5 Z"/></g>
<g><path style="opacity:1" fill="#c0c0c0" d="M 769.5,280.5 C 765.491,280.142 761.491,279.642 757.5,279C 727.833,278.333 698.167,278.333 668.5,279C 670.312,282.134 672.479,284.968 675,287.5C 679.309,287.715 683.309,287.715 687,287.5C 688,288.167 689,288.833 690,289.5C 691.667,289.167 693.333,288.833 695,288.5C 705.155,290.654 715.155,292.321 725,293.5C 727.42,292.512 729.753,292.845 732,294.5C 736.333,294.5 740.667,294.5 745,294.5C 747.324,295.845 749.658,296.178 752,295.5C 756.59,296.359 761.257,297.359 766,298.5C 770.062,298.432 774.062,298.432 778,298.5C 781.339,300.012 784.339,300.346 787,299.5C 790.98,300.515 794.813,301.182 798.5,301.5C 799.087,300.767 799.087,299.767 798.5,298.5C 802.699,302.224 805.365,306.891 806.5,312.5C 806.38,313.586 805.713,314.253 804.5,314.5C 799.892,312.865 795.558,312.532 791.5,313.5C 787.419,312.016 783.419,311.016 779.5,310.5C 774.997,310.451 770.497,310.451 766,310.5C 753.35,308.176 741.017,306.176 729,304.5C 725.212,305.086 721.212,305.086 717,304.5C 712.719,302.845 708.719,302.512 705,303.5C 704,302.833 703,302.167 702,301.5C 697.799,301.1 693.799,301.1 690,301.5C 689.333,300.833 688.667,300.167 688,299.5C 686.436,299.912 684.936,300.245 683.5,300.5C 682.527,298.861 681.194,297.527 679.5,296.5C 674.698,290.921 670.365,284.921 666.5,278.5C 697.161,277.333 727.828,277.167 758.5,278C 762.43,278.242 766.097,279.075 769.5,280.5 Z"/></g>
<g><path style="opacity:1" fill="#b3b3b3" d="M 932.5,290.5 C 934.828,291.718 937.328,292.718 940,293.5C 943.803,293.534 947.636,293.534 951.5,293.5C 954.167,294.123 956.667,295.123 959,296.5C 960.101,294.606 961.434,293.939 963,294.5C 968.402,296.612 973.569,297.279 978.5,296.5C 982.975,297.785 987.475,298.785 992,299.5C 993,299.167 994,298.833 995,298.5C 998.139,299.079 1001.14,300.079 1004,301.5C 1006.23,300.813 1008.4,300.479 1010.5,300.5C 1016.69,301.538 1022.86,302.538 1029,303.5C 1030.34,302.786 1031.68,303.12 1033,304.5C 1035.23,304.626 1037.57,304.293 1040,303.5C 1041.44,304.26 1042.94,304.926 1044.5,305.5C 1047.27,305.345 1049.94,305.345 1052.5,305.5C 1057.43,309.35 1061.43,314.017 1064.5,319.5C 1054.83,319.742 1045.16,318.742 1035.5,316.5C 1034.91,316.709 1034.41,317.043 1034,317.5C 1030.16,315.623 1026.49,315.289 1023,316.5C 1018.94,315.078 1014.94,314.078 1011,313.5C 1008.58,314.488 1006.25,314.155 1004,312.5C 999.103,312.885 993.936,312.885 988.5,312.5C 976.412,312.022 965.079,314.689 954.5,320.5C 953.28,319.289 952.113,319.289 951,320.5C 948.957,318.479 946.957,318.146 945,319.5C 943.333,318.833 941.667,318.167 940,317.5C 937.519,318.684 935.019,318.684 932.5,317.5C 931.314,312.762 929.814,308.096 928,303.5C 926.974,300.761 925.474,298.428 923.5,296.5C 923.5,296.167 923.5,295.833 923.5,295.5C 926.366,293.568 929.366,291.901 932.5,290.5 Z"/></g>
<g><path style="opacity:1" fill="#cacaca" d="M 655.5,309.5 C 655.666,314.844 655.499,320.177 655,325.5C 651,324.833 647,324.167 643,323.5C 642.667,323.833 642.333,324.167 642,324.5C 639.885,322.94 637.719,322.607 635.5,323.5C 633.05,321.371 631.383,318.704 630.5,315.5C 630.16,313.321 629.16,311.488 627.5,310C 614.504,309.5 601.504,309.333 588.5,309.5C 588.664,312.187 588.497,314.854 588,317.5C 584.988,317.462 581.488,316.796 577.5,315.5C 575.939,316.347 574.439,316.014 573,314.5C 568.93,314.81 564.597,314.81 560,314.5C 558.209,312.487 556.875,312.487 556,314.5C 554.559,313.74 553.059,313.074 551.5,312.5C 551.006,306.346 548.672,301.013 544.5,296.5C 545.583,296.461 546.583,296.127 547.5,295.5C 551.423,296.169 555.423,297.169 559.5,298.5C 561.423,298.37 563.256,298.036 565,297.5C 568.357,298.749 571.691,299.749 575,300.5C 580.023,300.602 584.69,300.602 589,300.5C 591.333,301.167 593.667,301.833 596,302.5C 597.343,301.786 598.676,302.12 600,303.5C 603.725,302.505 607.392,302.839 611,304.5C 611.333,304.167 611.667,303.833 612,303.5C 616.65,304.593 621.316,305.593 626,306.5C 628.712,305.666 631.379,306 634,307.5C 638.466,307.1 643.133,307.1 648,307.5C 650.491,308.22 652.991,308.887 655.5,309.5 Z"/></g>
<g><path style="opacity:1" fill="#a9a9a9" d="M 1086.5,288.5 C 1107.95,290.59 1129.79,293.256 1152,296.5C 1152.33,296.167 1152.67,295.833 1153,295.5C 1160.65,297.201 1168.15,298.534 1175.5,299.5C 1175.5,306.5 1175.5,313.5 1175.5,320.5C 1168.79,320.069 1162.12,319.236 1155.5,318C 1149.51,315.673 1143.51,313.339 1137.5,311C 1135.19,310.503 1132.86,310.337 1130.5,310.5C 1124.28,309.138 1118.28,310.138 1112.5,313.5C 1098.58,311.697 1084.58,309.864 1070.5,308C 1073.02,303.335 1075.69,298.835 1078.5,294.5C 1080.88,292.115 1083.55,290.115 1086.5,288.5 Z"/></g>
<g><path style="opacity:1" fill="#c6c6c6" d="M 806.5,312.5 C 808.568,315.763 809.568,319.43 809.5,323.5C 809.666,330.175 809.5,336.842 809,343.5C 806.602,343.935 804.269,343.269 802,341.5C 797.351,341.505 792.684,341.505 788,341.5C 786.739,341.241 785.739,340.574 785,339.5C 781.978,339.88 778.978,340.213 776,340.5C 774.445,338.854 772.779,338.521 771,339.5C 773.527,323.35 766.694,313.85 750.5,311C 741.865,309.919 733.199,309.419 724.5,309.5C 724.5,312.167 724.5,314.833 724.5,317.5C 722.287,316.395 720.12,316.395 718,317.5C 717.323,315.311 716.156,314.978 714.5,316.5C 711.63,315.878 708.796,315.211 706,314.5C 701.915,314.958 697.582,314.958 693,314.5C 692,313.833 691,313.167 690,312.5C 688.855,313.684 687.688,313.684 686.5,312.5C 687.115,308.009 686.115,304.009 683.5,300.5C 684.936,300.245 686.436,299.912 688,299.5C 688.667,300.167 689.333,300.833 690,301.5C 693.799,301.1 697.799,301.1 702,301.5C 703,302.167 704,302.833 705,303.5C 708.719,302.512 712.719,302.845 717,304.5C 721.212,305.086 725.212,305.086 729,304.5C 741.017,306.176 753.35,308.176 766,310.5C 770.497,310.451 774.997,310.451 779.5,310.5C 783.419,311.016 787.419,312.016 791.5,313.5C 795.558,312.532 799.892,312.865 804.5,314.5C 805.713,314.253 806.38,313.586 806.5,312.5 Z"/></g>
<g><path style="opacity:1" fill="#8593d5" d="M 923.5,296.5 C 925.474,298.428 926.974,300.761 928,303.5C 929.814,308.096 931.314,312.762 932.5,317.5C 934.108,327.377 933.775,337.044 931.5,346.5C 931.5,346.167 931.5,345.833 931.5,345.5C 931.98,340.178 932.313,334.845 932.5,329.5C 931.834,317.833 928.834,306.833 923.5,296.5 Z"/></g>
<g><path style="opacity:0.999" fill="#d5d5d5" d="M 357.5,284.5 C 359.223,286.253 360.723,288.253 362,290.5C 363.147,289.542 364.147,289.875 365,291.5C 367.661,290.654 370.661,290.988 374,292.5C 378.215,293.108 382.215,293.108 386,292.5C 388.124,293.227 390.291,293.894 392.5,294.5C 394.691,293.329 396.858,293.663 399,295.5C 401.692,295.621 404.525,295.288 407.5,294.5C 409.508,291 412.008,288 415,285.5C 418.502,289.841 422.002,294.174 425.5,298.5C 429.401,299.396 433.567,299.396 438,298.5C 438.667,299.167 439.333,299.833 440,300.5C 441.751,299.826 443.417,299.493 445,299.5C 447.653,300.33 450.32,301.33 453,302.5C 454.309,300.109 455.309,300.109 456,302.5C 457.117,302.335 458.284,302.002 459.5,301.5C 462.447,302.423 465.447,303.089 468.5,303.5C 467.689,314.424 467.189,325.424 467,336.5C 465.915,335.707 464.748,335.04 463.5,334.5C 459.698,334.461 455.864,334.461 452,334.5C 451.667,333.833 451.333,333.167 451,332.5C 449.318,332.807 447.652,333.14 446,333.5C 443.6,332.956 441.267,332.289 439,331.5C 436.311,332.05 433.145,332.05 429.5,331.5C 429.818,326.968 429.485,322.634 428.5,318.5C 428.666,314.154 428.499,309.821 428,305.5C 423.42,299.34 419.086,293.007 415,286.5C 408.28,295.713 401.78,305.047 395.5,314.5C 394.504,314.414 393.671,314.748 393,315.5C 391.204,318.927 389.037,322.094 386.5,325C 385.667,325.167 384.833,325.333 384,325.5C 381.123,324.705 378.456,324.705 376,325.5C 375.072,323.665 373.906,323.332 372.5,324.5C 367.962,323.551 363.462,322.551 359,321.5C 357.149,323.781 355.482,323.781 354,321.5C 352.493,322.535 350.993,322.368 349.5,321C 353.418,315.265 357.084,309.432 360.5,303.5C 361.557,301.059 362.89,298.725 364.5,296.5C 361.639,292.773 359.305,288.773 357.5,284.5 Z"/></g>
<g><path style="opacity:0.994" fill="#dadada" d="M 543.5,296.5 C 543.833,296.5 544.167,296.5 544.5,296.5C 548.672,301.013 551.006,306.346 551.5,312.5C 553.059,313.074 554.559,313.74 556,314.5C 556.875,312.487 558.209,312.487 560,314.5C 564.597,314.81 568.93,314.81 573,314.5C 574.439,316.014 575.939,316.347 577.5,315.5C 581.488,316.796 584.988,317.462 588,317.5C 588.497,314.854 588.664,312.187 588.5,309.5C 601.504,309.333 614.504,309.5 627.5,310C 629.16,311.488 630.16,313.321 630.5,315.5C 629.067,314.167 627.733,312.667 626.5,311C 614.171,310.5 601.838,310.333 589.5,310.5C 589.333,326.17 589.5,341.837 590,357.5C 601,349.833 612,342.167 623,334.5C 623.667,354.833 623.667,375.167 623,395.5C 612,387.167 601,378.833 590,370.5C 589.5,391.497 589.333,412.497 589.5,433.5C 601.838,433.667 614.171,433.5 626.5,433C 628.066,430.674 629.732,428.508 631.5,426.5C 630.828,429.343 629.495,431.843 627.5,434C 614.504,434.5 601.504,434.667 588.5,434.5C 588.941,425.724 588.441,417.058 587,408.5C 585.333,408.833 583.667,409.167 582,409.5C 577.424,407.897 572.924,406.897 568.5,406.5C 566.5,407.737 564.666,407.403 563,405.5C 560.779,405.706 558.612,406.039 556.5,406.5C 554.677,405.253 552.677,404.586 550.5,404.5C 550.5,415.167 550.5,425.833 550.5,436.5C 548.416,440.336 546.083,444.003 543.5,447.5C 542.396,449.389 541.063,451.055 539.5,452.5C 542.392,447.057 545.559,441.724 549,436.5C 549.667,392.833 549.667,349.167 549,305.5C 546.642,302.778 544.809,299.778 543.5,296.5 Z"/></g>
<g><path style="opacity:1" fill="#b8b8b8" d="M 1036.5,290.5 C 1048.44,297.934 1058.27,307.601 1066,319.5C 1067.64,311.581 1070.64,304.247 1075,297.5C 1076.04,296.29 1077.21,295.29 1078.5,294.5C 1075.69,298.835 1073.02,303.335 1070.5,308C 1084.58,309.864 1098.58,311.697 1112.5,313.5C 1118.28,310.138 1124.28,309.138 1130.5,310.5C 1124.06,310.288 1118.06,311.788 1112.5,315C 1109.01,318.472 1107.01,322.638 1106.5,327.5C 1105.97,331.192 1106.97,334.358 1109.5,337C 1109,337.5 1108.5,338 1108,338.5C 1106,337.167 1104,337.167 1102,338.5C 1101.67,337.833 1101.33,337.167 1101,336.5C 1099.33,336.833 1097.67,337.167 1096,337.5C 1093.15,336.152 1090.32,335.819 1087.5,336.5C 1082.34,335.245 1077.17,334.245 1072,333.5C 1071,333.833 1070,334.167 1069,334.5C 1066.2,332.605 1063.37,332.271 1060.5,333.5C 1058.94,332.926 1057.44,332.26 1056,331.5C 1055.67,331.833 1055.33,332.167 1055,332.5C 1044.88,330.167 1034.72,328.834 1024.5,328.5C 1019.8,323.452 1014.13,320.119 1007.5,318.5C 1002.93,316.858 998.268,315.525 993.5,314.5C 991.833,313.833 990.167,313.167 988.5,312.5C 993.936,312.885 999.103,312.885 1004,312.5C 1006.25,314.155 1008.58,314.488 1011,313.5C 1014.94,314.078 1018.94,315.078 1023,316.5C 1026.49,315.289 1030.16,315.623 1034,317.5C 1034.41,317.043 1034.91,316.709 1035.5,316.5C 1045.16,318.742 1054.83,319.742 1064.5,319.5C 1061.43,314.017 1057.43,309.35 1052.5,305.5C 1047.77,299.767 1042.44,294.767 1036.5,290.5 Z"/></g>
<g><path style="opacity:0.998" fill="#dddddd" d="M 470.5,302.5 C 470.539,303.756 470.039,304.756 469,305.5C 468.5,347.832 468.333,390.165 468.5,432.5C 477.525,432.832 486.525,432.498 495.5,431.5C 496.361,429.089 497.694,427.089 499.5,425.5C 498.788,427.928 497.788,430.261 496.5,432.5C 486.856,433.498 477.19,433.832 467.5,433.5C 467.5,425.833 467.5,418.167 467.5,410.5C 467.667,399.828 467.5,389.161 467,378.5C 466.5,378 466,377.5 465.5,377C 462.816,377.263 460.149,377.43 457.5,377.5C 456.808,376.975 456.308,376.308 456,375.5C 452.75,375.368 449.75,375.701 447,376.5C 446.481,375.484 445.647,374.818 444.5,374.5C 442.646,375.073 440.813,375.407 439,375.5C 438.333,374.833 437.667,374.167 437,373.5C 434.967,373.868 432.8,373.868 430.5,373.5C 429.833,377.313 429.166,380.979 428.5,384.5C 428.5,362.5 428.5,340.5 428.5,318.5C 429.485,322.634 429.818,326.968 429.5,331.5C 433.145,332.05 436.311,332.05 439,331.5C 441.267,332.289 443.6,332.956 446,333.5C 447.652,333.14 449.318,332.807 451,332.5C 451.333,333.167 451.667,333.833 452,334.5C 455.864,334.461 459.698,334.461 463.5,334.5C 464.748,335.04 465.915,335.707 467,336.5C 467.189,325.424 467.689,314.424 468.5,303.5C 469.167,303.167 469.833,302.833 470.5,302.5 Z"/></g>
<g><path style="opacity:1" fill="#c2c2c2" d="M 988.5,312.5 C 990.167,313.167 991.833,313.833 993.5,314.5C 964.615,311.738 943.948,323.405 931.5,349.5C 931.5,348.5 931.5,347.5 931.5,346.5C 933.775,337.044 934.108,327.377 932.5,317.5C 935.019,318.684 937.519,318.684 940,317.5C 941.667,318.167 943.333,318.833 945,319.5C 946.957,318.146 948.957,318.479 951,320.5C 952.113,319.289 953.28,319.289 954.5,320.5C 965.079,314.689 976.412,312.022 988.5,312.5 Z"/></g>
<g><path style="opacity:1" fill="#bbbbbb" d="M 1130.5,310.5 C 1132.86,310.337 1135.19,310.503 1137.5,311C 1143.51,313.339 1149.51,315.673 1155.5,318C 1162.12,319.236 1168.79,320.069 1175.5,320.5C 1175.5,313.5 1175.5,306.5 1175.5,299.5C 1175.83,291.804 1175.5,284.138 1174.5,276.5C 1173.38,277.63 1172.04,278.297 1170.5,278.5C 1171.55,276.466 1173.21,275.133 1175.5,274.5C 1176.67,298.16 1176.83,321.826 1176,345.5C 1168.06,331.561 1156.89,321.061 1142.5,314C 1138.46,312.509 1134.46,311.342 1130.5,310.5 Z"/></g>
<g><path style="opacity:1" fill="#d5d5d5" d="M 635.5,323.5 C 637.719,322.607 639.885,322.94 642,324.5C 642.333,324.167 642.667,323.833 643,323.5C 647,324.167 651,324.833 655,325.5C 655.499,320.177 655.666,314.844 655.5,309.5C 655.5,305.167 655.5,300.833 655.5,296.5C 655.5,290.5 655.5,284.5 655.5,278.5C 614.499,278.333 573.499,278.5 532.5,279C 533.386,280.615 534.386,282.115 535.5,283.5C 538.429,287.694 541.095,292.027 543.5,296.5C 538.698,290.921 534.365,284.921 530.5,278.5C 572.495,277.5 614.495,277.167 656.5,277.5C 656.833,303.842 656.5,330.175 655.5,356.5C 648.057,345.943 641.39,334.943 635.5,323.5 Z"/></g>
<g><path style="opacity:1" fill="#bebebe" d="M 655.5,296.5 C 652.42,295.304 649.587,295.304 647,296.5C 646.667,295.833 646.333,295.167 646,294.5C 642.582,295.622 639.249,295.289 636,293.5C 634.883,293.665 633.716,293.998 632.5,294.5C 626.549,293.076 620.716,292.076 615,291.5C 614.586,291.957 614.086,292.291 613.5,292.5C 610.79,290.52 607.957,290.186 605,291.5C 602.753,289.845 600.42,289.512 598,290.5C 594.409,289.827 590.742,288.827 587,287.5C 581.913,287.693 576.58,287.693 571,287.5C 570,286.833 569,286.167 568,285.5C 564.136,285.539 560.302,285.539 556.5,285.5C 551.271,284.702 546.104,283.702 541,282.5C 539.238,283.074 537.405,283.407 535.5,283.5C 534.386,282.115 533.386,280.615 532.5,279C 573.499,278.5 614.499,278.333 655.5,278.5C 655.5,284.5 655.5,290.5 655.5,296.5 Z"/></g>
<g><path style="opacity:0.998" fill="#465ac8" d="M 889.5,323.5 C 890.873,323.343 892.207,323.51 893.5,324C 893.167,324.333 892.833,324.667 892.5,325C 899.829,328.299 905.829,331.965 910.5,336C 912.061,336.318 913.228,337.151 914,338.5C 914.333,338.167 914.667,337.833 915,337.5C 919.615,341.377 924.615,344.71 930,347.5C 930.278,346.584 930.778,345.918 931.5,345.5C 931.5,345.833 931.5,346.167 931.5,346.5C 931.5,347.5 931.5,348.5 931.5,349.5C 931.405,351.786 930.738,353.786 929.5,355.5C 928.833,355.5 928.5,355.833 928.5,356.5C 927.624,356.369 926.957,356.702 926.5,357.5C 923.598,363.725 919.598,369.058 914.5,373.5C 903.112,367.481 892.446,360.481 882.5,352.5C 889.686,344.089 892.019,334.422 889.5,323.5 Z"/></g>
<g><path style="opacity:1" fill="#cfcfcf" d="M 686.5,312.5 C 687.688,313.684 688.855,313.684 690,312.5C 691,313.167 692,313.833 693,314.5C 697.582,314.958 701.915,314.958 706,314.5C 708.796,315.211 711.63,315.878 714.5,316.5C 716.156,314.978 717.323,315.311 718,317.5C 720.12,316.395 722.287,316.395 724.5,317.5C 724.5,327.833 724.5,338.167 724.5,348.5C 721.42,347.304 718.587,347.304 716,348.5C 715.333,347.833 714.667,347.167 714,346.5C 711.766,346.374 709.432,346.707 707,347.5C 704.391,346.872 701.725,345.872 699,344.5C 697.318,344.807 695.652,345.14 694,345.5C 691.567,344.521 689.067,343.855 686.5,343.5C 686.5,333.167 686.5,322.833 686.5,312.5 Z"/></g>
<g><path style="opacity:1" fill="#bfbfbf" d="M 1106.5,327.5 C 1107.03,331.707 1109.03,335.207 1112.5,338C 1117.59,340.218 1122.59,342.384 1127.5,344.5C 1136.69,347.73 1146.02,350.897 1155.5,354C 1157.27,354.535 1157.6,355.369 1156.5,356.5C 1154.17,355.833 1151.83,355.167 1149.5,354.5C 1145.96,354.817 1142.12,354.817 1138,354.5C 1135.38,353 1132.71,352.666 1130,353.5C 1128.67,352.833 1127.33,352.167 1126,351.5C 1121.8,351.534 1117.64,351.534 1113.5,351.5C 1110.5,350.833 1107.5,350.167 1104.5,349.5C 1102.94,350.347 1101.44,350.014 1100,348.5C 1097.38,348.47 1094.71,348.803 1092,349.5C 1091.31,348.643 1090.48,347.977 1089.5,347.5C 1085.73,347.353 1081.89,347.353 1078,347.5C 1073.54,346.449 1069.04,345.449 1064.5,344.5C 1063.81,345.025 1063.31,345.692 1063,346.5C 1061.31,344.955 1059.31,343.955 1057,343.5C 1052.97,343.158 1048.81,343.158 1044.5,343.5C 1042.31,341.647 1039.98,341.313 1037.5,342.5C 1035.74,341.872 1034.24,340.872 1033,339.5C 1030.64,335.442 1027.81,331.775 1024.5,328.5C 1034.72,328.834 1044.88,330.167 1055,332.5C 1055.33,332.167 1055.67,331.833 1056,331.5C 1057.44,332.26 1058.94,332.926 1060.5,333.5C 1063.37,332.271 1066.2,332.605 1069,334.5C 1070,334.167 1071,333.833 1072,333.5C 1077.17,334.245 1082.34,335.245 1087.5,336.5C 1090.32,335.819 1093.15,336.152 1096,337.5C 1097.67,337.167 1099.33,336.833 1101,336.5C 1101.33,337.167 1101.67,337.833 1102,338.5C 1104,337.167 1106,337.167 1108,338.5C 1108.5,338 1109,337.5 1109.5,337C 1106.97,334.358 1105.97,331.192 1106.5,327.5 Z"/></g>
<g><path style="opacity:1" fill="#d6d6d6" d="M 136.5,352.5 C 139.769,362.235 142.435,372.235 144.5,382.5C 142.742,379.146 141.742,375.479 141.5,371.5C 137.988,370.274 134.821,370.274 132,371.5C 131.333,370.833 130.667,370.167 130,369.5C 127.965,370.374 125.632,370.707 123,370.5C 120,369.5 117,368.5 114,367.5C 111.291,368.197 108.624,368.53 106,368.5C 105,367.833 104,367.167 103,366.5C 103.832,373.175 104.999,379.842 106.5,386.5C 97.5,386.5 88.5,386.5 79.5,386.5C 79.5,386.167 79.5,385.833 79.5,385.5C 88.1922,385.831 96.8589,385.498 105.5,384.5C 101.335,368.506 97.168,352.506 93,336.5C 88.6541,351.562 84.4874,366.562 80.5,381.5C 82.6833,370.777 84.85,360.111 87,349.5C 83.2737,349.076 79.7737,349.076 76.5,349.5C 75.5224,349.023 74.6891,348.357 74,347.5C 70.7182,348.185 67.5515,348.519 64.5,348.5C 61.1404,347.464 57.9738,346.797 55,346.5C 53.608,353.087 51.7746,359.42 49.5,365.5C 51.7422,353.528 54.7422,341.861 58.5,330.5C 61.0465,330.446 63.5465,330.112 66,329.5C 68.916,331.185 71.916,331.518 75,330.5C 81.1587,332.247 87.1587,333.58 93,334.5C 94.7506,333.826 96.4173,333.493 98,333.5C 98.3333,334.167 98.6667,334.833 99,335.5C 100.46,333.578 102.127,332.911 104,333.5C 104.308,334.308 104.808,334.975 105.5,335.5C 107.235,334.943 108.902,334.61 110.5,334.5C 111.478,334.977 112.311,335.643 113,336.5C 113.333,336.167 113.667,335.833 114,335.5C 119.913,336.931 125.747,337.764 131.5,338C 133.104,342.949 134.771,347.782 136.5,352.5 Z"/></g>
<g><path style="opacity:0.999" fill="#d6d6d6" d="M 809.5,323.5 C 810.165,326.817 810.499,330.317 810.5,334C 810.707,339.102 810.04,343.935 808.5,348.5C 805.281,358.728 799.614,367.395 791.5,374.5C 789.941,373.926 788.441,373.26 787,372.5C 784.809,373.214 782.476,373.547 780,373.5C 777.384,372.347 774.718,371.347 772,370.5C 771.333,374.5 770.667,374.5 770,370.5C 765.505,371.418 760.838,370.752 756,368.5C 753.58,369.488 751.247,369.155 749,367.5C 747.518,369.781 745.851,369.781 744,367.5C 741.376,367.47 738.709,367.803 736,368.5C 735.333,367.833 734.667,367.167 734,366.5C 730.779,366.278 727.446,366.278 724,366.5C 720.797,365.281 717.631,364.947 714.5,365.5C 713.5,364.833 712.5,364.167 711.5,363.5C 710.459,365.991 709.626,365.991 709,363.5C 707.026,363.647 705.026,363.981 703,364.5C 701.982,362.436 700.649,362.102 699,363.5C 694.699,362.188 690.532,361.521 686.5,361.5C 686.5,355.5 686.5,349.5 686.5,343.5C 689.067,343.855 691.567,344.521 694,345.5C 695.652,345.14 697.318,344.807 699,344.5C 701.725,345.872 704.391,346.872 707,347.5C 709.432,346.707 711.766,346.374 714,346.5C 714.667,347.167 715.333,347.833 716,348.5C 718.587,347.304 721.42,347.304 724.5,348.5C 724.5,338.167 724.5,327.833 724.5,317.5C 724.5,314.833 724.5,312.167 724.5,309.5C 733.199,309.419 741.865,309.919 750.5,311C 766.694,313.85 773.527,323.35 771,339.5C 772.779,338.521 774.445,338.854 776,340.5C 778.978,340.213 781.978,339.88 785,339.5C 785.739,340.574 786.739,341.241 788,341.5C 792.684,341.505 797.351,341.505 802,341.5C 804.269,343.269 806.602,343.935 809,343.5C 809.5,336.842 809.666,330.175 809.5,323.5 Z M 725.5,310.5 C 737.109,310.094 748.442,311.594 759.5,315C 771.13,323.813 773.296,334.647 766,347.5C 762.138,352.036 757.305,354.869 751.5,356C 742.849,356.832 734.183,357.332 725.5,357.5C 725.5,341.833 725.5,326.167 725.5,310.5 Z"/></g>
<g><path style="opacity:0.996" fill="#dcdcdc" d="M 679.5,296.5 C 681.194,297.527 682.527,298.861 683.5,300.5C 686.115,304.009 687.115,308.009 686.5,312.5C 686.5,322.833 686.5,333.167 686.5,343.5C 686.5,349.5 686.5,355.5 686.5,361.5C 690.532,361.521 694.699,362.188 699,363.5C 700.649,362.102 701.982,362.436 703,364.5C 705.026,363.981 707.026,363.647 709,363.5C 709.626,365.991 710.459,365.991 711.5,363.5C 712.5,364.167 713.5,364.833 714.5,365.5C 717.631,364.947 720.797,365.281 724,366.5C 727.446,366.278 730.779,366.278 734,366.5C 734.667,367.167 735.333,367.833 736,368.5C 738.709,367.803 741.376,367.47 744,367.5C 745.851,369.781 747.518,369.781 749,367.5C 751.247,369.155 753.58,369.488 756,368.5C 760.838,370.752 765.505,371.418 770,370.5C 770.667,374.5 771.333,374.5 772,370.5C 774.718,371.347 777.384,372.347 780,373.5C 782.476,373.547 784.809,373.214 787,372.5C 788.441,373.26 789.941,373.926 791.5,374.5C 799.614,367.395 805.281,358.728 808.5,348.5C 802.157,372 786.824,385.5 762.5,389C 750.209,390.343 737.876,390.843 725.5,390.5C 725.333,405.837 725.5,421.17 726,436.5C 730.142,441.463 733.642,446.796 736.5,452.5C 732.53,447.685 728.697,442.685 725,437.5C 724.501,433.514 724.334,429.514 724.5,425.5C 720.949,424.39 717.449,424.39 714,425.5C 713.323,423.311 712.156,422.978 710.5,424.5C 707.63,423.878 704.796,423.211 702,422.5C 700.732,422.616 699.398,422.949 698,423.5C 696.806,421.475 695.306,421.141 693.5,422.5C 691.548,421.186 689.715,420.52 688,420.5C 686.714,425.992 686.047,431.659 686,437.5C 684.301,440.921 682.135,443.921 679.5,446.5C 681.055,443.06 682.888,439.727 685,436.5C 685.667,392.833 685.667,349.167 685,305.5C 682.642,302.778 680.809,299.778 679.5,296.5 Z"/></g>
<g><path style="opacity:1" fill="#d7d7d7" d="M 257.5,355.5 C 262.269,358.056 266.936,360.89 271.5,364C 274.754,366.747 277.42,369.914 279.5,373.5C 277.393,372.7 275.226,372.033 273,371.5C 270.584,372.361 268.25,372.695 266,372.5C 265.667,371.833 265.333,371.167 265,370.5C 264,370.833 263,371.167 262,371.5C 261.309,369.109 260.309,369.109 259,371.5C 258.333,370.833 257.667,370.167 257,369.5C 252.367,369.35 247.7,369.35 243,369.5C 242.667,368.833 242.333,368.167 242,367.5C 238.445,367.291 235.112,367.624 232,368.5C 229.787,367.198 227.454,366.198 225,365.5C 221.75,365.368 218.75,365.701 216,366.5C 212.597,365.819 209.264,364.819 206,363.5C 201.242,363.075 196.409,363.075 191.5,363.5C 187.1,363.106 182.6,362.106 178,360.5C 177.5,360.667 177,360.833 176.5,361C 180.238,364.184 183.905,367.351 187.5,370.5C 178.107,366.107 171.441,359.107 167.5,349.5C 166.859,346.779 166.359,344.112 166,341.5C 167.333,342.167 168.667,342.833 170,343.5C 172.333,343.167 174.667,342.833 177,342.5C 177.333,343.167 177.667,343.833 178,344.5C 182.306,344.587 186.639,344.587 191,344.5C 192,345.167 193,345.833 194,346.5C 196.098,346.552 198.264,346.218 200.5,345.5C 207.493,348.007 214.326,348.674 221,347.5C 223.726,347.961 226.559,348.961 229.5,350.5C 231.612,350.039 233.779,349.706 236,349.5C 243.304,350.99 250.471,352.99 257.5,355.5 Z"/></g>
<g><path style="opacity:1" fill="#c5c5c5" d="M 1007.5,318.5 C 1014.13,320.119 1019.8,323.452 1024.5,328.5C 1027.81,331.775 1030.64,335.442 1033,339.5C 1034.24,340.872 1035.74,341.872 1037.5,342.5C 1039.98,341.313 1042.31,341.647 1044.5,343.5C 1048.81,343.158 1052.97,343.158 1057,343.5C 1059.31,343.955 1061.31,344.955 1063,346.5C 1063.31,345.692 1063.81,345.025 1064.5,344.5C 1069.04,345.449 1073.54,346.449 1078,347.5C 1081.89,347.353 1085.73,347.353 1089.5,347.5C 1090.48,347.977 1091.31,348.643 1092,349.5C 1094.71,348.803 1097.38,348.47 1100,348.5C 1101.44,350.014 1102.94,350.347 1104.5,349.5C 1107.5,350.167 1110.5,350.833 1113.5,351.5C 1117.64,351.534 1121.8,351.534 1126,351.5C 1127.33,352.167 1128.67,352.833 1130,353.5C 1132.71,352.666 1135.38,353 1138,354.5C 1142.12,354.817 1145.96,354.817 1149.5,354.5C 1151.83,355.167 1154.17,355.833 1156.5,356.5C 1157.6,355.369 1157.27,354.535 1155.5,354C 1146.02,350.897 1136.69,347.73 1127.5,344.5C 1139.05,346.795 1150.05,350.461 1160.5,355.5C 1168.44,359.26 1175.44,364.426 1181.5,371C 1177.87,371.407 1174.37,370.907 1171,369.5C 1169.25,370.174 1167.58,370.507 1166,370.5C 1165.67,369.833 1165.33,369.167 1165,368.5C 1162.45,368.323 1160.12,368.657 1158,369.5C 1156.29,368.237 1154.63,367.903 1153,368.5C 1141.28,366.721 1129.61,365.054 1118,363.5C 1116.37,364.097 1114.71,363.763 1113,362.5C 1112.67,363.167 1112.33,363.833 1112,364.5C 1107.53,362.096 1103.2,361.429 1099,362.5C 1092.08,361.049 1085.08,359.716 1078,358.5C 1073.39,358.186 1068.73,358.186 1064,358.5C 1060.43,357.133 1056.76,356.133 1053,355.5C 1049.05,356.027 1044.89,356.027 1040.5,355.5C 1039.26,352.192 1037.92,349.525 1036.5,347.5C 1029.81,334.808 1020.14,325.141 1007.5,318.5 Z"/></g>
<g><path style="opacity:0.987" fill="#dadada" d="M 829.5,300.5 C 838.97,302.159 848.136,304.825 857,308.5C 856.646,351.498 855.98,394.498 855,437.5C 854.829,442.864 854.329,448.198 853.5,453.5C 846.845,451.168 840.178,448.835 833.5,446.5C 832.67,440.862 832.17,435.196 832,429.5C 831.016,386.502 830.183,343.502 829.5,300.5 Z"/></g>
<g><path style="opacity:1" fill="#cfcfcf" d="M 830.5,329.5 C 833.118,329.779 835.618,330.446 838,331.5C 839.889,330.911 841.889,330.577 844,330.5C 845,331.167 846,331.833 847,332.5C 849.689,331.95 852.855,331.95 856.5,332.5C 855.712,343.121 855.212,353.788 855,364.5C 853.559,363.74 852.059,363.074 850.5,362.5C 849.167,363.833 847.833,363.833 846.5,362.5C 845.252,363.04 844.085,363.707 843,364.5C 841.742,361.945 839.909,361.278 837.5,362.5C 835.618,361.907 833.785,361.24 832,360.5C 831.786,350.121 831.286,339.787 830.5,329.5 Z"/></g>
<g><path style="opacity:1" fill="#c0c0c0" d="M 856.5,332.5 C 852.855,331.95 849.689,331.95 847,332.5C 846,331.833 845,331.167 844,330.5C 841.889,330.577 839.889,330.911 838,331.5C 835.618,330.446 833.118,329.779 830.5,329.5C 830.334,320.161 830.5,310.827 831,301.5C 839.518,303.562 847.852,306.228 856,309.5C 856.5,317.159 856.666,324.826 856.5,332.5 Z"/></g>
<g><path style="opacity:1" fill="#cdcdcd" d="M 1160.5,355.5 C 1177.85,361.523 1188.52,373.523 1192.5,391.5C 1192.64,394.35 1192.97,397.183 1193.5,400C 1193.28,404.935 1191.11,405.768 1187,402.5C 1185.47,402.944 1183.97,403.277 1182.5,403.5C 1179.77,401.743 1176.93,401.409 1174,402.5C 1172.74,402.241 1171.74,401.574 1171,400.5C 1169.22,401.479 1167.55,401.146 1166,399.5C 1162.28,400.307 1158.61,400.64 1155,400.5C 1150.39,394.571 1144.55,390.071 1137.5,387C 1125.23,382.847 1112.89,378.847 1100.5,375C 1094.25,372.043 1088.25,368.876 1082.5,365.5C 1082.44,364.957 1082.11,364.624 1081.5,364.5C 1080.67,372.5 1079.83,380.5 1079,388.5C 1078.69,389.308 1078.19,389.975 1077.5,390.5C 1075.2,390.255 1072.7,389.589 1070,388.5C 1069.05,388.905 1068.39,389.572 1068,390.5C 1067.67,389.833 1067.33,389.167 1067,388.5C 1063.57,388.284 1060.07,388.284 1056.5,388.5C 1052.27,387.823 1048.1,386.823 1044,385.5C 1041.87,386.903 1040.7,386.236 1040.5,383.5C 1041.7,374.175 1041.7,364.842 1040.5,355.5C 1044.89,356.027 1049.05,356.027 1053,355.5C 1056.76,356.133 1060.43,357.133 1064,358.5C 1068.73,358.186 1073.39,358.186 1078,358.5C 1085.08,359.716 1092.08,361.049 1099,362.5C 1103.2,361.429 1107.53,362.096 1112,364.5C 1112.33,363.833 1112.67,363.167 1113,362.5C 1114.71,363.763 1116.37,364.097 1118,363.5C 1129.61,365.054 1141.28,366.721 1153,368.5C 1154.63,367.903 1156.29,368.237 1158,369.5C 1160.12,368.657 1162.45,368.323 1165,368.5C 1165.33,369.167 1165.67,369.833 1166,370.5C 1167.58,370.507 1169.25,370.174 1171,369.5C 1174.37,370.907 1177.87,371.407 1181.5,371C 1175.44,364.426 1168.44,359.26 1160.5,355.5 Z"/></g>
<g><path style="opacity:1" fill="#d7d7d7" d="M 367.5,378.5 C 375.257,390.254 382.59,402.254 389.5,414.5C 385.589,409.678 381.922,404.678 378.5,399.5C 375.664,393.162 371.831,387.496 367,382.5C 363.939,383.462 360.606,383.129 357,381.5C 355.221,382.479 353.555,382.146 352,380.5C 351.439,381.022 350.772,381.355 350,381.5C 346.282,380.904 342.616,380.238 339,379.5C 337.249,380.174 335.583,380.507 334,380.5C 330.506,379.356 327.006,378.356 323.5,377.5C 321.632,377.946 319.799,378.279 318,378.5C 317.333,377.833 316.667,377.167 316,376.5C 310.939,376.55 305.939,376.55 301,376.5C 300.667,375.833 300.333,375.167 300,374.5C 298.333,374.833 296.667,375.167 295,375.5C 293.915,374.707 292.748,374.04 291.5,373.5C 289.144,374.791 286.811,374.791 284.5,373.5C 284.5,367.833 284.5,362.167 284.5,356.5C 287.32,356.961 289.987,356.961 292.5,356.5C 295.813,358.191 298.813,358.525 301.5,357.5C 302.192,358.025 302.692,358.692 303,359.5C 306.667,359.167 310.333,358.833 314,358.5C 316.684,359.068 319.184,360.068 321.5,361.5C 324.022,360.884 326.856,360.55 330,360.5C 330.333,361.167 330.667,361.833 331,362.5C 332.117,362.335 333.284,362.002 334.5,361.5C 335.192,362.025 335.692,362.692 336,363.5C 337.101,361.606 338.434,360.939 340,361.5C 340.667,364.167 341.333,364.167 342,361.5C 344.232,362.408 346.399,363.408 348.5,364.5C 350.951,364.376 353.451,364.042 356,363.5C 356.667,364.167 357.333,364.833 358,365.5C 358.893,364.289 359.726,364.289 360.5,365.5C 360.85,369.952 362.35,373.952 365,377.5C 365.671,378.252 366.504,378.586 367.5,378.5 Z"/></g>
<g><path style="opacity:1" fill="#d2d2d2" d="M 279.5,373.5 C 280.67,375.279 282.336,376.279 284.5,376.5C 284.5,375.5 284.5,374.5 284.5,373.5C 286.811,374.791 289.144,374.791 291.5,373.5C 292.748,374.04 293.915,374.707 295,375.5C 296.667,375.167 298.333,374.833 300,374.5C 300.333,375.167 300.667,375.833 301,376.5C 305.939,376.55 310.939,376.55 316,376.5C 316.667,377.167 317.333,377.833 318,378.5C 319.799,378.279 321.632,377.946 323.5,377.5C 327.006,378.356 330.506,379.356 334,380.5C 335.583,380.507 337.249,380.174 339,379.5C 342.616,380.238 346.282,380.904 350,381.5C 350.772,381.355 351.439,381.022 352,380.5C 353.555,382.146 355.221,382.479 357,381.5C 360.606,383.129 363.939,383.462 367,382.5C 371.831,387.496 375.664,393.162 378.5,399.5C 374.077,398.312 370.243,398.312 367,399.5C 366.36,397.602 365.027,397.268 363,398.5C 361.289,398.561 359.956,397.894 359,396.5C 354.11,396.598 349.276,396.598 344.5,396.5C 342.833,395.833 341.167,395.167 339.5,394.5C 337.865,395.33 336.198,395.497 334.5,395C 335.252,395.671 335.586,396.504 335.5,397.5C 331.502,394.335 328.002,390.668 325,386.5C 324.333,403.167 324.333,419.833 325,436.5C 325.791,437.745 326.291,439.078 326.5,440.5C 324.166,438.824 323.166,436.491 323.5,433.5C 323.5,425.167 323.5,416.833 323.5,408.5C 323.5,403.5 323.5,398.5 323.5,393.5C 319.821,393.637 316.321,392.971 313,391.5C 310.658,392.178 308.324,391.845 306,390.5C 304.601,390.501 303.101,390.835 301.5,391.5C 297,390.359 292.5,389.359 288,388.5C 283.864,388.47 279.697,388.47 275.5,388.5C 273.941,387.926 272.441,387.26 271,386.5C 269.601,386.501 268.101,386.835 266.5,387.5C 265.808,386.975 265.308,386.308 265,385.5C 259.518,386.539 254.185,386.539 249,385.5C 248.667,384.833 248.333,384.167 248,383.5C 245.974,384.019 243.974,384.353 242,384.5C 241.333,381.833 240.667,381.833 240,384.5C 238.295,383.237 236.628,382.903 235,383.5C 231.571,382.28 228.238,381.614 225,381.5C 223.941,381.63 223.108,382.13 222.5,383C 223.737,383.232 224.737,383.732 225.5,384.5C 216.769,382.316 208.102,379.816 199.5,377C 194.99,375.582 190.99,373.415 187.5,370.5C 183.905,367.351 180.238,364.184 176.5,361C 177,360.833 177.5,360.667 178,360.5C 182.6,362.106 187.1,363.106 191.5,363.5C 196.409,363.075 201.242,363.075 206,363.5C 209.264,364.819 212.597,365.819 216,366.5C 218.75,365.701 221.75,365.368 225,365.5C 227.454,366.198 229.787,367.198 232,368.5C 235.112,367.624 238.445,367.291 242,367.5C 242.333,368.167 242.667,368.833 243,369.5C 247.7,369.35 252.367,369.35 257,369.5C 257.667,370.167 258.333,370.833 259,371.5C 260.309,369.109 261.309,369.109 262,371.5C 263,371.167 264,370.833 265,370.5C 265.333,371.167 265.667,371.833 266,372.5C 268.25,372.695 270.584,372.361 273,371.5C 275.226,372.033 277.393,372.7 279.5,373.5 Z"/></g>
<g><path style="opacity:1" fill="#cdcdcd" d="M 80.5,381.5 C 80.5674,382.959 80.2341,384.292 79.5,385.5C 79.5,385.833 79.5,386.167 79.5,386.5C 78.7093,384.691 78.7093,382.691 79.5,380.5C 68.9381,379.228 58.4381,377.895 48,376.5C 46.0616,380.584 44.895,384.917 44.5,389.5C 42.9877,394.548 41.321,399.548 39.5,404.5C 42.0755,391.195 45.4089,378.195 49.5,365.5C 51.7746,359.42 53.608,353.087 55,346.5C 57.9738,346.797 61.1404,347.464 64.5,348.5C 67.5515,348.519 70.7182,348.185 74,347.5C 74.6891,348.357 75.5224,349.023 76.5,349.5C 79.7737,349.076 83.2737,349.076 87,349.5C 84.85,360.111 82.6833,370.777 80.5,381.5 Z"/></g>
<g><path style="opacity:0.999" fill="#475aba" d="M 882.5,352.5 C 892.446,360.481 903.112,367.481 914.5,373.5C 907.866,380.787 899.866,386.12 890.5,389.5C 882.815,384.692 875.149,379.692 867.5,374.5C 866.509,370.555 866.176,366.555 866.5,362.5C 872.17,359.667 877.503,356.334 882.5,352.5 Z"/></g>
<g><path style="opacity:0.897" fill="#d6d6d6" d="M 539.5,452.5 C 537.695,456.773 535.361,460.773 532.5,464.5C 574.828,465.5 617.161,465.833 659.5,465.5C 659.5,464.5 659.5,463.5 659.5,462.5C 659.5,457.833 659.5,453.167 659.5,448.5C 659.5,438.167 659.5,427.833 659.5,417.5C 658.178,417.33 657.011,417.663 656,418.5C 653.957,416.479 651.957,416.146 650,417.5C 645.747,415.528 641.58,415.528 637.5,417.5C 635.725,420.738 633.725,423.738 631.5,426.5C 640.723,409.725 650.223,393.059 660,376.5C 660.5,406.498 660.667,436.498 660.5,466.5C 581.166,466.333 501.833,466.5 422.5,467C 431.15,479.807 439.15,492.973 446.5,506.5C 441.14,499.126 436.14,491.459 431.5,483.5C 427.628,477.752 424.295,471.752 421.5,465.5C 440.167,465.5 458.833,465.5 477.5,465.5C 494.833,465.5 512.167,465.5 529.5,465.5C 529.5,459.167 529.5,452.833 529.5,446.5C 529.5,436.833 529.5,427.167 529.5,417.5C 525.786,417.119 522.286,417.119 519,417.5C 513.989,415.255 509.156,414.589 504.5,415.5C 512.462,398.243 520.962,381.243 530,364.5C 530.333,397.833 530.667,431.167 531,464.5C 533.61,460.258 536.443,456.258 539.5,452.5 Z"/></g>
<g><path style="opacity:0.993" fill="#dcdcdc" d="M 1040.5,355.5 C 1041.7,364.842 1041.7,374.175 1040.5,383.5C 1040.7,386.236 1041.87,386.903 1044,385.5C 1048.1,386.823 1052.27,387.823 1056.5,388.5C 1060.07,388.284 1063.57,388.284 1067,388.5C 1067.33,389.167 1067.67,389.833 1068,390.5C 1068.39,389.572 1069.05,388.905 1070,388.5C 1072.7,389.589 1075.2,390.255 1077.5,390.5C 1078.19,389.975 1078.69,389.308 1079,388.5C 1079.83,380.5 1080.67,372.5 1081.5,364.5C 1082.11,364.624 1082.44,364.957 1082.5,365.5C 1088.25,368.876 1094.25,372.043 1100.5,375C 1112.89,378.847 1125.23,382.847 1137.5,387C 1144.55,390.071 1150.39,394.571 1155,400.5C 1158.61,400.64 1162.28,400.307 1166,399.5C 1167.55,401.146 1169.22,401.479 1171,400.5C 1171.74,401.574 1172.74,402.241 1174,402.5C 1176.93,401.409 1179.77,401.743 1182.5,403.5C 1183.97,403.277 1185.47,402.944 1187,402.5C 1191.11,405.768 1193.28,404.935 1193.5,400C 1192.97,397.183 1192.64,394.35 1192.5,391.5C 1200.07,424.864 1188.4,449.03 1157.5,464C 1129.82,473.523 1104.49,469.356 1081.5,451.5C 1076.86,456.806 1071.86,461.806 1066.5,466.5C 1065.67,452.846 1065.17,439.179 1065,425.5C 1053.25,443.267 1037.42,455.601 1017.5,462.5C 1026.23,458.294 1034.57,453.294 1042.5,447.5C 1043.71,445.59 1043.38,445.256 1041.5,446.5C 1039.04,444.934 1036.54,444.601 1034,445.5C 1032.23,443.36 1030.23,443.027 1028,444.5C 1021.46,443.067 1014.96,442.233 1008.5,442C 1007.25,440.176 1006.08,440.343 1005,442.5C 1002.55,441.802 1000.21,440.802 998,439.5C 996.518,441.781 994.851,441.781 993,439.5C 991.256,440.036 989.423,440.37 987.5,440.5C 984.724,440.054 982.224,439.054 980,437.5C 979.667,438.167 979.333,438.833 979,439.5C 976.163,437.415 973.163,437.081 970,438.5C 968.561,436.986 967.061,436.653 965.5,437.5C 961.969,435.45 958.469,435.117 955,436.5C 952.763,435.944 950.763,434.944 949,433.5C 947.428,435.589 945.595,435.589 943.5,433.5C 939.623,433.623 935.789,433.623 932,433.5C 931.333,432.833 930.667,432.167 930,431.5C 929.333,432.833 928.667,432.833 928,431.5C 927.667,432.167 927.333,432.833 927,433.5C 924.275,432.128 921.609,431.128 919,430.5C 917.417,430.493 915.751,430.826 914,431.5C 911.95,429.196 910.616,429.53 910,432.5C 917.467,440.81 925.634,448.144 934.5,454.5C 916.636,444.131 903.469,429.465 895,410.5C 892.701,404.429 890.535,398.429 888.5,392.5C 888.5,392.167 888.5,391.833 888.5,391.5C 906.8,385.535 920.133,373.869 928.5,356.5C 928.5,355.833 928.833,355.5 929.5,355.5C 923.755,383.112 932.088,405.279 954.5,422C 986.57,437.275 1012.74,430.442 1033,401.5C 1041.58,383.993 1042.75,365.993 1036.5,347.5C 1037.92,349.525 1039.26,352.192 1040.5,355.5 Z M 1082.5,365.5 C 1087.43,369.977 1093.1,373.477 1099.5,376C 1110.07,379.643 1120.74,382.976 1131.5,386C 1136.45,387.806 1141.11,390.139 1145.5,393C 1148.11,394.938 1149.94,397.438 1151,400.5C 1153.35,418.993 1145.18,428.993 1126.5,430.5C 1105.41,427.9 1089.08,417.734 1077.5,400C 1080.29,388.518 1081.95,377.018 1082.5,365.5 Z"/></g>
<g><path style="opacity:1" fill="#a3abd2" d="M 928.5,356.5 C 920.133,373.869 906.8,385.535 888.5,391.5C 889.167,390.833 889.833,390.167 890.5,389.5C 899.866,386.12 907.866,380.787 914.5,373.5C 919.598,369.058 923.598,363.725 926.5,357.5C 926.957,356.702 927.624,356.369 928.5,356.5 Z"/></g>
<g><path style="opacity:0.999" fill="#d5d5d5" d="M 467.5,410.5 C 464.478,410.327 461.311,409.66 458,408.5C 455.667,408.833 453.333,409.167 451,409.5C 450.333,408.833 449.667,408.167 449,407.5C 444.984,407.325 441.317,407.325 438,407.5C 435.176,405.902 432.342,405.568 429.5,406.5C 429.737,407.791 429.404,408.791 428.5,409.5C 428.5,401.167 428.5,392.833 428.5,384.5C 429.166,380.979 429.833,377.313 430.5,373.5C 432.8,373.868 434.967,373.868 437,373.5C 437.667,374.167 438.333,374.833 439,375.5C 440.813,375.407 442.646,375.073 444.5,374.5C 445.647,374.818 446.481,375.484 447,376.5C 449.75,375.701 452.75,375.368 456,375.5C 456.308,376.308 456.808,376.975 457.5,377.5C 460.149,377.43 462.816,377.263 465.5,377C 466,377.5 466.5,378 467,378.5C 467.5,389.161 467.667,399.828 467.5,410.5 Z"/></g>
<g><path style="opacity:0.963" fill="#4a5bb2" d="M 866.5,362.5 C 866.176,366.555 866.509,370.555 867.5,374.5C 875.149,379.692 882.815,384.692 890.5,389.5C 889.833,390.167 889.167,390.833 888.5,391.5C 888.5,391.833 888.5,392.167 888.5,392.5C 880.697,395.768 872.697,398.434 864.5,400.5C 864.932,387.667 865.599,375 866.5,362.5 Z"/></g>
<g><path style="opacity:1" fill="#c5c5c5" d="M 144.5,382.5 C 149.258,397.191 153.258,412.191 156.5,427.5C 154.921,423.055 153.254,418.555 151.5,414C 150.234,413.691 149.067,413.191 148,412.5C 147.667,412.833 147.333,413.167 147,413.5C 136.094,411.456 125.594,410.123 115.5,409.5C 116.63,416.482 117.63,423.482 118.5,430.5C 115.954,419.619 113.454,408.619 111,397.5C 110.329,398.252 109.496,398.586 108.5,398.5C 108.539,397.244 108.039,396.244 107,395.5C 105.467,395.944 103.967,396.277 102.5,396.5C 101.522,396.023 100.689,395.357 100,394.5C 98.3333,394.833 96.6667,395.167 95,395.5C 91.8688,394.794 88.7021,394.127 85.5,393.5C 83.36,394.106 81.1934,393.773 79,392.5C 78,392.833 77,393.167 76,393.5C 71.9426,393.097 67.7759,392.097 63.5,390.5C 60.6429,391.169 57.8095,390.836 55,389.5C 51.7121,389.658 48.2121,389.658 44.5,389.5C 44.895,384.917 46.0616,380.584 48,376.5C 58.4381,377.895 68.9381,379.228 79.5,380.5C 78.7093,382.691 78.7093,384.691 79.5,386.5C 88.5,386.5 97.5,386.5 106.5,386.5C 104.999,379.842 103.832,373.175 103,366.5C 104,367.167 105,367.833 106,368.5C 108.624,368.53 111.291,368.197 114,367.5C 117,368.5 120,369.5 123,370.5C 125.632,370.707 127.965,370.374 130,369.5C 130.667,370.167 131.333,370.833 132,371.5C 134.821,370.274 137.988,370.274 141.5,371.5C 141.742,375.479 142.742,379.146 144.5,382.5 Z"/></g>
<g><path style="opacity:1" fill="#cbcbcb" d="M 323.5,408.5 C 319.379,408.44 315.212,408.44 311,408.5C 309.237,408.025 307.57,407.358 306,406.5C 304.249,407.174 302.583,407.507 301,407.5C 300.36,405.602 299.027,405.268 297,406.5C 290.464,405.621 283.964,404.621 277.5,403.5C 276.914,403.709 276.414,404.043 276,404.5C 268.428,402.512 260.594,401.178 252.5,400.5C 251.558,400.608 250.725,400.941 250,401.5C 249.667,406.167 249.333,410.833 249,415.5C 248.722,416.416 248.222,417.082 247.5,417.5C 249.271,410.288 248.771,403.288 246,396.5C 239.942,391.059 233.109,387.059 225.5,384.5C 224.737,383.732 223.737,383.232 222.5,383C 223.108,382.13 223.941,381.63 225,381.5C 228.238,381.614 231.571,382.28 235,383.5C 236.628,382.903 238.295,383.237 240,384.5C 240.667,381.833 241.333,381.833 242,384.5C 243.974,384.353 245.974,384.019 248,383.5C 248.333,384.167 248.667,384.833 249,385.5C 254.185,386.539 259.518,386.539 265,385.5C 265.308,386.308 265.808,386.975 266.5,387.5C 268.101,386.835 269.601,386.501 271,386.5C 272.441,387.26 273.941,387.926 275.5,388.5C 279.697,388.47 283.864,388.47 288,388.5C 292.5,389.359 297,390.359 301.5,391.5C 303.101,390.835 304.601,390.501 306,390.5C 308.324,391.845 310.658,392.178 313,391.5C 316.321,392.971 319.821,393.637 323.5,393.5C 323.5,398.5 323.5,403.5 323.5,408.5 Z"/></g>
<g><path style="opacity:0.986" fill="#4d5aa2" d="M 821.5,414.5 C 821.664,411.813 821.497,409.146 821,406.5C 816.602,402.047 811.436,398.713 805.5,396.5C 803.572,394.95 801.739,393.283 800,391.5C 799.667,391.833 799.333,392.167 799,392.5C 797.89,390.963 796.39,390.297 794.5,390.5C 802.641,385.555 811.307,381.555 820.5,378.5C 822.003,385.57 822.67,392.737 822.5,400C 822.499,405.012 822.166,409.845 821.5,414.5 Z"/></g>
<g><path style="opacity:1" fill="#bcbcbc" d="M 44.5,389.5 C 48.2121,389.658 51.7121,389.658 55,389.5C 57.8095,390.836 60.6429,391.169 63.5,390.5C 67.7759,392.097 71.9426,393.097 76,393.5C 77,393.167 78,392.833 79,392.5C 81.1934,393.773 83.36,394.106 85.5,393.5C 88.7021,394.127 91.8688,394.794 95,395.5C 96.6667,395.167 98.3333,394.833 100,394.5C 100.689,395.357 101.522,396.023 102.5,396.5C 103.967,396.277 105.467,395.944 107,395.5C 108.039,396.244 108.539,397.244 108.5,398.5C 96.7252,405.559 84.7252,412.392 72.5,419C 70.6052,424.408 68.9385,429.908 67.5,435.5C 73.5846,445.338 79.918,455.004 86.5,464.5C 61.8333,465.833 37.1667,465.833 12.5,464.5C 14.1712,461.508 16.1712,458.841 18.5,456.5C 17.8277,459.342 16.4944,461.842 14.5,464C 37.8333,464.667 61.1667,464.667 84.5,464C 81.6368,459.652 78.6368,455.485 75.5,451.5C 72.9403,446.723 70.107,442.056 67,437.5C 67.2839,434.591 67.1172,431.758 66.5,429C 60.5286,429.058 54.5286,428.225 48.5,426.5C 46.36,427.106 44.1934,426.773 42,425.5C 41,425.833 40,426.167 39,426.5C 37.6667,425.833 36.3333,425.167 35,424.5C 34.3668,432.792 31.2001,439.792 25.5,445.5C 27.0549,442.06 28.8882,438.727 31,435.5C 33.3927,424.917 36.2261,414.584 39.5,404.5C 41.321,399.548 42.9877,394.548 44.5,389.5 Z"/></g>
<g><path style="opacity:0.981" fill="#4d5999" d="M 794.5,390.5 C 796.39,390.297 797.89,390.963 799,392.5C 799.333,392.167 799.667,391.833 800,391.5C 801.739,393.283 803.572,394.95 805.5,396.5C 811.436,398.713 816.602,402.047 821,406.5C 821.497,409.146 821.664,411.813 821.5,414.5C 818.167,415.833 814.833,417.167 811.5,418.5C 811.063,416.926 810.063,415.759 808.5,415C 799.828,409.715 791.162,404.548 782.5,399.5C 785.91,395.762 789.91,392.762 794.5,390.5 Z"/></g>
<g><path style="opacity:1" fill="#cacaca" d="M 378.5,399.5 C 381.922,404.678 385.589,409.678 389.5,414.5C 394.997,422.156 399.997,430.156 404.5,438.5C 402.281,436.425 400.281,434.091 398.5,431.5C 396.326,430.137 394.159,429.803 392,430.5C 389.347,428.988 386.681,428.655 384,429.5C 377.206,428.306 370.373,427.306 363.5,426.5C 363.167,426.667 362.833,426.833 362.5,427C 367.067,432.059 371.401,437.226 375.5,442.5C 361.431,428.101 348.097,413.101 335.5,397.5C 335.586,396.504 335.252,395.671 334.5,395C 336.198,395.497 337.865,395.33 339.5,394.5C 341.167,395.167 342.833,395.833 344.5,396.5C 349.276,396.598 354.11,396.598 359,396.5C 359.956,397.894 361.289,398.561 363,398.5C 365.027,397.268 366.36,397.602 367,399.5C 370.243,398.312 374.077,398.312 378.5,399.5 Z"/></g>
<g><path style="opacity:1" fill="#c4c4c4" d="M 198.5,423.5 C 194.61,421.638 190.777,419.638 187,417.5C 186.667,417.833 186.333,418.167 186,418.5C 184.215,417.76 182.382,417.093 180.5,416.5C 177.302,416.545 174.135,416.545 171,416.5C 168.807,415.227 166.64,414.894 164.5,415.5C 163.509,419.445 163.176,423.445 163.5,427.5C 163.818,432.032 163.485,436.366 162.5,440.5C 161.391,440.443 160.391,440.11 159.5,439.5C 157.877,435.673 156.877,431.673 156.5,427.5C 157.728,431.683 159.562,435.683 162,439.5C 162.333,421.5 162.667,403.5 163,385.5C 168,392.167 173,398.833 178,405.5C 184.25,412.342 191.083,418.342 198.5,423.5 Z"/></g>
<g><path style="opacity:0.983" fill="#4e598f" d="M 782.5,399.5 C 791.162,404.548 799.828,409.715 808.5,415C 810.063,415.759 811.063,416.926 811.5,418.5C 802.887,424.951 801.221,432.951 806.5,442.5C 794.469,435.44 782.636,428.107 771,420.5C 770.617,421.056 770.117,421.389 769.5,421.5C 771.265,412.636 775.598,405.302 782.5,399.5 Z"/></g>
<g><path style="opacity:1" fill="#c1c1c1" d="M 323.5,408.5 C 323.5,416.833 323.5,425.167 323.5,433.5C 322.504,433.414 321.671,433.748 321,434.5C 316.935,433.283 312.935,432.283 309,431.5C 307.732,431.616 306.398,431.949 305,432.5C 302.667,431.833 300.333,431.167 298,430.5C 296.657,431.214 295.324,430.88 294,429.5C 290.804,430.731 287.637,430.398 284.5,428.5C 279.599,427.375 275.099,427.375 271,428.5C 269.024,427.039 267.024,426.706 265,427.5C 257.85,426.097 250.85,425.097 244,424.5C 239.551,428.306 234.384,430.306 228.5,430.5C 232.176,429.322 235.843,427.822 239.5,426C 242.399,423.271 245.066,420.438 247.5,417.5C 248.222,417.082 248.722,416.416 249,415.5C 249.333,410.833 249.667,406.167 250,401.5C 250.725,400.941 251.558,400.608 252.5,400.5C 260.594,401.178 268.428,402.512 276,404.5C 276.414,404.043 276.914,403.709 277.5,403.5C 283.964,404.621 290.464,405.621 297,406.5C 299.027,405.268 300.36,405.602 301,407.5C 302.583,407.507 304.249,407.174 306,406.5C 307.57,407.358 309.237,408.025 311,408.5C 315.212,408.44 319.379,408.44 323.5,408.5 Z"/></g>
<g><path style="opacity:1" fill="#bababa" d="M 198.5,423.5 C 207.882,428.345 217.882,430.678 228.5,430.5C 234.384,430.306 239.551,428.306 244,424.5C 250.85,425.097 257.85,426.097 265,427.5C 267.024,426.706 269.024,427.039 271,428.5C 275.099,427.375 279.599,427.375 284.5,428.5C 287.637,430.398 290.804,430.731 294,429.5C 295.324,430.88 296.657,431.214 298,430.5C 300.333,431.167 302.667,431.833 305,432.5C 306.398,431.949 307.732,431.616 309,431.5C 312.935,432.283 316.935,433.283 321,434.5C 321.671,433.748 322.504,433.414 323.5,433.5C 323.166,436.491 324.166,438.824 326.5,440.5C 331.613,446.622 335.946,453.289 339.5,460.5C 340.933,461.833 342.267,463.333 343.5,465C 323.503,465.5 303.503,465.667 283.5,465.5C 283.666,457.16 283.5,448.827 283,440.5C 279.981,446.017 275.815,450.35 270.5,453.5C 273.997,449.834 277.331,446.001 280.5,442C 279.5,441.667 278.5,441.333 277.5,441C 240.013,436.722 202.013,432.222 163.5,427.5C 163.176,423.445 163.509,419.445 164.5,415.5C 166.64,414.894 168.807,415.227 171,416.5C 174.135,416.545 177.302,416.545 180.5,416.5C 182.382,417.093 184.215,417.76 186,418.5C 186.333,418.167 186.667,417.833 187,417.5C 190.777,419.638 194.61,421.638 198.5,423.5 Z"/></g>
<g><path style="opacity:1" fill="#cccccc" d="M 631.5,426.5 C 633.725,423.738 635.725,420.738 637.5,417.5C 641.58,415.528 645.747,415.528 650,417.5C 651.957,416.146 653.957,416.479 656,418.5C 657.011,417.663 658.178,417.33 659.5,417.5C 659.5,427.833 659.5,438.167 659.5,448.5C 656.694,450.17 654.194,449.837 652,447.5C 649.219,447.869 646.552,447.869 644,447.5C 643.333,444.833 642.667,444.833 642,447.5C 636.612,446.827 631.278,445.827 626,444.5C 624.732,444.616 623.398,444.949 622,445.5C 619.915,443.955 617.748,443.622 615.5,444.5C 612.457,442.423 609.624,442.09 607,443.5C 605.667,442.833 604.333,442.167 603,441.5C 600.376,441.47 597.709,441.803 595,442.5C 592.753,440.845 590.42,440.512 588,441.5C 585.957,439.479 583.957,439.146 582,440.5C 579.333,439.833 576.667,439.167 574,438.5C 572.043,439.854 570.043,439.521 568,437.5C 567.439,438.022 566.772,438.355 566,438.5C 560.385,437.237 555.218,436.57 550.5,436.5C 550.5,425.833 550.5,415.167 550.5,404.5C 552.677,404.586 554.677,405.253 556.5,406.5C 558.612,406.039 560.779,405.706 563,405.5C 564.666,407.403 566.5,407.737 568.5,406.5C 572.924,406.897 577.424,407.897 582,409.5C 583.667,409.167 585.333,408.833 587,408.5C 588.441,417.058 588.941,425.724 588.5,434.5C 601.504,434.667 614.504,434.5 627.5,434C 629.495,431.843 630.828,429.343 631.5,426.5 Z"/></g>
<g><path style="opacity:0.995" fill="#4f5888" d="M 806.5,442.5 C 811.134,446.156 816.134,449.322 821.5,452C 834.241,456.136 846.908,460.469 859.5,465C 869.059,468.893 877.225,474.727 884,482.5C 888.235,489.973 889.569,497.973 888,506.5C 887.626,508.491 886.793,510.158 885.5,511.5C 885.762,510.022 885.429,508.689 884.5,507.5C 849.181,485.034 814.348,463.367 780,442.5C 776.747,440.457 773.58,438.29 770.5,436C 769.563,435.308 768.897,435.475 768.5,436.5C 767.284,431.434 767.617,426.434 769.5,421.5C 770.117,421.389 770.617,421.056 771,420.5C 782.636,428.107 794.469,435.44 806.5,442.5 Z"/></g>
<g><path style="opacity:1" fill="#c7c7c7" d="M 467.5,410.5 C 467.5,418.167 467.5,425.833 467.5,433.5C 477.19,433.832 486.856,433.498 496.5,432.5C 497.788,430.261 498.788,427.928 499.5,425.5C 500.659,421.849 502.326,418.515 504.5,415.5C 509.156,414.589 513.989,415.255 519,417.5C 522.286,417.119 525.786,417.119 529.5,417.5C 529.5,427.167 529.5,436.833 529.5,446.5C 496.844,443.164 463.844,439.164 430.5,434.5C 426.238,442.252 421.404,449.586 416,456.5C 410.914,451.336 407.081,445.336 404.5,438.5C 408.31,444.101 412.144,449.768 416,455.5C 419.75,448.998 423.75,442.665 428,436.5C 428.5,427.506 428.666,418.506 428.5,409.5C 429.404,408.791 429.737,407.791 429.5,406.5C 432.342,405.568 435.176,405.902 438,407.5C 441.317,407.325 444.984,407.325 449,407.5C 449.667,408.167 450.333,408.833 451,409.5C 453.333,409.167 455.667,408.833 458,408.5C 461.311,409.66 464.478,410.327 467.5,410.5 Z"/></g>
<g><path style="opacity:1" fill="#b4b4b4" d="M 156.5,427.5 C 156.877,431.673 157.877,435.673 159.5,439.5C 155.585,438.861 152.085,438.861 149,439.5C 146.333,438.833 143.667,438.167 141,437.5C 139.413,438.727 138.079,438.394 137,436.5C 136.439,437.022 135.772,437.355 135,437.5C 129.797,435.926 124.63,435.26 119.5,435.5C 119.002,438.326 117.669,440.66 115.5,442.5C 115.795,440.577 116.628,438.91 118,437.5C 118.497,435.19 118.663,432.857 118.5,430.5C 117.63,423.482 116.63,416.482 115.5,409.5C 125.594,410.123 136.094,411.456 147,413.5C 147.333,413.167 147.667,412.833 148,412.5C 149.067,413.191 150.234,413.691 151.5,414C 153.254,418.555 154.921,423.055 156.5,427.5 Z"/></g>
<g><path style="opacity:1" fill="#b2b2b2" d="M 163.5,427.5 C 202.013,432.222 240.013,436.722 277.5,441C 278.5,441.333 279.5,441.667 280.5,442C 277.331,446.001 273.997,449.834 270.5,453.5C 258.318,464.229 243.985,469.229 227.5,468.5C 243.153,468.002 257.153,462.836 269.5,453C 265.778,452.762 262.111,452.262 258.5,451.5C 256.36,452.106 254.193,451.773 252,450.5C 250.732,450.616 249.398,450.949 248,451.5C 246.295,450.237 244.628,449.903 243,450.5C 241.667,447.833 240.333,447.833 239,450.5C 235.096,449.096 231.096,448.096 227,447.5C 226.667,447.833 226.333,448.167 226,448.5C 223.667,447.833 221.333,447.167 219,446.5C 215.333,446.5 211.667,446.5 208,446.5C 204.861,445.921 201.861,444.921 199,443.5C 196.153,444.148 193.319,444.481 190.5,444.5C 187.949,443.217 185.449,442.884 183,443.5C 177.554,442.215 172.054,441.215 166.5,440.5C 164.971,440.529 163.804,441.196 163,442.5C 162.536,441.906 162.369,441.239 162.5,440.5C 163.485,436.366 163.818,432.032 163.5,427.5 Z"/></g>
<g><path style="opacity:1" fill="#d6d6d6" d="M 1017.5,462.5 C 1011.29,465.518 1004.62,467.351 997.5,468C 980.321,470.082 963.655,468.082 947.5,462C 942.777,459.978 938.443,457.478 934.5,454.5C 925.634,448.144 917.467,440.81 910,432.5C 910.616,429.53 911.95,429.196 914,431.5C 915.751,430.826 917.417,430.493 919,430.5C 921.609,431.128 924.275,432.128 927,433.5C 927.333,432.833 927.667,432.167 928,431.5C 928.667,432.833 929.333,432.833 930,431.5C 930.667,432.167 931.333,432.833 932,433.5C 935.789,433.623 939.623,433.623 943.5,433.5C 945.595,435.589 947.428,435.589 949,433.5C 950.763,434.944 952.763,435.944 955,436.5C 958.469,435.117 961.969,435.45 965.5,437.5C 967.061,436.653 968.561,436.986 970,438.5C 973.163,437.081 976.163,437.415 979,439.5C 979.333,438.833 979.667,438.167 980,437.5C 982.224,439.054 984.724,440.054 987.5,440.5C 989.423,440.37 991.256,440.036 993,439.5C 994.851,441.781 996.518,441.781 998,439.5C 1000.21,440.802 1002.55,441.802 1005,442.5C 1006.08,440.343 1007.25,440.176 1008.5,442C 1014.96,442.233 1021.46,443.067 1028,444.5C 1030.23,443.027 1032.23,443.36 1034,445.5C 1036.54,444.601 1039.04,444.934 1041.5,446.5C 1043.38,445.256 1043.71,445.59 1042.5,447.5C 1034.57,453.294 1026.23,458.294 1017.5,462.5 Z"/></g>
<g><path style="opacity:1" fill="#a7a7a7" d="M 75.5,451.5 C 62.3583,449.878 49.1916,448.211 36,446.5C 35.586,446.957 35.086,447.291 34.5,447.5C 32.2906,446.894 30.124,446.227 28,445.5C 24.3628,448.784 21.1961,452.451 18.5,456.5C 20.0875,452.317 22.4208,448.65 25.5,445.5C 31.2001,439.792 34.3668,432.792 35,424.5C 36.3333,425.167 37.6667,425.833 39,426.5C 40,426.167 41,425.833 42,425.5C 44.1934,426.773 46.36,427.106 48.5,426.5C 54.5286,428.225 60.5286,429.058 66.5,429C 67.1172,431.758 67.2839,434.591 67,437.5C 70.107,442.056 72.9403,446.723 75.5,451.5 Z"/></g>
<g><path style="opacity:1" fill="#ababab" d="M 159.5,439.5 C 160.391,440.11 161.391,440.443 162.5,440.5C 162.369,441.239 162.536,441.906 163,442.5C 163.804,441.196 164.971,440.529 166.5,440.5C 172.054,441.215 177.554,442.215 183,443.5C 185.449,442.884 187.949,443.217 190.5,444.5C 193.319,444.481 196.153,444.148 199,443.5C 201.861,444.921 204.861,445.921 208,446.5C 211.667,446.5 215.333,446.5 219,446.5C 221.333,447.167 223.667,447.833 226,448.5C 226.333,448.167 226.667,447.833 227,447.5C 231.096,448.096 235.096,449.096 239,450.5C 240.333,447.833 241.667,447.833 243,450.5C 244.628,449.903 246.295,450.237 248,451.5C 249.398,450.949 250.732,450.616 252,450.5C 254.193,451.773 256.36,452.106 258.5,451.5C 262.111,452.262 265.778,452.762 269.5,453C 257.153,462.836 243.153,468.002 227.5,468.5C 208.995,468.999 192.662,463.332 178.5,451.5C 177.148,452.524 175.815,453.524 174.5,454.5C 173.816,452.815 172.483,451.815 170.5,451.5C 166.969,451.539 163.469,451.539 160,451.5C 156.394,449.871 153.061,449.538 150,450.5C 148,449.833 146,449.167 144,448.5C 140.271,448.577 136.605,448.577 133,448.5C 132,447.833 131,447.167 130,446.5C 128.026,446.647 126.026,446.981 124,447.5C 120.636,446.261 117.136,445.594 113.5,445.5C 113.427,443.973 114.094,442.973 115.5,442.5C 117.669,440.66 119.002,438.326 119.5,435.5C 124.63,435.26 129.797,435.926 135,437.5C 135.772,437.355 136.439,437.022 137,436.5C 138.079,438.394 139.413,438.727 141,437.5C 143.667,438.167 146.333,438.833 149,439.5C 152.085,438.861 155.585,438.861 159.5,439.5 Z"/></g>
<g><path style="opacity:1" fill="#cdcdcd" d="M 736.5,452.5 C 740.055,456.584 743.389,460.918 746.5,465.5C 719.833,466.833 693.167,466.833 666.5,465.5C 670.501,458.851 674.834,452.518 679.5,446.5C 682.135,443.921 684.301,440.921 686,437.5C 686.047,431.659 686.714,425.992 688,420.5C 689.715,420.52 691.548,421.186 693.5,422.5C 695.306,421.141 696.806,421.475 698,423.5C 699.398,422.949 700.732,422.616 702,422.5C 704.796,423.211 707.63,423.878 710.5,424.5C 712.156,422.978 713.323,423.311 714,425.5C 717.449,424.39 720.949,424.39 724.5,425.5C 724.334,429.514 724.501,433.514 725,437.5C 728.697,442.685 732.53,447.685 736.5,452.5 Z"/></g>
<g><path style="opacity:0.976" fill="#515881" d="M 885.5,511.5 C 880.818,521.18 873.484,528.18 863.5,532.5C 862.96,520.752 862.126,509.085 861,497.5C 857.919,494.707 854.419,492.54 850.5,491C 835.317,485.272 819.984,479.939 804.5,475C 789.949,470.324 778.783,461.491 771,448.5C 769.228,444.687 768.395,440.687 768.5,436.5C 768.897,435.475 769.563,435.308 770.5,436C 773.58,438.29 776.747,440.457 780,442.5C 814.348,463.367 849.181,485.034 884.5,507.5C 885.429,508.689 885.762,510.022 885.5,511.5 Z"/></g>
<g><path style="opacity:1" fill="#c4c4c4" d="M 550.5,436.5 C 555.218,436.57 560.385,437.237 566,438.5C 566.772,438.355 567.439,438.022 568,437.5C 570.043,439.521 572.043,439.854 574,438.5C 576.667,439.167 579.333,439.833 582,440.5C 583.957,439.146 585.957,439.479 588,441.5C 590.42,440.512 592.753,440.845 595,442.5C 597.709,441.803 600.376,441.47 603,441.5C 604.333,442.167 605.667,442.833 607,443.5C 609.624,442.09 612.457,442.423 615.5,444.5C 617.748,443.622 619.915,443.955 622,445.5C 623.398,444.949 624.732,444.616 626,444.5C 631.278,445.827 636.612,446.827 642,447.5C 642.667,444.833 643.333,444.833 644,447.5C 646.552,447.869 649.219,447.869 652,447.5C 654.194,449.837 656.694,450.17 659.5,448.5C 659.5,453.167 659.5,457.833 659.5,462.5C 654.989,460.71 650.489,460.044 646,460.5C 645,459.833 644,459.167 643,458.5C 640.386,459.032 637.72,459.365 635,459.5C 632.391,458.872 629.725,457.872 627,456.5C 623.893,457.349 620.893,457.683 618,457.5C 616.295,456.237 614.628,455.903 613,456.5C 611.759,454.36 610.093,454.027 608,455.5C 595.559,454.223 582.892,452.557 570,450.5C 567.45,451.876 565.117,451.543 563,449.5C 558.949,449.295 554.782,449.295 550.5,449.5C 548.087,448.981 545.754,448.315 543.5,447.5C 546.083,444.003 548.416,440.336 550.5,436.5 Z"/></g>
<g><path style="opacity:1" fill="#bbbbbb" d="M 404.5,438.5 C 407.081,445.336 410.914,451.336 416,456.5C 421.404,449.586 426.238,442.252 430.5,434.5C 463.844,439.164 496.844,443.164 529.5,446.5C 529.5,452.833 529.5,459.167 529.5,465.5C 512.167,465.5 494.833,465.5 477.5,465.5C 477.719,464.325 477.386,463.325 476.5,462.5C 476.167,463.167 475.833,463.833 475.5,464.5C 452.785,462.182 430.285,459.182 408,455.5C 403.62,455.707 399.287,455.707 395,455.5C 392.876,454.773 390.709,454.106 388.5,453.5C 387.479,454.002 387.312,454.668 388,455.5C 391.737,459.727 395.237,464.06 398.5,468.5C 390.096,460.433 382.43,451.766 375.5,442.5C 371.401,437.226 367.067,432.059 362.5,427C 362.833,426.833 363.167,426.667 363.5,426.5C 370.373,427.306 377.206,428.306 384,429.5C 386.681,428.655 389.347,428.988 392,430.5C 394.159,429.803 396.326,430.137 398.5,431.5C 400.281,434.091 402.281,436.425 404.5,438.5 Z"/></g>
<g><path style="opacity:1" fill="#9e9e9e" d="M 75.5,451.5 C 78.6368,455.485 81.6368,459.652 84.5,464C 61.1667,464.667 37.8333,464.667 14.5,464C 16.4944,461.842 17.8277,459.342 18.5,456.5C 21.1961,452.451 24.3628,448.784 28,445.5C 30.124,446.227 32.2906,446.894 34.5,447.5C 35.086,447.291 35.586,446.957 36,446.5C 49.1916,448.211 62.3583,449.878 75.5,451.5 Z"/></g>
<g><path style="opacity:1" fill="#a4a4a4" d="M 113.5,445.5 C 117.136,445.594 120.636,446.261 124,447.5C 126.026,446.981 128.026,446.647 130,446.5C 131,447.167 132,447.833 133,448.5C 136.605,448.577 140.271,448.577 144,448.5C 146,449.167 148,449.833 150,450.5C 153.061,449.538 156.394,449.871 160,451.5C 163.469,451.539 166.969,451.539 170.5,451.5C 172.483,451.815 173.816,452.815 174.5,454.5C 174.5,455.167 174.167,455.5 173.5,455.5C 172.427,456.251 172.26,457.251 173,458.5C 174.167,460.333 175.333,462.167 176.5,464C 151.827,464.833 127.16,464.666 102.5,463.5C 106.691,457.778 110.358,451.778 113.5,445.5 Z"/></g>
<g><path style="opacity:1" fill="#bebebe" d="M 543.5,447.5 C 545.754,448.315 548.087,448.981 550.5,449.5C 554.782,449.295 558.949,449.295 563,449.5C 565.117,451.543 567.45,451.876 570,450.5C 582.892,452.557 595.559,454.223 608,455.5C 610.093,454.027 611.759,454.36 613,456.5C 614.628,455.903 616.295,456.237 618,457.5C 620.893,457.683 623.893,457.349 627,456.5C 629.725,457.872 632.391,458.872 635,459.5C 637.72,459.365 640.386,459.032 643,458.5C 644,459.167 645,459.833 646,460.5C 650.489,460.044 654.989,460.71 659.5,462.5C 659.5,463.5 659.5,464.5 659.5,465.5C 617.161,465.833 574.828,465.5 532.5,464.5C 535.361,460.773 537.695,456.773 539.5,452.5C 541.063,451.055 542.396,449.389 543.5,447.5 Z"/></g>
<g><path style="opacity:1" fill="#c4c4c4" d="M 676.5,451.5 C 681.112,452.278 685.612,452.278 690,451.5C 690.689,452.357 691.522,453.023 692.5,453.5C 696.031,453.461 699.531,453.461 703,453.5C 704.667,454.167 706.333,454.833 708,455.5C 709.682,453.446 711.349,453.779 713,456.5C 716.046,455.747 718.88,455.747 721.5,456.5C 722.883,453.924 723.717,454.258 724,457.5C 728.801,457.554 733.634,457.554 738.5,457.5C 740.66,459.831 742.66,462.331 744.5,465C 719.16,465.833 693.827,465.666 668.5,464.5C 671.44,460.278 674.106,455.945 676.5,451.5 Z"/></g>
<g><path style="opacity:1" fill="#b2b2b2" d="M 477.5,465.5 C 458.833,465.5 440.167,465.5 421.5,465.5C 424.295,471.752 427.628,477.752 431.5,483.5C 424.33,482.685 417.33,481.851 410.5,481C 414.403,485.393 418.069,489.893 421.5,494.5C 413.096,486.433 405.43,477.766 398.5,468.5C 395.237,464.06 391.737,459.727 388,455.5C 387.312,454.668 387.479,454.002 388.5,453.5C 390.709,454.106 392.876,454.773 395,455.5C 399.287,455.707 403.62,455.707 408,455.5C 430.285,459.182 452.785,462.182 475.5,464.5C 475.833,463.833 476.167,463.167 476.5,462.5C 477.386,463.325 477.719,464.325 477.5,465.5 Z"/></g>
<g><path style="opacity:1" fill="#aeaeae" d="M 339.5,460.5 C 339.539,461.583 339.873,462.583 340.5,463.5C 321.845,464.5 303.179,464.833 284.5,464.5C 284.5,457.167 284.5,449.833 284.5,442.5C 285.822,442.67 286.989,442.337 288,441.5C 294.683,442.752 301.349,444.085 308,445.5C 313.845,444.538 320.178,445.205 327,447.5C 327.414,447.043 327.914,446.709 328.5,446.5C 332.19,451.185 335.857,455.852 339.5,460.5 Z"/></g>
<g><path style="opacity:0.682" fill="#c3c3c3" d="M 113.5,445.5 C 110.358,451.778 106.691,457.778 102.5,463.5C 127.16,464.666 151.827,464.833 176.5,464C 175.333,462.167 174.167,460.333 173,458.5C 172.26,457.251 172.427,456.251 173.5,455.5C 174.709,458.721 176.376,461.721 178.5,464.5C 173.482,465.214 168.482,465.881 163.5,466.5C 142.21,465.678 120.876,465.178 99.5,465C 104.03,458.319 108.696,451.819 113.5,445.5 Z"/></g>
<g><path style="opacity:0.82" fill="#cbcdcf" d="M 851.5,603.5 C 851.5,603.167 851.5,602.833 851.5,602.5C 851.5,598.167 851.5,593.833 851.5,589.5C 851.5,577.833 851.5,566.167 851.5,554.5C 852.119,543.511 852.452,532.511 852.5,521.5C 852.666,515.158 852.5,508.825 852,502.5C 846.495,499.776 840.828,497.443 835,495.5C 834.5,503.827 834.334,512.16 834.5,520.5C 835.043,531.159 835.377,541.825 835.5,552.5C 835.5,561.833 835.5,571.167 835.5,580.5C 835.5,580.833 835.5,581.167 835.5,581.5C 834.269,552.674 833.603,523.674 833.5,494.5C 840.324,495.941 846.824,498.275 853,501.5C 853.297,535.671 852.797,569.671 851.5,603.5 Z"/></g>
<g><path style="opacity:1" fill="#b3b3b3" d="M 852.5,521.5 C 851.504,521.414 850.671,521.748 850,522.5C 844.941,521.305 839.775,520.638 834.5,520.5C 834.334,512.16 834.5,503.827 835,495.5C 840.828,497.443 846.495,499.776 852,502.5C 852.5,508.825 852.666,515.158 852.5,521.5 Z"/></g>
<g><path style="opacity:1" fill="#a1a1a1" d="M 431.5,483.5 C 436.14,491.459 441.14,499.126 446.5,506.5C 458.95,524.63 470.617,543.296 481.5,562.5C 461.135,540.136 441.135,517.469 421.5,494.5C 418.069,489.893 414.403,485.393 410.5,481C 417.33,481.851 424.33,482.685 431.5,483.5 Z"/></g>
<g><path style="opacity:1" fill="#a5a5a5" d="M 834.5,520.5 C 839.775,520.638 844.941,521.305 850,522.5C 850.671,521.748 851.504,521.414 852.5,521.5C 852.452,532.511 852.119,543.511 851.5,554.5C 846,553.383 840.666,552.717 835.5,552.5C 835.377,541.825 835.043,531.159 834.5,520.5 Z"/></g>
<g><path style="opacity:0.688" fill="#bbbcc2" d="M 822.5,529.5 C 823.552,529.351 824.552,529.517 825.5,530C 825.719,536.714 825.386,543.547 824.5,550.5C 806.947,558.386 794.947,571.386 788.5,589.5C 785.85,568.968 792.516,552.135 808.5,539C 813.071,535.579 817.737,532.412 822.5,529.5 Z"/></g>
<g><path style="opacity:1" fill="#9a9ba1" d="M 822.5,531.5 C 823.222,531.918 823.722,532.584 824,533.5C 824.829,538.864 824.663,544.198 823.5,549.5C 807.049,556.784 795.549,568.784 789,585.5C 788.104,566.855 794.938,551.688 809.5,540C 813.739,536.91 818.072,534.077 822.5,531.5 Z"/></g>
<g><path style="opacity:0.11" fill="#919291" d="M 481.5,562.5 C 482.833,563.167 482.833,563.167 481.5,562.5 Z"/></g>
<g><path style="opacity:1" fill="#919191" d="M 835.5,552.5 C 840.666,552.717 846,553.383 851.5,554.5C 851.5,566.167 851.5,577.833 851.5,589.5C 846.543,588.857 841.543,588.19 836.5,587.5C 836.802,584.941 836.468,582.607 835.5,580.5C 835.5,571.167 835.5,561.833 835.5,552.5 Z"/></g>
<g><path style="opacity:1" fill="#818181" d="M 836.5,587.5 C 841.543,588.19 846.543,588.857 851.5,589.5C 851.5,593.833 851.5,598.167 851.5,602.5C 850.517,606.298 850.183,610.298 850.5,614.5C 848.648,613.911 846.815,613.244 845,612.5C 842.413,613.696 839.58,613.696 836.5,612.5C 836.5,604.167 836.5,595.833 836.5,587.5 Z"/></g>
<g><path style="opacity:0.475" fill="#a4abaf" d="M 835.5,580.5 C 836.468,582.607 836.802,584.941 836.5,587.5C 836.5,595.833 836.5,604.167 836.5,612.5C 836.334,624.528 836.834,636.528 838,648.5C 838.498,652.844 840.498,656.177 844,658.5C 846.669,656.503 848.335,653.837 849,650.5C 850.338,638.543 850.838,626.543 850.5,614.5C 850.183,610.298 850.517,606.298 851.5,602.5C 851.5,602.833 851.5,603.167 851.5,603.5C 851.885,619.539 851.385,635.539 850,651.5C 849.428,655.34 847.428,658.007 844,659.5C 842.289,659.561 840.956,658.894 840,657.5C 837.136,651.176 835.802,644.509 836,637.5C 835.5,618.836 835.333,600.17 835.5,581.5C 835.5,581.167 835.5,580.833 835.5,580.5 Z"/></g>
<g><path style="opacity:1" fill="#6f6f6f" d="M 836.5,612.5 C 839.58,613.696 842.413,613.696 845,612.5C 846.815,613.244 848.648,613.911 850.5,614.5C 850.838,626.543 850.338,638.543 849,650.5C 848.335,653.837 846.669,656.503 844,658.5C 840.498,656.177 838.498,652.844 838,648.5C 836.834,636.528 836.334,624.528 836.5,612.5 Z"/></g>
</svg>
