<?xml version="1.0" encoding="UTF-8"?>
<!DOCTYPE svg PUBLIC "-//W3C//DTD SVG 1.1//EN" "http://www.w3.org/Graphics/SVG/1.1/DTD/svg11.dtd">
<svg xmlns="http://www.w3.org/2000/svg" version="1.1" width="446px" height="445px" style="shape-rendering:geometricPrecision; text-rendering:geometricPrecision; image-rendering:optimizeQuality; fill-rule:evenodd; clip-rule:evenodd" xmlns:xlink="http://www.w3.org/1999/xlink">
<g><path style="opacity:0.995" fill="#425ce7" d="M 196.5,20.5 C 280.209,15.6068 345.375,47.6068 392,116.5C 422.588,168.781 429.588,224.114 413,282.5C 389.833,348.333 345.333,392.833 279.5,416C 194.109,438.119 121.942,416.619 63,351.5C 19.3939,294.8 7.0606,231.8 26,162.5C 54.8213,81.5105 111.655,34.1771 196.5,20.5 Z"/></g>
<g><path style="opacity:1" fill="#f3f6fd" d="M 338.5,77.5 C 340.9,80.9031 343.9,83.5698 347.5,85.5C 361.05,99.3702 373.05,114.37 383.5,130.5C 384.992,134.818 386.992,138.818 389.5,142.5C 419.513,214.406 410.846,281.073 363.5,342.5C 360.87,344.628 358.37,346.961 356,349.5C 354.961,348.29 353.794,347.29 352.5,346.5C 351.243,343.573 349.243,341.239 346.5,339.5C 343.564,334.895 339.898,330.895 335.5,327.5C 311.638,304.07 282.971,289.903 249.5,285C 217.901,279.88 187.901,284.38 159.5,298.5C 154.914,299.46 150.914,301.46 147.5,304.5C 124.601,316.732 106.601,334.065 93.5,356.5C 92.5416,356.953 91.7083,357.619 91,358.5C 87.9641,355.296 84.7974,352.296 81.5,349.5C 33.8952,294.32 20.7285,231.654 42,161.5C 51.2058,138.067 63.7058,116.733 79.5,97.5C 85.1667,92.5 90.5,87.1667 95.5,81.5C 161.674,28.2009 233.008,20.3676 309.5,58C 319.339,64.3556 329.005,70.8556 338.5,77.5 Z"/></g>
<g><path style="opacity:1" fill="#7185ed" d="M 338.5,77.5 C 342.1,79.4302 345.1,82.0969 347.5,85.5C 343.9,83.5698 340.9,80.9031 338.5,77.5 Z"/></g>
<g><path style="opacity:1" fill="#7487ed" d="M 95.5,81.5 C 90.5,87.1667 85.1667,92.5 79.5,97.5C 83.8333,91.1667 89.1667,85.8333 95.5,81.5 Z"/></g>
<g><path style="opacity:1" fill="#415be7" d="M 261.5,110.5 C 264.894,113.221 268.561,115.554 272.5,117.5C 273.911,119.914 275.911,121.581 278.5,122.5C 280.167,124.833 282.167,126.833 284.5,128.5C 285.08,130.749 286.413,132.415 288.5,133.5C 296.479,145.464 302.312,158.464 306,172.5C 310.018,198.76 304.185,222.427 288.5,243.5C 283.833,247.5 279.5,251.833 275.5,256.5C 273.596,256.738 272.262,257.738 271.5,259.5C 268.63,260.433 266.296,262.1 264.5,264.5C 239.323,277.398 213.323,279.398 186.5,270.5C 183.485,268.326 180.151,266.659 176.5,265.5C 172.447,262.117 168.114,259.117 163.5,256.5C 159.167,251.5 154.5,246.833 149.5,242.5C 144.974,235.447 140.974,228.114 137.5,220.5C 137.072,217.215 136.072,214.215 134.5,211.5C 128.255,185.051 132.588,160.385 147.5,137.5C 149.587,136.415 150.92,134.749 151.5,132.5C 155.833,128.833 159.833,124.833 163.5,120.5C 193.949,97.43 226.616,94.0966 261.5,110.5 Z"/></g>
<g><path style="opacity:1" fill="#a9b5f4" d="M 261.5,110.5 C 265.976,111.657 269.642,113.99 272.5,117.5C 268.561,115.554 264.894,113.221 261.5,110.5 Z"/></g>
<g><path style="opacity:1" fill="#a8b4f4" d="M 272.5,117.5 C 275.089,118.419 277.089,120.086 278.5,122.5C 275.911,121.581 273.911,119.914 272.5,117.5 Z"/></g>
<g><path style="opacity:1" fill="#a4b1f3" d="M 163.5,120.5 C 159.833,124.833 155.833,128.833 151.5,132.5C 154.5,127.5 158.5,123.5 163.5,120.5 Z"/></g>
<g><path style="opacity:1" fill="#b0bbf5" d="M 284.5,128.5 C 286.587,129.585 287.92,131.251 288.5,133.5C 286.413,132.415 285.08,130.749 284.5,128.5 Z"/></g>
<g><path style="opacity:1" fill="#aab6f4" d="M 151.5,132.5 C 150.92,134.749 149.587,136.415 147.5,137.5C 148.08,135.251 149.413,133.585 151.5,132.5 Z"/></g>
<g><path style="opacity:1" fill="#7386ed" d="M 383.5,130.5 C 386.54,133.914 388.54,137.914 389.5,142.5C 386.992,138.818 384.992,134.818 383.5,130.5 Z"/></g>
<g><path style="opacity:1" fill="#aab5f4" d="M 134.5,211.5 C 136.072,214.215 137.072,217.215 137.5,220.5C 135.528,217.916 134.528,214.916 134.5,211.5 Z"/></g>
<g><path style="opacity:1" fill="#aeb9f5" d="M 149.5,242.5 C 154.5,246.833 159.167,251.5 163.5,256.5C 157.833,252.833 153.167,248.167 149.5,242.5 Z"/></g>
<g><path style="opacity:1" fill="#abb7f4" d="M 288.5,243.5 C 285.167,248.833 280.833,253.167 275.5,256.5C 279.5,251.833 283.833,247.5 288.5,243.5 Z"/></g>
<g><path style="opacity:1" fill="#aeb9f5" d="M 271.5,259.5 C 269.704,261.9 267.37,263.567 264.5,264.5C 266.296,262.1 268.63,260.433 271.5,259.5 Z"/></g>
<g><path style="opacity:1" fill="#aab6f4" d="M 176.5,265.5 C 180.151,266.659 183.485,268.326 186.5,270.5C 182.58,269.873 179.247,268.207 176.5,265.5 Z"/></g>
<g><path style="opacity:1" fill="#7386ed" d="M 159.5,298.5 C 155.818,301.008 151.818,303.008 147.5,304.5C 150.914,301.46 154.914,299.46 159.5,298.5 Z"/></g>
<g><path style="opacity:0.988" fill="#6b7fec" d="M 335.5,327.5 C 339.898,330.895 343.564,334.895 346.5,339.5C 342.102,336.105 338.436,332.105 335.5,327.5 Z"/></g>
<g><path style="opacity:1" fill="#7386ed" d="M 363.5,342.5 C 361.612,345.899 359.112,348.899 356,351.5C 354.198,350.211 353.031,348.544 352.5,346.5C 353.794,347.29 354.961,348.29 356,349.5C 358.37,346.961 360.87,344.628 363.5,342.5 Z"/></g>
<g><path style="opacity:0.992" fill="#6e81ec" d="M 81.5,349.5 C 84.7974,352.296 87.9641,355.296 91,358.5C 91.7083,357.619 92.5416,356.953 93.5,356.5C 93.3146,358.196 92.4813,359.529 91,360.5C 87.2271,357.236 84.0604,353.57 81.5,349.5 Z"/></g>
</svg>
