<?xml version="1.0" encoding="UTF-8"?>
<!DOCTYPE svg PUBLIC "-//W3C//DTD SVG 1.1//EN" "http://www.w3.org/Graphics/SVG/1.1/DTD/svg11.dtd">
<svg xmlns="http://www.w3.org/2000/svg" version="1.1" width="1312px" height="762px" style="shape-rendering:geometricPrecision; text-rendering:geometricPrecision; image-rendering:optimizeQuality; fill-rule:evenodd; clip-rule:evenodd" xmlns:xlink="http://www.w3.org/1999/xlink">
<g><path style="opacity:0.996" fill="#575858" d="M 868.5,61.5 C 885.154,58.2959 895.988,64.6293 901,80.5C 902.513,89.4469 902.846,98.4469 902,107.5C 900.591,117.211 898.924,126.878 897,136.5C 895.3,187.823 893.967,239.156 893,290.5C 892.824,293.882 892.324,297.215 891.5,300.5C 881.945,297.694 872.278,295.361 862.5,293.5C 860.97,240.85 859.47,188.183 858,135.5C 854.477,121.195 852.31,106.695 851.5,92C 849.841,77.463 855.508,67.2963 868.5,61.5 Z"/></g>
<g><path style="opacity:0.996" fill="#02b0cb" d="M 797.5,260.5 C 796.778,260.918 796.278,261.584 796,262.5C 794.846,260.043 793.512,260.043 792,262.5C 789.821,260.652 787.987,258.485 786.5,256C 784.702,254.495 782.868,254.328 781,255.5C 780.085,254.672 779.419,253.672 779,252.5C 778.009,253.939 776.676,254.939 775,255.5C 774.342,253.892 774.842,252.725 776.5,252C 774.731,250.981 773.064,250.814 771.5,251.5C 770.416,250.335 769.583,249.002 769,247.5C 768.667,248.5 768.333,249.5 768,250.5C 766.174,248.926 764.007,248.093 761.5,248C 763.26,247.035 763.594,245.868 762.5,244.5C 761.667,245.5 760.833,246.5 760,247.5C 758.829,246.107 757.329,245.273 755.5,245C 756.696,244.346 756.696,243.846 755.5,243.5C 754.824,244.602 754.158,245.602 753.5,246.5C 757.024,219.474 770.69,199.307 794.5,186C 811.952,176.349 830.618,170.849 850.5,169.5C 850.328,181.52 850.662,193.52 851.5,205.5C 831.959,206.357 815.792,214.023 803,228.5C 796.795,238.432 794.962,249.098 797.5,260.5 Z"/></g>
<g><path style="opacity:0.993" fill="#03b1cc" d="M 1024.5,284.5 C 1024.5,285.167 1024.5,285.833 1024.5,286.5C 1021.45,286.658 1018.62,285.991 1016,284.5C 1016.37,287.794 1016.87,291.127 1017.5,294.5C 1017.67,295.492 1017.34,296.158 1016.5,296.5C 1012.99,287.154 1007.66,278.987 1000.5,272C 994.226,271.909 988.226,270.575 982.5,268C 967.156,259.665 952.49,250.332 938.5,240C 932.866,233.364 926.866,227.031 920.5,221C 915.358,217.096 909.691,214.262 903.5,212.5C 903.733,199.812 904.399,187.145 905.5,174.5C 914.857,177.454 923.857,181.287 932.5,186C 951.09,189.044 966.923,197.21 980,210.5C 984.333,216.167 988.667,221.833 993,227.5C 996.694,238.269 1000.69,248.935 1005,259.5C 1005.35,272.676 1011.85,281.01 1024.5,284.5 Z M 964.5,219.5 C 965.822,219.33 966.989,219.663 968,220.5C 970.374,224.75 972.874,228.916 975.5,233C 973.447,233.325 971.447,232.991 969.5,232C 965.833,228.333 962.167,224.667 958.5,221C 960.708,220.809 962.708,220.309 964.5,219.5 Z"/></g>
<g><path style="opacity:0.995" fill="#07abc4" d="M 797.5,260.5 C 800.304,271.6 806.637,280.1 816.5,286C 825.762,290.976 835.429,294.976 845.5,298C 871.604,303.925 897.27,311.258 922.5,320C 936.856,325.833 948.523,334.999 957.5,347.5C 960.302,351.439 962.302,355.772 963.5,360.5C 963.44,361.043 963.107,361.376 962.5,361.5C 961.11,359.797 959.61,359.13 958,359.5C 957,360.167 956,360.833 955,361.5C 952.721,359.837 950.387,358.17 948,356.5C 947,356.833 946,357.167 945,357.5C 944,354.833 943,354.833 942,357.5C 941.517,356.552 941.351,355.552 941.5,354.5C 940.178,354.33 939.011,354.663 938,355.5C 937.097,354.299 935.931,353.465 934.5,353C 935.624,352.751 936.624,352.251 937.5,351.5C 937.333,351.167 937.167,350.833 937,350.5C 934.291,351.197 931.624,351.53 929,351.5C 927.383,350.149 926.216,348.482 925.5,346.5C 922.526,347.904 920.026,347.238 918,344.5C 917.667,345.167 917.333,345.833 917,346.5C 916.316,345.216 916.483,344.049 917.5,343C 915.892,342.342 914.725,342.842 914,344.5C 913,343.167 912,341.833 911,340.5C 910.667,341.167 910.333,341.833 910,342.5C 909.047,340.408 907.714,340.075 906,341.5C 904.887,340.24 904.72,339.073 905.5,338C 903.407,337.092 901.074,336.759 898.5,337C 896.358,333.666 893.525,332.499 890,333.5C 888.758,330.145 886.591,328.811 883.5,329.5C 882.252,328.96 881.085,328.293 880,327.5C 878.951,328.517 877.784,328.684 876.5,328C 877.34,326.334 876.84,326.167 875,327.5C 872.923,325.616 870.089,324.116 866.5,323C 865.299,322.097 864.465,320.931 864,319.5C 860.319,321.302 857.652,319.969 856,315.5C 853.853,316.19 851.353,316.523 848.5,316.5C 848.251,315.418 848.085,314.085 848,312.5C 846.883,312.665 845.716,312.998 844.5,313.5C 843.306,310.381 841.806,310.048 840,312.5C 839.085,311.672 838.419,310.672 838,309.5C 837.667,309.833 837.333,310.167 837,310.5C 835.585,307.782 833.585,307.115 831,308.5C 827.643,307.258 827.81,306.424 831.5,306C 829.231,305.242 827.064,305.409 825,306.5C 824.385,304.884 823.385,303.551 822,302.5C 821.195,304.901 820.362,304.734 819.5,302C 820.34,300.334 819.84,300.167 818,301.5C 815.966,298.141 813.632,297.808 811,300.5C 809.426,299.016 808.093,297.349 807,295.5C 804.789,295.623 802.622,295.623 800.5,295.5C 799.692,295.192 799.025,294.692 798.5,294C 799.673,290.89 799.173,290.723 797,293.5C 796,291.167 794.333,289.5 792,288.5C 791.667,289.167 791.333,289.833 791,290.5C 789.823,288.824 788.323,287.491 786.5,286.5C 784.737,286.306 782.903,286.306 781,286.5C 779.671,285.506 778.338,284.506 777,283.5C 774.501,284.1 772.501,283.1 771,280.5C 769.16,281.833 768.66,281.666 769.5,280C 765.926,278.704 762.426,277.204 759,275.5C 757.97,275.836 757.47,276.503 757.5,277.5C 754.141,267.563 752.808,257.23 753.5,246.5C 754.158,245.602 754.824,244.602 755.5,243.5C 756.696,243.846 756.696,244.346 755.5,245C 757.329,245.273 758.829,246.107 760,247.5C 760.833,246.5 761.667,245.5 762.5,244.5C 763.594,245.868 763.26,247.035 761.5,248C 764.007,248.093 766.174,248.926 768,250.5C 768.333,249.5 768.667,248.5 769,247.5C 769.583,249.002 770.416,250.335 771.5,251.5C 773.064,250.814 774.731,250.981 776.5,252C 774.842,252.725 774.342,253.892 775,255.5C 776.676,254.939 778.009,253.939 779,252.5C 779.419,253.672 780.085,254.672 781,255.5C 782.868,254.328 784.702,254.495 786.5,256C 787.987,258.485 789.821,260.652 792,262.5C 793.512,260.043 794.846,260.043 796,262.5C 796.278,261.584 796.778,260.918 797.5,260.5 Z"/></g>
<g><path style="opacity:0.999" fill="#0ca5bd" d="M 963.5,360.5 C 965.579,365.169 966.579,370.169 966.5,375.5C 966.666,380.511 966.499,385.511 966,390.5C 962.972,389.383 960.305,387.716 958,385.5C 956.092,388.332 955.259,387.999 955.5,384.5C 953.549,384.773 952.049,384.107 951,382.5C 949.221,383.479 947.555,383.146 946,381.5C 945.667,381.833 945.333,382.167 945,382.5C 942.572,379.919 940.239,377.919 938,376.5C 937.374,378.991 936.541,378.991 935.5,376.5C 934.833,376.833 934.167,377.167 933.5,377.5C 931.854,376.221 930.687,374.555 930,372.5C 929.667,373.167 929.333,373.833 929,374.5C 927.255,373.044 925.422,371.711 923.5,370.5C 922.702,370.957 922.369,371.624 922.5,372.5C 917.242,364.092 909.909,357.925 900.5,354C 876.857,346.12 852.857,339.453 828.5,334C 806.428,328.552 787.261,318.052 771,302.5C 764.92,295.006 760.42,286.673 757.5,277.5C 757.47,276.503 757.97,275.836 759,275.5C 762.426,277.204 765.926,278.704 769.5,280C 768.66,281.666 769.16,281.833 771,280.5C 772.501,283.1 774.501,284.1 777,283.5C 778.338,284.506 779.671,285.506 781,286.5C 782.903,286.306 784.737,286.306 786.5,286.5C 788.323,287.491 789.823,288.824 791,290.5C 791.333,289.833 791.667,289.167 792,288.5C 794.333,289.5 796,291.167 797,293.5C 799.173,290.723 799.673,290.89 798.5,294C 799.025,294.692 799.692,295.192 800.5,295.5C 802.622,295.623 804.789,295.623 807,295.5C 808.093,297.349 809.426,299.016 811,300.5C 813.632,297.808 815.966,298.141 818,301.5C 819.84,300.167 820.34,300.334 819.5,302C 820.362,304.734 821.195,304.901 822,302.5C 823.385,303.551 824.385,304.884 825,306.5C 827.064,305.409 829.231,305.242 831.5,306C 827.81,306.424 827.643,307.258 831,308.5C 833.585,307.115 835.585,307.782 837,310.5C 837.333,310.167 837.667,309.833 838,309.5C 838.419,310.672 839.085,311.672 840,312.5C 841.806,310.048 843.306,310.381 844.5,313.5C 845.716,312.998 846.883,312.665 848,312.5C 848.085,314.085 848.251,315.418 848.5,316.5C 851.353,316.523 853.853,316.19 856,315.5C 857.652,319.969 860.319,321.302 864,319.5C 864.465,320.931 865.299,322.097 866.5,323C 870.089,324.116 872.923,325.616 875,327.5C 876.84,326.167 877.34,326.334 876.5,328C 877.784,328.684 878.951,328.517 880,327.5C 881.085,328.293 882.252,328.96 883.5,329.5C 886.591,328.811 888.758,330.145 890,333.5C 893.525,332.499 896.358,333.666 898.5,337C 901.074,336.759 903.407,337.092 905.5,338C 904.72,339.073 904.887,340.24 906,341.5C 907.714,340.075 909.047,340.408 910,342.5C 910.333,341.833 910.667,341.167 911,340.5C 912,341.833 913,343.167 914,344.5C 914.725,342.842 915.892,342.342 917.5,343C 916.483,344.049 916.316,345.216 917,346.5C 917.333,345.833 917.667,345.167 918,344.5C 920.026,347.238 922.526,347.904 925.5,346.5C 926.216,348.482 927.383,350.149 929,351.5C 931.624,351.53 934.291,351.197 937,350.5C 937.167,350.833 937.333,351.167 937.5,351.5C 936.624,352.251 935.624,352.751 934.5,353C 935.931,353.465 937.097,354.299 938,355.5C 939.011,354.663 940.178,354.33 941.5,354.5C 941.351,355.552 941.517,356.552 942,357.5C 943,354.833 944,354.833 945,357.5C 946,357.167 947,356.833 948,356.5C 950.387,358.17 952.721,359.837 955,361.5C 956,360.833 957,360.167 958,359.5C 959.61,359.13 961.11,359.797 962.5,361.5C 963.107,361.376 963.44,361.043 963.5,360.5 Z"/></g>
<g><path style="opacity:0.447" fill="#64a7d0" d="M 1024.5,284.5 C 1033.64,284.703 1033.64,285.37 1024.5,286.5C 1024.5,285.833 1024.5,285.167 1024.5,284.5 Z"/></g>
<g><path style="opacity:0.255" fill="#accbe4" d="M 1017.5,294.5 C 1018.78,295.386 1018.78,296.386 1017.5,297.5C 1016.89,297.376 1016.56,297.043 1016.5,296.5C 1017.34,296.158 1017.67,295.492 1017.5,294.5 Z"/></g>
<g><path style="opacity:0.353" fill="#878787" d="M 305.5,327.5 C 305.56,326.957 305.893,326.624 306.5,326.5C 307.666,350.16 307.833,373.826 307,397.5C 305.955,396.627 305.122,395.627 304.5,394.5C 305.832,383.687 306.499,372.521 306.5,361C 306.5,349.662 306.167,338.495 305.5,327.5 Z"/></g>
<g><path style="opacity:0.353" fill="#878787" d="M 1208.5,327.5 C 1208.56,326.957 1208.89,326.624 1209.5,326.5C 1210.67,350.16 1210.83,373.826 1210,397.5C 1208.96,396.627 1208.12,395.627 1207.5,394.5C 1208.83,383.687 1209.5,372.521 1209.5,361C 1209.5,349.662 1209.17,338.495 1208.5,327.5 Z"/></g>
<g><path style="opacity:0.989" fill="#585858" d="M 305.5,327.5 C 306.167,338.495 306.5,349.662 306.5,361C 306.499,372.521 305.832,383.687 304.5,394.5C 295.664,380.17 283.33,370.003 267.5,364C 259.058,361.518 251.058,362.518 243.5,367C 238.798,371.922 237.298,377.755 239,384.5C 240.122,386.624 241.622,388.457 243.5,390C 257.943,395.592 272.61,400.592 287.5,405C 299.968,409.146 309.801,416.646 317,427.5C 317.5,394.835 317.667,362.168 317.5,329.5C 337.503,329.333 357.503,329.5 377.5,330C 371.28,339.615 364.947,349.115 358.5,358.5C 357.173,374.672 357.173,391.005 358.5,407.5C 359.107,407.376 359.44,407.043 359.5,406.5C 371.984,386.879 384.984,367.546 398.5,348.5C 394.574,342.975 390.907,337.309 387.5,331.5C 406.167,330.833 424.833,330.167 443.5,329.5C 470.175,329.167 496.842,329.5 523.5,330.5C 516.859,339.642 510.025,348.642 503,357.5C 502.5,399.832 502.333,442.165 502.5,484.5C 511.525,484.832 520.525,484.498 529.5,483.5C 540.769,461.963 551.769,440.296 562.5,418.5C 563.498,451.662 563.832,484.996 563.5,518.5C 527.832,518.333 492.165,518.5 456.5,519C 475.22,548.276 493.553,577.776 511.5,607.5C 510.798,608.116 509.798,608.116 508.5,607.5C 458.461,551.463 408.795,495.13 359.5,438.5C 359.44,437.957 359.107,437.624 358.5,437.5C 357.173,454.662 357.173,471.662 358.5,488.5C 364.934,497.849 371.267,507.349 377.5,517C 357.503,517.5 337.503,517.667 317.5,517.5C 317.666,509.16 317.5,500.827 317,492.5C 303.279,511.363 284.613,521.029 261,521.5C 242.777,520.927 226.61,514.927 212.5,503.5C 210.493,505.008 208.826,506.842 207.5,509C 209.291,511.414 210.957,513.914 212.5,516.5C 207.482,517.214 202.482,517.881 197.5,518.5C 176.21,517.678 154.876,517.178 133.5,517C 140.038,508.092 146.205,498.926 152,489.5C 150.836,476.008 148.503,462.675 145,449.5C 132.914,456.46 120.748,463.293 108.5,470C 107.272,470.779 106.272,471.779 105.5,473C 104.243,477.861 102.91,482.694 101.5,487.5C 107.585,497.338 113.918,507.004 120.5,516.5C 95.8333,517.833 71.1667,517.833 46.5,516.5C 52.6667,506.833 58.8333,497.167 65,487.5C 75.7559,444.976 86.5892,402.476 97.5,360C 91.6275,350.422 85.6275,340.922 79.5,331.5C 103.328,330.502 127.328,330.169 151.5,330.5C 165.397,384.425 180.064,438.092 195.5,491.5C 195.783,492.289 196.283,492.956 197,493.5C 197.168,474.995 197.668,456.662 198.5,438.5C 208.004,455.504 221.338,468.671 238.5,478C 250.232,483.766 261.899,483.766 273.5,478C 281.878,471.398 284.711,462.898 282,452.5C 280.939,449.438 279.106,446.938 276.5,445C 272.112,442.139 267.446,439.806 262.5,438C 246.711,434.294 231.711,428.628 217.5,421C 199.753,407.439 193.253,389.606 198,367.5C 202.416,350.084 212.916,337.917 229.5,331C 250.69,323.694 270.857,325.861 290,337.5C 295.122,334.027 300.288,330.694 305.5,327.5 Z M 448.5,338.5 C 452.978,344.767 457.478,351.1 462,357.5C 462.667,401.167 462.667,444.833 462,488.5C 457.75,494.665 453.75,500.998 450,507.5C 432.333,479.5 414.667,451.5 397,423.5C 396.163,419.705 396.496,416.039 398,412.5C 415.091,387.978 431.924,363.311 448.5,338.5 Z M 126.5,388.5 C 131.119,404.301 135.453,420.301 139.5,436.5C 130.853,437.665 122.186,437.832 113.5,437C 118.065,420.909 122.398,404.742 126.5,388.5 Z"/></g>
<g><path style="opacity:0.992" fill="#585858" d="M 1208.5,327.5 C 1209.17,338.495 1209.5,349.662 1209.5,361C 1209.5,372.521 1208.83,383.687 1207.5,394.5C 1198.66,380.17 1186.33,370.003 1170.5,364C 1162.06,361.518 1154.06,362.518 1146.5,367C 1141.8,371.922 1140.3,377.755 1142,384.5C 1143.12,386.624 1144.62,388.457 1146.5,390C 1160.94,395.592 1175.61,400.592 1190.5,405C 1215.77,414.499 1228.77,432.832 1229.5,460C 1225.22,498.941 1203.39,519.441 1164,521.5C 1145.78,520.927 1129.61,514.927 1115.5,503.5C 1111.17,508.494 1106.51,513.161 1101.5,517.5C 1100.85,503.597 1100.18,490.263 1099.5,477.5C 1069.13,517.674 1029.8,529.84 981.5,514C 950.669,500.343 931.336,477.177 923.5,444.5C 928.001,442.084 932.334,439.417 936.5,436.5C 945.783,431.55 953.116,424.55 958.5,415.5C 960.167,412.833 961.833,410.167 963.5,407.5C 957.439,439.203 968.439,462.703 996.5,478C 1029.51,488.072 1054.01,477.906 1070,447.5C 1080.81,415.606 1072.31,390.44 1044.5,372C 1009.39,358.645 983.057,368.478 965.5,401.5C 967.426,392.74 967.76,384.074 966.5,375.5C 966.579,370.169 965.579,365.169 963.5,360.5C 962.302,355.772 960.302,351.439 957.5,347.5C 988.82,325.575 1022.49,321.408 1058.5,335C 1075.75,343.246 1089.58,355.412 1100,371.5C 1108.69,339.884 1129.52,325.051 1162.5,327C 1173.45,328.315 1183.61,331.815 1193,337.5C 1198.12,334.027 1203.29,330.694 1208.5,327.5 Z M 1116.5,417.5 C 1121.43,421.977 1127.1,425.477 1133.5,428C 1144.07,431.643 1154.74,434.976 1165.5,438C 1170.45,439.806 1175.11,442.139 1179.5,445C 1182.11,446.938 1183.94,449.438 1185,452.5C 1187.35,470.993 1179.18,480.993 1160.5,482.5C 1140.12,479.893 1123.95,470.227 1112,453.5C 1113.27,446.951 1114.11,440.284 1114.5,433.5C 1115.17,428.167 1115.83,422.833 1116.5,417.5 Z"/></g>
<g><path style="opacity:0.263" fill="#9e9e9e" d="M 151.5,330.5 C 127.328,330.169 103.328,330.502 79.5,331.5C 78.9569,331.44 78.6236,331.107 78.5,330.5C 102.997,329.171 127.33,329.171 151.5,330.5 Z"/></g>
<g><path style="opacity:0.263" fill="#9f9f9f" d="M 443.5,329.5 C 424.833,330.167 406.167,330.833 387.5,331.5C 386.957,331.44 386.624,331.107 386.5,330.5C 405.488,329.5 424.488,329.167 443.5,329.5 Z"/></g>
<g><path style="opacity:0.982" fill="#575757" d="M 689.5,329.5 C 689.831,355.672 689.498,381.672 688.5,407.5C 679.391,392.551 670.058,377.718 660.5,363C 648.171,362.5 635.838,362.333 623.5,362.5C 623.333,378.17 623.5,393.837 624,409.5C 634.921,401.956 645.754,394.29 656.5,386.5C 657.666,406.825 657.833,427.158 657,447.5C 645.981,439.303 635.148,430.97 624.5,422.5C 624.44,421.957 624.107,421.624 623.5,421.5C 622.172,442.996 622.172,464.33 623.5,485.5C 635.838,485.667 648.171,485.5 660.5,485C 671.318,467.186 681.985,449.353 692.5,431.5C 693.498,460.329 693.831,489.329 693.5,518.5C 650.5,518.5 607.5,518.5 564.5,518.5C 564.833,517.833 565.167,517.167 565.5,516.5C 571.061,507.055 576.895,497.721 583,488.5C 583.667,444.833 583.667,401.167 583,357.5C 576.5,348.333 570,339.167 563.5,330C 605.499,329.5 647.499,329.333 689.5,329.5 Z"/></g>
<g><path style="opacity:0.153" fill="#bababa" d="M 689.5,329.5 C 690.829,355.67 690.829,382.003 689.5,408.5C 688.893,408.376 688.56,408.043 688.5,407.5C 689.498,381.672 689.831,355.672 689.5,329.5 Z"/></g>
<g><path style="opacity:0.985" fill="#575757" d="M 699.5,330.5 C 714.83,329.833 730.33,329.5 746,329.5C 763.866,329.384 781.699,329.884 799.5,331C 823.89,335.723 838.723,350.223 844,374.5C 847.55,414.578 829.383,437.078 789.5,442C 779.506,442.5 769.506,442.666 759.5,442.5C 759.333,457.837 759.5,473.17 760,488.5C 767.028,498.028 773.861,507.695 780.5,517.5C 753.506,518.667 726.506,518.833 699.5,518C 706.373,508.424 712.873,498.591 719,488.5C 719.667,444.833 719.667,401.167 719,357.5C 712.637,348.319 706.137,339.319 699.5,330.5 Z M 759.5,362.5 C 771.109,362.094 782.442,363.594 793.5,367C 805.13,375.813 807.296,386.647 800,399.5C 796.138,404.036 791.305,406.869 785.5,408C 776.849,408.832 768.183,409.332 759.5,409.5C 759.5,393.833 759.5,378.167 759.5,362.5 Z"/></g>
<g><path style="opacity:0.995" fill="#585959" d="M 866.5,353.5 C 874.991,354.719 883.158,357.053 891,360.5C 890.704,406.171 889.871,451.838 888.5,497.5C 888.167,500.167 887.833,502.833 887.5,505.5C 880.845,503.168 874.178,500.835 867.5,498.5C 865.341,460.541 864.341,422.541 864.5,384.5C 863.858,373.779 864.525,363.446 866.5,353.5 Z"/></g>
<g><path style="opacity:0.353" fill="#868686" d="M 358.5,358.5 C 358.17,374.675 358.504,390.675 359.5,406.5C 359.44,407.043 359.107,407.376 358.5,407.5C 357.173,391.005 357.173,374.672 358.5,358.5 Z"/></g>
<g><path style="opacity:0.412" fill="#73808a" d="M 866.5,353.5 C 864.525,363.446 863.858,373.779 864.5,384.5C 863.506,374.013 863.172,363.346 863.5,352.5C 864.791,352.263 865.791,352.596 866.5,353.5 Z"/></g>
<g><path style="opacity:0.997" fill="#149db2" d="M 966.5,375.5 C 967.76,384.074 967.426,392.74 965.5,401.5C 965.405,403.786 964.738,405.786 963.5,407.5C 961.833,410.167 960.167,412.833 958.5,415.5C 957.185,414.524 955.852,413.524 954.5,412.5C 953.833,412.833 953.167,413.167 952.5,413.5C 950.417,412.041 948.25,410.708 946,409.5C 945.667,409.833 945.333,410.167 945,410.5C 944.131,407.237 942.797,406.904 941,409.5C 936.489,407.165 932.489,404.831 929,402.5C 927.636,403.258 926.469,402.758 925.5,401C 924.551,400.383 923.718,400.549 923,401.5C 922.583,400.244 921.75,399.577 920.5,399.5C 924.897,390.795 925.564,381.795 922.5,372.5C 922.369,371.624 922.702,370.957 923.5,370.5C 925.422,371.711 927.255,373.044 929,374.5C 929.333,373.833 929.667,373.167 930,372.5C 930.687,374.555 931.854,376.221 933.5,377.5C 934.167,377.167 934.833,376.833 935.5,376.5C 936.541,378.991 937.374,378.991 938,376.5C 940.239,377.919 942.572,379.919 945,382.5C 945.333,382.167 945.667,381.833 946,381.5C 947.555,383.146 949.221,383.479 951,382.5C 952.049,384.107 953.549,384.773 955.5,384.5C 955.259,387.999 956.092,388.332 958,385.5C 960.305,387.716 962.972,389.383 966,390.5C 966.499,385.511 966.666,380.511 966.5,375.5 Z"/></g>
<g><path style="opacity:0.998" fill="#1c94a7" d="M 920.5,399.5 C 921.75,399.577 922.583,400.244 923,401.5C 923.718,400.549 924.551,400.383 925.5,401C 926.469,402.758 927.636,403.258 929,402.5C 932.489,404.831 936.489,407.165 941,409.5C 942.797,406.904 944.131,407.237 945,410.5C 945.333,410.167 945.667,409.833 946,409.5C 948.25,410.708 950.417,412.041 952.5,413.5C 953.167,413.167 953.833,412.833 954.5,412.5C 955.852,413.524 957.185,414.524 958.5,415.5C 953.116,424.55 945.783,431.55 936.5,436.5C 935.115,435.386 933.615,434.386 932,433.5C 930.434,434.061 929.101,433.394 928,431.5C 927.667,431.833 927.333,432.167 927,432.5C 925.601,431.773 924.101,431.273 922.5,431C 920.036,428.737 917.369,426.903 914.5,425.5C 913.137,424.802 911.971,424.802 911,425.5C 910.683,423.699 910.016,423.366 909,424.5C 907.108,423.87 905.441,422.87 904,421.5C 903.667,421.833 903.333,422.167 903,422.5C 901.908,420.069 900.741,420.069 899.5,422.5C 899.187,419.753 899.52,417.086 900.5,414.5C 908.365,410.951 915.032,405.951 920.5,399.5 Z"/></g>
<g><path style="opacity:0.314" fill="#919191" d="M 565.5,516.5 C 565.167,517.167 564.833,517.833 564.5,518.5C 564.167,518.5 563.833,518.5 563.5,518.5C 563.832,484.996 563.498,451.662 562.5,418.5C 562.783,417.711 563.283,417.044 564,416.5C 564.168,450.003 564.668,483.336 565.5,516.5 Z"/></g>
<g><path style="opacity:0.463" fill="#6b6b6b" d="M 624.5,422.5 C 623.503,443.327 623.169,464.327 623.5,485.5C 622.172,464.33 622.172,442.996 623.5,421.5C 624.107,421.624 624.44,421.957 624.5,422.5 Z"/></g>
<g><path style="opacity:0.382" fill="#a2a2a2" d="M 1116.5,417.5 C 1115.83,422.833 1115.17,428.167 1114.5,433.5C 1114.17,427.794 1114.5,422.128 1115.5,416.5C 1116.11,416.624 1116.44,416.957 1116.5,417.5 Z"/></g>
<g><path style="opacity:0.992" fill="#238d9e" d="M 936.5,436.5 C 932.334,439.417 928.001,442.084 923.5,444.5C 915.283,447.572 906.95,450.239 898.5,452.5C 899.166,442.514 899.499,432.514 899.5,422.5C 900.741,420.069 901.908,420.069 903,422.5C 903.333,422.167 903.667,421.833 904,421.5C 905.441,422.87 907.108,423.87 909,424.5C 910.016,423.366 910.683,423.699 911,425.5C 911.971,424.802 913.137,424.802 914.5,425.5C 917.369,426.903 920.036,428.737 922.5,431C 924.101,431.273 925.601,431.773 927,432.5C 927.333,432.167 927.667,431.833 928,431.5C 929.101,433.394 930.434,434.061 932,433.5C 933.615,434.386 935.115,435.386 936.5,436.5 Z"/></g>
<g><path style="opacity:0.486" fill="#676767" d="M 693.5,518.5 C 693.831,489.329 693.498,460.329 692.5,431.5C 692.461,430.244 692.961,429.244 694,428.5C 694.831,458.669 694.664,488.669 693.5,518.5 Z"/></g>
<g><path style="opacity:0.353" fill="#868686" d="M 359.5,438.5 C 358.503,454.992 358.17,471.658 358.5,488.5C 357.173,471.662 357.173,454.662 358.5,437.5C 359.107,437.624 359.44,437.957 359.5,438.5 Z"/></g>
<g><path style="opacity:0.992" fill="#30818e" d="M 855.5,466.5 C 855.5,463.833 855.5,461.167 855.5,458.5C 850.984,457.904 846.984,456.237 843.5,453.5C 842.914,453.709 842.414,454.043 842,454.5C 840.14,452.003 838.14,450.336 836,449.5C 835.667,449.833 835.333,450.167 835,450.5C 834.395,448.519 833.395,448.185 832,449.5C 829.027,447.496 826.194,446.163 823.5,445.5C 833.1,439.201 843.433,434.201 854.5,430.5C 856.003,437.57 856.67,444.737 856.5,452C 856.499,457.012 856.166,461.845 855.5,466.5 Z"/></g>
<g><path style="opacity:0.263" fill="#9f9f9f" d="M 198.5,438.5 C 197.668,456.662 197.168,474.995 197,493.5C 196.283,492.956 195.783,492.289 195.5,491.5C 196.167,473.662 196.833,455.662 197.5,437.5C 198.107,437.624 198.44,437.957 198.5,438.5 Z"/></g>
<g><path style="opacity:0.99" fill="#347b86" d="M 823.5,445.5 C 826.194,446.163 829.027,447.496 832,449.5C 833.395,448.185 834.395,448.519 835,450.5C 835.333,450.167 835.667,449.833 836,449.5C 838.14,450.336 840.14,452.003 842,454.5C 842.414,454.043 842.914,453.709 843.5,453.5C 846.984,456.237 850.984,457.904 855.5,458.5C 855.5,461.167 855.5,463.833 855.5,466.5C 852.167,467.833 848.833,469.167 845.5,470.5C 845.053,467.476 844.22,467.143 843,469.5C 842.085,468.672 841.419,467.672 841,466.5C 839.16,467.833 838.66,467.666 839.5,466C 837.101,465.269 834.935,464.102 833,462.5C 831.251,463.299 829.918,462.632 829,460.5C 828.667,461.167 828.333,461.833 828,462.5C 825.214,461.246 822.714,459.58 820.5,457.5C 818.223,457.985 816.056,457.319 814,455.5C 813.329,456.252 812.496,456.586 811.5,456.5C 814.874,452.124 818.874,448.458 823.5,445.5 Z"/></g>
<g><path style="opacity:0.99" fill="#397680" d="M 845.5,470.5 C 843.028,472.5 840.862,474.833 839,477.5C 837.711,480.351 837.211,483.351 837.5,486.5C 836.839,485.282 836.172,483.949 835.5,482.5C 833.082,481.543 830.916,480.209 829,478.5C 828.667,478.833 828.333,479.167 828,479.5C 823.752,476.748 819.752,474.414 816,472.5C 814.354,474.141 813.354,473.807 813,471.5C 811.127,472.089 809.46,471.422 808,469.5C 806.984,470.634 806.317,470.301 806,468.5C 805.617,469.056 805.117,469.389 804.5,469.5C 805.602,464.425 807.936,460.091 811.5,456.5C 812.496,456.586 813.329,456.252 814,455.5C 816.056,457.319 818.223,457.985 820.5,457.5C 822.714,459.58 825.214,461.246 828,462.5C 828.333,461.833 828.667,461.167 829,460.5C 829.918,462.632 831.251,463.299 833,462.5C 834.935,464.102 837.101,465.269 839.5,466C 838.66,467.666 839.16,467.833 841,466.5C 841.419,467.672 842.085,468.672 843,469.5C 844.22,467.143 845.053,467.476 845.5,470.5 Z"/></g>
<g><path style="opacity:0.994" fill="#3e727a" d="M 837.5,486.5 C 837.989,489.467 839.155,492.133 841,494.5C 844.969,497.889 849.136,500.889 853.5,503.5C 850.675,503.919 848.509,502.919 847,500.5C 846,500.833 845,501.167 844,501.5C 841.531,498.421 838.531,497.087 835,497.5C 832.737,495.288 830.07,493.622 827,492.5C 826.667,492.833 826.333,493.167 826,493.5C 823.515,491.481 820.848,489.815 818,488.5C 817.667,488.833 817.333,489.167 817,489.5C 816.121,486.654 814.454,485.987 812,487.5C 811.395,485.519 810.395,485.185 809,486.5C 807.796,485.529 807.296,484.529 807.5,483.5C 806.038,484.471 804.705,484.138 803.5,482.5C 802.534,484.396 802.201,486.396 802.5,488.5C 801.298,482.025 801.965,475.691 804.5,469.5C 805.117,469.389 805.617,469.056 806,468.5C 806.317,470.301 806.984,470.634 808,469.5C 809.46,471.422 811.127,472.089 813,471.5C 813.354,473.807 814.354,474.141 816,472.5C 819.752,474.414 823.752,476.748 828,479.5C 828.333,479.167 828.667,478.833 829,478.5C 830.916,480.209 833.082,481.543 835.5,482.5C 836.172,483.949 836.839,485.282 837.5,486.5 Z"/></g>
<g><path style="opacity:0.263" fill="#9d9d9d" d="M 1101.5,517.5 C 1101.44,518.043 1101.11,518.376 1100.5,518.5C 1099.5,504.85 1099.17,491.183 1099.5,477.5C 1100.18,490.263 1100.85,503.597 1101.5,517.5 Z"/></g>
<g><path style="opacity:0.996" fill="#426d74" d="M 853.5,503.5 C 866.921,507.696 880.255,512.196 893.5,517C 905.76,521.264 914.927,529.097 921,540.5C 922.712,546.595 922.878,552.595 921.5,558.5C 921.5,555.167 921.5,551.833 921.5,548.5C 915.518,546.402 910.018,544.068 905,541.5C 904.586,541.957 904.086,542.291 903.5,542.5C 902.332,540.199 900.832,538.866 899,538.5C 897.913,540.932 897.413,540.598 897.5,537.5C 893.186,536.591 889.02,535.258 885,533.5C 884.667,533.833 884.333,534.167 884,534.5C 883.517,533.552 883.351,532.552 883.5,531.5C 880.541,531.65 878.041,530.65 876,528.5C 875.667,528.833 875.333,529.167 875,529.5C 869.545,525.659 863.879,522.993 858,521.5C 857.667,521.833 857.333,522.167 857,522.5C 855.581,521.54 854.081,520.707 852.5,520C 852.833,519.667 853.167,519.333 853.5,519C 852.216,518.316 851.049,518.483 850,519.5C 848,517.833 846,516.167 844,514.5C 843.667,514.833 843.333,515.167 843,515.5C 841.184,513.559 839.184,512.892 837,513.5C 833.687,511.532 830.354,509.532 827,507.5C 824.246,508.122 821.913,507.122 820,504.5C 819.667,504.833 819.333,505.167 819,505.5C 816.588,502.208 813.421,501.041 809.5,502C 808.244,502.417 807.577,503.25 807.5,504.5C 804.251,499.748 802.584,494.415 802.5,488.5C 802.201,486.396 802.534,484.396 803.5,482.5C 804.705,484.138 806.038,484.471 807.5,483.5C 807.296,484.529 807.796,485.529 809,486.5C 810.395,485.185 811.395,485.519 812,487.5C 814.454,485.987 816.121,486.654 817,489.5C 817.333,489.167 817.667,488.833 818,488.5C 820.848,489.815 823.515,491.481 826,493.5C 826.333,493.167 826.667,492.833 827,492.5C 830.07,493.622 832.737,495.288 835,497.5C 838.531,497.087 841.531,498.421 844,501.5C 845,501.167 846,500.833 847,500.5C 848.509,502.919 850.675,503.919 853.5,503.5 Z"/></g>
<g><path style="opacity:0.979" fill="#46696f" d="M 921.5,558.5 C 920.958,561.912 919.625,564.912 917.5,567.5C 917.762,566.022 917.429,564.689 916.5,563.5C 910.085,561.831 904.085,559.331 898.5,556C 897.172,565.265 897.172,574.432 898.5,583.5C 898.44,584.043 898.107,584.376 897.5,584.5C 896.668,573.515 896.168,562.515 896,551.5C 895.215,549.714 894.049,548.214 892.5,547C 873.22,538.684 853.553,531.35 833.5,525C 822.686,520.775 814.019,513.942 807.5,504.5C 807.577,503.25 808.244,502.417 809.5,502C 813.421,501.041 816.588,502.208 819,505.5C 819.333,505.167 819.667,504.833 820,504.5C 821.913,507.122 824.246,508.122 827,507.5C 830.354,509.532 833.687,511.532 837,513.5C 839.184,512.892 841.184,513.559 843,515.5C 843.333,515.167 843.667,514.833 844,514.5C 846,516.167 848,517.833 850,519.5C 851.049,518.483 852.216,518.316 853.5,519C 853.167,519.333 852.833,519.667 852.5,520C 854.081,520.707 855.581,521.54 857,522.5C 857.333,522.167 857.667,521.833 858,521.5C 863.879,522.993 869.545,525.659 875,529.5C 875.333,529.167 875.667,528.833 876,528.5C 878.041,530.65 880.541,531.65 883.5,531.5C 883.351,532.552 883.517,533.552 884,534.5C 884.333,534.167 884.667,533.833 885,533.5C 889.02,535.258 893.186,536.591 897.5,537.5C 897.413,540.598 897.913,540.932 899,538.5C 900.832,538.866 902.332,540.199 903.5,542.5C 904.086,542.291 904.586,541.957 905,541.5C 910.018,544.068 915.518,546.402 921.5,548.5C 921.5,551.833 921.5,555.167 921.5,558.5 Z"/></g>
<g><path style="opacity:0.994" fill="#585a5b" d="M 870.5,547.5 C 876.326,548.609 881.826,550.609 887,553.5C 887.011,601.172 886.344,648.838 885,696.5C 884.995,701.681 883.495,706.348 880.5,710.5C 878.051,711.91 875.884,711.576 874,709.5C 872.438,707.043 871.438,704.376 871,701.5C 869.417,663.189 868.584,624.855 868.5,586.5C 867.852,573.124 868.519,560.124 870.5,547.5 Z"/></g>
<g><path style="opacity:0.51" fill="#6f7e89" d="M 870.5,547.5 C 868.519,560.124 867.852,573.124 868.5,586.5C 867.504,573.344 867.171,560.01 867.5,546.5C 868.791,546.263 869.791,546.596 870.5,547.5 Z"/></g>
<g><path style="opacity:0.974" fill="#4c6468" d="M 917.5,567.5 C 912.923,574.95 906.59,580.284 898.5,583.5C 897.172,574.432 897.172,565.265 898.5,556C 904.085,559.331 910.085,561.831 916.5,563.5C 917.429,564.689 917.762,566.022 917.5,567.5 Z"/></g>
<g><path style="opacity:0.949" fill="#565c5d" d="M 856.5,581.5 C 857.552,581.351 858.552,581.517 859.5,582C 859.719,588.714 859.386,595.547 858.5,602.5C 840.947,610.386 828.947,623.386 822.5,641.5C 819.85,620.968 826.516,604.135 842.5,591C 847.071,587.579 851.737,584.412 856.5,581.5 Z"/></g>
<g><path style="opacity:0.529" fill="#828282" d="M 508.5,607.5 C 509.798,608.116 510.798,608.116 511.5,607.5C 513.588,609.336 514.921,611.669 515.5,614.5C 512.833,612.5 510.5,610.167 508.5,607.5 Z"/></g>
<g><path style="opacity:0.314" fill="#919291" d="M 515.5,614.5 C 516.167,614.5 516.5,614.833 516.5,615.5C 516.167,615.167 515.833,614.833 515.5,614.5 Z"/></g>
<g><path style="opacity:0.024" fill="#d9dad9" d="M 516.5,615.5 C 517.833,616.167 517.833,616.167 516.5,615.5 Z"/></g>
</svg>
