<?xml version="1.0" standalone="no"?>
<!DOCTYPE svg PUBLIC "-//W3C//DTD SVG 20010904//EN"
 "http://www.w3.org/TR/2001/REC-SVG-20010904/DTD/svg10.dtd">
<svg version="1.0" xmlns="http://www.w3.org/2000/svg"
 width="512.000000pt" height="512.000000pt" viewBox="0 0 512.000000 512.000000"
 preserveAspectRatio="xMidYMid meet">

<g transform="translate(0.000000,512.000000) scale(0.100000,-0.100000)"
fill="#000000" stroke="none">
<path d="M1975 4626 c-247 -49 -460 -190 -597 -397 -253 -384 -170 -915 187
-1199 86 -67 227 -141 330 -171 102 -30 293 -36 409 -15 378 72 671 377 727
758 67 457 -223 892 -672 1009 -106 27 -285 34 -384 15z m347 -339 c197 -72
338 -228 384 -425 20 -86 14 -222 -15 -313 -53 -167 -197 -311 -369 -371 -97
-33 -277 -33 -374 0 -226 78 -381 281 -396 519 -6 108 10 189 60 293 73 152
211 265 380 310 99 27 235 22 330 -13z"/>
<path d="M1550 2499 c-387 -37 -678 -204 -869 -500 -139 -215 -212 -502 -198
-784 11 -230 76 -396 206 -526 59 -59 95 -85 161 -117 176 -86 229 -92 938
-92 570 0 594 1 631 20 81 41 110 146 62 224 -13 20 -40 45 -62 56 -37 19 -61
20 -626 20 -342 0 -615 4 -653 10 -39 6 -95 25 -140 48 -91 45 -140 104 -173
207 -19 62 -22 91 -22 255 1 181 1 187 33 280 93 278 309 484 589 562 75 21
100 22 603 26 343 2 568 0 648 -8 121 -11 125 -11 170 12 91 45 117 155 57
234 -37 48 -73 61 -201 74 -126 12 -1028 11 -1154 -1z"/>
<path d="M3557 2290 c-343 -62 -602 -293 -704 -627 -24 -79 -26 -104 -26 -238
0 -134 2 -159 26 -238 102 -333 361 -564 699 -623 182 -32 367 -2 543 86 l99
50 211 -209 c225 -223 234 -230 316 -216 56 10 114 68 124 124 14 82 7 91
-216 316 l-209 211 50 99 c88 176 118 361 86 543 -59 338 -293 601 -623 698
-97 28 -286 41 -376 24z m277 -335 c140 -37 281 -147 349 -272 34 -64 67 -190
67 -257 -1 -258 -187 -488 -438 -541 -92 -20 -155 -19 -246 5 -107 27 -169 63
-252 145 -112 111 -164 234 -164 390 0 249 165 464 406 530 67 18 208 18 278
0z"/>
</g>
</svg>
